%
M48
M72
T01C0.0140
T02C0.0315
T03C0.0400
T04C0.0472
T05C0.1260
%
T01
X11500Y7500
X12100Y8300
X13400Y7000
X16100Y15100
X16200Y16700
X14800Y16300
X13500Y16000
X6600Y23200
X3900Y21600
X2600Y21600
X3100Y17900
X3400Y17600
X3100Y17300
X3400Y17000
X3400Y16400
T02
X3250Y3350
T03
X8500Y4500
X8500Y5500
X9500Y5500
X9500Y4500
X10500Y4500
X10500Y5500
X11500Y5500
X11500Y4500
X12500Y4500
X12500Y5500
X13500Y5500
X13500Y4500
X18000Y4600
X18000Y3600
X19000Y3600
X19000Y4600
X19000Y5600
X19000Y6600
X19000Y7600
X19000Y8600
X18000Y8600
X18000Y7600
X18000Y6600
X18000Y5600
X16200Y9700
X16200Y10700
X15200Y10700
X15200Y9700
X14200Y9700
X14200Y10700
X13200Y10700
X13200Y9700
X18000Y12600
X18000Y13600
X18000Y14600
X18000Y15600
X18000Y16600
X18000Y17600
X19000Y17600
X19000Y16600
X19000Y15600
X19000Y14600
X19000Y13600
X19000Y12600
X18500Y20000
X18500Y21000
X17500Y21000
X17500Y20000
X19500Y20000
X19500Y21000
X20500Y21000
X20500Y20000
X21500Y20000
X21500Y21000
X22500Y21000
X22500Y20000
X13500Y20000
X13500Y21000
X12500Y21000
X12500Y20000
X11500Y20000
X11500Y21000
X10500Y21000
X10500Y20000
X9500Y20000
X9500Y21000
X8500Y21000
X8500Y20000
T04
X3250Y20750
T05
X21250Y2050
M30
