G75*
G70*
%OFA0B0*%
%FSLAX24Y24*%
%IPPOS*%
%LPD*%
%AMOC8*
5,1,8,0,0,1.08239X$1,22.5*
%
%ADD10R,0.0640X0.0640*%
%ADD11OC8,0.0640*%
%ADD12R,0.0880X0.0480*%
%ADD13R,0.0866X0.1417*%
%ADD14R,0.0394X0.0433*%
%ADD15R,0.0433X0.0394*%
%ADD16C,0.0100*%
%ADD17C,0.0320*%
%ADD18C,0.0400*%
%ADD19C,0.0340*%
%ADD20C,0.0080*%
D10*
X013200Y009700D03*
X013500Y005500D03*
X018000Y008600D03*
X018000Y017600D03*
X017500Y020000D03*
X008500Y020000D03*
D11*
X008500Y021000D03*
X009500Y021000D03*
X009500Y020000D03*
X010500Y020000D03*
X010500Y021000D03*
X011500Y021000D03*
X011500Y020000D03*
X012500Y020000D03*
X012500Y021000D03*
X013500Y021000D03*
X013500Y020000D03*
X017500Y021000D03*
X018500Y021000D03*
X018500Y020000D03*
X019500Y020000D03*
X019500Y021000D03*
X020500Y021000D03*
X020500Y020000D03*
X021500Y020000D03*
X021500Y021000D03*
X022500Y021000D03*
X022500Y020000D03*
X019000Y017600D03*
X019000Y016600D03*
X019000Y015600D03*
X019000Y014600D03*
X019000Y013600D03*
X019000Y012600D03*
X018000Y012600D03*
X018000Y013600D03*
X018000Y014600D03*
X018000Y015600D03*
X018000Y016600D03*
X016200Y010700D03*
X016200Y009700D03*
X015200Y009700D03*
X015200Y010700D03*
X014200Y010700D03*
X014200Y009700D03*
X013200Y010700D03*
X018000Y007600D03*
X018000Y006600D03*
X018000Y005600D03*
X018000Y004600D03*
X018000Y003600D03*
X019000Y003600D03*
X019000Y004600D03*
X019000Y005600D03*
X019000Y006600D03*
X019000Y007600D03*
X019000Y008600D03*
X013500Y004500D03*
X012500Y004500D03*
X012500Y005500D03*
X011500Y005500D03*
X011500Y004500D03*
X010500Y004500D03*
X010500Y005500D03*
X009500Y005500D03*
X009500Y004500D03*
X008500Y004500D03*
X008500Y005500D03*
D12*
X004420Y022290D03*
X004420Y023200D03*
X004420Y024110D03*
D13*
X001980Y023200D03*
D14*
X005600Y022835D03*
X005600Y022165D03*
X005600Y023565D03*
X005600Y024235D03*
X016900Y013435D03*
X016900Y012765D03*
X016900Y004435D03*
X016900Y003765D03*
D15*
X016035Y008600D03*
X015365Y008600D03*
X009335Y006600D03*
X008665Y006600D03*
X012665Y018900D03*
X013335Y018900D03*
X021665Y018900D03*
X022335Y018900D03*
D16*
X000720Y024780D02*
X000720Y000720D01*
X009657Y000720D01*
X008186Y002190D01*
X008130Y002326D01*
X008130Y004177D01*
X008010Y004297D01*
X008010Y004703D01*
X008130Y004823D01*
X008130Y005177D01*
X008010Y005297D01*
X008010Y005703D01*
X008130Y005823D01*
X008130Y006508D01*
X008186Y006644D01*
X008279Y006737D01*
X008279Y006867D01*
X008378Y006967D01*
X008584Y006967D01*
X008592Y006970D01*
X008739Y006970D01*
X008747Y006967D01*
X008952Y006967D01*
X009028Y006891D01*
X009038Y006901D01*
X009068Y006918D01*
X009101Y006927D01*
X009286Y006927D01*
X009286Y006648D01*
X009383Y006648D01*
X009681Y006648D01*
X009681Y006814D01*
X009672Y006847D01*
X009655Y006877D01*
X009631Y006901D01*
X009601Y006918D01*
X009568Y006927D01*
X009383Y006927D01*
X009383Y006648D01*
X009383Y006552D01*
X009681Y006552D01*
X009681Y006386D01*
X009672Y006353D01*
X009655Y006323D01*
X009631Y006299D01*
X009601Y006282D01*
X009568Y006273D01*
X009383Y006273D01*
X009383Y006552D01*
X009286Y006552D01*
X009286Y006273D01*
X009101Y006273D01*
X009068Y006282D01*
X009038Y006299D01*
X009028Y006309D01*
X008952Y006233D01*
X008870Y006233D01*
X008870Y005823D01*
X008990Y005703D01*
X008990Y005297D01*
X008870Y005177D01*
X008870Y004823D01*
X008990Y004703D01*
X008990Y004297D01*
X008870Y004177D01*
X008870Y002553D01*
X010153Y001270D01*
X021043Y001270D01*
X020797Y001372D01*
X020572Y001597D01*
X020450Y001891D01*
X020450Y002209D01*
X020572Y002503D01*
X020797Y002728D01*
X021091Y002850D01*
X021409Y002850D01*
X021703Y002728D01*
X021928Y002503D01*
X022050Y002209D01*
X022050Y001891D01*
X021967Y001690D01*
X022130Y001853D01*
X022130Y003230D01*
X019323Y003230D01*
X019203Y003110D01*
X018797Y003110D01*
X018677Y003230D01*
X018323Y003230D01*
X018203Y003110D01*
X017797Y003110D01*
X017677Y003230D01*
X017208Y003230D01*
X017177Y003223D01*
X017135Y003230D01*
X017092Y003230D01*
X017063Y003242D01*
X017032Y003247D01*
X016996Y003270D01*
X016956Y003286D01*
X016934Y003308D01*
X016821Y003379D01*
X016633Y003379D01*
X016533Y003478D01*
X016533Y003709D01*
X016523Y003753D01*
X016533Y003815D01*
X016533Y004052D01*
X016609Y004128D01*
X016599Y004138D01*
X016582Y004168D01*
X016573Y004201D01*
X016573Y004386D01*
X016852Y004386D01*
X016852Y004483D01*
X016852Y004781D01*
X016686Y004781D01*
X016653Y004772D01*
X016623Y004755D01*
X016599Y004731D01*
X016582Y004701D01*
X016573Y004668D01*
X016573Y004483D01*
X016852Y004483D01*
X016948Y004483D01*
X016948Y004781D01*
X017114Y004781D01*
X017147Y004772D01*
X017177Y004755D01*
X017201Y004731D01*
X017218Y004701D01*
X017227Y004668D01*
X017227Y004483D01*
X016948Y004483D01*
X016948Y004386D01*
X017227Y004386D01*
X017227Y004201D01*
X017218Y004168D01*
X017201Y004138D01*
X017191Y004128D01*
X017267Y004052D01*
X017267Y003973D01*
X017271Y003970D01*
X017677Y003970D01*
X017797Y004090D01*
X018203Y004090D01*
X018323Y003970D01*
X018677Y003970D01*
X018797Y004090D01*
X019203Y004090D01*
X019323Y003970D01*
X022130Y003970D01*
X022130Y010330D01*
X016570Y010330D01*
X016570Y010023D01*
X016690Y009903D01*
X016690Y009497D01*
X016570Y009377D01*
X016570Y008692D01*
X016514Y008556D01*
X016421Y008463D01*
X016421Y008333D01*
X016322Y008233D01*
X016116Y008233D01*
X016108Y008230D01*
X015961Y008230D01*
X015953Y008233D01*
X015748Y008233D01*
X015672Y008309D01*
X015662Y008299D01*
X015632Y008282D01*
X015599Y008273D01*
X015414Y008273D01*
X015414Y008552D01*
X015317Y008552D01*
X015019Y008552D01*
X015019Y008386D01*
X015028Y008353D01*
X015045Y008323D01*
X015069Y008299D01*
X015099Y008282D01*
X015132Y008273D01*
X015317Y008273D01*
X015317Y008552D01*
X015317Y008648D01*
X015019Y008648D01*
X015019Y008814D01*
X015028Y008847D01*
X015045Y008877D01*
X015069Y008901D01*
X015099Y008918D01*
X015132Y008927D01*
X015317Y008927D01*
X015317Y008648D01*
X015414Y008648D01*
X015414Y008927D01*
X015599Y008927D01*
X015632Y008918D01*
X015662Y008901D01*
X015672Y008891D01*
X015748Y008967D01*
X015830Y008967D01*
X015830Y009377D01*
X015710Y009497D01*
X015710Y009903D01*
X015830Y010023D01*
X015830Y010377D01*
X015710Y010497D01*
X015710Y010903D01*
X015997Y011190D01*
X016403Y011190D01*
X016523Y011070D01*
X022130Y011070D01*
X022130Y012230D01*
X019323Y012230D01*
X019203Y012110D01*
X018797Y012110D01*
X018677Y012230D01*
X018323Y012230D01*
X018203Y012110D01*
X017797Y012110D01*
X017677Y012230D01*
X016992Y012230D01*
X016856Y012286D01*
X016763Y012379D01*
X016633Y012379D01*
X016533Y012478D01*
X016533Y012684D01*
X016530Y012692D01*
X016530Y012839D01*
X016533Y012847D01*
X016533Y013052D01*
X016609Y013128D01*
X016599Y013138D01*
X016582Y013168D01*
X016573Y013201D01*
X016573Y013386D01*
X016852Y013386D01*
X016852Y013483D01*
X016852Y013781D01*
X016686Y013781D01*
X016653Y013772D01*
X016623Y013755D01*
X016599Y013731D01*
X016582Y013701D01*
X016573Y013668D01*
X016573Y013483D01*
X016852Y013483D01*
X016948Y013483D01*
X016948Y013781D01*
X017114Y013781D01*
X017147Y013772D01*
X017177Y013755D01*
X017201Y013731D01*
X017218Y013701D01*
X017227Y013668D01*
X017227Y013483D01*
X016948Y013483D01*
X016948Y013386D01*
X017227Y013386D01*
X017227Y013201D01*
X017218Y013168D01*
X017201Y013138D01*
X017191Y013128D01*
X017267Y013052D01*
X017267Y012970D01*
X017677Y012970D01*
X017797Y013090D01*
X018203Y013090D01*
X018323Y012970D01*
X018677Y012970D01*
X018797Y013090D01*
X019203Y013090D01*
X019323Y012970D01*
X022130Y012970D01*
X022130Y018533D01*
X022048Y018533D01*
X021972Y018609D01*
X021962Y018599D01*
X021932Y018582D01*
X021899Y018573D01*
X021714Y018573D01*
X021714Y018852D01*
X021617Y018852D01*
X021319Y018852D01*
X021319Y018686D01*
X021328Y018653D01*
X021345Y018623D01*
X021369Y018599D01*
X021399Y018582D01*
X021432Y018573D01*
X021617Y018573D01*
X021617Y018852D01*
X021617Y018948D01*
X021319Y018948D01*
X021319Y019114D01*
X021328Y019147D01*
X021345Y019177D01*
X021369Y019201D01*
X021399Y019218D01*
X021432Y019227D01*
X021617Y019227D01*
X021617Y018948D01*
X021714Y018948D01*
X021714Y019227D01*
X021899Y019227D01*
X021932Y019218D01*
X021962Y019201D01*
X021972Y019191D01*
X022048Y019267D01*
X022130Y019267D01*
X022130Y019677D01*
X022010Y019797D01*
X022010Y020203D01*
X022130Y020323D01*
X022130Y020677D01*
X022010Y020797D01*
X022010Y021203D01*
X022130Y021323D01*
X022130Y022847D01*
X021112Y023865D01*
X013870Y023865D01*
X013870Y021323D01*
X013990Y021203D01*
X013990Y020797D01*
X013870Y020677D01*
X013870Y020323D01*
X013990Y020203D01*
X013990Y019797D01*
X013870Y019677D01*
X013870Y018992D01*
X013814Y018856D01*
X013721Y018763D01*
X013721Y018633D01*
X013622Y018533D01*
X013416Y018533D01*
X013408Y018530D01*
X013261Y018530D01*
X013253Y018533D01*
X013048Y018533D01*
X012972Y018609D01*
X012962Y018599D01*
X012932Y018582D01*
X012899Y018573D01*
X012714Y018573D01*
X012714Y018852D01*
X012617Y018852D01*
X012319Y018852D01*
X012319Y018686D01*
X012328Y018653D01*
X012345Y018623D01*
X012369Y018599D01*
X012399Y018582D01*
X012432Y018573D01*
X012617Y018573D01*
X012617Y018852D01*
X012617Y018948D01*
X012319Y018948D01*
X012319Y019114D01*
X012328Y019147D01*
X012345Y019177D01*
X012369Y019201D01*
X012399Y019218D01*
X012432Y019227D01*
X012617Y019227D01*
X012617Y018948D01*
X012714Y018948D01*
X012714Y019227D01*
X012899Y019227D01*
X012932Y019218D01*
X012962Y019201D01*
X012972Y019191D01*
X013048Y019267D01*
X013130Y019267D01*
X013130Y019677D01*
X013010Y019797D01*
X013010Y020203D01*
X013130Y020323D01*
X013130Y020677D01*
X013010Y020797D01*
X013010Y021203D01*
X013130Y021323D01*
X013130Y023865D01*
X005898Y023865D01*
X005901Y023862D01*
X005918Y023832D01*
X005927Y023799D01*
X005927Y023614D01*
X005648Y023614D01*
X005648Y023517D01*
X005648Y023219D01*
X005814Y023219D01*
X005847Y023228D01*
X005877Y023245D01*
X005901Y023269D01*
X005918Y023299D01*
X005927Y023332D01*
X005927Y023517D01*
X005648Y023517D01*
X005552Y023517D01*
X005552Y023219D01*
X005386Y023219D01*
X005353Y023228D01*
X005323Y023245D01*
X005299Y023269D01*
X005282Y023299D01*
X005273Y023332D01*
X005273Y023517D01*
X005552Y023517D01*
X005552Y023614D01*
X005273Y023614D01*
X005273Y023740D01*
X004970Y023740D01*
X004930Y023700D01*
X003910Y023700D01*
X003810Y023800D01*
X003810Y024420D01*
X003910Y024520D01*
X004930Y024520D01*
X004970Y024480D01*
X005233Y024480D01*
X005233Y024522D01*
X005333Y024621D01*
X005867Y024621D01*
X005884Y024605D01*
X021339Y024605D01*
X021475Y024548D01*
X022710Y023314D01*
X022780Y023243D01*
X022780Y024780D01*
X000720Y024780D01*
X000720Y024731D02*
X022780Y024731D01*
X022780Y024633D02*
X000720Y024633D01*
X000720Y024534D02*
X005246Y024534D01*
X005273Y023648D02*
X002583Y023648D01*
X002583Y023746D02*
X003864Y023746D01*
X003810Y023845D02*
X002583Y023845D01*
X002583Y023943D02*
X003810Y023943D01*
X003810Y024042D02*
X002521Y024042D01*
X002483Y024079D02*
X001476Y024079D01*
X001377Y023979D01*
X001377Y022720D01*
X001209Y022720D01*
X001080Y022591D01*
X001080Y021309D01*
X001209Y021180D01*
X006191Y021180D01*
X006320Y021309D01*
X006320Y022591D01*
X006191Y022720D01*
X005927Y022720D01*
X005927Y022786D01*
X005648Y022786D01*
X005648Y022883D01*
X005552Y022883D01*
X005552Y023181D01*
X005386Y023181D01*
X005353Y023172D01*
X005323Y023155D01*
X004470Y023155D01*
X004470Y023150D02*
X004470Y023250D01*
X004370Y023250D01*
X004370Y023570D01*
X003963Y023570D01*
X003930Y023561D01*
X003900Y023544D01*
X003876Y023520D01*
X003859Y023490D01*
X003850Y023457D01*
X003850Y023250D01*
X004370Y023250D01*
X004370Y023150D01*
X004470Y023150D01*
X004990Y023150D01*
X004990Y022943D01*
X004981Y022910D01*
X004964Y022880D01*
X004940Y022856D01*
X004910Y022839D01*
X004877Y022830D01*
X004470Y022830D01*
X004470Y023150D01*
X004470Y023057D02*
X004370Y023057D01*
X004370Y023150D02*
X004370Y022830D01*
X003963Y022830D01*
X003930Y022839D01*
X003900Y022856D01*
X003876Y022880D01*
X003859Y022910D01*
X003850Y022943D01*
X003850Y023150D01*
X004370Y023150D01*
X004370Y023155D02*
X002583Y023155D01*
X002583Y023057D02*
X003850Y023057D01*
X003850Y022958D02*
X002583Y022958D01*
X002583Y022860D02*
X003897Y022860D01*
X003850Y022500D02*
X003850Y022340D01*
X004370Y022340D01*
X004370Y022240D01*
X004470Y022240D01*
X004470Y022340D01*
X004990Y022340D01*
X004990Y022500D01*
X005281Y022500D01*
X005309Y022472D01*
X005299Y022462D01*
X005282Y022432D01*
X005273Y022399D01*
X005273Y022214D01*
X005552Y022214D01*
X005552Y022117D01*
X005648Y022117D01*
X005648Y021819D01*
X005814Y021819D01*
X005847Y021828D01*
X005877Y021845D01*
X005901Y021869D01*
X005918Y021899D01*
X005927Y021932D01*
X005927Y022117D01*
X005648Y022117D01*
X005648Y022214D01*
X005927Y022214D01*
X005927Y022399D01*
X005918Y022432D01*
X005901Y022462D01*
X005891Y022472D01*
X005919Y022500D01*
X006100Y022500D01*
X006100Y021400D01*
X001300Y021400D01*
X001300Y022500D01*
X001377Y022500D01*
X001377Y022421D01*
X001476Y022321D01*
X002483Y022321D01*
X002583Y022421D01*
X002583Y022500D01*
X003850Y022500D01*
X003850Y022466D02*
X002583Y022466D01*
X002529Y022367D02*
X003850Y022367D01*
X003850Y022240D02*
X003850Y022033D01*
X003859Y022000D01*
X003876Y021970D01*
X003900Y021946D01*
X003930Y021929D01*
X003963Y021920D01*
X004370Y021920D01*
X004370Y022240D01*
X003850Y022240D01*
X003850Y022170D02*
X001300Y022170D01*
X001300Y022072D02*
X003850Y022072D01*
X003874Y021973D02*
X001300Y021973D01*
X001300Y021875D02*
X005296Y021875D01*
X005299Y021869D02*
X005323Y021845D01*
X005353Y021828D01*
X005386Y021819D01*
X005552Y021819D01*
X005552Y022117D01*
X005273Y022117D01*
X005273Y021932D01*
X005282Y021899D01*
X005299Y021869D01*
X005273Y021973D02*
X004966Y021973D01*
X004964Y021970D02*
X004981Y022000D01*
X004990Y022033D01*
X004990Y022240D01*
X004470Y022240D01*
X004470Y021920D01*
X004877Y021920D01*
X004910Y021929D01*
X004940Y021946D01*
X004964Y021970D01*
X004990Y022072D02*
X005273Y022072D01*
X005273Y022269D02*
X004470Y022269D01*
X004470Y022170D02*
X004370Y022170D01*
X004370Y022072D02*
X004470Y022072D01*
X004470Y021973D02*
X004370Y021973D01*
X004370Y022269D02*
X001300Y022269D01*
X001300Y022367D02*
X001431Y022367D01*
X001377Y022466D02*
X001300Y022466D01*
X001080Y022466D02*
X000720Y022466D01*
X000720Y022564D02*
X001080Y022564D01*
X001151Y022663D02*
X000720Y022663D01*
X000720Y022761D02*
X001377Y022761D01*
X001377Y022860D02*
X000720Y022860D01*
X000720Y022958D02*
X001377Y022958D01*
X001377Y023057D02*
X000720Y023057D01*
X000720Y023155D02*
X001377Y023155D01*
X001377Y023254D02*
X000720Y023254D01*
X000720Y023352D02*
X001377Y023352D01*
X001377Y023451D02*
X000720Y023451D01*
X000720Y023549D02*
X001377Y023549D01*
X001377Y023648D02*
X000720Y023648D01*
X000720Y023746D02*
X001377Y023746D01*
X001377Y023845D02*
X000720Y023845D01*
X000720Y023943D02*
X001377Y023943D01*
X001439Y024042D02*
X000720Y024042D01*
X000720Y024140D02*
X003810Y024140D01*
X003810Y024239D02*
X000720Y024239D01*
X000720Y024337D02*
X003810Y024337D01*
X003825Y024436D02*
X000720Y024436D01*
X002483Y024079D02*
X002583Y023979D01*
X002583Y022720D01*
X005273Y022720D01*
X005273Y022786D01*
X005552Y022786D01*
X005552Y022883D01*
X005273Y022883D01*
X005273Y023068D01*
X005282Y023101D01*
X005299Y023131D01*
X005323Y023155D01*
X005315Y023254D02*
X004990Y023254D01*
X004990Y023250D02*
X004990Y023457D01*
X004981Y023490D01*
X004964Y023520D01*
X004940Y023544D01*
X004910Y023561D01*
X004877Y023570D01*
X004470Y023570D01*
X004470Y023250D01*
X004990Y023250D01*
X004990Y023352D02*
X005273Y023352D01*
X005273Y023451D02*
X004990Y023451D01*
X004931Y023549D02*
X005552Y023549D01*
X005648Y023549D02*
X013130Y023549D01*
X013130Y023451D02*
X005927Y023451D01*
X005927Y023352D02*
X013130Y023352D01*
X013130Y023254D02*
X005885Y023254D01*
X005847Y023172D02*
X005814Y023181D01*
X005648Y023181D01*
X005648Y022883D01*
X005927Y022883D01*
X005927Y023068D01*
X005918Y023101D01*
X005901Y023131D01*
X005877Y023155D01*
X013130Y023155D01*
X013130Y023057D02*
X005927Y023057D01*
X005927Y022958D02*
X013130Y022958D01*
X013130Y022860D02*
X005648Y022860D01*
X005552Y022860D02*
X004943Y022860D01*
X004990Y022958D02*
X005273Y022958D01*
X005273Y023057D02*
X004990Y023057D01*
X005273Y022761D02*
X002583Y022761D01*
X002583Y023254D02*
X003850Y023254D01*
X003850Y023352D02*
X002583Y023352D01*
X002583Y023451D02*
X003850Y023451D01*
X003909Y023549D02*
X002583Y023549D01*
X004370Y023549D02*
X004470Y023549D01*
X004470Y023451D02*
X004370Y023451D01*
X004370Y023352D02*
X004470Y023352D01*
X004470Y023254D02*
X004370Y023254D01*
X004370Y022958D02*
X004470Y022958D01*
X004470Y022860D02*
X004370Y022860D01*
X004990Y022466D02*
X005303Y022466D01*
X005273Y022367D02*
X004990Y022367D01*
X004990Y022170D02*
X005552Y022170D01*
X005648Y022170D02*
X006100Y022170D01*
X006100Y022072D02*
X005927Y022072D01*
X005927Y021973D02*
X006100Y021973D01*
X006100Y021875D02*
X005904Y021875D01*
X006100Y021776D02*
X001300Y021776D01*
X001300Y021678D02*
X006100Y021678D01*
X006100Y021579D02*
X001300Y021579D01*
X001300Y021481D02*
X006100Y021481D01*
X006320Y021481D02*
X006884Y021481D01*
X006982Y021579D02*
X006320Y021579D01*
X006320Y021678D02*
X007081Y021678D01*
X007113Y021710D02*
X006990Y021587D01*
X003513Y018110D01*
X003371Y018110D01*
X003293Y018188D01*
X003168Y018240D01*
X003032Y018240D01*
X002907Y018188D01*
X002812Y018093D01*
X002760Y017968D01*
X002760Y017832D01*
X002812Y017707D01*
X002907Y017612D01*
X002936Y017600D01*
X002907Y017588D01*
X002812Y017493D01*
X002760Y017368D01*
X002760Y017232D01*
X002812Y017107D01*
X002890Y017029D01*
X002890Y016713D01*
X002990Y016613D01*
X003082Y016521D01*
X003060Y016468D01*
X003060Y016332D01*
X003112Y016207D01*
X003207Y016112D01*
X003332Y016060D01*
X003468Y016060D01*
X003593Y016112D01*
X003671Y016190D01*
X007987Y016190D01*
X011307Y019510D01*
X011703Y019510D01*
X011990Y019797D01*
X011990Y020203D01*
X011703Y020490D01*
X011297Y020490D01*
X011010Y020203D01*
X011010Y019807D01*
X007813Y016610D01*
X007407Y016610D01*
X010307Y019510D01*
X010703Y019510D01*
X010990Y019797D01*
X010990Y020203D01*
X010703Y020490D01*
X010297Y020490D01*
X010010Y020203D01*
X010010Y019807D01*
X007113Y016910D01*
X006707Y016910D01*
X009307Y019510D01*
X009703Y019510D01*
X009990Y019797D01*
X009990Y020203D01*
X009703Y020490D01*
X009297Y020490D01*
X009010Y020203D01*
X009010Y019807D01*
X008990Y019787D01*
X008990Y020390D01*
X008890Y020490D01*
X008287Y020490D01*
X008307Y020510D01*
X008703Y020510D01*
X008990Y020797D01*
X008990Y021203D01*
X008903Y021290D01*
X008913Y021290D01*
X009010Y021193D01*
X009010Y020797D01*
X009297Y020510D01*
X009703Y020510D01*
X009990Y020797D01*
X009990Y021203D01*
X009703Y021490D01*
X009307Y021490D01*
X009087Y021710D01*
X007113Y021710D01*
X006785Y021382D02*
X006320Y021382D01*
X006295Y021284D02*
X006687Y021284D01*
X006588Y021185D02*
X006196Y021185D01*
X006391Y020988D02*
X003586Y020988D01*
X003594Y020980D02*
X003480Y021094D01*
X003331Y021156D01*
X003169Y021156D01*
X003020Y021094D01*
X002906Y020980D01*
X002844Y020831D01*
X002844Y020669D01*
X002906Y020520D01*
X003020Y020406D01*
X003169Y020344D01*
X003331Y020344D01*
X003480Y020406D01*
X003594Y020520D01*
X003656Y020669D01*
X003656Y020831D01*
X003594Y020980D01*
X003632Y020890D02*
X006293Y020890D01*
X006194Y020791D02*
X003656Y020791D01*
X003656Y020693D02*
X006096Y020693D01*
X005997Y020594D02*
X003625Y020594D01*
X003570Y020496D02*
X005899Y020496D01*
X005800Y020397D02*
X003459Y020397D01*
X003041Y020397D02*
X000720Y020397D01*
X000720Y020299D02*
X005702Y020299D01*
X005603Y020200D02*
X000720Y020200D01*
X000720Y020102D02*
X005505Y020102D01*
X005406Y020003D02*
X000720Y020003D01*
X000720Y019905D02*
X005308Y019905D01*
X005209Y019806D02*
X000720Y019806D01*
X000720Y019708D02*
X005111Y019708D01*
X005012Y019609D02*
X000720Y019609D01*
X000720Y019511D02*
X004914Y019511D01*
X004815Y019412D02*
X000720Y019412D01*
X000720Y019314D02*
X004717Y019314D01*
X004618Y019215D02*
X000720Y019215D01*
X000720Y019117D02*
X004520Y019117D01*
X004421Y019018D02*
X000720Y019018D01*
X000720Y018920D02*
X004323Y018920D01*
X004224Y018821D02*
X000720Y018821D01*
X000720Y018723D02*
X004126Y018723D01*
X004027Y018624D02*
X000720Y018624D01*
X000720Y018526D02*
X003929Y018526D01*
X003830Y018427D02*
X000720Y018427D01*
X000720Y018329D02*
X003732Y018329D01*
X003633Y018230D02*
X003192Y018230D01*
X003008Y018230D02*
X000720Y018230D01*
X000720Y018132D02*
X002851Y018132D01*
X002787Y018033D02*
X000720Y018033D01*
X000720Y017935D02*
X002760Y017935D01*
X002760Y017836D02*
X000720Y017836D01*
X000720Y017738D02*
X002799Y017738D01*
X002880Y017639D02*
X000720Y017639D01*
X000720Y017541D02*
X002860Y017541D01*
X002791Y017442D02*
X000720Y017442D01*
X000720Y017344D02*
X002760Y017344D01*
X002760Y017245D02*
X000720Y017245D01*
X000720Y017147D02*
X002796Y017147D01*
X002871Y017048D02*
X000720Y017048D01*
X000720Y016950D02*
X002890Y016950D01*
X002890Y016851D02*
X000720Y016851D01*
X000720Y016753D02*
X002890Y016753D01*
X002949Y016654D02*
X000720Y016654D01*
X000720Y016556D02*
X003047Y016556D01*
X003060Y016457D02*
X000720Y016457D01*
X000720Y016359D02*
X003060Y016359D01*
X003090Y016260D02*
X000720Y016260D01*
X000720Y016162D02*
X003158Y016162D01*
X003325Y016063D02*
X000720Y016063D01*
X000720Y015965D02*
X013160Y015965D01*
X013160Y015932D02*
X013212Y015807D01*
X013307Y015712D01*
X013432Y015660D01*
X013568Y015660D01*
X013693Y015712D01*
X013788Y015807D01*
X013840Y015932D01*
X013840Y016043D01*
X017307Y019510D01*
X017713Y019510D01*
X014843Y016640D01*
X014732Y016640D01*
X014607Y016588D01*
X014512Y016493D01*
X014460Y016368D01*
X014460Y016232D01*
X014512Y016107D01*
X014607Y016012D01*
X014732Y015960D01*
X014868Y015960D01*
X014993Y016012D01*
X015088Y016107D01*
X015140Y016232D01*
X015140Y016343D01*
X018307Y019510D01*
X018703Y019510D01*
X018990Y019797D01*
X018990Y020203D01*
X018703Y020490D01*
X018297Y020490D01*
X018010Y020203D01*
X018010Y019807D01*
X017990Y019787D01*
X017990Y020390D01*
X017890Y020490D01*
X017110Y020490D01*
X017010Y020390D01*
X017010Y019807D01*
X013543Y016340D01*
X013432Y016340D01*
X013307Y016288D01*
X013212Y016193D01*
X013160Y016068D01*
X013160Y015932D01*
X013187Y015866D02*
X000720Y015866D01*
X000720Y015768D02*
X013252Y015768D01*
X013411Y015669D02*
X000720Y015669D01*
X000720Y015571D02*
X015880Y015571D01*
X015880Y015591D02*
X015880Y015361D01*
X015812Y015293D01*
X015760Y015168D01*
X015760Y015032D01*
X015812Y014907D01*
X015907Y014812D01*
X016032Y014760D01*
X016168Y014760D01*
X016293Y014812D01*
X016388Y014907D01*
X016440Y015032D01*
X016440Y015168D01*
X016388Y015293D01*
X016320Y015361D01*
X016320Y015409D01*
X017291Y016380D01*
X017527Y016380D01*
X017797Y016110D01*
X018203Y016110D01*
X018490Y016397D01*
X018490Y016803D01*
X018203Y017090D01*
X017797Y017090D01*
X017527Y016820D01*
X017109Y016820D01*
X016980Y016691D01*
X015880Y015591D01*
X015958Y015669D02*
X013589Y015669D01*
X013748Y015768D02*
X016056Y015768D01*
X016155Y015866D02*
X013813Y015866D01*
X013840Y015965D02*
X014721Y015965D01*
X014879Y015965D02*
X016253Y015965D01*
X016352Y016063D02*
X015044Y016063D01*
X015111Y016162D02*
X016450Y016162D01*
X016549Y016260D02*
X015140Y016260D01*
X015156Y016359D02*
X016647Y016359D01*
X016746Y016457D02*
X016438Y016457D01*
X016393Y016412D02*
X016488Y016507D01*
X016540Y016632D01*
X016540Y016743D01*
X017510Y017713D01*
X017510Y017210D01*
X017610Y017110D01*
X018390Y017110D01*
X018490Y017210D01*
X018490Y017990D01*
X018390Y018090D01*
X017887Y018090D01*
X019307Y019510D01*
X019703Y019510D01*
X019990Y019797D01*
X019990Y020203D01*
X019703Y020490D01*
X019297Y020490D01*
X019010Y020203D01*
X019010Y019807D01*
X016243Y017040D01*
X016132Y017040D01*
X016007Y016988D01*
X015912Y016893D01*
X015860Y016768D01*
X015860Y016632D01*
X015912Y016507D01*
X016007Y016412D01*
X016132Y016360D01*
X016268Y016360D01*
X016393Y016412D01*
X016508Y016556D02*
X016844Y016556D01*
X016943Y016654D02*
X016540Y016654D01*
X016550Y016753D02*
X017041Y016753D01*
X017200Y016600D02*
X018000Y016600D01*
X017657Y016950D02*
X016747Y016950D01*
X016845Y017048D02*
X017755Y017048D01*
X017573Y017147D02*
X016944Y017147D01*
X017042Y017245D02*
X017510Y017245D01*
X017510Y017344D02*
X017141Y017344D01*
X017239Y017442D02*
X017510Y017442D01*
X017510Y017541D02*
X017338Y017541D01*
X017436Y017639D02*
X017510Y017639D01*
X017138Y017935D02*
X016732Y017935D01*
X016830Y018033D02*
X017236Y018033D01*
X017335Y018132D02*
X016929Y018132D01*
X017027Y018230D02*
X017433Y018230D01*
X017532Y018329D02*
X017126Y018329D01*
X017224Y018427D02*
X017630Y018427D01*
X017729Y018526D02*
X017323Y018526D01*
X017421Y018624D02*
X017827Y018624D01*
X017926Y018723D02*
X017520Y018723D01*
X017618Y018821D02*
X018024Y018821D01*
X018123Y018920D02*
X017717Y018920D01*
X017815Y019018D02*
X018221Y019018D01*
X018320Y019117D02*
X017914Y019117D01*
X018012Y019215D02*
X018418Y019215D01*
X018517Y019314D02*
X018111Y019314D01*
X018209Y019412D02*
X018615Y019412D01*
X018704Y019511D02*
X018714Y019511D01*
X018802Y019609D02*
X018812Y019609D01*
X018901Y019708D02*
X018911Y019708D01*
X018990Y019806D02*
X019009Y019806D01*
X019010Y019905D02*
X018990Y019905D01*
X018990Y020003D02*
X019010Y020003D01*
X019010Y020102D02*
X018990Y020102D01*
X018990Y020200D02*
X019010Y020200D01*
X019106Y020299D02*
X018894Y020299D01*
X018796Y020397D02*
X019204Y020397D01*
X019297Y020510D02*
X019010Y020797D01*
X019010Y021203D01*
X019297Y021490D01*
X019703Y021490D01*
X019990Y021203D01*
X019990Y020797D01*
X019703Y020510D01*
X019297Y020510D01*
X019213Y020594D02*
X018787Y020594D01*
X018703Y020510D02*
X018990Y020797D01*
X018990Y021203D01*
X018703Y021490D01*
X018297Y021490D01*
X018010Y021203D01*
X018010Y020797D01*
X018297Y020510D01*
X018703Y020510D01*
X018886Y020693D02*
X019114Y020693D01*
X019016Y020791D02*
X018984Y020791D01*
X018990Y020890D02*
X019010Y020890D01*
X019010Y020988D02*
X018990Y020988D01*
X018990Y021087D02*
X019010Y021087D01*
X019010Y021185D02*
X018990Y021185D01*
X018909Y021284D02*
X019091Y021284D01*
X019189Y021382D02*
X018811Y021382D01*
X018712Y021481D02*
X019288Y021481D01*
X019712Y021481D02*
X020288Y021481D01*
X020297Y021490D02*
X020010Y021203D01*
X020010Y020797D01*
X020297Y020510D01*
X020703Y020510D01*
X020990Y020797D01*
X020990Y021203D01*
X020703Y021490D01*
X020297Y021490D01*
X020189Y021382D02*
X019811Y021382D01*
X019909Y021284D02*
X020091Y021284D01*
X020010Y021185D02*
X019990Y021185D01*
X019990Y021087D02*
X020010Y021087D01*
X020010Y020988D02*
X019990Y020988D01*
X019990Y020890D02*
X020010Y020890D01*
X020016Y020791D02*
X019984Y020791D01*
X019886Y020693D02*
X020114Y020693D01*
X020213Y020594D02*
X019787Y020594D01*
X019796Y020397D02*
X020204Y020397D01*
X020297Y020490D02*
X020010Y020203D01*
X020010Y019797D01*
X020297Y019510D01*
X020703Y019510D01*
X020990Y019797D01*
X020990Y020203D01*
X020703Y020490D01*
X020297Y020490D01*
X020106Y020299D02*
X019894Y020299D01*
X019990Y020200D02*
X020010Y020200D01*
X020010Y020102D02*
X019990Y020102D01*
X019990Y020003D02*
X020010Y020003D01*
X020010Y019905D02*
X019990Y019905D01*
X019990Y019806D02*
X020010Y019806D01*
X020099Y019708D02*
X019901Y019708D01*
X019802Y019609D02*
X020198Y019609D01*
X020296Y019511D02*
X019704Y019511D01*
X019209Y019412D02*
X022130Y019412D01*
X022130Y019314D02*
X019111Y019314D01*
X019012Y019215D02*
X021394Y019215D01*
X021320Y019117D02*
X018914Y019117D01*
X018815Y019018D02*
X021319Y019018D01*
X021319Y018821D02*
X018618Y018821D01*
X018520Y018723D02*
X021319Y018723D01*
X021344Y018624D02*
X018421Y018624D01*
X018323Y018526D02*
X022130Y018526D01*
X022130Y018427D02*
X018224Y018427D01*
X018126Y018329D02*
X022130Y018329D01*
X022130Y018230D02*
X018027Y018230D01*
X017929Y018132D02*
X022130Y018132D01*
X022130Y018033D02*
X019260Y018033D01*
X019203Y018090D02*
X019490Y017803D01*
X019490Y017397D01*
X019203Y017110D01*
X018797Y017110D01*
X018510Y017397D01*
X018510Y017803D01*
X018797Y018090D01*
X019203Y018090D01*
X019358Y017935D02*
X022130Y017935D01*
X022130Y017836D02*
X019457Y017836D01*
X019490Y017738D02*
X022130Y017738D01*
X022130Y017639D02*
X019490Y017639D01*
X019490Y017541D02*
X022130Y017541D01*
X022130Y017442D02*
X019490Y017442D01*
X019437Y017344D02*
X022130Y017344D01*
X022130Y017245D02*
X019338Y017245D01*
X019240Y017147D02*
X022130Y017147D01*
X022130Y017048D02*
X019245Y017048D01*
X019203Y017090D02*
X019490Y016803D01*
X019490Y016397D01*
X019203Y016110D01*
X018797Y016110D01*
X018510Y016397D01*
X018510Y016803D01*
X018797Y017090D01*
X019203Y017090D01*
X019343Y016950D02*
X022130Y016950D01*
X022130Y016851D02*
X019442Y016851D01*
X019490Y016753D02*
X022130Y016753D01*
X022130Y016654D02*
X019490Y016654D01*
X019490Y016556D02*
X022130Y016556D01*
X022130Y016457D02*
X019490Y016457D01*
X019452Y016359D02*
X022130Y016359D01*
X022130Y016260D02*
X019353Y016260D01*
X019255Y016162D02*
X022130Y016162D01*
X022130Y016063D02*
X019230Y016063D01*
X019203Y016090D02*
X019490Y015803D01*
X019490Y015397D01*
X019203Y015110D01*
X018797Y015110D01*
X018510Y015397D01*
X018510Y015803D01*
X018797Y016090D01*
X019203Y016090D01*
X019328Y015965D02*
X022130Y015965D01*
X022130Y015866D02*
X019427Y015866D01*
X019490Y015768D02*
X022130Y015768D01*
X022130Y015669D02*
X019490Y015669D01*
X019490Y015571D02*
X022130Y015571D01*
X022130Y015472D02*
X019490Y015472D01*
X019467Y015374D02*
X022130Y015374D01*
X022130Y015275D02*
X019368Y015275D01*
X019270Y015177D02*
X022130Y015177D01*
X022130Y015078D02*
X019215Y015078D01*
X019203Y015090D02*
X018797Y015090D01*
X018510Y014803D01*
X018510Y014397D01*
X018797Y014110D01*
X019203Y014110D01*
X019490Y014397D01*
X019490Y014803D01*
X019203Y015090D01*
X019313Y014980D02*
X022130Y014980D01*
X022130Y014881D02*
X019412Y014881D01*
X019490Y014783D02*
X022130Y014783D01*
X022130Y014684D02*
X019490Y014684D01*
X019490Y014586D02*
X022130Y014586D01*
X022130Y014487D02*
X019490Y014487D01*
X019481Y014389D02*
X022130Y014389D01*
X022130Y014290D02*
X019383Y014290D01*
X019284Y014192D02*
X022130Y014192D01*
X022130Y014093D02*
X000720Y014093D01*
X000720Y013995D02*
X017758Y013995D01*
X017814Y014050D02*
X017550Y013786D01*
X017550Y013650D01*
X017950Y013650D01*
X017950Y014050D01*
X017814Y014050D01*
X017797Y014110D02*
X018203Y014110D01*
X018490Y014397D01*
X018490Y014803D01*
X018203Y015090D01*
X017797Y015090D01*
X017510Y014803D01*
X017510Y014397D01*
X017797Y014110D01*
X017716Y014192D02*
X000720Y014192D01*
X000720Y014290D02*
X017617Y014290D01*
X017519Y014389D02*
X000720Y014389D01*
X000720Y014487D02*
X017510Y014487D01*
X017510Y014586D02*
X000720Y014586D01*
X000720Y014684D02*
X017510Y014684D01*
X017510Y014783D02*
X016222Y014783D01*
X016362Y014881D02*
X017588Y014881D01*
X017687Y014980D02*
X016418Y014980D01*
X016440Y015078D02*
X017785Y015078D01*
X017797Y015110D02*
X018203Y015110D01*
X018490Y015397D01*
X018490Y015803D01*
X018203Y016090D01*
X017797Y016090D01*
X017510Y015803D01*
X017510Y015397D01*
X017797Y015110D01*
X017730Y015177D02*
X016436Y015177D01*
X016396Y015275D02*
X017632Y015275D01*
X017533Y015374D02*
X016320Y015374D01*
X016383Y015472D02*
X017510Y015472D01*
X017510Y015571D02*
X016482Y015571D01*
X016580Y015669D02*
X017510Y015669D01*
X017510Y015768D02*
X016679Y015768D01*
X016777Y015866D02*
X017573Y015866D01*
X017672Y015965D02*
X016876Y015965D01*
X016974Y016063D02*
X017770Y016063D01*
X017745Y016162D02*
X017073Y016162D01*
X017171Y016260D02*
X017647Y016260D01*
X017548Y016359D02*
X017270Y016359D01*
X017200Y016600D02*
X016100Y015500D01*
X016100Y015100D01*
X015782Y014980D02*
X000720Y014980D01*
X000720Y015078D02*
X015760Y015078D01*
X015764Y015177D02*
X000720Y015177D01*
X000720Y015275D02*
X015804Y015275D01*
X015880Y015374D02*
X000720Y015374D01*
X000720Y015472D02*
X015880Y015472D01*
X015838Y014881D02*
X000720Y014881D01*
X000720Y014783D02*
X015978Y014783D01*
X016581Y013699D02*
X000720Y013699D01*
X000720Y013601D02*
X016573Y013601D01*
X016573Y013502D02*
X000720Y013502D01*
X000720Y013404D02*
X016852Y013404D01*
X016948Y013404D02*
X017560Y013404D01*
X017550Y013414D02*
X017814Y013150D01*
X017950Y013150D01*
X017950Y013550D01*
X017550Y013550D01*
X017550Y013414D01*
X017550Y013502D02*
X017227Y013502D01*
X017227Y013601D02*
X017950Y013601D01*
X017950Y013650D02*
X017950Y013550D01*
X018050Y013550D01*
X018050Y013650D01*
X017950Y013650D01*
X017950Y013699D02*
X018050Y013699D01*
X018050Y013650D02*
X018050Y014050D01*
X018186Y014050D01*
X018450Y013786D01*
X018450Y013650D01*
X018050Y013650D01*
X018050Y013601D02*
X018950Y013601D01*
X018950Y013650D02*
X018950Y013550D01*
X018550Y013550D01*
X018550Y013414D01*
X018814Y013150D01*
X018950Y013150D01*
X018950Y013550D01*
X019050Y013550D01*
X019050Y013650D01*
X018950Y013650D01*
X018950Y014050D01*
X018814Y014050D01*
X018550Y013786D01*
X018550Y013650D01*
X018950Y013650D01*
X018950Y013699D02*
X019050Y013699D01*
X019050Y013650D02*
X019050Y014050D01*
X019186Y014050D01*
X019450Y013786D01*
X019450Y013650D01*
X019050Y013650D01*
X019050Y013601D02*
X022130Y013601D01*
X022130Y013699D02*
X019450Y013699D01*
X019439Y013798D02*
X022130Y013798D01*
X022130Y013896D02*
X019340Y013896D01*
X019242Y013995D02*
X022130Y013995D01*
X022130Y013502D02*
X019450Y013502D01*
X019450Y013550D02*
X019050Y013550D01*
X019050Y013150D01*
X019186Y013150D01*
X019450Y013414D01*
X019450Y013550D01*
X019440Y013404D02*
X022130Y013404D01*
X022130Y013305D02*
X019341Y013305D01*
X019243Y013207D02*
X022130Y013207D01*
X022130Y013108D02*
X017211Y013108D01*
X017227Y013207D02*
X017757Y013207D01*
X017659Y013305D02*
X017227Y013305D01*
X017267Y013010D02*
X017717Y013010D01*
X017950Y013207D02*
X018050Y013207D01*
X018050Y013150D02*
X018186Y013150D01*
X018450Y013414D01*
X018450Y013550D01*
X018050Y013550D01*
X018050Y013150D01*
X018050Y013305D02*
X017950Y013305D01*
X017950Y013404D02*
X018050Y013404D01*
X018050Y013502D02*
X017950Y013502D01*
X017950Y013798D02*
X018050Y013798D01*
X018050Y013896D02*
X017950Y013896D01*
X017950Y013995D02*
X018050Y013995D01*
X018242Y013995D02*
X018758Y013995D01*
X018660Y013896D02*
X018340Y013896D01*
X018439Y013798D02*
X018561Y013798D01*
X018550Y013699D02*
X018450Y013699D01*
X018450Y013502D02*
X018550Y013502D01*
X018560Y013404D02*
X018440Y013404D01*
X018341Y013305D02*
X018659Y013305D01*
X018757Y013207D02*
X018243Y013207D01*
X018283Y013010D02*
X018717Y013010D01*
X018950Y013207D02*
X019050Y013207D01*
X019050Y013305D02*
X018950Y013305D01*
X018950Y013404D02*
X019050Y013404D01*
X019050Y013502D02*
X018950Y013502D01*
X018950Y013798D02*
X019050Y013798D01*
X019050Y013896D02*
X018950Y013896D01*
X018950Y013995D02*
X019050Y013995D01*
X018716Y014192D02*
X018284Y014192D01*
X018383Y014290D02*
X018617Y014290D01*
X018519Y014389D02*
X018481Y014389D01*
X018490Y014487D02*
X018510Y014487D01*
X018510Y014586D02*
X018490Y014586D01*
X018490Y014684D02*
X018510Y014684D01*
X018510Y014783D02*
X018490Y014783D01*
X018412Y014881D02*
X018588Y014881D01*
X018687Y014980D02*
X018313Y014980D01*
X018215Y015078D02*
X018785Y015078D01*
X018730Y015177D02*
X018270Y015177D01*
X018368Y015275D02*
X018632Y015275D01*
X018533Y015374D02*
X018467Y015374D01*
X018490Y015472D02*
X018510Y015472D01*
X018510Y015571D02*
X018490Y015571D01*
X018490Y015669D02*
X018510Y015669D01*
X018510Y015768D02*
X018490Y015768D01*
X018427Y015866D02*
X018573Y015866D01*
X018672Y015965D02*
X018328Y015965D01*
X018230Y016063D02*
X018770Y016063D01*
X018745Y016162D02*
X018255Y016162D01*
X018353Y016260D02*
X018647Y016260D01*
X018548Y016359D02*
X018452Y016359D01*
X018490Y016457D02*
X018510Y016457D01*
X018510Y016556D02*
X018490Y016556D01*
X018490Y016654D02*
X018510Y016654D01*
X018510Y016753D02*
X018490Y016753D01*
X018442Y016851D02*
X018558Y016851D01*
X018657Y016950D02*
X018343Y016950D01*
X018245Y017048D02*
X018755Y017048D01*
X018760Y017147D02*
X018427Y017147D01*
X018490Y017245D02*
X018662Y017245D01*
X018563Y017344D02*
X018490Y017344D01*
X018490Y017442D02*
X018510Y017442D01*
X018510Y017541D02*
X018490Y017541D01*
X018490Y017639D02*
X018510Y017639D01*
X018510Y017738D02*
X018490Y017738D01*
X018490Y017836D02*
X018543Y017836D01*
X018490Y017935D02*
X018642Y017935D01*
X018740Y018033D02*
X018447Y018033D01*
X018717Y018920D02*
X021617Y018920D01*
X021617Y019018D02*
X021714Y019018D01*
X021714Y019117D02*
X021617Y019117D01*
X021617Y019215D02*
X021714Y019215D01*
X021937Y019215D02*
X021996Y019215D01*
X022130Y019511D02*
X020704Y019511D01*
X020802Y019609D02*
X021255Y019609D01*
X021314Y019550D02*
X021050Y019814D01*
X021050Y019950D01*
X021450Y019950D01*
X021550Y019950D01*
X021550Y020050D01*
X021950Y020050D01*
X021950Y020186D01*
X021686Y020450D01*
X021550Y020450D01*
X021550Y020050D01*
X021450Y020050D01*
X021450Y020450D01*
X021314Y020450D01*
X021050Y020186D01*
X021050Y020050D01*
X021450Y020050D01*
X021450Y019950D01*
X021450Y019550D01*
X021314Y019550D01*
X021450Y019609D02*
X021550Y019609D01*
X021550Y019550D02*
X021686Y019550D01*
X021950Y019814D01*
X021950Y019950D01*
X021550Y019950D01*
X021550Y019550D01*
X021550Y019708D02*
X021450Y019708D01*
X021450Y019806D02*
X021550Y019806D01*
X021550Y019905D02*
X021450Y019905D01*
X021450Y020003D02*
X020990Y020003D01*
X020990Y019905D02*
X021050Y019905D01*
X021058Y019806D02*
X020990Y019806D01*
X020901Y019708D02*
X021156Y019708D01*
X021050Y020102D02*
X020990Y020102D01*
X020990Y020200D02*
X021064Y020200D01*
X021162Y020299D02*
X020894Y020299D01*
X020796Y020397D02*
X021261Y020397D01*
X021314Y020550D02*
X021050Y020814D01*
X021050Y020950D01*
X021450Y020950D01*
X021550Y020950D01*
X021550Y021050D01*
X021950Y021050D01*
X021950Y021186D01*
X021686Y021450D01*
X021550Y021450D01*
X021550Y021050D01*
X021450Y021050D01*
X021450Y021450D01*
X021314Y021450D01*
X021050Y021186D01*
X021050Y021050D01*
X021450Y021050D01*
X021450Y020950D01*
X021450Y020550D01*
X021314Y020550D01*
X021270Y020594D02*
X020787Y020594D01*
X020886Y020693D02*
X021171Y020693D01*
X021073Y020791D02*
X020984Y020791D01*
X020990Y020890D02*
X021050Y020890D01*
X020990Y020988D02*
X021450Y020988D01*
X021450Y020890D02*
X021550Y020890D01*
X021550Y020950D02*
X021550Y020550D01*
X021686Y020550D01*
X021950Y020814D01*
X021950Y020950D01*
X021550Y020950D01*
X021550Y020988D02*
X022010Y020988D01*
X022010Y020890D02*
X021950Y020890D01*
X021927Y020791D02*
X022016Y020791D01*
X022114Y020693D02*
X021829Y020693D01*
X021730Y020594D02*
X022130Y020594D01*
X022130Y020496D02*
X013870Y020496D01*
X013870Y020594D02*
X017213Y020594D01*
X017297Y020510D02*
X017703Y020510D01*
X017990Y020797D01*
X017990Y021203D01*
X017703Y021490D01*
X017297Y021490D01*
X017010Y021203D01*
X017010Y020797D01*
X017297Y020510D01*
X017114Y020693D02*
X013886Y020693D01*
X013984Y020791D02*
X017016Y020791D01*
X017010Y020890D02*
X013990Y020890D01*
X013990Y020988D02*
X017010Y020988D01*
X017010Y021087D02*
X013990Y021087D01*
X013990Y021185D02*
X017010Y021185D01*
X017091Y021284D02*
X013909Y021284D01*
X013870Y021382D02*
X017189Y021382D01*
X017288Y021481D02*
X013870Y021481D01*
X013870Y021579D02*
X022130Y021579D01*
X022130Y021481D02*
X020712Y021481D01*
X020811Y021382D02*
X021246Y021382D01*
X021147Y021284D02*
X020909Y021284D01*
X020990Y021185D02*
X021050Y021185D01*
X021050Y021087D02*
X020990Y021087D01*
X021450Y021087D02*
X021550Y021087D01*
X021550Y021185D02*
X021450Y021185D01*
X021450Y021284D02*
X021550Y021284D01*
X021550Y021382D02*
X021450Y021382D01*
X021754Y021382D02*
X022130Y021382D01*
X022091Y021284D02*
X021853Y021284D01*
X021950Y021185D02*
X022010Y021185D01*
X022010Y021087D02*
X021950Y021087D01*
X021550Y020791D02*
X021450Y020791D01*
X021450Y020693D02*
X021550Y020693D01*
X021550Y020594D02*
X021450Y020594D01*
X021450Y020397D02*
X021550Y020397D01*
X021550Y020299D02*
X021450Y020299D01*
X021450Y020200D02*
X021550Y020200D01*
X021550Y020102D02*
X021450Y020102D01*
X021550Y020003D02*
X022010Y020003D01*
X022010Y019905D02*
X021950Y019905D01*
X021942Y019806D02*
X022010Y019806D01*
X022099Y019708D02*
X021844Y019708D01*
X021745Y019609D02*
X022130Y019609D01*
X022010Y020102D02*
X021950Y020102D01*
X021936Y020200D02*
X022010Y020200D01*
X022106Y020299D02*
X021838Y020299D01*
X021739Y020397D02*
X022130Y020397D01*
X022130Y021678D02*
X013870Y021678D01*
X013870Y021776D02*
X022130Y021776D01*
X022130Y021875D02*
X013870Y021875D01*
X013870Y021973D02*
X022130Y021973D01*
X022130Y022072D02*
X013870Y022072D01*
X013870Y022170D02*
X022130Y022170D01*
X022130Y022269D02*
X013870Y022269D01*
X013870Y022367D02*
X022130Y022367D01*
X022130Y022466D02*
X013870Y022466D01*
X013870Y022564D02*
X022130Y022564D01*
X022130Y022663D02*
X013870Y022663D01*
X013870Y022761D02*
X022130Y022761D01*
X022117Y022860D02*
X013870Y022860D01*
X013870Y022958D02*
X022019Y022958D01*
X021920Y023057D02*
X013870Y023057D01*
X013870Y023155D02*
X021822Y023155D01*
X021723Y023254D02*
X013870Y023254D01*
X013870Y023352D02*
X021625Y023352D01*
X021526Y023451D02*
X013870Y023451D01*
X013870Y023549D02*
X021428Y023549D01*
X021329Y023648D02*
X013870Y023648D01*
X013870Y023746D02*
X021231Y023746D01*
X021132Y023845D02*
X013870Y023845D01*
X013130Y023845D02*
X005911Y023845D01*
X005927Y023746D02*
X013130Y023746D01*
X013130Y023648D02*
X005927Y023648D01*
X005648Y023451D02*
X005552Y023451D01*
X005552Y023352D02*
X005648Y023352D01*
X005648Y023254D02*
X005552Y023254D01*
X005552Y023155D02*
X005648Y023155D01*
X005648Y023057D02*
X005552Y023057D01*
X005552Y022958D02*
X005648Y022958D01*
X005847Y023172D02*
X005877Y023155D01*
X005927Y022761D02*
X013130Y022761D01*
X013130Y022663D02*
X006249Y022663D01*
X006320Y022564D02*
X013130Y022564D01*
X013130Y022466D02*
X006320Y022466D01*
X006320Y022367D02*
X013130Y022367D01*
X013130Y022269D02*
X006320Y022269D01*
X006320Y022170D02*
X013130Y022170D01*
X013130Y022072D02*
X006320Y022072D01*
X006320Y021973D02*
X013130Y021973D01*
X013130Y021875D02*
X006320Y021875D01*
X006320Y021776D02*
X013130Y021776D01*
X013130Y021678D02*
X009119Y021678D01*
X009218Y021579D02*
X013130Y021579D01*
X013130Y021481D02*
X011712Y021481D01*
X011703Y021490D02*
X011297Y021490D01*
X011010Y021203D01*
X011010Y020797D01*
X011297Y020510D01*
X011703Y020510D01*
X011990Y020797D01*
X011990Y021203D01*
X011703Y021490D01*
X011811Y021382D02*
X012246Y021382D01*
X012314Y021450D02*
X012050Y021186D01*
X012050Y021050D01*
X012450Y021050D01*
X012450Y021450D01*
X012314Y021450D01*
X012450Y021382D02*
X012550Y021382D01*
X012550Y021450D02*
X012686Y021450D01*
X012950Y021186D01*
X012950Y021050D01*
X012550Y021050D01*
X012550Y020950D01*
X012950Y020950D01*
X012950Y020814D01*
X012686Y020550D01*
X012550Y020550D01*
X012550Y020950D01*
X012450Y020950D01*
X012450Y020550D01*
X012314Y020550D01*
X012050Y020814D01*
X012050Y020950D01*
X012450Y020950D01*
X012450Y021050D01*
X012550Y021050D01*
X012550Y021450D01*
X012550Y021284D02*
X012450Y021284D01*
X012450Y021185D02*
X012550Y021185D01*
X012550Y021087D02*
X012450Y021087D01*
X012450Y020988D02*
X011990Y020988D01*
X011990Y020890D02*
X012050Y020890D01*
X012073Y020791D02*
X011984Y020791D01*
X011886Y020693D02*
X012171Y020693D01*
X012270Y020594D02*
X011787Y020594D01*
X011796Y020397D02*
X012261Y020397D01*
X012314Y020450D02*
X012050Y020186D01*
X012050Y020050D01*
X012450Y020050D01*
X012450Y020450D01*
X012314Y020450D01*
X012450Y020397D02*
X012550Y020397D01*
X012550Y020450D02*
X012686Y020450D01*
X012950Y020186D01*
X012950Y020050D01*
X012550Y020050D01*
X012550Y019950D01*
X012950Y019950D01*
X012950Y019814D01*
X012686Y019550D01*
X012550Y019550D01*
X012550Y019950D01*
X012450Y019950D01*
X012450Y019550D01*
X012314Y019550D01*
X012050Y019814D01*
X012050Y019950D01*
X012450Y019950D01*
X012450Y020050D01*
X012550Y020050D01*
X012550Y020450D01*
X012550Y020594D02*
X012450Y020594D01*
X012450Y020693D02*
X012550Y020693D01*
X012550Y020791D02*
X012450Y020791D01*
X012450Y020890D02*
X012550Y020890D01*
X012550Y020988D02*
X013010Y020988D01*
X013010Y020890D02*
X012950Y020890D01*
X012927Y020791D02*
X013016Y020791D01*
X013114Y020693D02*
X012829Y020693D01*
X012730Y020594D02*
X013130Y020594D01*
X013130Y020496D02*
X008293Y020496D01*
X008010Y020213D02*
X008010Y019610D01*
X008110Y019510D01*
X008713Y019510D01*
X006413Y017210D01*
X003671Y017210D01*
X003593Y017288D01*
X003564Y017300D01*
X003593Y017312D01*
X003671Y017390D01*
X005187Y017390D01*
X008010Y020213D01*
X008010Y020200D02*
X007997Y020200D01*
X008010Y020102D02*
X007899Y020102D01*
X007800Y020003D02*
X008010Y020003D01*
X008010Y019905D02*
X007702Y019905D01*
X007603Y019806D02*
X008010Y019806D01*
X008010Y019708D02*
X007505Y019708D01*
X007406Y019609D02*
X008011Y019609D01*
X008109Y019511D02*
X007308Y019511D01*
X007209Y019412D02*
X008615Y019412D01*
X008517Y019314D02*
X007111Y019314D01*
X007012Y019215D02*
X008418Y019215D01*
X008320Y019117D02*
X006914Y019117D01*
X006815Y019018D02*
X008221Y019018D01*
X008123Y018920D02*
X006717Y018920D01*
X006618Y018821D02*
X008024Y018821D01*
X007926Y018723D02*
X006520Y018723D01*
X006421Y018624D02*
X007827Y018624D01*
X007729Y018526D02*
X006323Y018526D01*
X006224Y018427D02*
X007630Y018427D01*
X007532Y018329D02*
X006126Y018329D01*
X006027Y018230D02*
X007433Y018230D01*
X007335Y018132D02*
X005929Y018132D01*
X005830Y018033D02*
X007236Y018033D01*
X007138Y017935D02*
X005732Y017935D01*
X005633Y017836D02*
X007039Y017836D01*
X006941Y017738D02*
X005535Y017738D01*
X005436Y017639D02*
X006842Y017639D01*
X006744Y017541D02*
X005338Y017541D01*
X005239Y017442D02*
X006645Y017442D01*
X006547Y017344D02*
X003624Y017344D01*
X003636Y017245D02*
X006448Y017245D01*
X006747Y016950D02*
X007153Y016950D01*
X007251Y017048D02*
X006845Y017048D01*
X006944Y017147D02*
X007350Y017147D01*
X007448Y017245D02*
X007042Y017245D01*
X007141Y017344D02*
X007547Y017344D01*
X007645Y017442D02*
X007239Y017442D01*
X007338Y017541D02*
X007744Y017541D01*
X007842Y017639D02*
X007436Y017639D01*
X007535Y017738D02*
X007941Y017738D01*
X008039Y017836D02*
X007633Y017836D01*
X007732Y017935D02*
X008138Y017935D01*
X008236Y018033D02*
X007830Y018033D01*
X007929Y018132D02*
X008335Y018132D01*
X008433Y018230D02*
X008027Y018230D01*
X008126Y018329D02*
X008532Y018329D01*
X008630Y018427D02*
X008224Y018427D01*
X008323Y018526D02*
X008729Y018526D01*
X008827Y018624D02*
X008421Y018624D01*
X008520Y018723D02*
X008926Y018723D01*
X009024Y018821D02*
X008618Y018821D01*
X008717Y018920D02*
X009123Y018920D01*
X009221Y019018D02*
X008815Y019018D01*
X008914Y019117D02*
X009320Y019117D01*
X009418Y019215D02*
X009012Y019215D01*
X009111Y019314D02*
X009517Y019314D01*
X009615Y019412D02*
X009209Y019412D01*
X009009Y019806D02*
X008990Y019806D01*
X008990Y019905D02*
X009010Y019905D01*
X009010Y020003D02*
X008990Y020003D01*
X008990Y020102D02*
X009010Y020102D01*
X009010Y020200D02*
X008990Y020200D01*
X008990Y020299D02*
X009106Y020299D01*
X009204Y020397D02*
X008983Y020397D01*
X008787Y020594D02*
X009213Y020594D01*
X009114Y020693D02*
X008886Y020693D01*
X008984Y020791D02*
X009016Y020791D01*
X009010Y020890D02*
X008990Y020890D01*
X008990Y020988D02*
X009010Y020988D01*
X009010Y021087D02*
X008990Y021087D01*
X008990Y021185D02*
X009010Y021185D01*
X008919Y021284D02*
X008909Y021284D01*
X009712Y021481D02*
X010288Y021481D01*
X010297Y021490D02*
X010010Y021203D01*
X010010Y020797D01*
X010297Y020510D01*
X010703Y020510D01*
X010990Y020797D01*
X010990Y021203D01*
X010703Y021490D01*
X010297Y021490D01*
X010189Y021382D02*
X009811Y021382D01*
X009909Y021284D02*
X010091Y021284D01*
X010010Y021185D02*
X009990Y021185D01*
X009990Y021087D02*
X010010Y021087D01*
X010010Y020988D02*
X009990Y020988D01*
X009990Y020890D02*
X010010Y020890D01*
X010016Y020791D02*
X009984Y020791D01*
X009886Y020693D02*
X010114Y020693D01*
X010213Y020594D02*
X009787Y020594D01*
X009796Y020397D02*
X010204Y020397D01*
X010106Y020299D02*
X009894Y020299D01*
X009990Y020200D02*
X010010Y020200D01*
X010010Y020102D02*
X009990Y020102D01*
X009990Y020003D02*
X010010Y020003D01*
X010010Y019905D02*
X009990Y019905D01*
X009990Y019806D02*
X010009Y019806D01*
X009911Y019708D02*
X009901Y019708D01*
X009812Y019609D02*
X009802Y019609D01*
X009714Y019511D02*
X009704Y019511D01*
X009914Y019117D02*
X010320Y019117D01*
X010418Y019215D02*
X010012Y019215D01*
X010111Y019314D02*
X010517Y019314D01*
X010615Y019412D02*
X010209Y019412D01*
X010221Y019018D02*
X009815Y019018D01*
X009717Y018920D02*
X010123Y018920D01*
X010024Y018821D02*
X009618Y018821D01*
X009520Y018723D02*
X009926Y018723D01*
X009827Y018624D02*
X009421Y018624D01*
X009323Y018526D02*
X009729Y018526D01*
X009630Y018427D02*
X009224Y018427D01*
X009126Y018329D02*
X009532Y018329D01*
X009433Y018230D02*
X009027Y018230D01*
X008929Y018132D02*
X009335Y018132D01*
X009236Y018033D02*
X008830Y018033D01*
X008732Y017935D02*
X009138Y017935D01*
X009039Y017836D02*
X008633Y017836D01*
X008535Y017738D02*
X008941Y017738D01*
X008842Y017639D02*
X008436Y017639D01*
X008338Y017541D02*
X008744Y017541D01*
X008645Y017442D02*
X008239Y017442D01*
X008141Y017344D02*
X008547Y017344D01*
X008448Y017245D02*
X008042Y017245D01*
X007944Y017147D02*
X008350Y017147D01*
X008251Y017048D02*
X007845Y017048D01*
X007747Y016950D02*
X008153Y016950D01*
X008054Y016851D02*
X007648Y016851D01*
X007550Y016753D02*
X007956Y016753D01*
X007857Y016654D02*
X007451Y016654D01*
X008057Y016260D02*
X013279Y016260D01*
X013199Y016162D02*
X003642Y016162D01*
X003475Y016063D02*
X013160Y016063D01*
X013562Y016359D02*
X008156Y016359D01*
X008254Y016457D02*
X013660Y016457D01*
X013759Y016556D02*
X008353Y016556D01*
X008451Y016654D02*
X013857Y016654D01*
X013956Y016753D02*
X008550Y016753D01*
X008648Y016851D02*
X014054Y016851D01*
X014153Y016950D02*
X008747Y016950D01*
X008845Y017048D02*
X014251Y017048D01*
X014350Y017147D02*
X008944Y017147D01*
X009042Y017245D02*
X014448Y017245D01*
X014547Y017344D02*
X009141Y017344D01*
X009239Y017442D02*
X014645Y017442D01*
X014744Y017541D02*
X009338Y017541D01*
X009436Y017639D02*
X014842Y017639D01*
X014941Y017738D02*
X009535Y017738D01*
X009633Y017836D02*
X015039Y017836D01*
X015138Y017935D02*
X009732Y017935D01*
X009830Y018033D02*
X015236Y018033D01*
X015335Y018132D02*
X009929Y018132D01*
X010027Y018230D02*
X015433Y018230D01*
X015532Y018329D02*
X010126Y018329D01*
X010224Y018427D02*
X015630Y018427D01*
X015729Y018526D02*
X010323Y018526D01*
X010421Y018624D02*
X012344Y018624D01*
X012319Y018723D02*
X010520Y018723D01*
X010618Y018821D02*
X012319Y018821D01*
X012319Y019018D02*
X010815Y019018D01*
X010717Y018920D02*
X012617Y018920D01*
X012617Y019018D02*
X012714Y019018D01*
X012714Y019117D02*
X012617Y019117D01*
X012617Y019215D02*
X012714Y019215D01*
X012937Y019215D02*
X012996Y019215D01*
X013130Y019314D02*
X011111Y019314D01*
X011209Y019412D02*
X013130Y019412D01*
X013130Y019511D02*
X011704Y019511D01*
X011802Y019609D02*
X012255Y019609D01*
X012156Y019708D02*
X011901Y019708D01*
X011990Y019806D02*
X012058Y019806D01*
X012050Y019905D02*
X011990Y019905D01*
X011990Y020003D02*
X012450Y020003D01*
X012450Y019905D02*
X012550Y019905D01*
X012550Y020003D02*
X013010Y020003D01*
X013010Y019905D02*
X012950Y019905D01*
X012942Y019806D02*
X013010Y019806D01*
X013099Y019708D02*
X012844Y019708D01*
X012745Y019609D02*
X013130Y019609D01*
X013010Y020102D02*
X012950Y020102D01*
X012936Y020200D02*
X013010Y020200D01*
X013106Y020299D02*
X012838Y020299D01*
X012739Y020397D02*
X013130Y020397D01*
X012550Y020299D02*
X012450Y020299D01*
X012450Y020200D02*
X012550Y020200D01*
X012550Y020102D02*
X012450Y020102D01*
X012450Y019806D02*
X012550Y019806D01*
X012550Y019708D02*
X012450Y019708D01*
X012450Y019609D02*
X012550Y019609D01*
X012394Y019215D02*
X011012Y019215D01*
X010914Y019117D02*
X012320Y019117D01*
X012617Y018821D02*
X012714Y018821D01*
X012714Y018723D02*
X012617Y018723D01*
X012617Y018624D02*
X012714Y018624D01*
X013712Y018624D02*
X015827Y018624D01*
X015926Y018723D02*
X013721Y018723D01*
X013779Y018821D02*
X016024Y018821D01*
X016123Y018920D02*
X013840Y018920D01*
X013870Y019018D02*
X016221Y019018D01*
X016320Y019117D02*
X013870Y019117D01*
X013870Y019215D02*
X016418Y019215D01*
X016517Y019314D02*
X013870Y019314D01*
X013870Y019412D02*
X016615Y019412D01*
X016714Y019511D02*
X013870Y019511D01*
X013870Y019609D02*
X016812Y019609D01*
X016911Y019708D02*
X013901Y019708D01*
X013990Y019806D02*
X017009Y019806D01*
X017010Y019905D02*
X013990Y019905D01*
X013990Y020003D02*
X017010Y020003D01*
X017010Y020102D02*
X013990Y020102D01*
X013990Y020200D02*
X017010Y020200D01*
X017010Y020299D02*
X013894Y020299D01*
X013870Y020397D02*
X017017Y020397D01*
X017787Y020594D02*
X018213Y020594D01*
X018114Y020693D02*
X017886Y020693D01*
X017984Y020791D02*
X018016Y020791D01*
X018010Y020890D02*
X017990Y020890D01*
X017990Y020988D02*
X018010Y020988D01*
X018010Y021087D02*
X017990Y021087D01*
X017990Y021185D02*
X018010Y021185D01*
X018091Y021284D02*
X017909Y021284D01*
X017811Y021382D02*
X018189Y021382D01*
X018288Y021481D02*
X017712Y021481D01*
X017983Y020397D02*
X018204Y020397D01*
X018106Y020299D02*
X017990Y020299D01*
X017990Y020200D02*
X018010Y020200D01*
X018010Y020102D02*
X017990Y020102D01*
X017990Y020003D02*
X018010Y020003D01*
X018010Y019905D02*
X017990Y019905D01*
X017990Y019806D02*
X018009Y019806D01*
X017615Y019412D02*
X017209Y019412D01*
X017111Y019314D02*
X017517Y019314D01*
X017418Y019215D02*
X017012Y019215D01*
X016914Y019117D02*
X017320Y019117D01*
X017221Y019018D02*
X016815Y019018D01*
X016717Y018920D02*
X017123Y018920D01*
X017024Y018821D02*
X016618Y018821D01*
X016520Y018723D02*
X016926Y018723D01*
X016827Y018624D02*
X016421Y018624D01*
X016323Y018526D02*
X016729Y018526D01*
X016630Y018427D02*
X016224Y018427D01*
X016126Y018329D02*
X016532Y018329D01*
X016433Y018230D02*
X016027Y018230D01*
X015929Y018132D02*
X016335Y018132D01*
X016236Y018033D02*
X015830Y018033D01*
X015732Y017935D02*
X016138Y017935D01*
X016039Y017836D02*
X015633Y017836D01*
X015535Y017738D02*
X015941Y017738D01*
X015842Y017639D02*
X015436Y017639D01*
X015338Y017541D02*
X015744Y017541D01*
X015645Y017442D02*
X015239Y017442D01*
X015141Y017344D02*
X015547Y017344D01*
X015448Y017245D02*
X015042Y017245D01*
X014944Y017147D02*
X015350Y017147D01*
X015251Y017048D02*
X014845Y017048D01*
X014747Y016950D02*
X015153Y016950D01*
X015054Y016851D02*
X014648Y016851D01*
X014550Y016753D02*
X014956Y016753D01*
X014857Y016654D02*
X014451Y016654D01*
X014353Y016556D02*
X014575Y016556D01*
X014497Y016457D02*
X014254Y016457D01*
X014156Y016359D02*
X014460Y016359D01*
X014460Y016260D02*
X014057Y016260D01*
X013959Y016162D02*
X014489Y016162D01*
X014556Y016063D02*
X013860Y016063D01*
X015254Y016457D02*
X015962Y016457D01*
X015892Y016556D02*
X015353Y016556D01*
X015451Y016654D02*
X015860Y016654D01*
X015860Y016753D02*
X015550Y016753D01*
X015648Y016851D02*
X015895Y016851D01*
X015969Y016950D02*
X015747Y016950D01*
X015845Y017048D02*
X016251Y017048D01*
X016350Y017147D02*
X015944Y017147D01*
X016042Y017245D02*
X016448Y017245D01*
X016547Y017344D02*
X016141Y017344D01*
X016239Y017442D02*
X016645Y017442D01*
X016744Y017541D02*
X016338Y017541D01*
X016436Y017639D02*
X016842Y017639D01*
X016941Y017738D02*
X016535Y017738D01*
X016633Y017836D02*
X017039Y017836D01*
X016648Y016851D02*
X017558Y016851D01*
X017660Y013896D02*
X000720Y013896D01*
X000720Y013798D02*
X017561Y013798D01*
X017550Y013699D02*
X017219Y013699D01*
X016948Y013699D02*
X016852Y013699D01*
X016852Y013601D02*
X016948Y013601D01*
X016948Y013502D02*
X016852Y013502D01*
X016573Y013305D02*
X000720Y013305D01*
X000720Y013207D02*
X016573Y013207D01*
X016589Y013108D02*
X000720Y013108D01*
X000720Y013010D02*
X016533Y013010D01*
X016533Y012911D02*
X000720Y012911D01*
X000720Y012813D02*
X016530Y012813D01*
X016530Y012714D02*
X000720Y012714D01*
X000720Y012616D02*
X016533Y012616D01*
X016533Y012517D02*
X000720Y012517D01*
X000720Y012419D02*
X016593Y012419D01*
X016822Y012320D02*
X000720Y012320D01*
X000720Y012222D02*
X017686Y012222D01*
X017784Y012123D02*
X000720Y012123D01*
X000720Y012025D02*
X022130Y012025D01*
X022130Y012123D02*
X019216Y012123D01*
X019314Y012222D02*
X022130Y012222D01*
X022130Y011926D02*
X000720Y011926D01*
X000720Y011828D02*
X022130Y011828D01*
X022130Y011729D02*
X000720Y011729D01*
X000720Y011631D02*
X022130Y011631D01*
X022130Y011532D02*
X000720Y011532D01*
X000720Y011434D02*
X022130Y011434D01*
X022130Y011335D02*
X000720Y011335D01*
X000720Y011237D02*
X022130Y011237D01*
X022130Y011138D02*
X016455Y011138D01*
X015945Y011138D02*
X015398Y011138D01*
X015386Y011150D02*
X015250Y011150D01*
X015250Y010750D01*
X015650Y010750D01*
X015650Y010886D01*
X015386Y011150D01*
X015250Y011138D02*
X015150Y011138D01*
X015150Y011150D02*
X015014Y011150D01*
X014750Y010886D01*
X014750Y010750D01*
X015150Y010750D01*
X015150Y011150D01*
X015150Y011040D02*
X015250Y011040D01*
X015250Y010941D02*
X015150Y010941D01*
X015150Y010843D02*
X015250Y010843D01*
X015250Y010750D02*
X015150Y010750D01*
X015150Y010650D01*
X015250Y010650D01*
X015250Y010750D01*
X015250Y010744D02*
X015710Y010744D01*
X015710Y010646D02*
X015650Y010646D01*
X015650Y010650D02*
X015250Y010650D01*
X015250Y010250D01*
X015386Y010250D01*
X015650Y010514D01*
X015650Y010650D01*
X015650Y010547D02*
X015710Y010547D01*
X015759Y010449D02*
X015585Y010449D01*
X015486Y010350D02*
X015830Y010350D01*
X015830Y010252D02*
X015388Y010252D01*
X015386Y010150D02*
X015250Y010150D01*
X015250Y009750D01*
X015650Y009750D01*
X015650Y009886D01*
X015386Y010150D01*
X015482Y010055D02*
X015830Y010055D01*
X015830Y010153D02*
X014440Y010153D01*
X014403Y010190D02*
X013997Y010190D01*
X013710Y009903D01*
X013710Y009497D01*
X013997Y009210D01*
X014403Y009210D01*
X014690Y009497D01*
X014690Y009903D01*
X014403Y010190D01*
X014403Y010210D02*
X014690Y010497D01*
X014690Y010903D01*
X014403Y011190D01*
X013997Y011190D01*
X013710Y010903D01*
X013710Y010497D01*
X013997Y010210D01*
X014403Y010210D01*
X014444Y010252D02*
X015012Y010252D01*
X015014Y010250D02*
X015150Y010250D01*
X015150Y010650D01*
X014750Y010650D01*
X014750Y010514D01*
X015014Y010250D01*
X015014Y010150D02*
X014750Y009886D01*
X014750Y009750D01*
X015150Y009750D01*
X015150Y010150D01*
X015014Y010150D01*
X014918Y010055D02*
X014538Y010055D01*
X014637Y009956D02*
X014820Y009956D01*
X014750Y009858D02*
X014690Y009858D01*
X014690Y009759D02*
X014750Y009759D01*
X014750Y009650D02*
X014750Y009514D01*
X015014Y009250D01*
X015150Y009250D01*
X015150Y009650D01*
X015250Y009650D01*
X015250Y009750D01*
X015150Y009750D01*
X015150Y009650D01*
X014750Y009650D01*
X014690Y009661D02*
X015150Y009661D01*
X015150Y009759D02*
X015250Y009759D01*
X015250Y009661D02*
X015710Y009661D01*
X015650Y009650D02*
X015250Y009650D01*
X015250Y009250D01*
X015386Y009250D01*
X015650Y009514D01*
X015650Y009650D01*
X015650Y009562D02*
X015710Y009562D01*
X015744Y009464D02*
X015600Y009464D01*
X015501Y009365D02*
X015830Y009365D01*
X015830Y009267D02*
X015403Y009267D01*
X015250Y009267D02*
X015150Y009267D01*
X015150Y009365D02*
X015250Y009365D01*
X015250Y009464D02*
X015150Y009464D01*
X015150Y009562D02*
X015250Y009562D01*
X015250Y009858D02*
X015150Y009858D01*
X015150Y009956D02*
X015250Y009956D01*
X015250Y010055D02*
X015150Y010055D01*
X015150Y010252D02*
X015250Y010252D01*
X015250Y010350D02*
X015150Y010350D01*
X015150Y010449D02*
X015250Y010449D01*
X015250Y010547D02*
X015150Y010547D01*
X015150Y010646D02*
X015250Y010646D01*
X015150Y010744D02*
X014690Y010744D01*
X014690Y010646D02*
X014750Y010646D01*
X014750Y010547D02*
X014690Y010547D01*
X014641Y010449D02*
X014815Y010449D01*
X014914Y010350D02*
X014543Y010350D01*
X014690Y010843D02*
X014750Y010843D01*
X014805Y010941D02*
X014652Y010941D01*
X014553Y011040D02*
X014903Y011040D01*
X015002Y011138D02*
X014455Y011138D01*
X013945Y011138D02*
X013455Y011138D01*
X013403Y011190D02*
X013690Y010903D01*
X013690Y010497D01*
X013403Y010210D01*
X012997Y010210D01*
X012710Y010497D01*
X012710Y010903D01*
X012997Y011190D01*
X013403Y011190D01*
X013553Y011040D02*
X013847Y011040D01*
X013748Y010941D02*
X013652Y010941D01*
X013690Y010843D02*
X013710Y010843D01*
X013710Y010744D02*
X013690Y010744D01*
X013690Y010646D02*
X013710Y010646D01*
X013710Y010547D02*
X013690Y010547D01*
X013641Y010449D02*
X013759Y010449D01*
X013857Y010350D02*
X013543Y010350D01*
X013444Y010252D02*
X013956Y010252D01*
X013960Y010153D02*
X013627Y010153D01*
X013590Y010190D02*
X012810Y010190D01*
X012710Y010090D01*
X012710Y009310D01*
X012810Y009210D01*
X013590Y009210D01*
X013690Y009310D01*
X013690Y010090D01*
X013590Y010190D01*
X013690Y010055D02*
X013862Y010055D01*
X013763Y009956D02*
X013690Y009956D01*
X013690Y009858D02*
X013710Y009858D01*
X013710Y009759D02*
X013690Y009759D01*
X013690Y009661D02*
X013710Y009661D01*
X013710Y009562D02*
X013690Y009562D01*
X013690Y009464D02*
X013744Y009464D01*
X013690Y009365D02*
X013842Y009365D01*
X013941Y009267D02*
X013647Y009267D01*
X012753Y009267D02*
X000720Y009267D01*
X000720Y009365D02*
X012710Y009365D01*
X012710Y009464D02*
X000720Y009464D01*
X000720Y009562D02*
X012710Y009562D01*
X012710Y009661D02*
X000720Y009661D01*
X000720Y009759D02*
X012710Y009759D01*
X012710Y009858D02*
X000720Y009858D01*
X000720Y009956D02*
X012710Y009956D01*
X012710Y010055D02*
X000720Y010055D01*
X000720Y010153D02*
X012773Y010153D01*
X012956Y010252D02*
X000720Y010252D01*
X000720Y010350D02*
X012857Y010350D01*
X012759Y010449D02*
X000720Y010449D01*
X000720Y010547D02*
X012710Y010547D01*
X012710Y010646D02*
X000720Y010646D01*
X000720Y010744D02*
X012710Y010744D01*
X012710Y010843D02*
X000720Y010843D01*
X000720Y010941D02*
X012748Y010941D01*
X012847Y011040D02*
X000720Y011040D01*
X000720Y011138D02*
X012945Y011138D01*
X014558Y009365D02*
X014899Y009365D01*
X014997Y009267D02*
X014459Y009267D01*
X014656Y009464D02*
X014800Y009464D01*
X014750Y009562D02*
X014690Y009562D01*
X015042Y008873D02*
X000720Y008873D01*
X000720Y008971D02*
X015830Y008971D01*
X015830Y009070D02*
X000720Y009070D01*
X000720Y009168D02*
X015830Y009168D01*
X015414Y008873D02*
X015317Y008873D01*
X015317Y008774D02*
X015414Y008774D01*
X015414Y008676D02*
X015317Y008676D01*
X015317Y008577D02*
X012304Y008577D01*
X012293Y008588D02*
X012168Y008640D01*
X012032Y008640D01*
X011907Y008588D01*
X011812Y008493D01*
X011760Y008368D01*
X011760Y008232D01*
X011812Y008107D01*
X011907Y008012D01*
X012032Y007960D01*
X012129Y007960D01*
X013060Y007029D01*
X013060Y006932D01*
X013112Y006807D01*
X013207Y006712D01*
X013332Y006660D01*
X013468Y006660D01*
X013593Y006712D01*
X013688Y006807D01*
X013740Y006932D01*
X013740Y007068D01*
X013688Y007193D01*
X013593Y007288D01*
X013468Y007340D01*
X013371Y007340D01*
X012440Y008271D01*
X012440Y008368D01*
X012388Y008493D01*
X012293Y008588D01*
X012394Y008479D02*
X015019Y008479D01*
X015020Y008380D02*
X012435Y008380D01*
X012440Y008282D02*
X015100Y008282D01*
X015317Y008282D02*
X015414Y008282D01*
X015414Y008380D02*
X015317Y008380D01*
X015317Y008479D02*
X015414Y008479D01*
X015630Y008282D02*
X015699Y008282D01*
X016370Y008282D02*
X017510Y008282D01*
X017510Y008210D02*
X017610Y008110D01*
X018390Y008110D01*
X018490Y008210D01*
X018490Y008990D01*
X018390Y009090D01*
X017610Y009090D01*
X017510Y008990D01*
X017510Y008210D01*
X017537Y008183D02*
X012528Y008183D01*
X012627Y008085D02*
X017792Y008085D01*
X017797Y008090D02*
X017510Y007803D01*
X017510Y007397D01*
X017797Y007110D01*
X018203Y007110D01*
X018490Y007397D01*
X018490Y007803D01*
X018203Y008090D01*
X017797Y008090D01*
X017693Y007986D02*
X012725Y007986D01*
X012824Y007888D02*
X017595Y007888D01*
X017510Y007789D02*
X012922Y007789D01*
X013021Y007691D02*
X017510Y007691D01*
X017510Y007592D02*
X013119Y007592D01*
X013218Y007494D02*
X017510Y007494D01*
X017512Y007395D02*
X013316Y007395D01*
X013573Y007297D02*
X017611Y007297D01*
X017709Y007198D02*
X013683Y007198D01*
X013727Y007100D02*
X022130Y007100D01*
X022130Y007198D02*
X019291Y007198D01*
X019203Y007110D02*
X019490Y007397D01*
X019490Y007803D01*
X019203Y008090D01*
X018797Y008090D01*
X018510Y007803D01*
X018510Y007397D01*
X018797Y007110D01*
X019203Y007110D01*
X019203Y007090D02*
X018797Y007090D01*
X018510Y006803D01*
X018510Y006397D01*
X018797Y006110D01*
X019203Y006110D01*
X019490Y006397D01*
X019490Y006803D01*
X019203Y007090D01*
X019292Y007001D02*
X022130Y007001D01*
X022130Y006903D02*
X019390Y006903D01*
X019489Y006804D02*
X022130Y006804D01*
X022130Y006706D02*
X019490Y006706D01*
X019490Y006607D02*
X022130Y006607D01*
X022130Y006509D02*
X019490Y006509D01*
X019490Y006410D02*
X022130Y006410D01*
X022130Y006312D02*
X019404Y006312D01*
X019306Y006213D02*
X022130Y006213D01*
X022130Y006115D02*
X019207Y006115D01*
X019203Y006090D02*
X018797Y006090D01*
X018510Y005803D01*
X018510Y005397D01*
X018797Y005110D01*
X019203Y005110D01*
X019490Y005397D01*
X019490Y005803D01*
X019203Y006090D01*
X019277Y006016D02*
X022130Y006016D01*
X022130Y005918D02*
X019375Y005918D01*
X019474Y005819D02*
X022130Y005819D01*
X022130Y005721D02*
X019490Y005721D01*
X019490Y005622D02*
X022130Y005622D01*
X022130Y005524D02*
X019490Y005524D01*
X019490Y005425D02*
X022130Y005425D01*
X022130Y005327D02*
X019419Y005327D01*
X019321Y005228D02*
X022130Y005228D01*
X022130Y005130D02*
X019222Y005130D01*
X019186Y005050D02*
X019450Y004786D01*
X019450Y004650D01*
X019050Y004650D01*
X018950Y004650D01*
X018950Y005050D01*
X018814Y005050D01*
X018550Y004786D01*
X018550Y004650D01*
X018950Y004650D01*
X018950Y004550D01*
X018550Y004550D01*
X018550Y004414D01*
X018814Y004150D01*
X018950Y004150D01*
X018950Y004550D01*
X019050Y004550D01*
X019050Y004650D01*
X019050Y005050D01*
X019186Y005050D01*
X019205Y005031D02*
X022130Y005031D01*
X022130Y004933D02*
X019304Y004933D01*
X019402Y004834D02*
X022130Y004834D01*
X022130Y004736D02*
X019450Y004736D01*
X019450Y004550D02*
X019050Y004550D01*
X019050Y004150D01*
X019186Y004150D01*
X019450Y004414D01*
X019450Y004550D01*
X019450Y004539D02*
X022130Y004539D01*
X022130Y004637D02*
X019050Y004637D01*
X019050Y004539D02*
X018950Y004539D01*
X018950Y004637D02*
X018050Y004637D01*
X018050Y004650D02*
X018450Y004650D01*
X018450Y004786D01*
X018186Y005050D01*
X018050Y005050D01*
X018050Y004650D01*
X017950Y004650D01*
X017950Y005050D01*
X017814Y005050D01*
X017550Y004786D01*
X017550Y004650D01*
X017950Y004650D01*
X017950Y004550D01*
X017550Y004550D01*
X017550Y004414D01*
X017814Y004150D01*
X017950Y004150D01*
X017950Y004550D01*
X018050Y004550D01*
X018050Y004650D01*
X018050Y004736D02*
X017950Y004736D01*
X017950Y004834D02*
X018050Y004834D01*
X018050Y004933D02*
X017950Y004933D01*
X017950Y005031D02*
X018050Y005031D01*
X018205Y005031D02*
X018795Y005031D01*
X018778Y005130D02*
X018222Y005130D01*
X018203Y005110D02*
X018490Y005397D01*
X018490Y005803D01*
X018203Y006090D01*
X017797Y006090D01*
X017510Y005803D01*
X017510Y005397D01*
X017797Y005110D01*
X018203Y005110D01*
X018321Y005228D02*
X018679Y005228D01*
X018581Y005327D02*
X018419Y005327D01*
X018490Y005425D02*
X018510Y005425D01*
X018510Y005524D02*
X018490Y005524D01*
X018490Y005622D02*
X018510Y005622D01*
X018510Y005721D02*
X018490Y005721D01*
X018474Y005819D02*
X018526Y005819D01*
X018625Y005918D02*
X018375Y005918D01*
X018277Y006016D02*
X018723Y006016D01*
X018793Y006115D02*
X018207Y006115D01*
X018203Y006110D02*
X018490Y006397D01*
X018490Y006803D01*
X018203Y007090D01*
X017797Y007090D01*
X017510Y006803D01*
X017510Y006397D01*
X017797Y006110D01*
X018203Y006110D01*
X018306Y006213D02*
X018694Y006213D01*
X018596Y006312D02*
X018404Y006312D01*
X018490Y006410D02*
X018510Y006410D01*
X018510Y006509D02*
X018490Y006509D01*
X018490Y006607D02*
X018510Y006607D01*
X018510Y006706D02*
X018490Y006706D01*
X018489Y006804D02*
X018511Y006804D01*
X018610Y006903D02*
X018390Y006903D01*
X018292Y007001D02*
X018708Y007001D01*
X018709Y007198D02*
X018291Y007198D01*
X018389Y007297D02*
X018611Y007297D01*
X018512Y007395D02*
X018488Y007395D01*
X018490Y007494D02*
X018510Y007494D01*
X018510Y007592D02*
X018490Y007592D01*
X018490Y007691D02*
X018510Y007691D01*
X018510Y007789D02*
X018490Y007789D01*
X018405Y007888D02*
X018595Y007888D01*
X018693Y007986D02*
X018307Y007986D01*
X018208Y008085D02*
X018792Y008085D01*
X018797Y008110D02*
X019203Y008110D01*
X019490Y008397D01*
X019490Y008803D01*
X019203Y009090D01*
X018797Y009090D01*
X018510Y008803D01*
X018510Y008397D01*
X018797Y008110D01*
X018724Y008183D02*
X018463Y008183D01*
X018490Y008282D02*
X018626Y008282D01*
X018527Y008380D02*
X018490Y008380D01*
X018490Y008479D02*
X018510Y008479D01*
X018510Y008577D02*
X018490Y008577D01*
X018490Y008676D02*
X018510Y008676D01*
X018510Y008774D02*
X018490Y008774D01*
X018490Y008873D02*
X018580Y008873D01*
X018490Y008971D02*
X018678Y008971D01*
X018777Y009070D02*
X018411Y009070D01*
X019223Y009070D02*
X022130Y009070D01*
X022130Y009168D02*
X016570Y009168D01*
X016570Y009070D02*
X017589Y009070D01*
X017510Y008971D02*
X016570Y008971D01*
X016570Y008873D02*
X017510Y008873D01*
X017510Y008774D02*
X016570Y008774D01*
X016563Y008676D02*
X017510Y008676D01*
X017510Y008577D02*
X016522Y008577D01*
X016436Y008479D02*
X017510Y008479D01*
X017510Y008380D02*
X016421Y008380D01*
X016570Y009267D02*
X022130Y009267D01*
X022130Y009365D02*
X016570Y009365D01*
X016656Y009464D02*
X022130Y009464D01*
X022130Y009562D02*
X016690Y009562D01*
X016690Y009661D02*
X022130Y009661D01*
X022130Y009759D02*
X016690Y009759D01*
X016690Y009858D02*
X022130Y009858D01*
X022130Y009956D02*
X016637Y009956D01*
X016570Y010055D02*
X022130Y010055D01*
X022130Y010153D02*
X016570Y010153D01*
X016570Y010252D02*
X022130Y010252D01*
X022130Y008971D02*
X019322Y008971D01*
X019420Y008873D02*
X022130Y008873D01*
X022130Y008774D02*
X019490Y008774D01*
X019490Y008676D02*
X022130Y008676D01*
X022130Y008577D02*
X019490Y008577D01*
X019490Y008479D02*
X022130Y008479D01*
X022130Y008380D02*
X019473Y008380D01*
X019374Y008282D02*
X022130Y008282D01*
X022130Y008183D02*
X019276Y008183D01*
X019208Y008085D02*
X022130Y008085D01*
X022130Y007986D02*
X019307Y007986D01*
X019405Y007888D02*
X022130Y007888D01*
X022130Y007789D02*
X019490Y007789D01*
X019490Y007691D02*
X022130Y007691D01*
X022130Y007592D02*
X019490Y007592D01*
X019490Y007494D02*
X022130Y007494D01*
X022130Y007395D02*
X019488Y007395D01*
X019389Y007297D02*
X022130Y007297D01*
X022130Y004440D02*
X019450Y004440D01*
X019378Y004342D02*
X022130Y004342D01*
X022130Y004243D02*
X019279Y004243D01*
X019247Y004046D02*
X022130Y004046D01*
X022130Y004145D02*
X017204Y004145D01*
X017227Y004243D02*
X017721Y004243D01*
X017622Y004342D02*
X017227Y004342D01*
X017227Y004539D02*
X017550Y004539D01*
X017550Y004440D02*
X016948Y004440D01*
X016852Y004440D02*
X013990Y004440D01*
X013990Y004342D02*
X016573Y004342D01*
X016573Y004243D02*
X013936Y004243D01*
X013990Y004297D02*
X013703Y004010D01*
X013297Y004010D01*
X013010Y004297D01*
X013010Y004703D01*
X013297Y004990D01*
X013703Y004990D01*
X013990Y004703D01*
X013990Y004297D01*
X013837Y004145D02*
X016596Y004145D01*
X016533Y004046D02*
X013739Y004046D01*
X013261Y004046D02*
X012739Y004046D01*
X012703Y004010D02*
X012990Y004297D01*
X012990Y004703D01*
X012703Y004990D01*
X012297Y004990D01*
X012010Y004703D01*
X012010Y004297D01*
X012297Y004010D01*
X012703Y004010D01*
X012837Y004145D02*
X013163Y004145D01*
X013064Y004243D02*
X012936Y004243D01*
X012990Y004342D02*
X013010Y004342D01*
X013010Y004440D02*
X012990Y004440D01*
X012990Y004539D02*
X013010Y004539D01*
X013010Y004637D02*
X012990Y004637D01*
X012957Y004736D02*
X013043Y004736D01*
X013141Y004834D02*
X012859Y004834D01*
X012760Y004933D02*
X013240Y004933D01*
X013110Y005010D02*
X013010Y005110D01*
X013010Y005890D01*
X013110Y005990D01*
X013890Y005990D01*
X013990Y005890D01*
X013990Y005110D01*
X013890Y005010D01*
X013110Y005010D01*
X013089Y005031D02*
X012724Y005031D01*
X012703Y005010D02*
X012297Y005010D01*
X012010Y005297D01*
X012010Y005703D01*
X012297Y005990D01*
X012703Y005990D01*
X012990Y005703D01*
X012990Y005297D01*
X012703Y005010D01*
X012822Y005130D02*
X013010Y005130D01*
X013010Y005228D02*
X012921Y005228D01*
X012990Y005327D02*
X013010Y005327D01*
X013010Y005425D02*
X012990Y005425D01*
X012990Y005524D02*
X013010Y005524D01*
X013010Y005622D02*
X012990Y005622D01*
X012972Y005721D02*
X013010Y005721D01*
X013010Y005819D02*
X012874Y005819D01*
X012775Y005918D02*
X013037Y005918D01*
X013222Y006706D02*
X011720Y006706D01*
X011720Y006804D02*
X013115Y006804D01*
X013072Y006903D02*
X011720Y006903D01*
X011720Y007001D02*
X013060Y007001D01*
X012989Y007100D02*
X011720Y007100D01*
X011720Y007198D02*
X012891Y007198D01*
X012792Y007297D02*
X011777Y007297D01*
X011788Y007307D02*
X011840Y007432D01*
X011840Y007568D01*
X011788Y007693D01*
X011693Y007788D01*
X011568Y007840D01*
X011432Y007840D01*
X011307Y007788D01*
X011212Y007693D01*
X011160Y007568D01*
X011160Y007432D01*
X011212Y007307D01*
X011280Y007239D01*
X011280Y005973D01*
X011010Y005703D01*
X011010Y005297D01*
X011297Y005010D01*
X011703Y005010D01*
X011990Y005297D01*
X011990Y005703D01*
X011720Y005973D01*
X011720Y007239D01*
X011788Y007307D01*
X011825Y007395D02*
X012694Y007395D01*
X012595Y007494D02*
X011840Y007494D01*
X011830Y007592D02*
X012497Y007592D01*
X012398Y007691D02*
X011789Y007691D01*
X011691Y007789D02*
X012300Y007789D01*
X012201Y007888D02*
X000720Y007888D01*
X000720Y007986D02*
X011970Y007986D01*
X011835Y008085D02*
X000720Y008085D01*
X000720Y008183D02*
X011780Y008183D01*
X011760Y008282D02*
X000720Y008282D01*
X000720Y008380D02*
X011765Y008380D01*
X011806Y008479D02*
X000720Y008479D01*
X000720Y008577D02*
X011896Y008577D01*
X012100Y008300D02*
X013400Y007000D01*
X013578Y006706D02*
X017510Y006706D01*
X017511Y006804D02*
X013685Y006804D01*
X013728Y006903D02*
X017610Y006903D01*
X017708Y007001D02*
X013740Y007001D01*
X013963Y005918D02*
X017625Y005918D01*
X017723Y006016D02*
X011720Y006016D01*
X011720Y006115D02*
X017793Y006115D01*
X017694Y006213D02*
X011720Y006213D01*
X011720Y006312D02*
X017596Y006312D01*
X017510Y006410D02*
X011720Y006410D01*
X011720Y006509D02*
X017510Y006509D01*
X017510Y006607D02*
X011720Y006607D01*
X011280Y006607D02*
X009383Y006607D01*
X009383Y006509D02*
X009286Y006509D01*
X009286Y006410D02*
X009383Y006410D01*
X009383Y006312D02*
X009286Y006312D01*
X009643Y006312D02*
X011280Y006312D01*
X011280Y006410D02*
X009681Y006410D01*
X009681Y006509D02*
X011280Y006509D01*
X011280Y006706D02*
X009681Y006706D01*
X009681Y006804D02*
X011280Y006804D01*
X011280Y006903D02*
X009628Y006903D01*
X009383Y006903D02*
X009286Y006903D01*
X009286Y006804D02*
X009383Y006804D01*
X009383Y006706D02*
X009286Y006706D01*
X009041Y006903D02*
X009017Y006903D01*
X008314Y006903D02*
X000720Y006903D01*
X000720Y007001D02*
X011280Y007001D01*
X011280Y007100D02*
X000720Y007100D01*
X000720Y007198D02*
X011280Y007198D01*
X011223Y007297D02*
X000720Y007297D01*
X000720Y007395D02*
X011175Y007395D01*
X011160Y007494D02*
X000720Y007494D01*
X000720Y007592D02*
X011170Y007592D01*
X011211Y007691D02*
X000720Y007691D01*
X000720Y007789D02*
X011309Y007789D01*
X011500Y007500D02*
X011500Y005500D01*
X011178Y005130D02*
X010822Y005130D01*
X010921Y005228D02*
X011079Y005228D01*
X010990Y005297D02*
X010703Y005010D01*
X010297Y005010D01*
X010010Y005297D01*
X010010Y005703D01*
X010297Y005990D01*
X010703Y005990D01*
X010990Y005703D01*
X010990Y005297D01*
X010990Y005327D02*
X011010Y005327D01*
X011010Y005425D02*
X010990Y005425D01*
X010990Y005524D02*
X011010Y005524D01*
X011010Y005622D02*
X010990Y005622D01*
X010972Y005721D02*
X011028Y005721D01*
X011126Y005819D02*
X010874Y005819D01*
X010775Y005918D02*
X011225Y005918D01*
X011280Y006016D02*
X008870Y006016D01*
X008870Y005918D02*
X009281Y005918D01*
X009314Y005950D02*
X009050Y005686D01*
X009050Y005550D01*
X009450Y005550D01*
X009450Y005950D01*
X009314Y005950D01*
X009450Y005918D02*
X009550Y005918D01*
X009550Y005950D02*
X009686Y005950D01*
X009950Y005686D01*
X009950Y005550D01*
X009550Y005550D01*
X009550Y005450D01*
X009950Y005450D01*
X009950Y005314D01*
X009686Y005050D01*
X009550Y005050D01*
X009550Y005450D01*
X009450Y005450D01*
X009450Y005050D01*
X009314Y005050D01*
X009050Y005314D01*
X009050Y005450D01*
X009450Y005450D01*
X009450Y005550D01*
X009550Y005550D01*
X009550Y005950D01*
X009550Y005819D02*
X009450Y005819D01*
X009450Y005721D02*
X009550Y005721D01*
X009550Y005622D02*
X009450Y005622D01*
X009450Y005524D02*
X008990Y005524D01*
X008990Y005622D02*
X009050Y005622D01*
X009084Y005721D02*
X008972Y005721D01*
X008874Y005819D02*
X009183Y005819D01*
X008870Y006115D02*
X011280Y006115D01*
X011280Y006213D02*
X008870Y006213D01*
X008130Y006213D02*
X000720Y006213D01*
X000720Y006115D02*
X008130Y006115D01*
X008130Y006016D02*
X000720Y006016D01*
X000720Y005918D02*
X008130Y005918D01*
X008126Y005819D02*
X000720Y005819D01*
X000720Y005721D02*
X008028Y005721D01*
X008010Y005622D02*
X000720Y005622D01*
X000720Y005524D02*
X008010Y005524D01*
X008010Y005425D02*
X000720Y005425D01*
X000720Y005327D02*
X008010Y005327D01*
X008079Y005228D02*
X000720Y005228D01*
X000720Y005130D02*
X008130Y005130D01*
X008130Y005031D02*
X000720Y005031D01*
X000720Y004933D02*
X008130Y004933D01*
X008130Y004834D02*
X000720Y004834D01*
X000720Y004736D02*
X008043Y004736D01*
X008010Y004637D02*
X000720Y004637D01*
X000720Y004539D02*
X008010Y004539D01*
X008010Y004440D02*
X000720Y004440D01*
X000720Y004342D02*
X008010Y004342D01*
X008064Y004243D02*
X000720Y004243D01*
X000720Y004145D02*
X008130Y004145D01*
X008130Y004046D02*
X000720Y004046D01*
X000720Y003948D02*
X008130Y003948D01*
X008130Y003849D02*
X000720Y003849D01*
X000720Y003751D02*
X008130Y003751D01*
X008130Y003652D02*
X003377Y003652D01*
X003436Y003628D02*
X003315Y003677D01*
X003185Y003677D01*
X003064Y003628D01*
X002972Y003536D01*
X002923Y003415D01*
X002923Y003285D01*
X002972Y003164D01*
X003064Y003072D01*
X003185Y003023D01*
X003315Y003023D01*
X003436Y003072D01*
X003528Y003164D01*
X003577Y003285D01*
X003577Y003415D01*
X003528Y003536D01*
X003436Y003628D01*
X003510Y003554D02*
X008130Y003554D01*
X008130Y003455D02*
X003561Y003455D01*
X003577Y003357D02*
X008130Y003357D01*
X008130Y003258D02*
X003566Y003258D01*
X003523Y003160D02*
X008130Y003160D01*
X008130Y003061D02*
X003408Y003061D01*
X003092Y003061D02*
X000720Y003061D01*
X000720Y002963D02*
X008130Y002963D01*
X008130Y002864D02*
X000720Y002864D01*
X000720Y002766D02*
X008130Y002766D01*
X008130Y002667D02*
X000720Y002667D01*
X000720Y002569D02*
X008130Y002569D01*
X008130Y002470D02*
X000720Y002470D01*
X000720Y002372D02*
X008130Y002372D01*
X008152Y002273D02*
X000720Y002273D01*
X000720Y002175D02*
X008202Y002175D01*
X008301Y002076D02*
X000720Y002076D01*
X000720Y001978D02*
X008399Y001978D01*
X008498Y001879D02*
X000720Y001879D01*
X000720Y001781D02*
X008596Y001781D01*
X008695Y001682D02*
X000720Y001682D01*
X000720Y001584D02*
X008793Y001584D01*
X008892Y001485D02*
X000720Y001485D01*
X000720Y001387D02*
X008990Y001387D01*
X009089Y001288D02*
X000720Y001288D01*
X000720Y001190D02*
X009187Y001190D01*
X009286Y001091D02*
X000720Y001091D01*
X000720Y000993D02*
X009384Y000993D01*
X009483Y000894D02*
X000720Y000894D01*
X000720Y000796D02*
X009581Y000796D01*
X010135Y001288D02*
X020999Y001288D01*
X020782Y001387D02*
X010037Y001387D01*
X009938Y001485D02*
X020684Y001485D01*
X020585Y001584D02*
X009840Y001584D01*
X009741Y001682D02*
X020537Y001682D01*
X020496Y001781D02*
X009643Y001781D01*
X009544Y001879D02*
X020455Y001879D01*
X020450Y001978D02*
X009446Y001978D01*
X009347Y002076D02*
X020450Y002076D01*
X020450Y002175D02*
X009249Y002175D01*
X009150Y002273D02*
X020477Y002273D01*
X020517Y002372D02*
X009052Y002372D01*
X008953Y002470D02*
X020558Y002470D01*
X020637Y002569D02*
X008870Y002569D01*
X008870Y002667D02*
X020736Y002667D01*
X020887Y002766D02*
X008870Y002766D01*
X008870Y002864D02*
X022130Y002864D01*
X022130Y002766D02*
X021613Y002766D01*
X021764Y002667D02*
X022130Y002667D01*
X022130Y002569D02*
X021863Y002569D01*
X021942Y002470D02*
X022130Y002470D01*
X022130Y002372D02*
X021983Y002372D01*
X022023Y002273D02*
X022130Y002273D01*
X022130Y002175D02*
X022050Y002175D01*
X022050Y002076D02*
X022130Y002076D01*
X022130Y001978D02*
X022050Y001978D01*
X022045Y001879D02*
X022130Y001879D01*
X022057Y001781D02*
X022004Y001781D01*
X021610Y001333D02*
X021457Y001270D01*
X021547Y001270D01*
X021610Y001333D01*
X021565Y001288D02*
X021501Y001288D01*
X022043Y000720D02*
X022780Y001457D01*
X022780Y000720D01*
X022043Y000720D01*
X022119Y000796D02*
X022780Y000796D01*
X022780Y000894D02*
X022217Y000894D01*
X022316Y000993D02*
X022780Y000993D01*
X022780Y001091D02*
X022414Y001091D01*
X022513Y001190D02*
X022780Y001190D01*
X022780Y001288D02*
X022611Y001288D01*
X022710Y001387D02*
X022780Y001387D01*
X022130Y002963D02*
X008870Y002963D01*
X008870Y003061D02*
X022130Y003061D01*
X022130Y003160D02*
X019252Y003160D01*
X018748Y003160D02*
X018252Y003160D01*
X017748Y003160D02*
X008870Y003160D01*
X008870Y003258D02*
X017015Y003258D01*
X016856Y003357D02*
X008870Y003357D01*
X008870Y003455D02*
X016557Y003455D01*
X016533Y003554D02*
X008870Y003554D01*
X008870Y003652D02*
X016533Y003652D01*
X016524Y003751D02*
X008870Y003751D01*
X008870Y003849D02*
X016533Y003849D01*
X016533Y003948D02*
X008870Y003948D01*
X008870Y004046D02*
X010261Y004046D01*
X010297Y004010D02*
X010010Y004297D01*
X010010Y004703D01*
X010297Y004990D01*
X010703Y004990D01*
X010990Y004703D01*
X010990Y004297D01*
X010703Y004010D01*
X010297Y004010D01*
X010163Y004145D02*
X009781Y004145D01*
X009686Y004050D02*
X009950Y004314D01*
X009950Y004450D01*
X009550Y004450D01*
X009550Y004550D01*
X009950Y004550D01*
X009950Y004686D01*
X009686Y004950D01*
X009550Y004950D01*
X009550Y004550D01*
X009450Y004550D01*
X009450Y004950D01*
X009314Y004950D01*
X009050Y004686D01*
X009050Y004550D01*
X009450Y004550D01*
X009450Y004450D01*
X009550Y004450D01*
X009550Y004050D01*
X009686Y004050D01*
X009550Y004145D02*
X009450Y004145D01*
X009450Y004050D02*
X009450Y004450D01*
X009050Y004450D01*
X009050Y004314D01*
X009314Y004050D01*
X009450Y004050D01*
X009450Y004243D02*
X009550Y004243D01*
X009550Y004342D02*
X009450Y004342D01*
X009450Y004440D02*
X009550Y004440D01*
X009550Y004539D02*
X010010Y004539D01*
X010010Y004637D02*
X009950Y004637D01*
X009901Y004736D02*
X010043Y004736D01*
X010141Y004834D02*
X009802Y004834D01*
X009704Y004933D02*
X010240Y004933D01*
X010276Y005031D02*
X008870Y005031D01*
X008870Y004933D02*
X009296Y004933D01*
X009198Y004834D02*
X008870Y004834D01*
X008957Y004736D02*
X009099Y004736D01*
X009050Y004637D02*
X008990Y004637D01*
X008990Y004539D02*
X009450Y004539D01*
X009450Y004637D02*
X009550Y004637D01*
X009550Y004736D02*
X009450Y004736D01*
X009450Y004834D02*
X009550Y004834D01*
X009550Y004933D02*
X009450Y004933D01*
X009450Y005130D02*
X009550Y005130D01*
X009550Y005228D02*
X009450Y005228D01*
X009450Y005327D02*
X009550Y005327D01*
X009550Y005425D02*
X009450Y005425D01*
X009550Y005524D02*
X010010Y005524D01*
X010010Y005622D02*
X009950Y005622D01*
X009916Y005721D02*
X010028Y005721D01*
X010126Y005819D02*
X009817Y005819D01*
X009719Y005918D02*
X010225Y005918D01*
X010010Y005425D02*
X009950Y005425D01*
X009950Y005327D02*
X010010Y005327D01*
X010079Y005228D02*
X009864Y005228D01*
X009766Y005130D02*
X010178Y005130D01*
X010724Y005031D02*
X011276Y005031D01*
X011297Y004990D02*
X011010Y004703D01*
X011010Y004297D01*
X011297Y004010D01*
X011703Y004010D01*
X011990Y004297D01*
X011990Y004703D01*
X011703Y004990D01*
X011297Y004990D01*
X011240Y004933D02*
X010760Y004933D01*
X010859Y004834D02*
X011141Y004834D01*
X011043Y004736D02*
X010957Y004736D01*
X010990Y004637D02*
X011010Y004637D01*
X011010Y004539D02*
X010990Y004539D01*
X010990Y004440D02*
X011010Y004440D01*
X011010Y004342D02*
X010990Y004342D01*
X010936Y004243D02*
X011064Y004243D01*
X011163Y004145D02*
X010837Y004145D01*
X010739Y004046D02*
X011261Y004046D01*
X011739Y004046D02*
X012261Y004046D01*
X012163Y004145D02*
X011837Y004145D01*
X011936Y004243D02*
X012064Y004243D01*
X012010Y004342D02*
X011990Y004342D01*
X011990Y004440D02*
X012010Y004440D01*
X012010Y004539D02*
X011990Y004539D01*
X011990Y004637D02*
X012010Y004637D01*
X012043Y004736D02*
X011957Y004736D01*
X011859Y004834D02*
X012141Y004834D01*
X012240Y004933D02*
X011760Y004933D01*
X011724Y005031D02*
X012276Y005031D01*
X012178Y005130D02*
X011822Y005130D01*
X011921Y005228D02*
X012079Y005228D01*
X012010Y005327D02*
X011990Y005327D01*
X011990Y005425D02*
X012010Y005425D01*
X012010Y005524D02*
X011990Y005524D01*
X011990Y005622D02*
X012010Y005622D01*
X012028Y005721D02*
X011972Y005721D01*
X011874Y005819D02*
X012126Y005819D01*
X012225Y005918D02*
X011775Y005918D01*
X010010Y004440D02*
X009950Y004440D01*
X009950Y004342D02*
X010010Y004342D01*
X010064Y004243D02*
X009879Y004243D01*
X009219Y004145D02*
X008870Y004145D01*
X008936Y004243D02*
X009121Y004243D01*
X009050Y004342D02*
X008990Y004342D01*
X008990Y004440D02*
X009050Y004440D01*
X008870Y005130D02*
X009234Y005130D01*
X009136Y005228D02*
X008921Y005228D01*
X008990Y005327D02*
X009050Y005327D01*
X009050Y005425D02*
X008990Y005425D01*
X008130Y006312D02*
X000720Y006312D01*
X000720Y006410D02*
X008130Y006410D01*
X008130Y006509D02*
X000720Y006509D01*
X000720Y006607D02*
X008171Y006607D01*
X008248Y006706D02*
X000720Y006706D01*
X000720Y006804D02*
X008279Y006804D01*
X003123Y003652D02*
X000720Y003652D01*
X000720Y003554D02*
X002990Y003554D01*
X002939Y003455D02*
X000720Y003455D01*
X000720Y003357D02*
X002923Y003357D01*
X002934Y003258D02*
X000720Y003258D01*
X000720Y003160D02*
X002977Y003160D01*
X000720Y008676D02*
X015019Y008676D01*
X015019Y008774D02*
X000720Y008774D01*
X003807Y017810D02*
X007287Y021290D01*
X008097Y021290D01*
X008010Y021203D01*
X008010Y020807D01*
X005013Y017810D01*
X003807Y017810D01*
X003833Y017836D02*
X005039Y017836D01*
X005138Y017935D02*
X003932Y017935D01*
X004030Y018033D02*
X005236Y018033D01*
X005335Y018132D02*
X004129Y018132D01*
X004227Y018230D02*
X005433Y018230D01*
X005532Y018329D02*
X004326Y018329D01*
X004424Y018427D02*
X005630Y018427D01*
X005729Y018526D02*
X004523Y018526D01*
X004621Y018624D02*
X005827Y018624D01*
X005926Y018723D02*
X004720Y018723D01*
X004818Y018821D02*
X006024Y018821D01*
X006123Y018920D02*
X004917Y018920D01*
X005015Y019018D02*
X006221Y019018D01*
X006320Y019117D02*
X005114Y019117D01*
X005212Y019215D02*
X006418Y019215D01*
X006517Y019314D02*
X005311Y019314D01*
X005409Y019412D02*
X006615Y019412D01*
X006714Y019511D02*
X005508Y019511D01*
X005606Y019609D02*
X006812Y019609D01*
X006911Y019708D02*
X005705Y019708D01*
X005803Y019806D02*
X007009Y019806D01*
X007108Y019905D02*
X005902Y019905D01*
X006000Y020003D02*
X007206Y020003D01*
X007305Y020102D02*
X006099Y020102D01*
X006197Y020200D02*
X007403Y020200D01*
X007502Y020299D02*
X006296Y020299D01*
X006394Y020397D02*
X007600Y020397D01*
X007699Y020496D02*
X006493Y020496D01*
X006591Y020594D02*
X007797Y020594D01*
X007896Y020693D02*
X006690Y020693D01*
X006788Y020791D02*
X007994Y020791D01*
X008010Y020890D02*
X006887Y020890D01*
X006985Y020988D02*
X008010Y020988D01*
X008010Y021087D02*
X007084Y021087D01*
X007182Y021185D02*
X008010Y021185D01*
X008091Y021284D02*
X007281Y021284D01*
X006490Y021087D02*
X003488Y021087D01*
X003012Y021087D02*
X000720Y021087D01*
X000720Y021185D02*
X001204Y021185D01*
X001105Y021284D02*
X000720Y021284D01*
X000720Y021382D02*
X001080Y021382D01*
X001080Y021481D02*
X000720Y021481D01*
X000720Y021579D02*
X001080Y021579D01*
X001080Y021678D02*
X000720Y021678D01*
X000720Y021776D02*
X001080Y021776D01*
X001080Y021875D02*
X000720Y021875D01*
X000720Y021973D02*
X001080Y021973D01*
X001080Y022072D02*
X000720Y022072D01*
X000720Y022170D02*
X001080Y022170D01*
X001080Y022269D02*
X000720Y022269D01*
X000720Y022367D02*
X001080Y022367D01*
X000720Y020988D02*
X002914Y020988D01*
X002868Y020890D02*
X000720Y020890D01*
X000720Y020791D02*
X002844Y020791D01*
X002844Y020693D02*
X000720Y020693D01*
X000720Y020594D02*
X002875Y020594D01*
X002930Y020496D02*
X000720Y020496D01*
X003349Y018132D02*
X003535Y018132D01*
X005552Y021875D02*
X005648Y021875D01*
X005648Y021973D02*
X005552Y021973D01*
X005552Y022072D02*
X005648Y022072D01*
X005927Y022269D02*
X006100Y022269D01*
X006100Y022367D02*
X005927Y022367D01*
X005897Y022466D02*
X006100Y022466D01*
X010712Y021481D02*
X011288Y021481D01*
X011189Y021382D02*
X010811Y021382D01*
X010909Y021284D02*
X011091Y021284D01*
X011010Y021185D02*
X010990Y021185D01*
X010990Y021087D02*
X011010Y021087D01*
X011010Y020988D02*
X010990Y020988D01*
X010990Y020890D02*
X011010Y020890D01*
X011016Y020791D02*
X010984Y020791D01*
X010886Y020693D02*
X011114Y020693D01*
X011213Y020594D02*
X010787Y020594D01*
X010796Y020397D02*
X011204Y020397D01*
X011106Y020299D02*
X010894Y020299D01*
X010990Y020200D02*
X011010Y020200D01*
X011010Y020102D02*
X010990Y020102D01*
X010990Y020003D02*
X011010Y020003D01*
X011010Y019905D02*
X010990Y019905D01*
X010990Y019806D02*
X011009Y019806D01*
X010911Y019708D02*
X010901Y019708D01*
X010812Y019609D02*
X010802Y019609D01*
X010714Y019511D02*
X010704Y019511D01*
X011990Y020102D02*
X012050Y020102D01*
X012064Y020200D02*
X011990Y020200D01*
X011894Y020299D02*
X012162Y020299D01*
X012050Y021087D02*
X011990Y021087D01*
X011990Y021185D02*
X012050Y021185D01*
X012147Y021284D02*
X011909Y021284D01*
X012754Y021382D02*
X013130Y021382D01*
X013091Y021284D02*
X012853Y021284D01*
X012950Y021185D02*
X013010Y021185D01*
X013010Y021087D02*
X012950Y021087D01*
X019283Y013010D02*
X022130Y013010D01*
X018784Y012123D02*
X018216Y012123D01*
X018314Y012222D02*
X018686Y012222D01*
X015847Y011040D02*
X015497Y011040D01*
X015595Y010941D02*
X015748Y010941D01*
X015710Y010843D02*
X015650Y010843D01*
X015580Y009956D02*
X015763Y009956D01*
X015710Y009858D02*
X015650Y009858D01*
X015650Y009759D02*
X015710Y009759D01*
X013990Y005819D02*
X017526Y005819D01*
X017510Y005721D02*
X013990Y005721D01*
X013990Y005622D02*
X017510Y005622D01*
X017510Y005524D02*
X013990Y005524D01*
X013990Y005425D02*
X017510Y005425D01*
X017581Y005327D02*
X013990Y005327D01*
X013990Y005228D02*
X017679Y005228D01*
X017778Y005130D02*
X013990Y005130D01*
X013911Y005031D02*
X017795Y005031D01*
X017696Y004933D02*
X013760Y004933D01*
X013859Y004834D02*
X017598Y004834D01*
X017550Y004736D02*
X017196Y004736D01*
X017227Y004637D02*
X017950Y004637D01*
X017950Y004539D02*
X018050Y004539D01*
X018050Y004550D02*
X018050Y004150D01*
X018186Y004150D01*
X018450Y004414D01*
X018450Y004550D01*
X018050Y004550D01*
X018050Y004440D02*
X017950Y004440D01*
X017950Y004342D02*
X018050Y004342D01*
X018050Y004243D02*
X017950Y004243D01*
X017753Y004046D02*
X017267Y004046D01*
X016948Y004539D02*
X016852Y004539D01*
X016852Y004637D02*
X016948Y004637D01*
X016948Y004736D02*
X016852Y004736D01*
X016604Y004736D02*
X013957Y004736D01*
X013990Y004637D02*
X016573Y004637D01*
X016573Y004539D02*
X013990Y004539D01*
X018247Y004046D02*
X018753Y004046D01*
X018721Y004243D02*
X018279Y004243D01*
X018378Y004342D02*
X018622Y004342D01*
X018550Y004440D02*
X018450Y004440D01*
X018450Y004539D02*
X018550Y004539D01*
X018550Y004736D02*
X018450Y004736D01*
X018402Y004834D02*
X018598Y004834D01*
X018696Y004933D02*
X018304Y004933D01*
X018950Y004933D02*
X019050Y004933D01*
X019050Y005031D02*
X018950Y005031D01*
X018950Y004834D02*
X019050Y004834D01*
X019050Y004736D02*
X018950Y004736D01*
X018950Y004440D02*
X019050Y004440D01*
X019050Y004342D02*
X018950Y004342D01*
X018950Y004243D02*
X019050Y004243D01*
X021617Y018624D02*
X021714Y018624D01*
X021714Y018723D02*
X021617Y018723D01*
X021617Y018821D02*
X021714Y018821D01*
X022770Y023254D02*
X022780Y023254D01*
X022780Y023352D02*
X022671Y023352D01*
X022573Y023451D02*
X022780Y023451D01*
X022780Y023549D02*
X022474Y023549D01*
X022376Y023648D02*
X022780Y023648D01*
X022780Y023746D02*
X022277Y023746D01*
X022179Y023845D02*
X022780Y023845D01*
X022780Y023943D02*
X022080Y023943D01*
X021982Y024042D02*
X022780Y024042D01*
X022780Y024140D02*
X021883Y024140D01*
X021785Y024239D02*
X022780Y024239D01*
X022780Y024337D02*
X021686Y024337D01*
X021588Y024436D02*
X022780Y024436D01*
X022780Y024534D02*
X021489Y024534D01*
D17*
X005600Y023565D02*
X005600Y023200D01*
X005500Y023200D01*
X004420Y023200D01*
X004420Y022290D02*
X005475Y022290D01*
X005600Y022165D01*
D18*
X005600Y022835D02*
X005600Y023200D01*
X005500Y023200D02*
X006600Y023200D01*
X005600Y024235D02*
X013500Y024235D01*
X013500Y021000D01*
X013500Y020000D01*
X013500Y019065D01*
X013335Y018900D01*
X012665Y018900D02*
X012500Y019065D01*
X012500Y020000D01*
X013500Y024235D02*
X021265Y024235D01*
X022500Y023000D01*
X022500Y021000D01*
X022500Y020000D01*
X022500Y018900D01*
X022335Y018900D01*
X022500Y018900D02*
X022500Y012700D01*
X022400Y012600D01*
X019000Y012600D01*
X018000Y012600D01*
X017065Y012600D01*
X016900Y012765D01*
X016900Y013435D02*
X017065Y013600D01*
X018000Y013600D01*
X016200Y010700D02*
X022300Y010700D01*
X022500Y010900D01*
X022500Y003600D01*
X019000Y003600D01*
X018000Y003600D01*
X017165Y003600D01*
X016900Y003765D01*
X016900Y004435D02*
X016965Y004600D01*
X018000Y004600D01*
X016035Y008600D02*
X016200Y008765D01*
X016200Y009700D01*
X016200Y010700D01*
X015200Y009700D02*
X015200Y008765D01*
X015365Y008600D01*
X009500Y006435D02*
X009500Y005500D01*
X009500Y006435D02*
X009335Y006600D01*
X008665Y006600D02*
X008500Y006435D01*
X008500Y005500D01*
X008500Y004500D01*
X008500Y002400D01*
X010000Y000900D01*
X021700Y000900D01*
X022500Y001700D01*
X022500Y003600D01*
X022500Y010900D02*
X022500Y012700D01*
X021665Y018900D02*
X021665Y018935D01*
X021500Y019100D01*
X021500Y020000D01*
X005600Y024235D02*
X005475Y024110D01*
X004420Y024110D01*
X004420Y022290D02*
X004400Y022270D01*
X004400Y021700D01*
X004100Y021600D02*
X003900Y021600D01*
X002600Y021600D01*
X003200Y021600D02*
X003900Y021600D01*
D19*
X003900Y021600D03*
X002600Y021600D03*
X003100Y017900D03*
X003400Y017600D03*
X003100Y017300D03*
X003400Y017000D03*
X003400Y016400D03*
X006600Y023200D03*
X013500Y016000D03*
X014800Y016300D03*
X016200Y016700D03*
X016100Y015100D03*
X012100Y008300D03*
X011500Y007500D03*
X013400Y007000D03*
D20*
X013500Y016000D02*
X017500Y020000D01*
X018500Y020000D02*
X014800Y016300D01*
X016200Y016700D02*
X019500Y020000D01*
X011500Y020000D02*
X007900Y016400D01*
X003400Y016400D01*
X003200Y016700D02*
X007200Y016700D01*
X010500Y020000D01*
X009500Y020000D02*
X006500Y017000D01*
X003400Y017000D01*
X003200Y016700D02*
X003100Y016800D01*
X003100Y017300D01*
X003400Y017600D02*
X005100Y017600D01*
X008500Y021000D01*
X009000Y021500D02*
X009500Y021000D01*
X009000Y021500D02*
X007200Y021500D01*
X003600Y017900D01*
X003100Y017900D01*
M02*
