G75*
G70*
%OFA0B0*%
%FSLAX24Y24*%
%IPPOS*%
%LPD*%
%AMOC8*
5,1,8,0,0,1.08239X$1,22.5*
%
%ADD10R,0.0787X0.0197*%
%ADD11R,0.0640X0.0640*%
%ADD12OC8,0.0640*%
%ADD13C,0.0100*%
%ADD14C,0.0400*%
%ADD15C,0.0340*%
%ADD16C,0.0080*%
%ADD17C,0.0120*%
D10*
X002384Y004332D03*
X002384Y004647D03*
X002384Y004962D03*
X002384Y005277D03*
X002384Y005592D03*
X002384Y005907D03*
X002384Y006222D03*
X002384Y006537D03*
X002384Y006852D03*
X002384Y007167D03*
X002384Y007482D03*
X002384Y007797D03*
X002384Y008112D03*
X002384Y008427D03*
X002384Y008742D03*
X002384Y009057D03*
X002384Y009372D03*
X002384Y009687D03*
X002384Y010002D03*
X002384Y010317D03*
X002384Y010632D03*
X002384Y010947D03*
X002384Y011262D03*
X002384Y011577D03*
X002384Y011891D03*
X002384Y012206D03*
X002384Y012521D03*
X002384Y012836D03*
X002384Y013151D03*
X002384Y013466D03*
X002384Y013781D03*
X002384Y014096D03*
X002384Y014411D03*
X002384Y014726D03*
X002384Y015041D03*
X002384Y015356D03*
X002384Y015671D03*
X002384Y015986D03*
X002384Y016301D03*
X002384Y016616D03*
X002384Y016931D03*
X002384Y017246D03*
X002384Y017561D03*
X002384Y017876D03*
X002384Y018191D03*
X002384Y018506D03*
X002384Y018821D03*
X002384Y019136D03*
X002384Y019451D03*
X002384Y019766D03*
X004116Y019766D03*
X004116Y019451D03*
X004116Y019136D03*
X004116Y018821D03*
X004116Y018506D03*
X004116Y018191D03*
X004116Y017876D03*
X004116Y017561D03*
X004116Y017246D03*
X004116Y016931D03*
X004116Y016616D03*
X004116Y016301D03*
X004116Y015986D03*
X004116Y015671D03*
X004116Y015356D03*
X004116Y015041D03*
X004116Y014726D03*
X004116Y014411D03*
X004116Y014096D03*
X004116Y013781D03*
X004116Y013466D03*
X004116Y013151D03*
X004116Y012836D03*
X004116Y012521D03*
X004116Y012206D03*
X004116Y011891D03*
X004116Y011577D03*
X004116Y011262D03*
X004116Y010947D03*
X004116Y010632D03*
X004116Y010317D03*
X004116Y010002D03*
X004116Y009687D03*
X004116Y009372D03*
X004116Y009057D03*
X004116Y008742D03*
X004116Y008427D03*
X004116Y008112D03*
X004116Y007797D03*
X004116Y007482D03*
X004116Y007167D03*
X004116Y006852D03*
X004116Y006537D03*
X004116Y006222D03*
X004116Y005907D03*
X004116Y005592D03*
X004116Y005277D03*
X004116Y004962D03*
X004116Y004647D03*
X004116Y004332D03*
D11*
X013200Y009700D03*
X013500Y005500D03*
X018000Y008600D03*
X018000Y017600D03*
X017500Y020000D03*
X008500Y020000D03*
D12*
X008500Y021000D03*
X009500Y021000D03*
X009500Y020000D03*
X010500Y020000D03*
X010500Y021000D03*
X011500Y021000D03*
X011500Y020000D03*
X012500Y020000D03*
X012500Y021000D03*
X013500Y021000D03*
X013500Y020000D03*
X017500Y021000D03*
X018500Y021000D03*
X018500Y020000D03*
X019500Y020000D03*
X019500Y021000D03*
X020500Y021000D03*
X020500Y020000D03*
X021500Y020000D03*
X021500Y021000D03*
X022500Y021000D03*
X022500Y020000D03*
X019000Y017600D03*
X019000Y016600D03*
X019000Y015600D03*
X019000Y014600D03*
X019000Y013600D03*
X019000Y012600D03*
X018000Y012600D03*
X018000Y013600D03*
X018000Y014600D03*
X018000Y015600D03*
X018000Y016600D03*
X016200Y010700D03*
X016200Y009700D03*
X015200Y009700D03*
X015200Y010700D03*
X014200Y010700D03*
X014200Y009700D03*
X013200Y010700D03*
X018000Y007600D03*
X018000Y006600D03*
X018000Y005600D03*
X018000Y004600D03*
X018000Y003600D03*
X019000Y003600D03*
X019000Y004600D03*
X019000Y005600D03*
X019000Y006600D03*
X019000Y007600D03*
X019000Y008600D03*
X013500Y004500D03*
X012500Y004500D03*
X012500Y005500D03*
X011500Y005500D03*
X011500Y004500D03*
X010500Y004500D03*
X010500Y005500D03*
X009500Y005500D03*
X009500Y004500D03*
X008500Y004500D03*
X008500Y005500D03*
D13*
X000720Y000720D02*
X000720Y024780D01*
X022780Y024780D01*
X022780Y021413D01*
X022703Y021490D01*
X022297Y021490D01*
X022010Y021203D01*
X022010Y020797D01*
X022297Y020510D01*
X022703Y020510D01*
X022780Y020587D01*
X022780Y020413D01*
X022703Y020490D01*
X022297Y020490D01*
X022010Y020203D01*
X022010Y019797D01*
X022297Y019510D01*
X022703Y019510D01*
X022780Y019587D01*
X022780Y000720D01*
X000720Y000720D01*
X000720Y000796D02*
X022780Y000796D01*
X022780Y000894D02*
X000720Y000894D01*
X000720Y000993D02*
X022780Y000993D01*
X022780Y001091D02*
X000720Y001091D01*
X000720Y001190D02*
X022780Y001190D01*
X022780Y001288D02*
X021501Y001288D01*
X021409Y001250D02*
X021091Y001250D01*
X020797Y001372D01*
X020572Y001597D01*
X020450Y001891D01*
X020450Y002209D01*
X020572Y002503D01*
X020797Y002728D01*
X021091Y002850D01*
X021409Y002850D01*
X021703Y002728D01*
X021928Y002503D01*
X022050Y002209D01*
X022050Y001891D01*
X021928Y001597D01*
X021703Y001372D01*
X021409Y001250D01*
X021718Y001387D02*
X022780Y001387D01*
X022780Y001485D02*
X021816Y001485D01*
X021915Y001584D02*
X022780Y001584D01*
X022780Y001682D02*
X021963Y001682D01*
X022004Y001781D02*
X022780Y001781D01*
X022780Y001879D02*
X022045Y001879D01*
X022050Y001978D02*
X022780Y001978D01*
X022780Y002076D02*
X022050Y002076D01*
X022050Y002175D02*
X022780Y002175D01*
X022780Y002273D02*
X022023Y002273D01*
X021983Y002372D02*
X022780Y002372D01*
X022780Y002470D02*
X021942Y002470D01*
X021863Y002569D02*
X022780Y002569D01*
X022780Y002667D02*
X021764Y002667D01*
X021613Y002766D02*
X022780Y002766D01*
X022780Y002864D02*
X000720Y002864D01*
X000720Y002766D02*
X020887Y002766D01*
X020736Y002667D02*
X000720Y002667D01*
X000720Y002569D02*
X020637Y002569D01*
X020558Y002470D02*
X000720Y002470D01*
X000720Y002372D02*
X020517Y002372D01*
X020477Y002273D02*
X000720Y002273D01*
X000720Y002175D02*
X020450Y002175D01*
X020450Y002076D02*
X000720Y002076D01*
X000720Y001978D02*
X020450Y001978D01*
X020455Y001879D02*
X000720Y001879D01*
X000720Y001781D02*
X020496Y001781D01*
X020537Y001682D02*
X000720Y001682D01*
X000720Y001584D02*
X020585Y001584D01*
X020684Y001485D02*
X000720Y001485D01*
X000720Y001387D02*
X020782Y001387D01*
X020999Y001288D02*
X000720Y001288D01*
X000720Y002963D02*
X022780Y002963D01*
X022780Y003061D02*
X003408Y003061D01*
X003436Y003072D02*
X003528Y003164D01*
X003577Y003285D01*
X003577Y003415D01*
X003528Y003536D01*
X003436Y003628D01*
X003315Y003677D01*
X003185Y003677D01*
X003064Y003628D01*
X002972Y003536D01*
X002923Y003415D01*
X002923Y003285D01*
X002972Y003164D01*
X003064Y003072D01*
X003185Y003023D01*
X003315Y003023D01*
X003436Y003072D01*
X003523Y003160D02*
X017748Y003160D01*
X017797Y003110D02*
X018203Y003110D01*
X018490Y003397D01*
X018490Y003803D01*
X018203Y004090D01*
X017797Y004090D01*
X017510Y003803D01*
X017510Y003397D01*
X017797Y003110D01*
X017649Y003258D02*
X003566Y003258D01*
X003577Y003357D02*
X017551Y003357D01*
X017510Y003455D02*
X003561Y003455D01*
X003510Y003554D02*
X017510Y003554D01*
X017510Y003652D02*
X003377Y003652D01*
X003123Y003652D02*
X000720Y003652D01*
X000720Y003554D02*
X002990Y003554D01*
X002939Y003455D02*
X000720Y003455D01*
X000720Y003357D02*
X002923Y003357D01*
X002934Y003258D02*
X000720Y003258D01*
X000720Y003160D02*
X002977Y003160D01*
X003092Y003061D02*
X000720Y003061D01*
X000720Y003751D02*
X017510Y003751D01*
X017556Y003849D02*
X000720Y003849D01*
X000720Y003948D02*
X017655Y003948D01*
X017753Y004046D02*
X013739Y004046D01*
X013703Y004010D02*
X013990Y004297D01*
X013990Y004703D01*
X013703Y004990D01*
X013301Y004990D01*
X013321Y005010D01*
X013890Y005010D01*
X013990Y005110D01*
X013990Y005890D01*
X013890Y005990D01*
X013110Y005990D01*
X013010Y005890D01*
X013010Y005321D01*
X012990Y005301D01*
X012990Y005703D01*
X012720Y005973D01*
X012720Y006891D01*
X012420Y007191D01*
X012291Y007320D01*
X011793Y007320D01*
X011840Y007432D01*
X011840Y007449D01*
X011909Y007380D01*
X017527Y007380D01*
X017797Y007110D01*
X018203Y007110D01*
X018280Y007187D01*
X018280Y007013D01*
X018203Y007090D01*
X017797Y007090D01*
X017527Y006820D01*
X013891Y006820D01*
X013740Y006971D01*
X013740Y007068D01*
X013688Y007193D01*
X013593Y007288D01*
X013468Y007340D01*
X013332Y007340D01*
X013207Y007288D01*
X013112Y007193D01*
X013060Y007068D01*
X013060Y006932D01*
X013112Y006807D01*
X013207Y006712D01*
X013332Y006660D01*
X013429Y006660D01*
X013580Y006509D01*
X013709Y006380D01*
X017527Y006380D01*
X017797Y006110D01*
X018199Y006110D01*
X018179Y006090D01*
X017797Y006090D01*
X017510Y005803D01*
X017510Y005397D01*
X017797Y005110D01*
X018203Y005110D01*
X018490Y005397D01*
X018490Y005779D01*
X018510Y005799D01*
X018510Y005397D01*
X018797Y005110D01*
X019203Y005110D01*
X019490Y005397D01*
X019490Y005803D01*
X019220Y006073D01*
X019220Y006127D01*
X019490Y006397D01*
X019490Y006803D01*
X019203Y007090D01*
X018797Y007090D01*
X018720Y007013D01*
X018720Y007187D01*
X018797Y007110D01*
X019203Y007110D01*
X019490Y007397D01*
X019490Y007803D01*
X019203Y008090D01*
X018797Y008090D01*
X018720Y008013D01*
X018720Y008187D01*
X018797Y008110D01*
X019203Y008110D01*
X019490Y008397D01*
X019490Y008803D01*
X019203Y009090D01*
X018797Y009090D01*
X018510Y008803D01*
X018510Y008601D01*
X018490Y008621D01*
X018490Y008990D01*
X018390Y009090D01*
X017610Y009090D01*
X017510Y008990D01*
X017510Y008210D01*
X017610Y008110D01*
X018280Y008110D01*
X018280Y008013D01*
X018203Y008090D01*
X017797Y008090D01*
X017527Y007820D01*
X012091Y007820D01*
X011831Y008080D01*
X011839Y008080D01*
X011907Y008012D01*
X012032Y007960D01*
X012168Y007960D01*
X012293Y008012D01*
X012388Y008107D01*
X012440Y008232D01*
X012440Y008368D01*
X012388Y008493D01*
X012293Y008588D01*
X012168Y008640D01*
X012032Y008640D01*
X011907Y008588D01*
X011839Y008520D01*
X006991Y008520D01*
X006720Y008791D01*
X006720Y010769D01*
X006880Y010609D01*
X007009Y010480D01*
X012727Y010480D01*
X012980Y010227D01*
X012980Y010190D01*
X012810Y010190D01*
X012710Y010090D01*
X012710Y009310D01*
X012810Y009210D01*
X013590Y009210D01*
X013690Y009310D01*
X013690Y010090D01*
X013590Y010190D01*
X013420Y010190D01*
X013420Y010227D01*
X013690Y010497D01*
X013690Y010903D01*
X013403Y011190D01*
X012997Y011190D01*
X012727Y010920D01*
X007191Y010920D01*
X007020Y011091D01*
X007020Y011569D01*
X007180Y011409D01*
X007309Y011280D01*
X013509Y011280D01*
X013798Y010991D01*
X013710Y010903D01*
X013710Y010497D01*
X013980Y010227D01*
X013980Y010173D01*
X013710Y009903D01*
X013710Y009497D01*
X013997Y009210D01*
X014403Y009210D01*
X014690Y009497D01*
X014690Y009903D01*
X014420Y010173D01*
X014420Y010227D01*
X014690Y010497D01*
X014690Y010903D01*
X014403Y011190D01*
X014221Y011190D01*
X013691Y011720D01*
X007491Y011720D01*
X007320Y011891D01*
X007320Y013491D01*
X007191Y013620D01*
X006931Y013880D01*
X016691Y013880D01*
X017191Y014380D01*
X017527Y014380D01*
X017797Y014110D01*
X018203Y014110D01*
X018490Y014397D01*
X018490Y014803D01*
X018402Y014891D01*
X018591Y015080D01*
X018709Y015198D01*
X018797Y015110D01*
X019203Y015110D01*
X019490Y015397D01*
X019490Y015803D01*
X019203Y016090D01*
X018797Y016090D01*
X018720Y016013D01*
X018720Y016187D01*
X018797Y016110D01*
X019203Y016110D01*
X019490Y016397D01*
X019490Y016803D01*
X019203Y017090D01*
X018797Y017090D01*
X018720Y017013D01*
X018720Y017187D01*
X018797Y017110D01*
X019203Y017110D01*
X019490Y017397D01*
X019490Y017803D01*
X019203Y018090D01*
X018797Y018090D01*
X018510Y017803D01*
X018510Y017401D01*
X018490Y017421D01*
X018490Y017990D01*
X018390Y018090D01*
X017887Y018090D01*
X019087Y019290D01*
X020087Y019290D01*
X020307Y019510D01*
X020703Y019510D01*
X020990Y019797D01*
X020990Y020203D01*
X020703Y020490D01*
X020297Y020490D01*
X020010Y020203D01*
X020010Y019807D01*
X019913Y019710D01*
X019903Y019710D01*
X019990Y019797D01*
X019990Y020203D01*
X019703Y020490D01*
X019297Y020490D01*
X019010Y020203D01*
X019010Y019797D01*
X019097Y019710D01*
X018913Y019710D01*
X018790Y019587D01*
X016413Y017210D01*
X014007Y017210D01*
X017010Y020213D01*
X017010Y019610D01*
X017110Y019510D01*
X017890Y019510D01*
X017990Y019610D01*
X017990Y020390D01*
X017890Y020490D01*
X017287Y020490D01*
X017307Y020510D01*
X017703Y020510D01*
X017990Y020797D01*
X017990Y021203D01*
X017903Y021290D01*
X017913Y021290D01*
X018010Y021193D01*
X018010Y020797D01*
X018297Y020510D01*
X018703Y020510D01*
X018990Y020797D01*
X018990Y021203D01*
X018703Y021490D01*
X018307Y021490D01*
X018307Y021490D01*
X018713Y021490D01*
X019010Y021193D01*
X019010Y020797D01*
X019297Y020510D01*
X019703Y020510D01*
X019990Y020797D01*
X019990Y021203D01*
X019703Y021490D01*
X019307Y021490D01*
X019107Y021690D01*
X019513Y021690D01*
X020010Y021193D01*
X020010Y020797D01*
X020297Y020510D01*
X020703Y020510D01*
X020990Y020797D01*
X020990Y021203D01*
X020703Y021490D01*
X020307Y021490D01*
X019687Y022110D01*
X017013Y022110D01*
X016890Y021987D01*
X013313Y018410D01*
X004680Y018410D01*
X004680Y018480D01*
X004991Y018480D01*
X005120Y018609D01*
X005120Y021790D01*
X006413Y021790D01*
X008010Y020193D01*
X008010Y019610D01*
X008110Y019510D01*
X008890Y019510D01*
X008990Y019610D01*
X008990Y020390D01*
X008890Y020490D01*
X008307Y020490D01*
X006807Y021990D01*
X010213Y021990D01*
X011010Y021193D01*
X011010Y020797D01*
X011097Y020710D01*
X011087Y020710D01*
X010990Y020807D01*
X010990Y021203D01*
X010703Y021490D01*
X010297Y021490D01*
X010010Y021203D01*
X010010Y020797D01*
X010297Y020510D01*
X010693Y020510D01*
X010913Y020290D01*
X011097Y020290D01*
X011010Y020203D01*
X011010Y019797D01*
X011297Y019510D01*
X011703Y019510D01*
X011990Y019797D01*
X011990Y020203D01*
X011845Y020348D01*
X011910Y020413D01*
X012180Y020683D01*
X012314Y020550D01*
X012450Y020550D01*
X012450Y020950D01*
X012550Y020950D01*
X012550Y021050D01*
X012450Y021050D01*
X012450Y021450D01*
X012314Y021450D01*
X012180Y021317D01*
X012087Y021410D01*
X010887Y022610D01*
X005101Y022610D01*
X004991Y022720D01*
X001209Y022720D01*
X001080Y022591D01*
X001080Y021177D01*
X000990Y021087D01*
X000990Y016713D01*
X001113Y016590D01*
X001820Y015883D01*
X001820Y013927D01*
X001860Y013887D01*
X001860Y013781D01*
X001860Y013675D01*
X001820Y013635D01*
X001820Y012982D01*
X001860Y012942D01*
X001860Y012836D01*
X001860Y012730D01*
X001820Y012690D01*
X001820Y012038D01*
X001860Y011998D01*
X001860Y011891D01*
X001860Y011785D01*
X001820Y011745D01*
X001820Y011093D01*
X001860Y011053D01*
X001860Y010947D01*
X002384Y010947D01*
X002384Y010993D01*
X002384Y010947D01*
X002384Y010947D01*
X002908Y010947D01*
X002908Y011053D01*
X002948Y011093D01*
X002948Y011745D01*
X002908Y011785D01*
X002908Y011891D01*
X002384Y011891D01*
X002384Y011845D01*
X002384Y011845D01*
X002384Y011891D01*
X002384Y011891D01*
X002384Y011891D01*
X001860Y011891D01*
X002384Y011891D01*
X002384Y011891D01*
X002908Y011891D01*
X002908Y011998D01*
X002948Y012038D01*
X002948Y012690D01*
X002908Y012730D01*
X002908Y012836D01*
X002384Y012836D01*
X002384Y012790D01*
X002384Y012790D01*
X002384Y012836D01*
X002384Y012836D01*
X002384Y012836D01*
X001860Y012836D01*
X002384Y012836D01*
X002384Y012836D01*
X002908Y012836D01*
X002908Y012942D01*
X002948Y012982D01*
X002948Y013635D01*
X002908Y013675D01*
X002908Y013781D01*
X002384Y013781D01*
X002384Y013735D01*
X002384Y013735D01*
X002384Y013781D01*
X002384Y013781D01*
X002384Y013781D01*
X001860Y013781D01*
X002384Y013781D01*
X002384Y013781D01*
X002908Y013781D01*
X002908Y013887D01*
X002948Y013927D01*
X002948Y016390D01*
X003060Y016390D01*
X003060Y016332D01*
X003112Y016207D01*
X003207Y016112D01*
X003332Y016060D01*
X003468Y016060D01*
X003552Y016095D01*
X003552Y014557D01*
X003592Y014517D01*
X003592Y014411D01*
X003592Y014305D01*
X003552Y014265D01*
X003552Y012038D01*
X003592Y011998D01*
X003592Y011891D01*
X003592Y011785D01*
X003552Y011745D01*
X003552Y010778D01*
X003592Y010738D01*
X003592Y010632D01*
X004116Y010632D01*
X004116Y010678D01*
X004116Y010632D01*
X004116Y010632D01*
X004640Y010632D01*
X004640Y010738D01*
X004680Y010778D01*
X004680Y011745D01*
X004640Y011785D01*
X004640Y011891D01*
X004116Y011891D01*
X004116Y011845D01*
X004116Y011845D01*
X004116Y011891D01*
X004116Y011891D01*
X004116Y011891D01*
X003592Y011891D01*
X004116Y011891D01*
X004116Y011891D01*
X004640Y011891D01*
X004640Y011998D01*
X004680Y012038D01*
X004680Y012301D01*
X005487Y012301D01*
X005680Y012109D01*
X005680Y007309D01*
X005809Y007180D01*
X006109Y006880D01*
X012109Y006880D01*
X012280Y006709D01*
X012280Y005973D01*
X012010Y005703D01*
X012010Y005297D01*
X012087Y005220D01*
X011913Y005220D01*
X011990Y005297D01*
X011990Y005703D01*
X011703Y005990D01*
X011297Y005990D01*
X011010Y005703D01*
X011010Y005297D01*
X011087Y005220D01*
X010913Y005220D01*
X010990Y005297D01*
X010990Y005703D01*
X010703Y005990D01*
X010297Y005990D01*
X010010Y005703D01*
X010010Y005297D01*
X010297Y005010D01*
X010479Y005010D01*
X010499Y004990D01*
X010297Y004990D01*
X010010Y004703D01*
X010010Y004297D01*
X010297Y004010D01*
X010703Y004010D01*
X010973Y004280D01*
X011027Y004280D01*
X011297Y004010D01*
X011703Y004010D01*
X011990Y004297D01*
X011990Y004703D01*
X011913Y004780D01*
X012087Y004780D01*
X012010Y004703D01*
X012010Y004297D01*
X012297Y004010D01*
X012703Y004010D01*
X012990Y004297D01*
X012990Y004703D01*
X012913Y004780D01*
X013087Y004780D01*
X013010Y004703D01*
X013010Y004297D01*
X013297Y004010D01*
X013703Y004010D01*
X013837Y004145D02*
X022780Y004145D01*
X022780Y004243D02*
X019279Y004243D01*
X019186Y004150D02*
X019450Y004414D01*
X019450Y004550D01*
X019050Y004550D01*
X019050Y004650D01*
X018950Y004650D01*
X018950Y005050D01*
X018814Y005050D01*
X018550Y004786D01*
X018550Y004650D01*
X018950Y004650D01*
X018950Y004550D01*
X018550Y004550D01*
X018550Y004414D01*
X018814Y004150D01*
X018950Y004150D01*
X018950Y004550D01*
X019050Y004550D01*
X019050Y004150D01*
X019186Y004150D01*
X019203Y004090D02*
X018797Y004090D01*
X018510Y003803D01*
X018510Y003397D01*
X018797Y003110D01*
X019203Y003110D01*
X019490Y003397D01*
X019490Y003803D01*
X019203Y004090D01*
X019247Y004046D02*
X022780Y004046D01*
X022780Y003948D02*
X019345Y003948D01*
X019444Y003849D02*
X022780Y003849D01*
X022780Y003751D02*
X019490Y003751D01*
X019490Y003652D02*
X022780Y003652D01*
X022780Y003554D02*
X019490Y003554D01*
X019490Y003455D02*
X022780Y003455D01*
X022780Y003357D02*
X019449Y003357D01*
X019351Y003258D02*
X022780Y003258D01*
X022780Y003160D02*
X019252Y003160D01*
X018748Y003160D02*
X018252Y003160D01*
X018351Y003258D02*
X018649Y003258D01*
X018551Y003357D02*
X018449Y003357D01*
X018490Y003455D02*
X018510Y003455D01*
X018510Y003554D02*
X018490Y003554D01*
X018490Y003652D02*
X018510Y003652D01*
X018510Y003751D02*
X018490Y003751D01*
X018444Y003849D02*
X018556Y003849D01*
X018655Y003948D02*
X018345Y003948D01*
X018247Y004046D02*
X018753Y004046D01*
X018721Y004243D02*
X018279Y004243D01*
X018186Y004150D02*
X018450Y004414D01*
X018450Y004550D01*
X018050Y004550D01*
X018050Y004650D01*
X017950Y004650D01*
X017950Y005050D01*
X017814Y005050D01*
X017550Y004786D01*
X017550Y004650D01*
X017950Y004650D01*
X017950Y004550D01*
X017550Y004550D01*
X017550Y004414D01*
X017814Y004150D01*
X017950Y004150D01*
X017950Y004550D01*
X018050Y004550D01*
X018050Y004150D01*
X018186Y004150D01*
X018050Y004243D02*
X017950Y004243D01*
X017950Y004342D02*
X018050Y004342D01*
X018050Y004440D02*
X017950Y004440D01*
X017950Y004539D02*
X018050Y004539D01*
X018050Y004637D02*
X018950Y004637D01*
X018950Y004539D02*
X019050Y004539D01*
X019050Y004637D02*
X022780Y004637D01*
X022780Y004539D02*
X019450Y004539D01*
X019450Y004440D02*
X022780Y004440D01*
X022780Y004342D02*
X019378Y004342D01*
X019450Y004650D02*
X019050Y004650D01*
X019050Y005050D01*
X019186Y005050D01*
X019450Y004786D01*
X019450Y004650D01*
X019450Y004736D02*
X022780Y004736D01*
X022780Y004834D02*
X019402Y004834D01*
X019304Y004933D02*
X022780Y004933D01*
X022780Y005031D02*
X019205Y005031D01*
X019222Y005130D02*
X022780Y005130D01*
X022780Y005228D02*
X019321Y005228D01*
X019419Y005327D02*
X022780Y005327D01*
X022780Y005425D02*
X019490Y005425D01*
X019490Y005524D02*
X022780Y005524D01*
X022780Y005622D02*
X019490Y005622D01*
X019490Y005721D02*
X022780Y005721D01*
X022780Y005819D02*
X019474Y005819D01*
X019375Y005918D02*
X022780Y005918D01*
X022780Y006016D02*
X019277Y006016D01*
X019220Y006115D02*
X022780Y006115D01*
X022780Y006213D02*
X019306Y006213D01*
X019404Y006312D02*
X022780Y006312D01*
X022780Y006410D02*
X019490Y006410D01*
X019490Y006509D02*
X022780Y006509D01*
X022780Y006607D02*
X019490Y006607D01*
X019490Y006706D02*
X022780Y006706D01*
X022780Y006804D02*
X019489Y006804D01*
X019390Y006903D02*
X022780Y006903D01*
X022780Y007001D02*
X019292Y007001D01*
X019291Y007198D02*
X022780Y007198D01*
X022780Y007100D02*
X018720Y007100D01*
X018280Y007100D02*
X013727Y007100D01*
X013740Y007001D02*
X017708Y007001D01*
X017610Y006903D02*
X013809Y006903D01*
X013800Y006600D02*
X018000Y006600D01*
X017596Y006312D02*
X012720Y006312D01*
X012720Y006410D02*
X013679Y006410D01*
X013580Y006509D02*
X012720Y006509D01*
X012720Y006607D02*
X013482Y006607D01*
X013222Y006706D02*
X012720Y006706D01*
X012720Y006804D02*
X013115Y006804D01*
X013072Y006903D02*
X012709Y006903D01*
X012610Y007001D02*
X013060Y007001D01*
X013073Y007100D02*
X012512Y007100D01*
X012413Y007198D02*
X013117Y007198D01*
X013227Y007297D02*
X012315Y007297D01*
X012200Y007100D02*
X006200Y007100D01*
X005900Y007400D01*
X005900Y012200D01*
X005579Y012521D01*
X004116Y012521D01*
X004116Y012836D02*
X005864Y012836D01*
X006100Y012600D01*
X006100Y007600D01*
X006400Y007300D01*
X011000Y007300D01*
X011500Y007500D01*
X011177Y007608D02*
X010958Y007520D01*
X006491Y007520D01*
X006320Y007691D01*
X006320Y008069D01*
X006480Y007909D01*
X006609Y007780D01*
X011299Y007780D01*
X011212Y007693D01*
X011177Y007608D01*
X011138Y007592D02*
X006419Y007592D01*
X006321Y007691D02*
X011211Y007691D01*
X011600Y008000D02*
X012000Y007600D01*
X018000Y007600D01*
X017693Y007986D02*
X012230Y007986D01*
X012365Y008085D02*
X017792Y008085D01*
X017537Y008183D02*
X012420Y008183D01*
X012440Y008282D02*
X017510Y008282D01*
X017510Y008380D02*
X012435Y008380D01*
X012394Y008479D02*
X017510Y008479D01*
X017510Y008577D02*
X012304Y008577D01*
X012100Y008300D02*
X006900Y008300D01*
X006500Y008700D01*
X006500Y013000D01*
X006034Y013466D01*
X004116Y013466D01*
X004116Y013151D02*
X005949Y013151D01*
X006300Y012800D01*
X006300Y008400D01*
X006700Y008000D01*
X011600Y008000D01*
X011925Y007986D02*
X011970Y007986D01*
X012024Y007888D02*
X017595Y007888D01*
X017611Y007297D02*
X013573Y007297D01*
X013683Y007198D02*
X017709Y007198D01*
X017694Y006213D02*
X012720Y006213D01*
X012720Y006115D02*
X017793Y006115D01*
X017723Y006016D02*
X012720Y006016D01*
X012775Y005918D02*
X013037Y005918D01*
X013010Y005819D02*
X012874Y005819D01*
X012972Y005721D02*
X013010Y005721D01*
X013010Y005622D02*
X012990Y005622D01*
X012990Y005524D02*
X013010Y005524D01*
X013010Y005425D02*
X012990Y005425D01*
X012990Y005327D02*
X013010Y005327D01*
X013000Y005000D02*
X010800Y005000D01*
X010600Y005200D01*
X010600Y005400D01*
X010500Y005500D01*
X010276Y005031D02*
X008724Y005031D01*
X008703Y005010D02*
X008990Y005297D01*
X008990Y005703D01*
X008703Y005990D01*
X008297Y005990D01*
X008010Y005703D01*
X008010Y005297D01*
X008297Y005010D01*
X008703Y005010D01*
X008703Y004990D02*
X008297Y004990D01*
X008010Y004703D01*
X008010Y004297D01*
X008297Y004010D01*
X008703Y004010D01*
X008990Y004297D01*
X008990Y004703D01*
X008703Y004990D01*
X008760Y004933D02*
X009296Y004933D01*
X009314Y004950D02*
X009050Y004686D01*
X009050Y004550D01*
X009450Y004550D01*
X009450Y004950D01*
X009314Y004950D01*
X009314Y005050D02*
X009450Y005050D01*
X009450Y005450D01*
X009550Y005450D01*
X009550Y005550D01*
X009950Y005550D01*
X009950Y005686D01*
X009686Y005950D01*
X009550Y005950D01*
X009550Y005550D01*
X009450Y005550D01*
X009450Y005950D01*
X009314Y005950D01*
X009050Y005686D01*
X009050Y005550D01*
X009450Y005550D01*
X009450Y005450D01*
X009050Y005450D01*
X009050Y005314D01*
X009314Y005050D01*
X009234Y005130D02*
X008822Y005130D01*
X008921Y005228D02*
X009136Y005228D01*
X009050Y005327D02*
X008990Y005327D01*
X008990Y005425D02*
X009050Y005425D01*
X008990Y005524D02*
X009450Y005524D01*
X009450Y005622D02*
X009550Y005622D01*
X009550Y005524D02*
X010010Y005524D01*
X009950Y005450D02*
X009550Y005450D01*
X009550Y005050D01*
X009686Y005050D01*
X009950Y005314D01*
X009950Y005450D01*
X009950Y005425D02*
X010010Y005425D01*
X010010Y005327D02*
X009950Y005327D01*
X009864Y005228D02*
X010079Y005228D01*
X010178Y005130D02*
X009766Y005130D01*
X009686Y004950D02*
X009550Y004950D01*
X009550Y004550D01*
X009950Y004550D01*
X009950Y004686D01*
X009686Y004950D01*
X009704Y004933D02*
X010240Y004933D01*
X010141Y004834D02*
X009802Y004834D01*
X009901Y004736D02*
X010043Y004736D01*
X010010Y004637D02*
X009950Y004637D01*
X010010Y004539D02*
X009550Y004539D01*
X009550Y004550D02*
X009550Y004450D01*
X009950Y004450D01*
X009950Y004314D01*
X009686Y004050D01*
X009550Y004050D01*
X009550Y004450D01*
X009450Y004450D01*
X009450Y004050D01*
X009314Y004050D01*
X009050Y004314D01*
X009050Y004450D01*
X009450Y004450D01*
X009450Y004550D01*
X009550Y004550D01*
X009550Y004637D02*
X009450Y004637D01*
X009450Y004539D02*
X008990Y004539D01*
X008990Y004637D02*
X009050Y004637D01*
X009099Y004736D02*
X008957Y004736D01*
X008859Y004834D02*
X009198Y004834D01*
X009450Y004834D02*
X009550Y004834D01*
X009550Y004736D02*
X009450Y004736D01*
X009450Y004933D02*
X009550Y004933D01*
X009550Y005130D02*
X009450Y005130D01*
X009450Y005228D02*
X009550Y005228D01*
X009550Y005327D02*
X009450Y005327D01*
X009450Y005425D02*
X009550Y005425D01*
X009550Y005721D02*
X009450Y005721D01*
X009450Y005819D02*
X009550Y005819D01*
X009550Y005918D02*
X009450Y005918D01*
X009281Y005918D02*
X008775Y005918D01*
X008874Y005819D02*
X009183Y005819D01*
X009084Y005721D02*
X008972Y005721D01*
X008990Y005622D02*
X009050Y005622D01*
X009719Y005918D02*
X010225Y005918D01*
X010126Y005819D02*
X009817Y005819D01*
X009916Y005721D02*
X010028Y005721D01*
X010010Y005622D02*
X009950Y005622D01*
X010775Y005918D02*
X011225Y005918D01*
X011126Y005819D02*
X010874Y005819D01*
X010972Y005721D02*
X011028Y005721D01*
X011010Y005622D02*
X010990Y005622D01*
X010990Y005524D02*
X011010Y005524D01*
X011010Y005425D02*
X010990Y005425D01*
X010990Y005327D02*
X011010Y005327D01*
X011079Y005228D02*
X010921Y005228D01*
X010913Y004780D02*
X010973Y004720D01*
X011027Y004720D01*
X011087Y004780D01*
X010913Y004780D01*
X010957Y004736D02*
X011043Y004736D01*
X011064Y004243D02*
X010936Y004243D01*
X010837Y004145D02*
X011163Y004145D01*
X011261Y004046D02*
X010739Y004046D01*
X010500Y004500D02*
X011500Y004500D01*
X011739Y004046D02*
X012261Y004046D01*
X012163Y004145D02*
X011837Y004145D01*
X011936Y004243D02*
X012064Y004243D01*
X012010Y004342D02*
X011990Y004342D01*
X011990Y004440D02*
X012010Y004440D01*
X012010Y004539D02*
X011990Y004539D01*
X011990Y004637D02*
X012010Y004637D01*
X012043Y004736D02*
X011957Y004736D01*
X011921Y005228D02*
X012079Y005228D01*
X012010Y005327D02*
X011990Y005327D01*
X011990Y005425D02*
X012010Y005425D01*
X012010Y005524D02*
X011990Y005524D01*
X011990Y005622D02*
X012010Y005622D01*
X012028Y005721D02*
X011972Y005721D01*
X011874Y005819D02*
X012126Y005819D01*
X012225Y005918D02*
X011775Y005918D01*
X012280Y006016D02*
X004642Y006016D01*
X004640Y006013D02*
X004680Y006053D01*
X004680Y006706D01*
X004640Y006746D01*
X004640Y006852D01*
X004116Y006852D01*
X004116Y006806D01*
X004116Y006806D01*
X004116Y006852D01*
X004116Y006852D01*
X004116Y006852D01*
X003592Y006852D01*
X003592Y006746D01*
X003552Y006706D01*
X003552Y006053D01*
X003592Y006013D01*
X003592Y005907D01*
X003592Y005801D01*
X003552Y005761D01*
X003552Y005108D01*
X003592Y005068D01*
X003592Y004962D01*
X003592Y004856D01*
X003552Y004816D01*
X003552Y004164D01*
X003652Y004064D01*
X004580Y004064D01*
X004680Y004164D01*
X004680Y004816D01*
X004640Y004856D01*
X004640Y004962D01*
X004116Y004962D01*
X004116Y004916D01*
X004116Y004916D01*
X004116Y004962D01*
X004116Y004962D01*
X004116Y004962D01*
X003592Y004962D01*
X004116Y004962D01*
X004116Y004962D01*
X004640Y004962D01*
X004640Y005068D01*
X004680Y005108D01*
X004680Y005761D01*
X004640Y005801D01*
X004640Y005907D01*
X004116Y005907D01*
X004116Y005861D01*
X004116Y005861D01*
X004116Y005907D01*
X004116Y005907D01*
X004116Y005907D01*
X003592Y005907D01*
X004116Y005907D01*
X004116Y005907D01*
X004640Y005907D01*
X004640Y006013D01*
X004640Y005918D02*
X008225Y005918D01*
X008126Y005819D02*
X004640Y005819D01*
X004680Y005721D02*
X008028Y005721D01*
X008010Y005622D02*
X004680Y005622D01*
X004680Y005524D02*
X008010Y005524D01*
X008010Y005425D02*
X004680Y005425D01*
X004680Y005327D02*
X008010Y005327D01*
X008079Y005228D02*
X004680Y005228D01*
X004680Y005130D02*
X008178Y005130D01*
X008276Y005031D02*
X004640Y005031D01*
X004640Y004933D02*
X008240Y004933D01*
X008141Y004834D02*
X004662Y004834D01*
X004680Y004736D02*
X008043Y004736D01*
X008010Y004637D02*
X004680Y004637D01*
X004680Y004539D02*
X008010Y004539D01*
X008010Y004440D02*
X004680Y004440D01*
X004680Y004342D02*
X008010Y004342D01*
X008064Y004243D02*
X004680Y004243D01*
X004661Y004145D02*
X008163Y004145D01*
X008261Y004046D02*
X000720Y004046D01*
X000720Y004145D02*
X001839Y004145D01*
X001820Y004164D02*
X001920Y004064D01*
X002848Y004064D01*
X002948Y004164D01*
X002948Y006076D01*
X002908Y006116D01*
X002908Y006222D01*
X002384Y006222D01*
X002384Y006176D01*
X002384Y006176D01*
X002384Y006222D01*
X002384Y006222D01*
X002384Y006222D01*
X001860Y006222D01*
X001860Y006116D01*
X001820Y006076D01*
X001820Y004164D01*
X001820Y004243D02*
X000720Y004243D01*
X000720Y004342D02*
X001820Y004342D01*
X001820Y004440D02*
X000720Y004440D01*
X000720Y004539D02*
X001820Y004539D01*
X001820Y004637D02*
X000720Y004637D01*
X000720Y004736D02*
X001820Y004736D01*
X001820Y004834D02*
X000720Y004834D01*
X000720Y004933D02*
X001820Y004933D01*
X001820Y005031D02*
X000720Y005031D01*
X000720Y005130D02*
X001820Y005130D01*
X001820Y005228D02*
X000720Y005228D01*
X000720Y005327D02*
X001820Y005327D01*
X001820Y005425D02*
X000720Y005425D01*
X000720Y005524D02*
X001820Y005524D01*
X001820Y005622D02*
X000720Y005622D01*
X000720Y005721D02*
X001820Y005721D01*
X001820Y005819D02*
X000720Y005819D01*
X000720Y005918D02*
X001820Y005918D01*
X001820Y006016D02*
X000720Y006016D01*
X000720Y006115D02*
X001859Y006115D01*
X001860Y006213D02*
X000720Y006213D01*
X000720Y006312D02*
X001860Y006312D01*
X001860Y006328D02*
X001860Y006222D01*
X002384Y006222D01*
X002384Y006222D01*
X002908Y006222D01*
X002908Y006328D01*
X002948Y006368D01*
X002948Y007021D01*
X002908Y007061D01*
X002908Y007167D01*
X002384Y007167D01*
X002384Y007121D01*
X002384Y007121D01*
X002384Y007167D01*
X002384Y007167D01*
X002384Y007167D01*
X001860Y007167D01*
X001860Y007061D01*
X001820Y007021D01*
X001820Y006368D01*
X001860Y006328D01*
X001820Y006410D02*
X000720Y006410D01*
X000720Y006509D02*
X001820Y006509D01*
X001820Y006607D02*
X000720Y006607D01*
X000720Y006706D02*
X001820Y006706D01*
X001820Y006804D02*
X000720Y006804D01*
X000720Y006903D02*
X001820Y006903D01*
X001820Y007001D02*
X000720Y007001D01*
X000720Y007100D02*
X001860Y007100D01*
X001860Y007167D02*
X002384Y007167D01*
X002384Y007167D01*
X002908Y007167D01*
X002908Y007273D01*
X002948Y007313D01*
X002948Y007966D01*
X002908Y008006D01*
X002908Y008112D01*
X002908Y008218D01*
X002948Y008258D01*
X002948Y008911D01*
X002908Y008951D01*
X002908Y009057D01*
X002908Y009163D01*
X002948Y009203D01*
X002948Y009856D01*
X002908Y009896D01*
X002908Y010002D01*
X002908Y010108D01*
X002948Y010148D01*
X002948Y010800D01*
X002908Y010840D01*
X002908Y010947D01*
X002384Y010947D01*
X002384Y010947D01*
X002384Y010947D01*
X001860Y010947D01*
X001860Y010840D01*
X001820Y010800D01*
X001820Y010148D01*
X001860Y010108D01*
X001860Y010002D01*
X002384Y010002D01*
X002384Y010048D01*
X002384Y010002D01*
X002384Y010002D01*
X002908Y010002D01*
X002384Y010002D01*
X002384Y010002D01*
X002384Y010002D01*
X001860Y010002D01*
X001860Y009896D01*
X001820Y009856D01*
X001820Y009203D01*
X001860Y009163D01*
X001860Y009057D01*
X002384Y009057D01*
X002384Y009103D01*
X002384Y009057D01*
X002384Y009057D01*
X002908Y009057D01*
X002384Y009057D01*
X002384Y009057D01*
X002384Y009057D01*
X001860Y009057D01*
X001860Y008951D01*
X001820Y008911D01*
X001820Y008258D01*
X001860Y008218D01*
X001860Y008112D01*
X002384Y008112D01*
X002384Y008158D01*
X002384Y008112D01*
X002384Y008112D01*
X002908Y008112D01*
X002384Y008112D01*
X002384Y008112D01*
X002384Y008112D01*
X001860Y008112D01*
X001860Y008006D01*
X001820Y007966D01*
X001820Y007313D01*
X001860Y007273D01*
X001860Y007167D01*
X001860Y007198D02*
X000720Y007198D01*
X000720Y007297D02*
X001837Y007297D01*
X001820Y007395D02*
X000720Y007395D01*
X000720Y007494D02*
X001820Y007494D01*
X001820Y007592D02*
X000720Y007592D01*
X000720Y007691D02*
X001820Y007691D01*
X001820Y007789D02*
X000720Y007789D01*
X000720Y007888D02*
X001820Y007888D01*
X001840Y007986D02*
X000720Y007986D01*
X000720Y008085D02*
X001860Y008085D01*
X001860Y008183D02*
X000720Y008183D01*
X000720Y008282D02*
X001820Y008282D01*
X001820Y008380D02*
X000720Y008380D01*
X000720Y008479D02*
X001820Y008479D01*
X001820Y008577D02*
X000720Y008577D01*
X000720Y008676D02*
X001820Y008676D01*
X001820Y008774D02*
X000720Y008774D01*
X000720Y008873D02*
X001820Y008873D01*
X001860Y008971D02*
X000720Y008971D01*
X000720Y009070D02*
X001860Y009070D01*
X001855Y009168D02*
X000720Y009168D01*
X000720Y009267D02*
X001820Y009267D01*
X001820Y009365D02*
X000720Y009365D01*
X000720Y009464D02*
X001820Y009464D01*
X001820Y009562D02*
X000720Y009562D01*
X000720Y009661D02*
X001820Y009661D01*
X001820Y009759D02*
X000720Y009759D01*
X000720Y009858D02*
X001822Y009858D01*
X001860Y009956D02*
X000720Y009956D01*
X000720Y010055D02*
X001860Y010055D01*
X001820Y010153D02*
X000720Y010153D01*
X000720Y010252D02*
X001820Y010252D01*
X001820Y010350D02*
X000720Y010350D01*
X000720Y010449D02*
X001820Y010449D01*
X001820Y010547D02*
X000720Y010547D01*
X000720Y010646D02*
X001820Y010646D01*
X001820Y010744D02*
X000720Y010744D01*
X000720Y010843D02*
X001860Y010843D01*
X001860Y010941D02*
X000720Y010941D01*
X000720Y011040D02*
X001860Y011040D01*
X001820Y011138D02*
X000720Y011138D01*
X000720Y011237D02*
X001820Y011237D01*
X001820Y011335D02*
X000720Y011335D01*
X000720Y011434D02*
X001820Y011434D01*
X001820Y011532D02*
X000720Y011532D01*
X000720Y011631D02*
X001820Y011631D01*
X001820Y011729D02*
X000720Y011729D01*
X000720Y011828D02*
X001860Y011828D01*
X001860Y011926D02*
X000720Y011926D01*
X000720Y012025D02*
X001833Y012025D01*
X001820Y012123D02*
X000720Y012123D01*
X000720Y012222D02*
X001820Y012222D01*
X001820Y012320D02*
X000720Y012320D01*
X000720Y012419D02*
X001820Y012419D01*
X001820Y012517D02*
X000720Y012517D01*
X000720Y012616D02*
X001820Y012616D01*
X001844Y012714D02*
X000720Y012714D01*
X000720Y012813D02*
X001860Y012813D01*
X001860Y012911D02*
X000720Y012911D01*
X000720Y013010D02*
X001820Y013010D01*
X001820Y013108D02*
X000720Y013108D01*
X000720Y013207D02*
X001820Y013207D01*
X001820Y013305D02*
X000720Y013305D01*
X000720Y013404D02*
X001820Y013404D01*
X001820Y013502D02*
X000720Y013502D01*
X000720Y013601D02*
X001820Y013601D01*
X001860Y013699D02*
X000720Y013699D01*
X000720Y013798D02*
X001860Y013798D01*
X001852Y013896D02*
X000720Y013896D01*
X000720Y013995D02*
X001820Y013995D01*
X001820Y014093D02*
X000720Y014093D01*
X000720Y014192D02*
X001820Y014192D01*
X001820Y014290D02*
X000720Y014290D01*
X000720Y014389D02*
X001820Y014389D01*
X001820Y014487D02*
X000720Y014487D01*
X000720Y014586D02*
X001820Y014586D01*
X001820Y014684D02*
X000720Y014684D01*
X000720Y014783D02*
X001820Y014783D01*
X001820Y014881D02*
X000720Y014881D01*
X000720Y014980D02*
X001820Y014980D01*
X001820Y015078D02*
X000720Y015078D01*
X000720Y015177D02*
X001820Y015177D01*
X001820Y015275D02*
X000720Y015275D01*
X000720Y015374D02*
X001820Y015374D01*
X001820Y015472D02*
X000720Y015472D01*
X000720Y015571D02*
X001820Y015571D01*
X001820Y015669D02*
X000720Y015669D01*
X000720Y015768D02*
X001820Y015768D01*
X001820Y015866D02*
X000720Y015866D01*
X000720Y015965D02*
X001738Y015965D01*
X001640Y016063D02*
X000720Y016063D01*
X000720Y016162D02*
X001541Y016162D01*
X001443Y016260D02*
X000720Y016260D01*
X000720Y016359D02*
X001344Y016359D01*
X001246Y016457D02*
X000720Y016457D01*
X000720Y016556D02*
X001147Y016556D01*
X001049Y016654D02*
X000720Y016654D01*
X000720Y016753D02*
X000990Y016753D01*
X000990Y016851D02*
X000720Y016851D01*
X000720Y016950D02*
X000990Y016950D01*
X000990Y017048D02*
X000720Y017048D01*
X000720Y017147D02*
X000990Y017147D01*
X000990Y017245D02*
X000720Y017245D01*
X000720Y017344D02*
X000990Y017344D01*
X000990Y017442D02*
X000720Y017442D01*
X000720Y017541D02*
X000990Y017541D01*
X000990Y017639D02*
X000720Y017639D01*
X000720Y017738D02*
X000990Y017738D01*
X000990Y017836D02*
X000720Y017836D01*
X000720Y017935D02*
X000990Y017935D01*
X000990Y018033D02*
X000720Y018033D01*
X000720Y018132D02*
X000990Y018132D01*
X000990Y018230D02*
X000720Y018230D01*
X000720Y018329D02*
X000990Y018329D01*
X000990Y018427D02*
X000720Y018427D01*
X000720Y018526D02*
X000990Y018526D01*
X000990Y018624D02*
X000720Y018624D01*
X000720Y018723D02*
X000990Y018723D01*
X000990Y018821D02*
X000720Y018821D01*
X000720Y018920D02*
X000990Y018920D01*
X000990Y019018D02*
X000720Y019018D01*
X000720Y019117D02*
X000990Y019117D01*
X000990Y019215D02*
X000720Y019215D01*
X000720Y019314D02*
X000990Y019314D01*
X000990Y019412D02*
X000720Y019412D01*
X000720Y019511D02*
X000990Y019511D01*
X000990Y019609D02*
X000720Y019609D01*
X000720Y019708D02*
X000990Y019708D01*
X000990Y019806D02*
X000720Y019806D01*
X000720Y019905D02*
X000990Y019905D01*
X000990Y020003D02*
X000720Y020003D01*
X000720Y020102D02*
X000990Y020102D01*
X000990Y020200D02*
X000720Y020200D01*
X000720Y020299D02*
X000990Y020299D01*
X000990Y020397D02*
X000720Y020397D01*
X000720Y020496D02*
X000990Y020496D01*
X000990Y020594D02*
X000720Y020594D01*
X000720Y020693D02*
X000990Y020693D01*
X000990Y020791D02*
X000720Y020791D01*
X000720Y020890D02*
X000990Y020890D01*
X000990Y020988D02*
X000720Y020988D01*
X000720Y021087D02*
X000990Y021087D01*
X001080Y021185D02*
X000720Y021185D01*
X000720Y021284D02*
X001080Y021284D01*
X001080Y021382D02*
X000720Y021382D01*
X000720Y021481D02*
X001080Y021481D01*
X001080Y021579D02*
X000720Y021579D01*
X000720Y021678D02*
X001080Y021678D01*
X001080Y021776D02*
X000720Y021776D01*
X000720Y021875D02*
X001080Y021875D01*
X001080Y021973D02*
X000720Y021973D01*
X000720Y022072D02*
X001080Y022072D01*
X001080Y022170D02*
X000720Y022170D01*
X000720Y022269D02*
X001080Y022269D01*
X001080Y022367D02*
X000720Y022367D01*
X000720Y022466D02*
X001080Y022466D01*
X001080Y022564D02*
X000720Y022564D01*
X000720Y022663D02*
X001151Y022663D01*
X000720Y022761D02*
X022780Y022761D01*
X022780Y022663D02*
X005049Y022663D01*
X004900Y021790D02*
X004900Y018700D01*
X004654Y018700D01*
X004640Y018715D01*
X004640Y018821D01*
X004900Y018821D01*
X004900Y018723D02*
X004640Y018723D01*
X004640Y018821D02*
X004116Y018821D01*
X004116Y018821D01*
X004116Y019049D01*
X004116Y019136D01*
X004116Y019364D01*
X004116Y019451D01*
X004116Y019679D01*
X004116Y019765D01*
X004116Y019451D01*
X004116Y019451D01*
X004116Y019451D01*
X003592Y019451D01*
X003592Y019566D01*
X003601Y019599D01*
X003606Y019608D01*
X003601Y019617D01*
X003592Y019650D01*
X003592Y019765D01*
X004116Y019765D01*
X004116Y019765D01*
X004116Y019766D01*
X004116Y019994D01*
X003705Y019994D01*
X003672Y019985D01*
X003642Y019968D01*
X003618Y019944D01*
X003601Y019914D01*
X003592Y019881D01*
X003592Y019766D01*
X004116Y019766D01*
X004116Y019766D01*
X004116Y019994D01*
X004527Y019994D01*
X004560Y019985D01*
X004590Y019968D01*
X004614Y019944D01*
X004631Y019914D01*
X004640Y019881D01*
X004640Y019766D01*
X004116Y019766D01*
X004116Y019765D01*
X004640Y019765D01*
X004640Y019650D01*
X004631Y019617D01*
X004626Y019608D01*
X004631Y019599D01*
X004640Y019566D01*
X004640Y019451D01*
X004116Y019451D01*
X004116Y019451D01*
X003592Y019451D01*
X003592Y019335D01*
X003601Y019302D01*
X003606Y019293D01*
X003601Y019284D01*
X003592Y019251D01*
X003592Y019136D01*
X004116Y019136D01*
X004116Y019136D01*
X004116Y019451D01*
X004640Y019451D01*
X004640Y019335D01*
X004631Y019302D01*
X004626Y019293D01*
X004631Y019284D01*
X004640Y019251D01*
X004640Y019136D01*
X004116Y019136D01*
X004116Y019136D01*
X004116Y019136D01*
X003592Y019136D01*
X003592Y019020D01*
X003601Y018987D01*
X003606Y018978D01*
X003601Y018969D01*
X003592Y018936D01*
X003592Y018821D01*
X003110Y018821D01*
X003110Y018723D02*
X003592Y018723D01*
X003592Y018715D02*
X003578Y018700D01*
X003110Y018700D01*
X003110Y020368D01*
X003169Y020344D01*
X003331Y020344D01*
X003480Y020406D01*
X003594Y020520D01*
X003656Y020669D01*
X003656Y020831D01*
X003594Y020980D01*
X003480Y021094D01*
X003331Y021156D01*
X003253Y021156D01*
X003887Y021790D01*
X004900Y021790D01*
X004900Y021776D02*
X003873Y021776D01*
X003775Y021678D02*
X004900Y021678D01*
X004900Y021579D02*
X003676Y021579D01*
X003578Y021481D02*
X004900Y021481D01*
X004900Y021382D02*
X003479Y021382D01*
X003381Y021284D02*
X004900Y021284D01*
X004900Y021185D02*
X003282Y021185D01*
X003488Y021087D02*
X004900Y021087D01*
X004900Y020988D02*
X003586Y020988D01*
X003632Y020890D02*
X004900Y020890D01*
X004900Y020791D02*
X003656Y020791D01*
X003656Y020693D02*
X004900Y020693D01*
X004900Y020594D02*
X003625Y020594D01*
X003570Y020496D02*
X004900Y020496D01*
X004900Y020397D02*
X003459Y020397D01*
X003110Y020299D02*
X004900Y020299D01*
X004900Y020200D02*
X003110Y020200D01*
X003110Y020102D02*
X004900Y020102D01*
X004900Y020003D02*
X003110Y020003D01*
X003110Y019905D02*
X003599Y019905D01*
X003592Y019806D02*
X003110Y019806D01*
X003110Y019708D02*
X003592Y019708D01*
X003606Y019609D02*
X003110Y019609D01*
X003110Y019511D02*
X003592Y019511D01*
X003592Y019412D02*
X003110Y019412D01*
X003110Y019314D02*
X003598Y019314D01*
X003592Y019215D02*
X003110Y019215D01*
X003110Y019117D02*
X003592Y019117D01*
X003593Y019018D02*
X003110Y019018D01*
X003110Y018920D02*
X003592Y018920D01*
X003592Y018821D02*
X004116Y018821D01*
X004116Y018821D01*
X004116Y019136D01*
X004640Y019136D01*
X004640Y019020D01*
X004631Y018987D01*
X004626Y018978D01*
X004631Y018969D01*
X004640Y018936D01*
X004640Y018821D01*
X004116Y018821D01*
X004116Y018821D01*
X004116Y018821D01*
X003592Y018821D01*
X003592Y018715D01*
X003552Y018480D02*
X003552Y017905D01*
X003468Y017940D01*
X003440Y017940D01*
X003440Y017968D01*
X003388Y018093D01*
X003293Y018188D01*
X003168Y018240D01*
X003151Y018240D01*
X003220Y018309D01*
X003220Y018480D01*
X003552Y018480D01*
X003552Y018427D02*
X003220Y018427D01*
X003220Y018329D02*
X003552Y018329D01*
X003552Y018230D02*
X003192Y018230D01*
X003349Y018132D02*
X003552Y018132D01*
X003552Y018033D02*
X003413Y018033D01*
X003481Y017935D02*
X003552Y017935D01*
X004116Y018920D02*
X004116Y018920D01*
X004116Y019018D02*
X004116Y019018D01*
X004116Y019117D02*
X004116Y019117D01*
X004116Y019136D02*
X004116Y019136D01*
X004116Y019215D02*
X004116Y019215D01*
X004116Y019314D02*
X004116Y019314D01*
X004116Y019412D02*
X004116Y019412D01*
X004116Y019451D02*
X004116Y019451D01*
X004116Y019511D02*
X004116Y019511D01*
X004116Y019609D02*
X004116Y019609D01*
X004116Y019708D02*
X004116Y019708D01*
X004116Y019806D02*
X004116Y019806D01*
X004116Y019905D02*
X004116Y019905D01*
X004626Y019609D02*
X004900Y019609D01*
X004900Y019511D02*
X004640Y019511D01*
X004640Y019412D02*
X004900Y019412D01*
X004900Y019314D02*
X004634Y019314D01*
X004640Y019215D02*
X004900Y019215D01*
X004900Y019117D02*
X004640Y019117D01*
X004639Y019018D02*
X004900Y019018D01*
X004900Y018920D02*
X004640Y018920D01*
X005120Y018920D02*
X013823Y018920D01*
X013921Y019018D02*
X005120Y019018D01*
X005120Y019117D02*
X014020Y019117D01*
X014118Y019215D02*
X005120Y019215D01*
X005120Y019314D02*
X014217Y019314D01*
X014315Y019412D02*
X005120Y019412D01*
X005120Y019511D02*
X008109Y019511D01*
X008011Y019609D02*
X005120Y019609D01*
X005120Y019708D02*
X008010Y019708D01*
X008010Y019806D02*
X005120Y019806D01*
X005120Y019905D02*
X008010Y019905D01*
X008010Y020003D02*
X005120Y020003D01*
X005120Y020102D02*
X008010Y020102D01*
X008003Y020200D02*
X005120Y020200D01*
X005120Y020299D02*
X007904Y020299D01*
X007806Y020397D02*
X005120Y020397D01*
X005120Y020496D02*
X007707Y020496D01*
X007609Y020594D02*
X005120Y020594D01*
X005120Y020693D02*
X007510Y020693D01*
X007412Y020791D02*
X005120Y020791D01*
X005120Y020890D02*
X007313Y020890D01*
X007215Y020988D02*
X005120Y020988D01*
X005120Y021087D02*
X007116Y021087D01*
X007018Y021185D02*
X005120Y021185D01*
X005120Y021284D02*
X006919Y021284D01*
X006821Y021382D02*
X005120Y021382D01*
X005120Y021481D02*
X006722Y021481D01*
X006624Y021579D02*
X005120Y021579D01*
X005120Y021678D02*
X006525Y021678D01*
X006427Y021776D02*
X005120Y021776D01*
X003493Y021990D02*
X002590Y021087D01*
X002590Y020913D01*
X002590Y020613D01*
X002690Y020513D01*
X002690Y019994D01*
X002384Y019994D01*
X002010Y019994D01*
X002010Y021213D01*
X002787Y021990D01*
X003493Y021990D01*
X003476Y021973D02*
X002770Y021973D01*
X002672Y021875D02*
X003378Y021875D01*
X003279Y021776D02*
X002573Y021776D01*
X002475Y021678D02*
X003181Y021678D01*
X003082Y021579D02*
X002376Y021579D01*
X002278Y021481D02*
X002984Y021481D01*
X002885Y021382D02*
X002179Y021382D01*
X002081Y021284D02*
X002787Y021284D01*
X002688Y021185D02*
X002010Y021185D01*
X002010Y021087D02*
X002590Y021087D01*
X002590Y020988D02*
X002010Y020988D01*
X002010Y020890D02*
X002590Y020890D01*
X002590Y020791D02*
X002010Y020791D01*
X002010Y020693D02*
X002590Y020693D01*
X002609Y020594D02*
X002010Y020594D01*
X002010Y020496D02*
X002690Y020496D01*
X002690Y020397D02*
X002010Y020397D01*
X002010Y020299D02*
X002690Y020299D01*
X002690Y020200D02*
X002010Y020200D01*
X002010Y020102D02*
X002690Y020102D01*
X002690Y020003D02*
X002010Y020003D01*
X002384Y019994D02*
X002384Y019766D01*
X002384Y019766D01*
X002384Y019994D01*
X002384Y019905D02*
X002384Y019905D01*
X002384Y019806D02*
X002384Y019806D01*
X002384Y019765D02*
X002384Y019451D01*
X002384Y019679D01*
X002384Y019765D01*
X002384Y019765D01*
X002384Y019708D02*
X002384Y019708D01*
X002384Y019609D02*
X002384Y019609D01*
X002384Y019511D02*
X002384Y019511D01*
X002384Y019451D02*
X002384Y019451D01*
X002384Y019136D01*
X002384Y019364D01*
X002384Y019451D01*
X002384Y019451D01*
X002384Y019412D02*
X002384Y019412D01*
X002384Y019314D02*
X002384Y019314D01*
X002384Y019215D02*
X002384Y019215D01*
X002384Y019136D02*
X002384Y019136D01*
X002384Y018821D01*
X002384Y018821D01*
X002384Y019049D01*
X002384Y019136D01*
X002384Y019136D01*
X002384Y019117D02*
X002384Y019117D01*
X002384Y019018D02*
X002384Y019018D01*
X002384Y018920D02*
X002384Y018920D01*
X002384Y018821D02*
X002384Y018821D01*
X002384Y018506D01*
X002384Y018734D01*
X002384Y018821D01*
X002384Y018821D01*
X002384Y018723D02*
X002384Y018723D01*
X002384Y018624D02*
X002384Y018624D01*
X002384Y018526D02*
X002384Y018526D01*
X002384Y018506D02*
X002384Y018506D01*
X001590Y018180D02*
X001410Y018180D01*
X001410Y016887D01*
X001590Y016707D01*
X001590Y018180D01*
X001590Y018132D02*
X001410Y018132D01*
X001410Y018033D02*
X001590Y018033D01*
X001590Y017935D02*
X001410Y017935D01*
X001410Y017836D02*
X001590Y017836D01*
X001590Y017738D02*
X001410Y017738D01*
X001410Y017639D02*
X001590Y017639D01*
X001590Y017541D02*
X001410Y017541D01*
X001410Y017442D02*
X001590Y017442D01*
X001590Y017344D02*
X001410Y017344D01*
X001410Y017245D02*
X001590Y017245D01*
X001590Y017147D02*
X001410Y017147D01*
X001410Y017048D02*
X001590Y017048D01*
X001590Y016950D02*
X001410Y016950D01*
X001446Y016851D02*
X001590Y016851D01*
X001590Y016753D02*
X001544Y016753D01*
X002948Y016359D02*
X003060Y016359D01*
X003090Y016260D02*
X002948Y016260D01*
X002948Y016162D02*
X003158Y016162D01*
X003325Y016063D02*
X002948Y016063D01*
X002948Y015965D02*
X003552Y015965D01*
X003552Y016063D02*
X003475Y016063D01*
X003552Y015866D02*
X002948Y015866D01*
X002948Y015768D02*
X003552Y015768D01*
X003552Y015669D02*
X002948Y015669D01*
X002948Y015571D02*
X003552Y015571D01*
X003552Y015472D02*
X002948Y015472D01*
X002948Y015374D02*
X003552Y015374D01*
X003552Y015275D02*
X002948Y015275D01*
X002948Y015177D02*
X003552Y015177D01*
X003552Y015078D02*
X002948Y015078D01*
X002948Y014980D02*
X003552Y014980D01*
X003552Y014881D02*
X002948Y014881D01*
X002948Y014783D02*
X003552Y014783D01*
X003552Y014684D02*
X002948Y014684D01*
X002948Y014586D02*
X003552Y014586D01*
X003592Y014487D02*
X002948Y014487D01*
X002948Y014389D02*
X003592Y014389D01*
X003592Y014411D02*
X004116Y014411D01*
X004116Y014365D01*
X004116Y014365D01*
X004116Y014411D01*
X004116Y014411D01*
X004116Y014411D01*
X004116Y014411D01*
X004640Y014411D01*
X004640Y014316D01*
X006473Y014316D01*
X006283Y014506D01*
X004640Y014506D01*
X004640Y014411D01*
X004116Y014411D01*
X003592Y014411D01*
X003577Y014290D02*
X002948Y014290D01*
X002948Y014192D02*
X003552Y014192D01*
X003552Y014093D02*
X002948Y014093D01*
X002948Y013995D02*
X003552Y013995D01*
X003552Y013896D02*
X002916Y013896D01*
X002908Y013798D02*
X003552Y013798D01*
X003552Y013699D02*
X002908Y013699D01*
X002948Y013601D02*
X003552Y013601D01*
X003552Y013502D02*
X002948Y013502D01*
X002948Y013404D02*
X003552Y013404D01*
X003552Y013305D02*
X002948Y013305D01*
X002948Y013207D02*
X003552Y013207D01*
X003552Y013108D02*
X002948Y013108D01*
X002948Y013010D02*
X003552Y013010D01*
X003552Y012911D02*
X002908Y012911D01*
X002908Y012813D02*
X003552Y012813D01*
X003552Y012714D02*
X002924Y012714D01*
X002948Y012616D02*
X003552Y012616D01*
X003552Y012517D02*
X002948Y012517D01*
X002948Y012419D02*
X003552Y012419D01*
X003552Y012320D02*
X002948Y012320D01*
X002948Y012222D02*
X003552Y012222D01*
X003552Y012123D02*
X002948Y012123D01*
X002935Y012025D02*
X003565Y012025D01*
X003592Y011926D02*
X002908Y011926D01*
X002908Y011828D02*
X003592Y011828D01*
X003552Y011729D02*
X002948Y011729D01*
X002948Y011631D02*
X003552Y011631D01*
X003552Y011532D02*
X002948Y011532D01*
X002948Y011434D02*
X003552Y011434D01*
X003552Y011335D02*
X002948Y011335D01*
X002948Y011237D02*
X003552Y011237D01*
X003552Y011138D02*
X002948Y011138D01*
X002908Y011040D02*
X003552Y011040D01*
X003552Y010941D02*
X002908Y010941D01*
X002908Y010843D02*
X003552Y010843D01*
X003586Y010744D02*
X002948Y010744D01*
X002948Y010646D02*
X003592Y010646D01*
X003592Y010632D02*
X003592Y010526D01*
X003552Y010486D01*
X003552Y009833D01*
X003592Y009793D01*
X003592Y009687D01*
X004116Y009687D01*
X004116Y009733D01*
X004116Y009687D01*
X004116Y009687D01*
X004640Y009687D01*
X004640Y009793D01*
X004680Y009833D01*
X004680Y010486D01*
X004640Y010526D01*
X004640Y010632D01*
X004116Y010632D01*
X004116Y010632D01*
X004116Y010632D01*
X003592Y010632D01*
X003592Y010547D02*
X002948Y010547D01*
X002948Y010449D02*
X003552Y010449D01*
X003552Y010350D02*
X002948Y010350D01*
X002948Y010252D02*
X003552Y010252D01*
X003552Y010153D02*
X002948Y010153D01*
X002908Y010055D02*
X003552Y010055D01*
X003552Y009956D02*
X002908Y009956D01*
X002946Y009858D02*
X003552Y009858D01*
X003592Y009759D02*
X002948Y009759D01*
X002948Y009661D02*
X003592Y009661D01*
X003592Y009687D02*
X003592Y009581D01*
X003552Y009541D01*
X003552Y008888D01*
X003592Y008848D01*
X003592Y008742D01*
X004116Y008742D01*
X004116Y008788D01*
X004116Y008742D01*
X004116Y008742D01*
X004640Y008742D01*
X004640Y008848D01*
X004680Y008888D01*
X004680Y009541D01*
X004640Y009581D01*
X004640Y009687D01*
X004116Y009687D01*
X004116Y009687D01*
X004116Y009687D01*
X003592Y009687D01*
X003574Y009562D02*
X002948Y009562D01*
X002948Y009464D02*
X003552Y009464D01*
X003552Y009365D02*
X002948Y009365D01*
X002948Y009267D02*
X003552Y009267D01*
X003552Y009168D02*
X002913Y009168D01*
X002908Y009070D02*
X003552Y009070D01*
X003552Y008971D02*
X002908Y008971D01*
X002948Y008873D02*
X003568Y008873D01*
X003592Y008774D02*
X002948Y008774D01*
X002948Y008676D02*
X003592Y008676D01*
X003592Y008636D02*
X003552Y008596D01*
X003552Y007943D01*
X003592Y007903D01*
X003592Y007797D01*
X004116Y007797D01*
X004116Y007797D01*
X004116Y007844D01*
X004116Y007797D01*
X004640Y007797D01*
X004640Y007903D01*
X004680Y007943D01*
X004680Y008596D01*
X004640Y008636D01*
X004640Y008742D01*
X004116Y008742D01*
X004116Y008742D01*
X004116Y008742D01*
X003592Y008742D01*
X003592Y008636D01*
X003552Y008577D02*
X002948Y008577D01*
X002948Y008479D02*
X003552Y008479D01*
X003552Y008380D02*
X002948Y008380D01*
X002948Y008282D02*
X003552Y008282D01*
X003552Y008183D02*
X002908Y008183D01*
X002908Y008085D02*
X003552Y008085D01*
X003552Y007986D02*
X002928Y007986D01*
X002948Y007888D02*
X003592Y007888D01*
X003592Y007797D02*
X003592Y007691D01*
X003552Y007651D01*
X003552Y006998D01*
X003592Y006958D01*
X003592Y006852D01*
X004116Y006852D01*
X004116Y006852D01*
X004640Y006852D01*
X004640Y006958D01*
X004680Y006998D01*
X004680Y007651D01*
X004640Y007691D01*
X004640Y007797D01*
X004116Y007797D01*
X004116Y007797D01*
X004116Y007797D01*
X004116Y007750D01*
X004116Y007797D01*
X004116Y007797D01*
X003592Y007797D01*
X003592Y007789D02*
X002948Y007789D01*
X002948Y007691D02*
X003592Y007691D01*
X003552Y007592D02*
X002948Y007592D01*
X002948Y007494D02*
X003552Y007494D01*
X003552Y007395D02*
X002948Y007395D01*
X002931Y007297D02*
X003552Y007297D01*
X003552Y007198D02*
X002908Y007198D01*
X002908Y007100D02*
X003552Y007100D01*
X003552Y007001D02*
X002948Y007001D01*
X002948Y006903D02*
X003592Y006903D01*
X003592Y006804D02*
X002948Y006804D01*
X002948Y006706D02*
X003552Y006706D01*
X003552Y006607D02*
X002948Y006607D01*
X002948Y006509D02*
X003552Y006509D01*
X003552Y006410D02*
X002948Y006410D01*
X002908Y006312D02*
X003552Y006312D01*
X003552Y006213D02*
X002908Y006213D01*
X002909Y006115D02*
X003552Y006115D01*
X003590Y006016D02*
X002948Y006016D01*
X002948Y005918D02*
X003592Y005918D01*
X003592Y005819D02*
X002948Y005819D01*
X002948Y005721D02*
X003552Y005721D01*
X003552Y005622D02*
X002948Y005622D01*
X002948Y005524D02*
X003552Y005524D01*
X003552Y005425D02*
X002948Y005425D01*
X002948Y005327D02*
X003552Y005327D01*
X003552Y005228D02*
X002948Y005228D01*
X002948Y005130D02*
X003552Y005130D01*
X003592Y005031D02*
X002948Y005031D01*
X002948Y004933D02*
X003592Y004933D01*
X003570Y004834D02*
X002948Y004834D01*
X002948Y004736D02*
X003552Y004736D01*
X003552Y004637D02*
X002948Y004637D01*
X002948Y004539D02*
X003552Y004539D01*
X003552Y004440D02*
X002948Y004440D01*
X002948Y004342D02*
X003552Y004342D01*
X003552Y004243D02*
X002948Y004243D01*
X002929Y004145D02*
X003571Y004145D01*
X004116Y004933D02*
X004116Y004933D01*
X004116Y004962D02*
X004116Y005009D01*
X004116Y004962D01*
X004116Y004962D01*
X004116Y005009D02*
X004116Y005009D01*
X004116Y005907D02*
X004116Y005954D01*
X004116Y005907D01*
X004116Y005907D01*
X004116Y005918D02*
X004116Y005918D01*
X004116Y005954D02*
X004116Y005954D01*
X004680Y006115D02*
X012280Y006115D01*
X012280Y006213D02*
X004680Y006213D01*
X004680Y006312D02*
X012280Y006312D01*
X012280Y006410D02*
X004680Y006410D01*
X004680Y006509D02*
X012280Y006509D01*
X012280Y006607D02*
X004680Y006607D01*
X004680Y006706D02*
X012280Y006706D01*
X012185Y006804D02*
X004640Y006804D01*
X004640Y006903D02*
X006086Y006903D01*
X005988Y007001D02*
X004680Y007001D01*
X004680Y007100D02*
X005889Y007100D01*
X005791Y007198D02*
X004680Y007198D01*
X004680Y007297D02*
X005692Y007297D01*
X005680Y007395D02*
X004680Y007395D01*
X004680Y007494D02*
X005680Y007494D01*
X005680Y007592D02*
X004680Y007592D01*
X004640Y007691D02*
X005680Y007691D01*
X005680Y007789D02*
X004640Y007789D01*
X004640Y007888D02*
X005680Y007888D01*
X005680Y007986D02*
X004680Y007986D01*
X004680Y008085D02*
X005680Y008085D01*
X005680Y008183D02*
X004680Y008183D01*
X004680Y008282D02*
X005680Y008282D01*
X005680Y008380D02*
X004680Y008380D01*
X004680Y008479D02*
X005680Y008479D01*
X005680Y008577D02*
X004680Y008577D01*
X004640Y008676D02*
X005680Y008676D01*
X005680Y008774D02*
X004640Y008774D01*
X004664Y008873D02*
X005680Y008873D01*
X005680Y008971D02*
X004680Y008971D01*
X004680Y009070D02*
X005680Y009070D01*
X005680Y009168D02*
X004680Y009168D01*
X004680Y009267D02*
X005680Y009267D01*
X005680Y009365D02*
X004680Y009365D01*
X004680Y009464D02*
X005680Y009464D01*
X005680Y009562D02*
X004658Y009562D01*
X004640Y009661D02*
X005680Y009661D01*
X005680Y009759D02*
X004640Y009759D01*
X004680Y009858D02*
X005680Y009858D01*
X005680Y009956D02*
X004680Y009956D01*
X004680Y010055D02*
X005680Y010055D01*
X005680Y010153D02*
X004680Y010153D01*
X004680Y010252D02*
X005680Y010252D01*
X005680Y010350D02*
X004680Y010350D01*
X004680Y010449D02*
X005680Y010449D01*
X005680Y010547D02*
X004640Y010547D01*
X004640Y010646D02*
X005680Y010646D01*
X005680Y010744D02*
X004646Y010744D01*
X004680Y010843D02*
X005680Y010843D01*
X005680Y010941D02*
X004680Y010941D01*
X004680Y011040D02*
X005680Y011040D01*
X005680Y011138D02*
X004680Y011138D01*
X004680Y011237D02*
X005680Y011237D01*
X005680Y011335D02*
X004680Y011335D01*
X004680Y011434D02*
X005680Y011434D01*
X005680Y011532D02*
X004680Y011532D01*
X004680Y011631D02*
X005680Y011631D01*
X005680Y011729D02*
X004680Y011729D01*
X004640Y011828D02*
X005680Y011828D01*
X005680Y011926D02*
X004640Y011926D01*
X004667Y012025D02*
X005680Y012025D01*
X005666Y012123D02*
X004680Y012123D01*
X004680Y012222D02*
X005567Y012222D01*
X006800Y013100D02*
X006800Y011000D01*
X007100Y010700D01*
X013200Y010700D01*
X013200Y009700D01*
X013690Y009661D02*
X013710Y009661D01*
X013710Y009759D02*
X013690Y009759D01*
X013690Y009858D02*
X013710Y009858D01*
X013690Y009956D02*
X013763Y009956D01*
X013690Y010055D02*
X013862Y010055D01*
X013960Y010153D02*
X013627Y010153D01*
X013444Y010252D02*
X013956Y010252D01*
X013857Y010350D02*
X013543Y010350D01*
X013641Y010449D02*
X013759Y010449D01*
X013710Y010547D02*
X013690Y010547D01*
X013690Y010646D02*
X013710Y010646D01*
X013710Y010744D02*
X013690Y010744D01*
X013690Y010843D02*
X013710Y010843D01*
X013748Y010941D02*
X013652Y010941D01*
X013749Y011040D02*
X013553Y011040D01*
X013455Y011138D02*
X013651Y011138D01*
X013552Y011237D02*
X007020Y011237D01*
X007020Y011335D02*
X007254Y011335D01*
X007155Y011434D02*
X007020Y011434D01*
X007020Y011532D02*
X007057Y011532D01*
X007100Y011800D02*
X007400Y011500D01*
X013600Y011500D01*
X014200Y010900D01*
X014200Y010700D01*
X014200Y009700D01*
X014538Y010055D02*
X014918Y010055D01*
X015014Y010150D02*
X014750Y009886D01*
X014750Y009750D01*
X015150Y009750D01*
X015150Y010150D01*
X015014Y010150D01*
X015014Y010250D02*
X015150Y010250D01*
X015150Y010650D01*
X015250Y010650D01*
X015250Y010750D01*
X015650Y010750D01*
X015650Y010886D01*
X015386Y011150D01*
X015250Y011150D01*
X015250Y010750D01*
X015150Y010750D01*
X015150Y011150D01*
X015014Y011150D01*
X014750Y010886D01*
X014750Y010750D01*
X015150Y010750D01*
X015150Y010650D01*
X014750Y010650D01*
X014750Y010514D01*
X015014Y010250D01*
X015012Y010252D02*
X014444Y010252D01*
X014440Y010153D02*
X015960Y010153D01*
X015997Y010190D02*
X015710Y009903D01*
X015710Y009497D01*
X015997Y009210D01*
X016403Y009210D01*
X016690Y009497D01*
X016690Y009903D01*
X016403Y010190D01*
X015997Y010190D01*
X015997Y010210D02*
X016403Y010210D01*
X016690Y010497D01*
X016690Y010903D01*
X016403Y011190D01*
X015997Y011190D01*
X015710Y010903D01*
X015710Y010497D01*
X015997Y010210D01*
X015956Y010252D02*
X015388Y010252D01*
X015386Y010250D02*
X015650Y010514D01*
X015650Y010650D01*
X015250Y010650D01*
X015250Y010250D01*
X015386Y010250D01*
X015386Y010150D02*
X015250Y010150D01*
X015250Y009750D01*
X015650Y009750D01*
X015650Y009886D01*
X015386Y010150D01*
X015482Y010055D02*
X015862Y010055D01*
X015763Y009956D02*
X015580Y009956D01*
X015650Y009858D02*
X015710Y009858D01*
X015710Y009759D02*
X015650Y009759D01*
X015650Y009650D02*
X015250Y009650D01*
X015250Y009750D01*
X015150Y009750D01*
X015150Y009650D01*
X015250Y009650D01*
X015250Y009250D01*
X015386Y009250D01*
X015650Y009514D01*
X015650Y009650D01*
X015710Y009661D02*
X015250Y009661D01*
X015250Y009759D02*
X015150Y009759D01*
X015150Y009661D02*
X014690Y009661D01*
X014750Y009650D02*
X014750Y009514D01*
X015014Y009250D01*
X015150Y009250D01*
X015150Y009650D01*
X014750Y009650D01*
X014750Y009562D02*
X014690Y009562D01*
X014656Y009464D02*
X014800Y009464D01*
X014899Y009365D02*
X014558Y009365D01*
X014459Y009267D02*
X014997Y009267D01*
X015150Y009267D02*
X015250Y009267D01*
X015250Y009365D02*
X015150Y009365D01*
X015150Y009464D02*
X015250Y009464D01*
X015250Y009562D02*
X015150Y009562D01*
X015150Y009858D02*
X015250Y009858D01*
X015250Y009956D02*
X015150Y009956D01*
X015150Y010055D02*
X015250Y010055D01*
X015250Y010252D02*
X015150Y010252D01*
X015150Y010350D02*
X015250Y010350D01*
X015250Y010449D02*
X015150Y010449D01*
X015150Y010547D02*
X015250Y010547D01*
X015250Y010646D02*
X015150Y010646D01*
X015150Y010744D02*
X014690Y010744D01*
X014690Y010646D02*
X014750Y010646D01*
X014750Y010547D02*
X014690Y010547D01*
X014641Y010449D02*
X014815Y010449D01*
X014914Y010350D02*
X014543Y010350D01*
X014637Y009956D02*
X014820Y009956D01*
X014750Y009858D02*
X014690Y009858D01*
X014690Y009759D02*
X014750Y009759D01*
X015403Y009267D02*
X015941Y009267D01*
X015842Y009365D02*
X015501Y009365D01*
X015600Y009464D02*
X015744Y009464D01*
X015710Y009562D02*
X015650Y009562D01*
X015486Y010350D02*
X015857Y010350D01*
X015759Y010449D02*
X015585Y010449D01*
X015650Y010547D02*
X015710Y010547D01*
X015710Y010646D02*
X015650Y010646D01*
X015710Y010744D02*
X015250Y010744D01*
X015250Y010843D02*
X015150Y010843D01*
X015150Y010941D02*
X015250Y010941D01*
X015250Y011040D02*
X015150Y011040D01*
X015150Y011138D02*
X015250Y011138D01*
X015398Y011138D02*
X015945Y011138D01*
X015847Y011040D02*
X015497Y011040D01*
X015595Y010941D02*
X015748Y010941D01*
X015710Y010843D02*
X015650Y010843D01*
X015002Y011138D02*
X014455Y011138D01*
X014553Y011040D02*
X014903Y011040D01*
X014805Y010941D02*
X014652Y010941D01*
X014690Y010843D02*
X014750Y010843D01*
X014175Y011237D02*
X022780Y011237D01*
X022780Y011335D02*
X014076Y011335D01*
X013978Y011434D02*
X022780Y011434D01*
X022780Y011532D02*
X013879Y011532D01*
X013781Y011631D02*
X022780Y011631D01*
X022780Y011729D02*
X007482Y011729D01*
X007384Y011828D02*
X022780Y011828D01*
X022780Y011926D02*
X007320Y011926D01*
X007320Y012025D02*
X022780Y012025D01*
X022780Y012123D02*
X019216Y012123D01*
X019203Y012110D02*
X019490Y012397D01*
X019490Y012803D01*
X019203Y013090D01*
X018797Y013090D01*
X018510Y012803D01*
X018510Y012397D01*
X018797Y012110D01*
X019203Y012110D01*
X019314Y012222D02*
X022780Y012222D01*
X022780Y012320D02*
X019413Y012320D01*
X019490Y012419D02*
X022780Y012419D01*
X022780Y012517D02*
X019490Y012517D01*
X019490Y012616D02*
X022780Y012616D01*
X022780Y012714D02*
X019490Y012714D01*
X019480Y012813D02*
X022780Y012813D01*
X022780Y012911D02*
X019382Y012911D01*
X019283Y013010D02*
X022780Y013010D01*
X022780Y013108D02*
X007320Y013108D01*
X007320Y013010D02*
X017717Y013010D01*
X017797Y013090D02*
X017510Y012803D01*
X017510Y012397D01*
X017797Y012110D01*
X018203Y012110D01*
X018490Y012397D01*
X018490Y012803D01*
X018203Y013090D01*
X017797Y013090D01*
X017814Y013150D02*
X017550Y013414D01*
X017550Y013550D01*
X017950Y013550D01*
X017950Y013650D01*
X017950Y014050D01*
X017814Y014050D01*
X017550Y013786D01*
X017550Y013650D01*
X017950Y013650D01*
X018050Y013650D01*
X018050Y014050D01*
X018186Y014050D01*
X018450Y013786D01*
X018450Y013650D01*
X018050Y013650D01*
X018050Y013550D01*
X018450Y013550D01*
X018450Y013414D01*
X018186Y013150D01*
X018050Y013150D01*
X018050Y013550D01*
X017950Y013550D01*
X017950Y013150D01*
X017814Y013150D01*
X017757Y013207D02*
X007320Y013207D01*
X007320Y013305D02*
X017659Y013305D01*
X017560Y013404D02*
X007320Y013404D01*
X007309Y013502D02*
X017550Y013502D01*
X017550Y013699D02*
X007112Y013699D01*
X007014Y013798D02*
X017561Y013798D01*
X017660Y013896D02*
X016707Y013896D01*
X016806Y013995D02*
X017758Y013995D01*
X017950Y013995D02*
X018050Y013995D01*
X018050Y013896D02*
X017950Y013896D01*
X017950Y013798D02*
X018050Y013798D01*
X018050Y013699D02*
X017950Y013699D01*
X017950Y013601D02*
X007211Y013601D01*
X007100Y013400D02*
X007100Y011800D01*
X007320Y012123D02*
X017784Y012123D01*
X017686Y012222D02*
X007320Y012222D01*
X007320Y012320D02*
X017587Y012320D01*
X017510Y012419D02*
X007320Y012419D01*
X007320Y012517D02*
X017510Y012517D01*
X017510Y012616D02*
X007320Y012616D01*
X007320Y012714D02*
X017510Y012714D01*
X017520Y012813D02*
X007320Y012813D01*
X007320Y012911D02*
X017618Y012911D01*
X017950Y013207D02*
X018050Y013207D01*
X018050Y013305D02*
X017950Y013305D01*
X017950Y013404D02*
X018050Y013404D01*
X018050Y013502D02*
X017950Y013502D01*
X018050Y013601D02*
X018950Y013601D01*
X018950Y013650D02*
X018950Y013550D01*
X018550Y013550D01*
X018550Y013414D01*
X018814Y013150D01*
X018950Y013150D01*
X018950Y013550D01*
X019050Y013550D01*
X019050Y013650D01*
X018950Y013650D01*
X018950Y014050D01*
X018814Y014050D01*
X018550Y013786D01*
X018550Y013650D01*
X018950Y013650D01*
X018950Y013699D02*
X019050Y013699D01*
X019050Y013650D02*
X019050Y014050D01*
X019186Y014050D01*
X019450Y013786D01*
X019450Y013650D01*
X019050Y013650D01*
X019050Y013601D02*
X022780Y013601D01*
X022780Y013699D02*
X019450Y013699D01*
X019439Y013798D02*
X022780Y013798D01*
X022780Y013896D02*
X019340Y013896D01*
X019242Y013995D02*
X022780Y013995D01*
X022780Y014093D02*
X016904Y014093D01*
X017003Y014192D02*
X017716Y014192D01*
X017617Y014290D02*
X017101Y014290D01*
X016774Y014586D02*
X016697Y014586D01*
X016676Y014487D02*
X016598Y014487D01*
X016577Y014389D02*
X016500Y014389D01*
X016509Y014320D02*
X016431Y014320D01*
X016991Y014880D01*
X017587Y014880D01*
X017527Y014820D01*
X017009Y014820D01*
X016880Y014691D01*
X016509Y014320D01*
X016600Y014100D02*
X017100Y014600D01*
X018000Y014600D01*
X018490Y014586D02*
X018510Y014586D01*
X018510Y014684D02*
X018490Y014684D01*
X018490Y014783D02*
X018510Y014783D01*
X018510Y014803D02*
X018510Y014397D01*
X018797Y014110D01*
X019203Y014110D01*
X019490Y014397D01*
X019490Y014803D01*
X019203Y015090D01*
X018797Y015090D01*
X018510Y014803D01*
X018588Y014881D02*
X018412Y014881D01*
X018491Y014980D02*
X018687Y014980D01*
X018589Y015078D02*
X018785Y015078D01*
X018730Y015177D02*
X018688Y015177D01*
X018500Y015300D02*
X018500Y017100D01*
X018000Y017600D01*
X018179Y017110D02*
X017610Y017110D01*
X017510Y017210D01*
X017510Y017713D01*
X016587Y016790D01*
X016531Y016790D01*
X016540Y016768D01*
X016540Y016632D01*
X016488Y016507D01*
X016393Y016412D01*
X016268Y016360D01*
X016132Y016360D01*
X016007Y016412D01*
X015929Y016490D01*
X015089Y016490D01*
X015140Y016368D01*
X015140Y016232D01*
X015088Y016107D01*
X014993Y016012D01*
X014868Y015960D01*
X014732Y015960D01*
X014607Y016012D01*
X014529Y016090D01*
X013831Y016090D01*
X013840Y016068D01*
X013840Y015932D01*
X013788Y015807D01*
X013693Y015712D01*
X013568Y015660D01*
X013432Y015660D01*
X013307Y015712D01*
X013229Y015790D01*
X006921Y015790D01*
X007391Y015320D01*
X015409Y015320D01*
X015680Y015591D01*
X015809Y015720D01*
X017510Y015720D01*
X017510Y015803D01*
X017797Y016090D01*
X018203Y016090D01*
X018280Y016013D01*
X018280Y016187D01*
X018203Y016110D01*
X017797Y016110D01*
X017510Y016397D01*
X017510Y016803D01*
X017797Y017090D01*
X018199Y017090D01*
X018179Y017110D01*
X018490Y017442D02*
X018510Y017442D01*
X018510Y017541D02*
X018490Y017541D01*
X018490Y017639D02*
X018510Y017639D01*
X018510Y017738D02*
X018490Y017738D01*
X018490Y017836D02*
X018543Y017836D01*
X018490Y017935D02*
X018642Y017935D01*
X018740Y018033D02*
X018447Y018033D01*
X018126Y018329D02*
X022780Y018329D01*
X022780Y018427D02*
X018224Y018427D01*
X018323Y018526D02*
X022780Y018526D01*
X022780Y018624D02*
X018421Y018624D01*
X018520Y018723D02*
X022780Y018723D01*
X022780Y018821D02*
X018618Y018821D01*
X018717Y018920D02*
X022780Y018920D01*
X022780Y019018D02*
X018815Y019018D01*
X018914Y019117D02*
X022780Y019117D01*
X022780Y019215D02*
X019012Y019215D01*
X018812Y019609D02*
X018802Y019609D01*
X018714Y019511D02*
X018704Y019511D01*
X018703Y019510D02*
X018990Y019797D01*
X018990Y020203D01*
X018703Y020490D01*
X018297Y020490D01*
X018010Y020203D01*
X018010Y019797D01*
X018297Y019510D01*
X018703Y019510D01*
X018615Y019412D02*
X016209Y019412D01*
X016111Y019314D02*
X018517Y019314D01*
X018418Y019215D02*
X016012Y019215D01*
X015914Y019117D02*
X018320Y019117D01*
X018221Y019018D02*
X015815Y019018D01*
X015717Y018920D02*
X018123Y018920D01*
X018024Y018821D02*
X015618Y018821D01*
X015520Y018723D02*
X017926Y018723D01*
X017827Y018624D02*
X015421Y018624D01*
X015323Y018526D02*
X017729Y018526D01*
X017630Y018427D02*
X015224Y018427D01*
X015126Y018329D02*
X017532Y018329D01*
X017433Y018230D02*
X015027Y018230D01*
X014929Y018132D02*
X017335Y018132D01*
X017236Y018033D02*
X014830Y018033D01*
X014732Y017935D02*
X017138Y017935D01*
X017039Y017836D02*
X014633Y017836D01*
X014535Y017738D02*
X016941Y017738D01*
X016842Y017639D02*
X014436Y017639D01*
X014338Y017541D02*
X016744Y017541D01*
X016645Y017442D02*
X014239Y017442D01*
X014141Y017344D02*
X016547Y017344D01*
X016448Y017245D02*
X014042Y017245D01*
X013744Y017541D02*
X013638Y017541D01*
X013607Y017510D02*
X013713Y017510D01*
X017010Y020807D01*
X017010Y020913D01*
X013607Y017510D01*
X013736Y017639D02*
X013842Y017639D01*
X013835Y017738D02*
X013941Y017738D01*
X013933Y017836D02*
X014039Y017836D01*
X014032Y017935D02*
X014138Y017935D01*
X014130Y018033D02*
X014236Y018033D01*
X014229Y018132D02*
X014335Y018132D01*
X014327Y018230D02*
X014433Y018230D01*
X014426Y018329D02*
X014532Y018329D01*
X014524Y018427D02*
X014630Y018427D01*
X014623Y018526D02*
X014729Y018526D01*
X014721Y018624D02*
X014827Y018624D01*
X014820Y018723D02*
X014926Y018723D01*
X014918Y018821D02*
X015024Y018821D01*
X015017Y018920D02*
X015123Y018920D01*
X015115Y019018D02*
X015221Y019018D01*
X015214Y019117D02*
X015320Y019117D01*
X015312Y019215D02*
X015418Y019215D01*
X015411Y019314D02*
X015517Y019314D01*
X015509Y019412D02*
X015615Y019412D01*
X015608Y019511D02*
X015714Y019511D01*
X015706Y019609D02*
X015812Y019609D01*
X015805Y019708D02*
X015911Y019708D01*
X015903Y019806D02*
X016009Y019806D01*
X016002Y019905D02*
X016108Y019905D01*
X016100Y020003D02*
X016206Y020003D01*
X016199Y020102D02*
X016305Y020102D01*
X016297Y020200D02*
X016403Y020200D01*
X016396Y020299D02*
X016502Y020299D01*
X016494Y020397D02*
X016600Y020397D01*
X016593Y020496D02*
X016699Y020496D01*
X016691Y020594D02*
X016797Y020594D01*
X016790Y020693D02*
X016896Y020693D01*
X016888Y020791D02*
X016994Y020791D01*
X016987Y020890D02*
X017010Y020890D01*
X017293Y020496D02*
X022780Y020496D01*
X022213Y020594D02*
X021730Y020594D01*
X021686Y020550D02*
X021950Y020814D01*
X021950Y020950D01*
X021550Y020950D01*
X021550Y021050D01*
X021950Y021050D01*
X021950Y021186D01*
X021686Y021450D01*
X021550Y021450D01*
X021550Y021050D01*
X021450Y021050D01*
X021450Y021450D01*
X021314Y021450D01*
X021050Y021186D01*
X021050Y021050D01*
X021450Y021050D01*
X021450Y020950D01*
X021550Y020950D01*
X021550Y020550D01*
X021686Y020550D01*
X021686Y020450D02*
X021550Y020450D01*
X021550Y020050D01*
X021950Y020050D01*
X021950Y020186D01*
X021686Y020450D01*
X021739Y020397D02*
X022204Y020397D01*
X022106Y020299D02*
X021838Y020299D01*
X021936Y020200D02*
X022010Y020200D01*
X022010Y020102D02*
X021950Y020102D01*
X022010Y020003D02*
X021550Y020003D01*
X021550Y020050D02*
X021550Y019950D01*
X021950Y019950D01*
X021950Y019814D01*
X021686Y019550D01*
X021550Y019550D01*
X021550Y019950D01*
X021450Y019950D01*
X021450Y019550D01*
X021314Y019550D01*
X021050Y019814D01*
X021050Y019950D01*
X021450Y019950D01*
X021450Y020050D01*
X021450Y020450D01*
X021314Y020450D01*
X021050Y020186D01*
X021050Y020050D01*
X021450Y020050D01*
X021550Y020050D01*
X021550Y020102D02*
X021450Y020102D01*
X021450Y020200D02*
X021550Y020200D01*
X021550Y020299D02*
X021450Y020299D01*
X021450Y020397D02*
X021550Y020397D01*
X021450Y020550D02*
X021450Y020950D01*
X021050Y020950D01*
X021050Y020814D01*
X021314Y020550D01*
X021450Y020550D01*
X021450Y020594D02*
X021550Y020594D01*
X021550Y020693D02*
X021450Y020693D01*
X021450Y020791D02*
X021550Y020791D01*
X021550Y020890D02*
X021450Y020890D01*
X021450Y020988D02*
X020990Y020988D01*
X020990Y020890D02*
X021050Y020890D01*
X021073Y020791D02*
X020984Y020791D01*
X020886Y020693D02*
X021171Y020693D01*
X021270Y020594D02*
X020787Y020594D01*
X020796Y020397D02*
X021261Y020397D01*
X021162Y020299D02*
X020894Y020299D01*
X020990Y020200D02*
X021064Y020200D01*
X021050Y020102D02*
X020990Y020102D01*
X020990Y020003D02*
X021450Y020003D01*
X021450Y019905D02*
X021550Y019905D01*
X021550Y019806D02*
X021450Y019806D01*
X021450Y019708D02*
X021550Y019708D01*
X021550Y019609D02*
X021450Y019609D01*
X021255Y019609D02*
X020802Y019609D01*
X020704Y019511D02*
X022296Y019511D01*
X022198Y019609D02*
X021745Y019609D01*
X021844Y019708D02*
X022099Y019708D01*
X022010Y019806D02*
X021942Y019806D01*
X021950Y019905D02*
X022010Y019905D01*
X022114Y020693D02*
X021829Y020693D01*
X021927Y020791D02*
X022016Y020791D01*
X022010Y020890D02*
X021950Y020890D01*
X022010Y020988D02*
X021550Y020988D01*
X021550Y021087D02*
X021450Y021087D01*
X021450Y021185D02*
X021550Y021185D01*
X021550Y021284D02*
X021450Y021284D01*
X021450Y021382D02*
X021550Y021382D01*
X021754Y021382D02*
X022189Y021382D01*
X022091Y021284D02*
X021853Y021284D01*
X021950Y021185D02*
X022010Y021185D01*
X022010Y021087D02*
X021950Y021087D01*
X022288Y021481D02*
X020712Y021481D01*
X020811Y021382D02*
X021246Y021382D01*
X021147Y021284D02*
X020909Y021284D01*
X020990Y021185D02*
X021050Y021185D01*
X021050Y021087D02*
X020990Y021087D01*
X020218Y021579D02*
X022780Y021579D01*
X022780Y021481D02*
X022712Y021481D01*
X022780Y021678D02*
X020119Y021678D01*
X020021Y021776D02*
X022780Y021776D01*
X022780Y021875D02*
X019922Y021875D01*
X019824Y021973D02*
X022780Y021973D01*
X022780Y022072D02*
X019725Y022072D01*
X019525Y021678D02*
X019119Y021678D01*
X019218Y021579D02*
X019624Y021579D01*
X019712Y021481D02*
X019722Y021481D01*
X019811Y021382D02*
X019821Y021382D01*
X019909Y021284D02*
X019919Y021284D01*
X019990Y021185D02*
X020010Y021185D01*
X020010Y021087D02*
X019990Y021087D01*
X019990Y020988D02*
X020010Y020988D01*
X020010Y020890D02*
X019990Y020890D01*
X019984Y020791D02*
X020016Y020791D01*
X020114Y020693D02*
X019886Y020693D01*
X019787Y020594D02*
X020213Y020594D01*
X020204Y020397D02*
X019796Y020397D01*
X019894Y020299D02*
X020106Y020299D01*
X020010Y020200D02*
X019990Y020200D01*
X019990Y020102D02*
X020010Y020102D01*
X020010Y020003D02*
X019990Y020003D01*
X019990Y019905D02*
X020010Y019905D01*
X020009Y019806D02*
X019990Y019806D01*
X020209Y019412D02*
X022780Y019412D01*
X022780Y019314D02*
X020111Y019314D01*
X020901Y019708D02*
X021156Y019708D01*
X021058Y019806D02*
X020990Y019806D01*
X020990Y019905D02*
X021050Y019905D01*
X022704Y019511D02*
X022780Y019511D01*
X022780Y018230D02*
X018027Y018230D01*
X017929Y018132D02*
X022780Y018132D01*
X022780Y018033D02*
X019260Y018033D01*
X019358Y017935D02*
X022780Y017935D01*
X022780Y017836D02*
X019457Y017836D01*
X019490Y017738D02*
X022780Y017738D01*
X022780Y017639D02*
X019490Y017639D01*
X019490Y017541D02*
X022780Y017541D01*
X022780Y017442D02*
X019490Y017442D01*
X019437Y017344D02*
X022780Y017344D01*
X022780Y017245D02*
X019338Y017245D01*
X019240Y017147D02*
X022780Y017147D01*
X022780Y017048D02*
X019245Y017048D01*
X019343Y016950D02*
X022780Y016950D01*
X022780Y016851D02*
X019442Y016851D01*
X019490Y016753D02*
X022780Y016753D01*
X022780Y016654D02*
X019490Y016654D01*
X019490Y016556D02*
X022780Y016556D01*
X022780Y016457D02*
X019490Y016457D01*
X019452Y016359D02*
X022780Y016359D01*
X022780Y016260D02*
X019353Y016260D01*
X019255Y016162D02*
X022780Y016162D01*
X022780Y016063D02*
X019230Y016063D01*
X019328Y015965D02*
X022780Y015965D01*
X022780Y015866D02*
X019427Y015866D01*
X019490Y015768D02*
X022780Y015768D01*
X022780Y015669D02*
X019490Y015669D01*
X019490Y015571D02*
X022780Y015571D01*
X022780Y015472D02*
X019490Y015472D01*
X019467Y015374D02*
X022780Y015374D01*
X022780Y015275D02*
X019368Y015275D01*
X019270Y015177D02*
X022780Y015177D01*
X022780Y015078D02*
X019215Y015078D01*
X019313Y014980D02*
X022780Y014980D01*
X022780Y014881D02*
X019412Y014881D01*
X019490Y014783D02*
X022780Y014783D01*
X022780Y014684D02*
X019490Y014684D01*
X019490Y014586D02*
X022780Y014586D01*
X022780Y014487D02*
X019490Y014487D01*
X019481Y014389D02*
X022780Y014389D01*
X022780Y014290D02*
X019383Y014290D01*
X019284Y014192D02*
X022780Y014192D01*
X022780Y013502D02*
X019450Y013502D01*
X019450Y013550D02*
X019050Y013550D01*
X019050Y013150D01*
X019186Y013150D01*
X019450Y013414D01*
X019450Y013550D01*
X019440Y013404D02*
X022780Y013404D01*
X022780Y013305D02*
X019341Y013305D01*
X019243Y013207D02*
X022780Y013207D01*
X022780Y011138D02*
X016455Y011138D01*
X016553Y011040D02*
X022780Y011040D01*
X022780Y010941D02*
X016652Y010941D01*
X016690Y010843D02*
X022780Y010843D01*
X022780Y010744D02*
X016690Y010744D01*
X016690Y010646D02*
X022780Y010646D01*
X022780Y010547D02*
X016690Y010547D01*
X016641Y010449D02*
X022780Y010449D01*
X022780Y010350D02*
X016543Y010350D01*
X016444Y010252D02*
X022780Y010252D01*
X022780Y010153D02*
X016440Y010153D01*
X016538Y010055D02*
X022780Y010055D01*
X022780Y009956D02*
X016637Y009956D01*
X016690Y009858D02*
X022780Y009858D01*
X022780Y009759D02*
X016690Y009759D01*
X016690Y009661D02*
X022780Y009661D01*
X022780Y009562D02*
X016690Y009562D01*
X016656Y009464D02*
X022780Y009464D01*
X022780Y009365D02*
X016558Y009365D01*
X016459Y009267D02*
X022780Y009267D01*
X022780Y009168D02*
X006720Y009168D01*
X006720Y009070D02*
X017589Y009070D01*
X017510Y008971D02*
X006720Y008971D01*
X006720Y008873D02*
X017510Y008873D01*
X017510Y008774D02*
X006737Y008774D01*
X006836Y008676D02*
X017510Y008676D01*
X018000Y008600D02*
X018200Y008600D01*
X018500Y008300D01*
X018500Y006100D01*
X018000Y005600D01*
X017625Y005918D02*
X013963Y005918D01*
X013990Y005819D02*
X017526Y005819D01*
X017510Y005721D02*
X013990Y005721D01*
X013990Y005622D02*
X017510Y005622D01*
X017510Y005524D02*
X013990Y005524D01*
X013990Y005425D02*
X017510Y005425D01*
X017581Y005327D02*
X013990Y005327D01*
X013990Y005228D02*
X017679Y005228D01*
X017778Y005130D02*
X013990Y005130D01*
X013911Y005031D02*
X017795Y005031D01*
X017696Y004933D02*
X013760Y004933D01*
X013859Y004834D02*
X017598Y004834D01*
X017550Y004736D02*
X013957Y004736D01*
X013990Y004637D02*
X017950Y004637D01*
X017950Y004736D02*
X018050Y004736D01*
X018050Y004650D02*
X018050Y005050D01*
X018186Y005050D01*
X018450Y004786D01*
X018450Y004650D01*
X018050Y004650D01*
X018050Y004834D02*
X017950Y004834D01*
X017950Y004933D02*
X018050Y004933D01*
X018050Y005031D02*
X017950Y005031D01*
X018205Y005031D02*
X018795Y005031D01*
X018778Y005130D02*
X018222Y005130D01*
X018321Y005228D02*
X018679Y005228D01*
X018581Y005327D02*
X018419Y005327D01*
X018490Y005425D02*
X018510Y005425D01*
X018510Y005524D02*
X018490Y005524D01*
X018490Y005622D02*
X018510Y005622D01*
X018510Y005721D02*
X018490Y005721D01*
X018720Y006013D02*
X018780Y006073D01*
X018780Y006127D01*
X018720Y006187D01*
X018720Y006013D01*
X018720Y006016D02*
X018723Y006016D01*
X018720Y006115D02*
X018780Y006115D01*
X019000Y006600D02*
X019000Y005600D01*
X018950Y005031D02*
X019050Y005031D01*
X019050Y004933D02*
X018950Y004933D01*
X018950Y004834D02*
X019050Y004834D01*
X019050Y004736D02*
X018950Y004736D01*
X018950Y004440D02*
X019050Y004440D01*
X019050Y004342D02*
X018950Y004342D01*
X018950Y004243D02*
X019050Y004243D01*
X018622Y004342D02*
X018378Y004342D01*
X018450Y004440D02*
X018550Y004440D01*
X018550Y004539D02*
X018450Y004539D01*
X018450Y004736D02*
X018550Y004736D01*
X018598Y004834D02*
X018402Y004834D01*
X018304Y004933D02*
X018696Y004933D01*
X017721Y004243D02*
X013936Y004243D01*
X013990Y004342D02*
X017622Y004342D01*
X017550Y004440D02*
X013990Y004440D01*
X013990Y004539D02*
X017550Y004539D01*
X019389Y007297D02*
X022780Y007297D01*
X022780Y007395D02*
X019488Y007395D01*
X019490Y007494D02*
X022780Y007494D01*
X022780Y007592D02*
X019490Y007592D01*
X019490Y007691D02*
X022780Y007691D01*
X022780Y007789D02*
X019490Y007789D01*
X019405Y007888D02*
X022780Y007888D01*
X022780Y007986D02*
X019307Y007986D01*
X019208Y008085D02*
X022780Y008085D01*
X022780Y008183D02*
X019276Y008183D01*
X019374Y008282D02*
X022780Y008282D01*
X022780Y008380D02*
X019473Y008380D01*
X019490Y008479D02*
X022780Y008479D01*
X022780Y008577D02*
X019490Y008577D01*
X019490Y008676D02*
X022780Y008676D01*
X022780Y008774D02*
X019490Y008774D01*
X019420Y008873D02*
X022780Y008873D01*
X022780Y008971D02*
X019322Y008971D01*
X019223Y009070D02*
X022780Y009070D01*
X019050Y013207D02*
X018950Y013207D01*
X018950Y013305D02*
X019050Y013305D01*
X019050Y013404D02*
X018950Y013404D01*
X018950Y013502D02*
X019050Y013502D01*
X019050Y013798D02*
X018950Y013798D01*
X018950Y013896D02*
X019050Y013896D01*
X019050Y013995D02*
X018950Y013995D01*
X018758Y013995D02*
X018242Y013995D01*
X018340Y013896D02*
X018660Y013896D01*
X018561Y013798D02*
X018439Y013798D01*
X018450Y013699D02*
X018550Y013699D01*
X018550Y013502D02*
X018450Y013502D01*
X018440Y013404D02*
X018560Y013404D01*
X018659Y013305D02*
X018341Y013305D01*
X018243Y013207D02*
X018757Y013207D01*
X018717Y013010D02*
X018283Y013010D01*
X018382Y012911D02*
X018618Y012911D01*
X018520Y012813D02*
X018480Y012813D01*
X018490Y012714D02*
X018510Y012714D01*
X018510Y012616D02*
X018490Y012616D01*
X018490Y012517D02*
X018510Y012517D01*
X018510Y012419D02*
X018490Y012419D01*
X018413Y012320D02*
X018587Y012320D01*
X018686Y012222D02*
X018314Y012222D01*
X018216Y012123D02*
X018784Y012123D01*
X018716Y014192D02*
X018284Y014192D01*
X018383Y014290D02*
X018617Y014290D01*
X018519Y014389D02*
X018481Y014389D01*
X018490Y014487D02*
X018510Y014487D01*
X018300Y015100D02*
X018500Y015300D01*
X018300Y015100D02*
X016900Y015100D01*
X016200Y014400D01*
X007100Y014400D01*
X006459Y015041D01*
X004116Y015041D01*
X004116Y014726D02*
X006374Y014726D01*
X007000Y014100D01*
X016600Y014100D01*
X016795Y014684D02*
X016873Y014684D01*
X016894Y014783D02*
X016971Y014783D01*
X016665Y015177D02*
X016436Y015177D01*
X016440Y015168D02*
X016393Y015280D01*
X016769Y015280D01*
X016680Y015191D01*
X016109Y014620D01*
X015931Y014620D01*
X016071Y014760D01*
X016168Y014760D01*
X016293Y014812D01*
X016388Y014907D01*
X016440Y015032D01*
X016440Y015168D01*
X016440Y015078D02*
X016567Y015078D01*
X016468Y014980D02*
X016418Y014980D01*
X016370Y014881D02*
X016362Y014881D01*
X016271Y014783D02*
X016222Y014783D01*
X016173Y014684D02*
X015995Y014684D01*
X015800Y014800D02*
X016100Y015100D01*
X016396Y015275D02*
X016764Y015275D01*
X017510Y015768D02*
X013748Y015768D01*
X013813Y015866D02*
X017573Y015866D01*
X017672Y015965D02*
X014879Y015965D01*
X014721Y015965D02*
X013840Y015965D01*
X013840Y016063D02*
X014556Y016063D01*
X015044Y016063D02*
X017770Y016063D01*
X017745Y016162D02*
X015111Y016162D01*
X015140Y016260D02*
X017647Y016260D01*
X017548Y016359D02*
X015140Y016359D01*
X015103Y016457D02*
X015962Y016457D01*
X016438Y016457D02*
X017510Y016457D01*
X017510Y016556D02*
X016508Y016556D01*
X016540Y016654D02*
X017510Y016654D01*
X017510Y016753D02*
X016540Y016753D01*
X016648Y016851D02*
X017558Y016851D01*
X017657Y016950D02*
X016747Y016950D01*
X016845Y017048D02*
X017755Y017048D01*
X017573Y017147D02*
X016944Y017147D01*
X017042Y017245D02*
X017510Y017245D01*
X017510Y017344D02*
X017141Y017344D01*
X017239Y017442D02*
X017510Y017442D01*
X017510Y017541D02*
X017338Y017541D01*
X017436Y017639D02*
X017510Y017639D01*
X018720Y017147D02*
X018760Y017147D01*
X018755Y017048D02*
X018720Y017048D01*
X018720Y016162D02*
X018745Y016162D01*
X018720Y016063D02*
X018770Y016063D01*
X018280Y016063D02*
X018230Y016063D01*
X018255Y016162D02*
X018280Y016162D01*
X018000Y015600D02*
X017900Y015500D01*
X015900Y015500D01*
X015500Y015100D01*
X007300Y015100D01*
X006729Y015671D01*
X004116Y015671D01*
X004116Y015356D02*
X006644Y015356D01*
X007200Y014800D01*
X015800Y014800D01*
X015462Y015374D02*
X007338Y015374D01*
X007239Y015472D02*
X015561Y015472D01*
X015659Y015571D02*
X007141Y015571D01*
X007042Y015669D02*
X013411Y015669D01*
X013589Y015669D02*
X015758Y015669D01*
X013252Y015768D02*
X006944Y015768D01*
X006302Y014487D02*
X004640Y014487D01*
X004640Y014389D02*
X006400Y014389D01*
X006404Y014096D02*
X007100Y013400D01*
X006800Y013100D02*
X006119Y013781D01*
X004116Y013781D01*
X004116Y014096D02*
X006404Y014096D01*
X004116Y014389D02*
X004116Y014389D01*
X004116Y014411D02*
X004116Y014458D01*
X004116Y014411D01*
X004116Y014411D01*
X004116Y014458D02*
X004116Y014458D01*
X002384Y013828D02*
X002384Y013781D01*
X002384Y013828D01*
X002384Y013828D01*
X002384Y013798D02*
X002384Y013798D01*
X002384Y013781D02*
X002384Y013781D01*
X002384Y012883D02*
X002384Y012836D01*
X002384Y012836D01*
X002384Y012883D01*
X002384Y012883D01*
X002384Y012813D02*
X002384Y012813D01*
X002384Y011938D02*
X002384Y011891D01*
X002384Y011891D01*
X002384Y011938D01*
X002384Y011938D01*
X002384Y011926D02*
X002384Y011926D01*
X002384Y010993D02*
X002384Y010993D01*
X002384Y010947D02*
X002384Y010900D01*
X002384Y010900D01*
X002384Y010947D01*
X002384Y010947D01*
X002384Y010941D02*
X002384Y010941D01*
X002384Y010048D02*
X002384Y010048D01*
X002384Y010002D02*
X002384Y009955D01*
X002384Y009955D01*
X002384Y010002D01*
X002384Y010002D01*
X002384Y009956D02*
X002384Y009956D01*
X002384Y009103D02*
X002384Y009103D01*
X002384Y009070D02*
X002384Y009070D01*
X002384Y009057D02*
X002384Y009010D01*
X002384Y009010D01*
X002384Y009057D01*
X002384Y009057D01*
X002384Y008158D02*
X002384Y008158D01*
X002384Y008112D02*
X002384Y008065D01*
X002384Y008065D01*
X002384Y008112D01*
X002384Y008112D01*
X002384Y008085D02*
X002384Y008085D01*
X002384Y007214D02*
X002384Y007167D01*
X002384Y007167D01*
X002384Y007214D01*
X002384Y007214D01*
X002384Y007198D02*
X002384Y007198D01*
X002384Y006269D02*
X002384Y006222D01*
X002384Y006222D01*
X002384Y006269D01*
X002384Y006269D01*
X002384Y006213D02*
X002384Y006213D01*
X004116Y006852D02*
X004116Y006899D01*
X004116Y006852D01*
X004116Y006852D01*
X004116Y006899D02*
X004116Y006899D01*
X004116Y007750D02*
X004116Y007750D01*
X004116Y007789D02*
X004116Y007789D01*
X004116Y007844D02*
X004116Y007844D01*
X004116Y008695D02*
X004116Y008742D01*
X004116Y008695D01*
X004116Y008695D01*
X004116Y008742D02*
X004116Y008742D01*
X004116Y008774D02*
X004116Y008774D01*
X004116Y008788D02*
X004116Y008788D01*
X004116Y009640D02*
X004116Y009687D01*
X004116Y009640D01*
X004116Y009640D01*
X004116Y009661D02*
X004116Y009661D01*
X004116Y009687D02*
X004116Y009687D01*
X004116Y009733D02*
X004116Y009733D01*
X004116Y010585D02*
X004116Y010632D01*
X004116Y010585D01*
X004116Y010585D01*
X004116Y010632D02*
X004116Y010632D01*
X004116Y010646D02*
X004116Y010646D01*
X004116Y010678D02*
X004116Y010678D01*
X004116Y011891D02*
X004116Y011938D01*
X004116Y011891D01*
X004116Y011891D01*
X004116Y011926D02*
X004116Y011926D01*
X004116Y011938D02*
X004116Y011938D01*
X006720Y010744D02*
X006745Y010744D01*
X006720Y010646D02*
X006843Y010646D01*
X006942Y010547D02*
X006720Y010547D01*
X006720Y010449D02*
X012759Y010449D01*
X012857Y010350D02*
X006720Y010350D01*
X006720Y010252D02*
X012956Y010252D01*
X012773Y010153D02*
X006720Y010153D01*
X006720Y010055D02*
X012710Y010055D01*
X012710Y009956D02*
X006720Y009956D01*
X006720Y009858D02*
X012710Y009858D01*
X012710Y009759D02*
X006720Y009759D01*
X006720Y009661D02*
X012710Y009661D01*
X012710Y009562D02*
X006720Y009562D01*
X006720Y009464D02*
X012710Y009464D01*
X012710Y009365D02*
X006720Y009365D01*
X006720Y009267D02*
X012753Y009267D01*
X013647Y009267D02*
X013941Y009267D01*
X013842Y009365D02*
X013690Y009365D01*
X013690Y009464D02*
X013744Y009464D01*
X013710Y009562D02*
X013690Y009562D01*
X012748Y010941D02*
X007170Y010941D01*
X007072Y011040D02*
X012847Y011040D01*
X012945Y011138D02*
X007020Y011138D01*
X006934Y008577D02*
X011896Y008577D01*
X011894Y007395D02*
X011825Y007395D01*
X012200Y007100D02*
X012500Y006800D01*
X012500Y005500D01*
X013000Y005000D02*
X013500Y005500D01*
X013043Y004736D02*
X012957Y004736D01*
X012990Y004637D02*
X013010Y004637D01*
X013010Y004539D02*
X012990Y004539D01*
X012990Y004440D02*
X013010Y004440D01*
X013010Y004342D02*
X012990Y004342D01*
X012936Y004243D02*
X013064Y004243D01*
X013163Y004145D02*
X012837Y004145D01*
X012739Y004046D02*
X013261Y004046D01*
X013800Y006600D02*
X013400Y007000D01*
X010261Y004046D02*
X008739Y004046D01*
X008837Y004145D02*
X009219Y004145D01*
X009121Y004243D02*
X008936Y004243D01*
X008990Y004342D02*
X009050Y004342D01*
X009050Y004440D02*
X008990Y004440D01*
X009450Y004440D02*
X009550Y004440D01*
X009550Y004342D02*
X009450Y004342D01*
X009450Y004243D02*
X009550Y004243D01*
X009550Y004145D02*
X009450Y004145D01*
X009781Y004145D02*
X010163Y004145D01*
X010064Y004243D02*
X009879Y004243D01*
X009950Y004342D02*
X010010Y004342D01*
X010010Y004440D02*
X009950Y004440D01*
X006600Y007789D02*
X006320Y007789D01*
X006320Y007888D02*
X006501Y007888D01*
X006403Y007986D02*
X006320Y007986D01*
X004680Y018427D02*
X013330Y018427D01*
X013429Y018526D02*
X005037Y018526D01*
X005120Y018624D02*
X013527Y018624D01*
X013626Y018723D02*
X005120Y018723D01*
X005120Y018821D02*
X013724Y018821D01*
X013703Y019510D02*
X013297Y019510D01*
X013010Y019797D01*
X013010Y020203D01*
X013297Y020490D01*
X013703Y020490D01*
X013990Y020203D01*
X013990Y019797D01*
X013703Y019510D01*
X013704Y019511D02*
X014414Y019511D01*
X014512Y019609D02*
X013802Y019609D01*
X013901Y019708D02*
X014611Y019708D01*
X014709Y019806D02*
X013990Y019806D01*
X013990Y019905D02*
X014808Y019905D01*
X014906Y020003D02*
X013990Y020003D01*
X013990Y020102D02*
X015005Y020102D01*
X015103Y020200D02*
X013990Y020200D01*
X013894Y020299D02*
X015202Y020299D01*
X015300Y020397D02*
X013796Y020397D01*
X013703Y020510D02*
X013990Y020797D01*
X013990Y021203D01*
X013703Y021490D01*
X013297Y021490D01*
X013010Y021203D01*
X013010Y020797D01*
X013297Y020510D01*
X013703Y020510D01*
X013787Y020594D02*
X015497Y020594D01*
X015399Y020496D02*
X011993Y020496D01*
X012091Y020594D02*
X012270Y020594D01*
X012314Y020450D02*
X012050Y020186D01*
X012050Y020050D01*
X012450Y020050D01*
X012450Y020450D01*
X012314Y020450D01*
X012261Y020397D02*
X011894Y020397D01*
X011894Y020299D02*
X012162Y020299D01*
X012064Y020200D02*
X011990Y020200D01*
X011990Y020102D02*
X012050Y020102D01*
X011990Y020003D02*
X012450Y020003D01*
X012450Y020050D02*
X012450Y019950D01*
X012550Y019950D01*
X012550Y020050D01*
X012950Y020050D01*
X012950Y020186D01*
X012686Y020450D01*
X012550Y020450D01*
X012550Y020050D01*
X012450Y020050D01*
X012450Y020102D02*
X012550Y020102D01*
X012550Y020200D02*
X012450Y020200D01*
X012450Y020299D02*
X012550Y020299D01*
X012550Y020397D02*
X012450Y020397D01*
X012550Y020550D02*
X012686Y020550D01*
X012950Y020814D01*
X012950Y020950D01*
X012550Y020950D01*
X012550Y020550D01*
X012550Y020594D02*
X012450Y020594D01*
X012450Y020693D02*
X012550Y020693D01*
X012550Y020791D02*
X012450Y020791D01*
X012450Y020890D02*
X012550Y020890D01*
X012550Y020988D02*
X013010Y020988D01*
X012950Y021050D02*
X012950Y021186D01*
X012686Y021450D01*
X012550Y021450D01*
X012550Y021050D01*
X012950Y021050D01*
X012950Y021087D02*
X013010Y021087D01*
X013010Y021185D02*
X012950Y021185D01*
X012853Y021284D02*
X013091Y021284D01*
X013189Y021382D02*
X012754Y021382D01*
X012550Y021382D02*
X012450Y021382D01*
X012450Y021284D02*
X012550Y021284D01*
X012550Y021185D02*
X012450Y021185D01*
X012450Y021087D02*
X012550Y021087D01*
X012950Y020890D02*
X013010Y020890D01*
X013016Y020791D02*
X012927Y020791D01*
X012829Y020693D02*
X013114Y020693D01*
X013213Y020594D02*
X012730Y020594D01*
X012739Y020397D02*
X013204Y020397D01*
X013106Y020299D02*
X012838Y020299D01*
X012936Y020200D02*
X013010Y020200D01*
X013010Y020102D02*
X012950Y020102D01*
X013010Y020003D02*
X012550Y020003D01*
X012550Y019950D02*
X012950Y019950D01*
X012950Y019814D01*
X012686Y019550D01*
X012550Y019550D01*
X012550Y019950D01*
X012550Y019905D02*
X012450Y019905D01*
X012450Y019950D02*
X012450Y019550D01*
X012314Y019550D01*
X012050Y019814D01*
X012050Y019950D01*
X012450Y019950D01*
X012450Y019806D02*
X012550Y019806D01*
X012550Y019708D02*
X012450Y019708D01*
X012450Y019609D02*
X012550Y019609D01*
X012745Y019609D02*
X013198Y019609D01*
X013296Y019511D02*
X011704Y019511D01*
X011802Y019609D02*
X012255Y019609D01*
X012156Y019708D02*
X011901Y019708D01*
X011990Y019806D02*
X012058Y019806D01*
X012050Y019905D02*
X011990Y019905D01*
X011296Y019511D02*
X010704Y019511D01*
X010703Y019510D02*
X010990Y019797D01*
X010990Y020203D01*
X010703Y020490D01*
X010297Y020490D01*
X010010Y020203D01*
X010010Y019797D01*
X010297Y019510D01*
X010703Y019510D01*
X010802Y019609D02*
X011198Y019609D01*
X011099Y019708D02*
X010901Y019708D01*
X010990Y019806D02*
X011010Y019806D01*
X011010Y019905D02*
X010990Y019905D01*
X010990Y020003D02*
X011010Y020003D01*
X011010Y020102D02*
X010990Y020102D01*
X010990Y020200D02*
X011010Y020200D01*
X010904Y020299D02*
X010894Y020299D01*
X010806Y020397D02*
X010796Y020397D01*
X010707Y020496D02*
X008301Y020496D01*
X008297Y020510D02*
X008703Y020510D01*
X008990Y020797D01*
X008990Y021203D01*
X008703Y021490D01*
X008297Y021490D01*
X008010Y021203D01*
X008010Y020797D01*
X008297Y020510D01*
X008213Y020594D02*
X008203Y020594D01*
X008114Y020693D02*
X008104Y020693D01*
X008016Y020791D02*
X008006Y020791D01*
X008010Y020890D02*
X007907Y020890D01*
X007809Y020988D02*
X008010Y020988D01*
X008010Y021087D02*
X007710Y021087D01*
X007612Y021185D02*
X008010Y021185D01*
X008091Y021284D02*
X007513Y021284D01*
X007415Y021382D02*
X008189Y021382D01*
X008288Y021481D02*
X007316Y021481D01*
X007218Y021579D02*
X010624Y021579D01*
X010712Y021481D02*
X010722Y021481D01*
X010811Y021382D02*
X010821Y021382D01*
X010909Y021284D02*
X010919Y021284D01*
X010990Y021185D02*
X011010Y021185D01*
X011010Y021087D02*
X010990Y021087D01*
X010990Y020988D02*
X011010Y020988D01*
X011010Y020890D02*
X010990Y020890D01*
X011006Y020791D02*
X011016Y020791D01*
X011307Y021490D02*
X011413Y021490D01*
X010713Y022190D01*
X010607Y022190D01*
X011307Y021490D01*
X011324Y021579D02*
X011218Y021579D01*
X011225Y021678D02*
X011119Y021678D01*
X011127Y021776D02*
X011021Y021776D01*
X011028Y021875D02*
X010922Y021875D01*
X010930Y021973D02*
X010824Y021973D01*
X010831Y022072D02*
X010725Y022072D01*
X010733Y022170D02*
X010627Y022170D01*
X010230Y021973D02*
X006824Y021973D01*
X006922Y021875D02*
X010328Y021875D01*
X010427Y021776D02*
X007021Y021776D01*
X007119Y021678D02*
X010525Y021678D01*
X010288Y021481D02*
X009712Y021481D01*
X009703Y021490D02*
X009297Y021490D01*
X009010Y021203D01*
X009010Y020797D01*
X009297Y020510D01*
X009703Y020510D01*
X009990Y020797D01*
X009990Y021203D01*
X009703Y021490D01*
X009811Y021382D02*
X010189Y021382D01*
X010091Y021284D02*
X009909Y021284D01*
X009990Y021185D02*
X010010Y021185D01*
X010010Y021087D02*
X009990Y021087D01*
X009990Y020988D02*
X010010Y020988D01*
X010010Y020890D02*
X009990Y020890D01*
X009984Y020791D02*
X010016Y020791D01*
X010114Y020693D02*
X009886Y020693D01*
X009787Y020594D02*
X010213Y020594D01*
X010204Y020397D02*
X009796Y020397D01*
X009703Y020490D02*
X009990Y020203D01*
X009990Y019797D01*
X009703Y019510D01*
X009297Y019510D01*
X009010Y019797D01*
X009010Y020203D01*
X009297Y020490D01*
X009703Y020490D01*
X009894Y020299D02*
X010106Y020299D01*
X010010Y020200D02*
X009990Y020200D01*
X009990Y020102D02*
X010010Y020102D01*
X010010Y020003D02*
X009990Y020003D01*
X009990Y019905D02*
X010010Y019905D01*
X010010Y019806D02*
X009990Y019806D01*
X009901Y019708D02*
X010099Y019708D01*
X010198Y019609D02*
X009802Y019609D01*
X009704Y019511D02*
X010296Y019511D01*
X009296Y019511D02*
X008891Y019511D01*
X008989Y019609D02*
X009198Y019609D01*
X009099Y019708D02*
X008990Y019708D01*
X008990Y019806D02*
X009010Y019806D01*
X009010Y019905D02*
X008990Y019905D01*
X008990Y020003D02*
X009010Y020003D01*
X009010Y020102D02*
X008990Y020102D01*
X008990Y020200D02*
X009010Y020200D01*
X008990Y020299D02*
X009106Y020299D01*
X009204Y020397D02*
X008983Y020397D01*
X008787Y020594D02*
X009213Y020594D01*
X009114Y020693D02*
X008886Y020693D01*
X008984Y020791D02*
X009016Y020791D01*
X009010Y020890D02*
X008990Y020890D01*
X008990Y020988D02*
X009010Y020988D01*
X009010Y021087D02*
X008990Y021087D01*
X008990Y021185D02*
X009010Y021185D01*
X009091Y021284D02*
X008909Y021284D01*
X008811Y021382D02*
X009189Y021382D01*
X009288Y021481D02*
X008712Y021481D01*
X010933Y022564D02*
X022780Y022564D01*
X022780Y022466D02*
X011031Y022466D01*
X011130Y022367D02*
X022780Y022367D01*
X022780Y022269D02*
X011228Y022269D01*
X011327Y022170D02*
X022780Y022170D01*
X022780Y022860D02*
X000720Y022860D01*
X000720Y022958D02*
X022780Y022958D01*
X022780Y023057D02*
X000720Y023057D01*
X000720Y023155D02*
X022780Y023155D01*
X022780Y023254D02*
X000720Y023254D01*
X000720Y023352D02*
X022780Y023352D01*
X022780Y023451D02*
X000720Y023451D01*
X000720Y023549D02*
X022780Y023549D01*
X022780Y023648D02*
X000720Y023648D01*
X000720Y023746D02*
X022780Y023746D01*
X022780Y023845D02*
X000720Y023845D01*
X000720Y023943D02*
X022780Y023943D01*
X022780Y024042D02*
X000720Y024042D01*
X000720Y024140D02*
X022780Y024140D01*
X022780Y024239D02*
X000720Y024239D01*
X000720Y024337D02*
X022780Y024337D01*
X022780Y024436D02*
X000720Y024436D01*
X000720Y024534D02*
X022780Y024534D01*
X022780Y024633D02*
X000720Y024633D01*
X000720Y024731D02*
X022780Y024731D01*
X019010Y021185D02*
X018990Y021185D01*
X018990Y021087D02*
X019010Y021087D01*
X019010Y020988D02*
X018990Y020988D01*
X018990Y020890D02*
X019010Y020890D01*
X019016Y020791D02*
X018984Y020791D01*
X018886Y020693D02*
X019114Y020693D01*
X019213Y020594D02*
X018787Y020594D01*
X018796Y020397D02*
X019204Y020397D01*
X019106Y020299D02*
X018894Y020299D01*
X018990Y020200D02*
X019010Y020200D01*
X019010Y020102D02*
X018990Y020102D01*
X018990Y020003D02*
X019010Y020003D01*
X019010Y019905D02*
X018990Y019905D01*
X018990Y019806D02*
X019010Y019806D01*
X018911Y019708D02*
X018901Y019708D01*
X018296Y019511D02*
X017891Y019511D01*
X017989Y019609D02*
X018198Y019609D01*
X018099Y019708D02*
X017990Y019708D01*
X017990Y019806D02*
X018010Y019806D01*
X018010Y019905D02*
X017990Y019905D01*
X017990Y020003D02*
X018010Y020003D01*
X018010Y020102D02*
X017990Y020102D01*
X017990Y020200D02*
X018010Y020200D01*
X017990Y020299D02*
X018106Y020299D01*
X018204Y020397D02*
X017983Y020397D01*
X017787Y020594D02*
X018213Y020594D01*
X018114Y020693D02*
X017886Y020693D01*
X017984Y020791D02*
X018016Y020791D01*
X018010Y020890D02*
X017990Y020890D01*
X017990Y020988D02*
X018010Y020988D01*
X018010Y021087D02*
X017990Y021087D01*
X017990Y021185D02*
X018010Y021185D01*
X017919Y021284D02*
X017909Y021284D01*
X018712Y021481D02*
X018722Y021481D01*
X018811Y021382D02*
X018821Y021382D01*
X018909Y021284D02*
X018919Y021284D01*
X016975Y022072D02*
X011425Y022072D01*
X011524Y021973D02*
X016876Y021973D01*
X016778Y021875D02*
X011622Y021875D01*
X011721Y021776D02*
X016679Y021776D01*
X016581Y021678D02*
X011819Y021678D01*
X011918Y021579D02*
X016482Y021579D01*
X016384Y021481D02*
X013712Y021481D01*
X013811Y021382D02*
X016285Y021382D01*
X016187Y021284D02*
X013909Y021284D01*
X013990Y021185D02*
X016088Y021185D01*
X015990Y021087D02*
X013990Y021087D01*
X013990Y020988D02*
X015891Y020988D01*
X015793Y020890D02*
X013990Y020890D01*
X013984Y020791D02*
X015694Y020791D01*
X015596Y020693D02*
X013886Y020693D01*
X013288Y021481D02*
X012016Y021481D01*
X012115Y021382D02*
X012246Y021382D01*
X012950Y019905D02*
X013010Y019905D01*
X013010Y019806D02*
X012942Y019806D01*
X012844Y019708D02*
X013099Y019708D01*
X016308Y019511D02*
X017109Y019511D01*
X017011Y019609D02*
X016406Y019609D01*
X016505Y019708D02*
X017010Y019708D01*
X017010Y019806D02*
X016603Y019806D01*
X016702Y019905D02*
X017010Y019905D01*
X017010Y020003D02*
X016800Y020003D01*
X016899Y020102D02*
X017010Y020102D01*
X016997Y020200D02*
X017010Y020200D01*
X018411Y009070D02*
X018777Y009070D01*
X018678Y008971D02*
X018490Y008971D01*
X018490Y008873D02*
X018580Y008873D01*
X018510Y008774D02*
X018490Y008774D01*
X018490Y008676D02*
X018510Y008676D01*
X018720Y008183D02*
X018724Y008183D01*
X018720Y008085D02*
X018792Y008085D01*
X018280Y008085D02*
X018208Y008085D01*
X004900Y019708D02*
X004640Y019708D01*
X004640Y019806D02*
X004900Y019806D01*
X004900Y019905D02*
X004633Y019905D01*
D14*
X004100Y020200D02*
X004100Y021000D01*
X003900Y021600D01*
X002600Y021600D02*
X002400Y021400D01*
X002400Y020100D01*
X006600Y023200D02*
X012600Y023200D01*
X012500Y023100D01*
X012500Y021000D01*
X012500Y020000D01*
X012600Y023200D02*
X020800Y023200D01*
X021500Y022500D01*
X021500Y021000D01*
X021500Y020000D01*
X021500Y019000D01*
X022500Y018000D01*
X022500Y013600D01*
X019000Y013600D01*
X018000Y013600D01*
X015400Y011500D02*
X022300Y011500D01*
X022500Y011700D01*
X022500Y013600D01*
X022500Y011700D02*
X022500Y004700D01*
X022400Y004600D01*
X019000Y004600D01*
X018000Y004600D01*
X021700Y000900D02*
X022500Y001700D01*
X022500Y004700D01*
X021700Y000900D02*
X010000Y000900D01*
X009500Y001400D01*
X009500Y004500D01*
X009500Y005500D01*
X015200Y009700D02*
X015200Y010700D01*
X015200Y011300D01*
X015400Y011500D01*
D15*
X012100Y008300D03*
X011500Y007500D03*
X013400Y007000D03*
X016100Y015100D03*
X016200Y016700D03*
X014800Y016300D03*
X013500Y016000D03*
X006600Y023200D03*
X003900Y021600D03*
X002600Y021600D03*
X003100Y017900D03*
X003400Y017600D03*
X003100Y017300D03*
X003400Y017000D03*
X003400Y016400D03*
D16*
X003200Y016600D01*
X002400Y016600D01*
X002384Y016616D01*
X002384Y016931D02*
X002400Y017000D01*
X003400Y017000D01*
X003100Y017300D02*
X002400Y017300D01*
X002384Y017246D01*
X002384Y017561D02*
X002400Y017600D01*
X003400Y017600D01*
X003100Y017900D02*
X002400Y017900D01*
X002384Y017876D01*
X002384Y018191D02*
X002400Y018200D01*
X002800Y018200D01*
X002900Y018300D01*
X002900Y020600D01*
X002800Y020700D01*
X002800Y021000D01*
X003800Y022000D01*
X006500Y022000D01*
X008500Y020000D01*
X010500Y021000D02*
X011000Y020500D01*
X011700Y020500D01*
X012000Y020800D01*
X012000Y021200D01*
X010800Y022400D01*
X002600Y022400D01*
X001200Y021000D01*
X001200Y016800D01*
X002000Y016000D01*
X002300Y016000D01*
X002384Y015986D01*
X002384Y016301D02*
X002300Y016300D01*
X002000Y016300D01*
X001800Y016500D01*
X001800Y021300D01*
X002700Y022200D01*
X010300Y022200D01*
X011500Y021000D01*
X013400Y018200D02*
X017100Y021900D01*
X019600Y021900D01*
X020500Y021000D01*
X020500Y020000D02*
X020000Y019500D01*
X019000Y019500D01*
X016500Y017000D01*
X004200Y017000D01*
X004116Y016931D01*
X004200Y016700D02*
X004116Y016616D01*
X004200Y016700D02*
X016200Y016700D01*
X014800Y016300D02*
X004200Y016300D01*
X004116Y016301D01*
X004200Y016000D02*
X004116Y015986D01*
X004200Y016000D02*
X013500Y016000D01*
X013800Y017300D02*
X017500Y021000D01*
X017300Y021500D02*
X018000Y021500D01*
X018500Y021000D01*
X018800Y021700D02*
X019500Y021000D01*
X018800Y021700D02*
X017200Y021700D01*
X013400Y017900D01*
X004200Y017900D01*
X004116Y017876D01*
X004116Y018191D02*
X004200Y018200D01*
X013400Y018200D01*
X013400Y017600D02*
X017300Y021500D01*
X021050Y019900D02*
X021100Y019900D01*
X013800Y017300D02*
X004200Y017300D01*
X004116Y017246D01*
X004116Y017561D02*
X004200Y017600D01*
X013400Y017600D01*
D17*
X004116Y019766D02*
X004116Y020184D01*
X004100Y020200D01*
X002400Y020100D02*
X002384Y020084D01*
X002384Y019766D01*
M02*
