G75*
G70*
%OFA0B0*%
%FSLAX24Y24*%
%IPPOS*%
%LPD*%
%AMOC8*
5,1,8,0,0,1.08239X$1,22.5*
%
%ADD10C,0.0050*%
%ADD11C,0.0040*%
%ADD12C,0.0100*%
%ADD13C,0.0000*%
%ADD14C,0.0060*%
%ADD15C,0.0080*%
%ADD16C,0.0010*%
%ADD17C,0.0220*%
%ADD18R,0.0192X0.0006*%
%ADD19R,0.0204X0.0006*%
%ADD20R,0.0072X0.0006*%
%ADD21R,0.0252X0.0006*%
%ADD22R,0.0336X0.0006*%
%ADD23R,0.0408X0.0006*%
%ADD24R,0.0468X0.0006*%
%ADD25R,0.0528X0.0006*%
%ADD26R,0.0576X0.0006*%
%ADD27R,0.0612X0.0006*%
%ADD28R,0.0660X0.0006*%
%ADD29R,0.0696X0.0006*%
%ADD30R,0.0732X0.0006*%
%ADD31R,0.0774X0.0006*%
%ADD32R,0.0816X0.0006*%
%ADD33R,0.0846X0.0006*%
%ADD34R,0.0870X0.0006*%
%ADD35R,0.0900X0.0006*%
%ADD36R,0.0918X0.0006*%
%ADD37R,0.0942X0.0006*%
%ADD38R,0.0978X0.0006*%
%ADD39R,0.1002X0.0006*%
%ADD40R,0.1026X0.0006*%
%ADD41R,0.1050X0.0006*%
%ADD42R,0.1074X0.0006*%
%ADD43R,0.1092X0.0006*%
%ADD44R,0.1116X0.0006*%
%ADD45R,0.1134X0.0006*%
%ADD46R,0.1158X0.0006*%
%ADD47R,0.1170X0.0006*%
%ADD48R,0.1194X0.0006*%
%ADD49R,0.1218X0.0006*%
%ADD50R,0.1230X0.0006*%
%ADD51R,0.1254X0.0006*%
%ADD52R,0.1272X0.0006*%
%ADD53R,0.0546X0.0006*%
%ADD54R,0.0516X0.0006*%
%ADD55R,0.0474X0.0006*%
%ADD56R,0.0456X0.0006*%
%ADD57R,0.0462X0.0006*%
%ADD58R,0.0444X0.0006*%
%ADD59R,0.0426X0.0006*%
%ADD60R,0.0432X0.0006*%
%ADD61R,0.0414X0.0006*%
%ADD62R,0.0402X0.0006*%
%ADD63R,0.0390X0.0006*%
%ADD64R,0.0402X0.0006*%
%ADD65R,0.0378X0.0006*%
%ADD66R,0.0366X0.0006*%
%ADD67R,0.0030X0.0006*%
%ADD68R,0.0372X0.0006*%
%ADD69R,0.0360X0.0006*%
%ADD70R,0.0054X0.0006*%
%ADD71R,0.0048X0.0006*%
%ADD72R,0.0066X0.0006*%
%ADD73R,0.0354X0.0006*%
%ADD74R,0.0348X0.0006*%
%ADD75R,0.0090X0.0006*%
%ADD76R,0.0084X0.0006*%
%ADD77R,0.0342X0.0006*%
%ADD78R,0.0108X0.0006*%
%ADD79R,0.0114X0.0006*%
%ADD80R,0.0120X0.0006*%
%ADD81R,0.0342X0.0006*%
%ADD82R,0.0330X0.0006*%
%ADD83R,0.0126X0.0006*%
%ADD84R,0.0132X0.0006*%
%ADD85R,0.0324X0.0006*%
%ADD86R,0.0138X0.0006*%
%ADD87R,0.0144X0.0006*%
%ADD88R,0.0324X0.0006*%
%ADD89R,0.0150X0.0006*%
%ADD90R,0.0156X0.0006*%
%ADD91R,0.0318X0.0006*%
%ADD92R,0.0168X0.0006*%
%ADD93R,0.0162X0.0006*%
%ADD94R,0.0312X0.0006*%
%ADD95R,0.0174X0.0006*%
%ADD96R,0.0186X0.0006*%
%ADD97R,0.0180X0.0006*%
%ADD98R,0.0306X0.0006*%
%ADD99R,0.0300X0.0006*%
%ADD100R,0.0204X0.0006*%
%ADD101R,0.0198X0.0006*%
%ADD102R,0.0210X0.0006*%
%ADD103R,0.0294X0.0006*%
%ADD104R,0.0216X0.0006*%
%ADD105R,0.0222X0.0006*%
%ADD106R,0.0222X0.0006*%
%ADD107R,0.0288X0.0006*%
%ADD108R,0.0294X0.0006*%
%ADD109R,0.0282X0.0006*%
%ADD110R,0.0192X0.0006*%
%ADD111R,0.0276X0.0006*%
%ADD112R,0.0270X0.0006*%
%ADD113R,0.0162X0.0006*%
%ADD114R,0.0264X0.0006*%
%ADD115R,0.0264X0.0006*%
%ADD116R,0.0258X0.0006*%
%ADD117R,0.0144X0.0006*%
%ADD118R,0.0252X0.0006*%
%ADD119R,0.0084X0.0006*%
%ADD120R,0.0462X0.0006*%
%ADD121R,0.0246X0.0006*%
%ADD122R,0.0450X0.0006*%
%ADD123R,0.0132X0.0006*%
%ADD124R,0.0444X0.0006*%
%ADD125R,0.0384X0.0006*%
%ADD126R,0.0438X0.0006*%
%ADD127R,0.0420X0.0006*%
%ADD128R,0.0240X0.0006*%
%ADD129R,0.0498X0.0006*%
%ADD130R,0.0414X0.0006*%
%ADD131R,0.0522X0.0006*%
%ADD132R,0.0234X0.0006*%
%ADD133R,0.0396X0.0006*%
%ADD134R,0.0594X0.0006*%
%ADD135R,0.0606X0.0006*%
%ADD136R,0.0624X0.0006*%
%ADD137R,0.0384X0.0006*%
%ADD138R,0.0642X0.0006*%
%ADD139R,0.0114X0.0006*%
%ADD140R,0.0234X0.0006*%
%ADD141R,0.0678X0.0006*%
%ADD142R,0.0372X0.0006*%
%ADD143R,0.0228X0.0006*%
%ADD144R,0.0714X0.0006*%
%ADD145R,0.0102X0.0006*%
%ADD146R,0.0750X0.0006*%
%ADD147R,0.0354X0.0006*%
%ADD148R,0.0102X0.0006*%
%ADD149R,0.0762X0.0006*%
%ADD150R,0.0096X0.0006*%
%ADD151R,0.0786X0.0006*%
%ADD152R,0.0798X0.0006*%
%ADD153R,0.0810X0.0006*%
%ADD154R,0.0822X0.0006*%
%ADD155R,0.0834X0.0006*%
%ADD156R,0.0858X0.0006*%
%ADD157R,0.0882X0.0006*%
%ADD158R,0.0888X0.0006*%
%ADD159R,0.0906X0.0006*%
%ADD160R,0.0018X0.0006*%
%ADD161R,0.0924X0.0006*%
%ADD162R,0.0930X0.0006*%
%ADD163R,0.0954X0.0006*%
%ADD164R,0.0960X0.0006*%
%ADD165R,0.0966X0.0006*%
%ADD166R,0.0984X0.0006*%
%ADD167R,0.0996X0.0006*%
%ADD168R,0.1008X0.0006*%
%ADD169R,0.1014X0.0006*%
%ADD170R,0.1020X0.0006*%
%ADD171R,0.1032X0.0006*%
%ADD172R,0.0738X0.0006*%
%ADD173R,0.0012X0.0006*%
%ADD174R,0.0078X0.0006*%
%ADD175R,0.0072X0.0006*%
%ADD176R,0.0174X0.0006*%
%ADD177R,0.0060X0.0006*%
%ADD178R,0.0024X0.0006*%
%ADD179R,0.0006X0.0006*%
%ADD180R,0.0054X0.0006*%
%ADD181R,0.0012X0.0006*%
%ADD182R,0.0042X0.0006*%
%ADD183R,0.0036X0.0006*%
%ADD184R,0.0312X0.0006*%
%ADD185R,0.0432X0.0006*%
%ADD186R,0.0804X0.0006*%
%ADD187R,0.1152X0.0006*%
%ADD188R,0.1146X0.0006*%
%ADD189R,0.1140X0.0006*%
%ADD190R,0.1128X0.0006*%
%ADD191R,0.0630X0.0006*%
%ADD192R,0.0726X0.0006*%
%ADD193R,0.0948X0.0006*%
%ADD194R,0.1038X0.0006*%
%ADD195R,0.1086X0.0006*%
%ADD196R,0.1122X0.0006*%
%ADD197R,0.1176X0.0006*%
%ADD198R,0.1278X0.0006*%
%ADD199R,0.1302X0.0006*%
%ADD200R,0.1314X0.0006*%
%ADD201R,0.1326X0.0006*%
%ADD202R,0.0648X0.0006*%
%ADD203R,0.0600X0.0006*%
%ADD204R,0.0564X0.0006*%
%ADD205R,0.0480X0.0006*%
%ADD206R,0.0486X0.0006*%
%ADD207R,0.0282X0.0006*%
%ADD208R,0.0594X0.0006*%
%ADD209R,0.0702X0.0006*%
%ADD210R,0.0768X0.0006*%
%ADD211R,0.0936X0.0006*%
%ADD212R,0.0954X0.0006*%
%ADD213R,0.0912X0.0006*%
%ADD214R,0.0876X0.0006*%
%ADD215R,0.0864X0.0006*%
%ADD216R,0.0492X0.0006*%
%ADD217R,0.0558X0.0006*%
%ADD218R,0.1266X0.0006*%
%ADD219R,0.1248X0.0006*%
%ADD220R,0.1212X0.0006*%
%ADD221R,0.1110X0.0006*%
%ADD222R,0.1068X0.0006*%
%ADD223R,0.1044X0.0006*%
%ADD224R,0.0990X0.0006*%
%ADD225R,0.0894X0.0006*%
%ADD226R,0.0828X0.0006*%
%ADD227R,0.0474X0.0006*%
%ADD228R,0.0068X0.0004*%
%ADD229R,0.0052X0.0004*%
%ADD230R,0.0068X0.0004*%
%ADD231R,0.0064X0.0004*%
%ADD232R,0.0060X0.0004*%
%ADD233R,0.0096X0.0004*%
%ADD234R,0.0064X0.0004*%
%ADD235R,0.0080X0.0004*%
%ADD236R,0.0056X0.0004*%
%ADD237R,0.0096X0.0004*%
%ADD238R,0.0100X0.0004*%
%ADD239R,0.0064X0.0004*%
%ADD240R,0.0060X0.0004*%
%ADD241R,0.0116X0.0004*%
%ADD242R,0.0064X0.0004*%
%ADD243R,0.0100X0.0004*%
%ADD244R,0.0124X0.0004*%
%ADD245R,0.0132X0.0004*%
%ADD246R,0.0112X0.0004*%
%ADD247R,0.0128X0.0004*%
%ADD248R,0.0140X0.0004*%
%ADD249R,0.0140X0.0004*%
%ADD250R,0.0124X0.0004*%
%ADD251R,0.0136X0.0004*%
%ADD252R,0.0156X0.0004*%
%ADD253R,0.0152X0.0004*%
%ADD254R,0.0136X0.0004*%
%ADD255R,0.0148X0.0004*%
%ADD256R,0.0168X0.0004*%
%ADD257R,0.0156X0.0004*%
%ADD258R,0.0144X0.0004*%
%ADD259R,0.0072X0.0004*%
%ADD260R,0.0176X0.0004*%
%ADD261R,0.0228X0.0004*%
%ADD262R,0.0072X0.0004*%
%ADD263R,0.0228X0.0004*%
%ADD264R,0.0188X0.0004*%
%ADD265R,0.0232X0.0004*%
%ADD266R,0.0224X0.0004*%
%ADD267R,0.0200X0.0004*%
%ADD268R,0.0236X0.0004*%
%ADD269R,0.0228X0.0004*%
%ADD270R,0.0236X0.0004*%
%ADD271R,0.0208X0.0004*%
%ADD272R,0.0236X0.0004*%
%ADD273R,0.0080X0.0004*%
%ADD274R,0.0236X0.0004*%
%ADD275R,0.0216X0.0004*%
%ADD276R,0.0240X0.0004*%
%ADD277R,0.0220X0.0004*%
%ADD278R,0.0244X0.0004*%
%ADD279R,0.0088X0.0004*%
%ADD280R,0.0240X0.0004*%
%ADD281R,0.0108X0.0004*%
%ADD282R,0.0088X0.0004*%
%ADD283R,0.0108X0.0004*%
%ADD284R,0.0104X0.0004*%
%ADD285R,0.0084X0.0004*%
%ADD286R,0.0104X0.0004*%
%ADD287R,0.0092X0.0004*%
%ADD288R,0.0096X0.0004*%
%ADD289R,0.0084X0.0004*%
%ADD290R,0.0088X0.0004*%
%ADD291R,0.0076X0.0004*%
%ADD292R,0.0092X0.0004*%
%ADD293R,0.0076X0.0004*%
%ADD294R,0.0044X0.0004*%
%ADD295R,0.0032X0.0004*%
%ADD296R,0.0068X0.0004*%
%ADD297R,0.0104X0.0004*%
%ADD298R,0.0068X0.0004*%
%ADD299R,0.0072X0.0004*%
%ADD300R,0.0024X0.0004*%
%ADD301R,0.0076X0.0004*%
%ADD302R,0.0104X0.0004*%
%ADD303R,0.0016X0.0004*%
%ADD304R,0.0004X0.0004*%
%ADD305R,0.0056X0.0004*%
%ADD306R,0.0056X0.0004*%
%ADD307R,0.0112X0.0004*%
%ADD308R,0.0056X0.0004*%
%ADD309R,0.0052X0.0004*%
%ADD310R,0.0244X0.0004*%
%ADD311R,0.0260X0.0004*%
%ADD312R,0.0260X0.0004*%
%ADD313R,0.0052X0.0004*%
%ADD314R,0.0232X0.0004*%
%ADD315R,0.0216X0.0004*%
%ADD316R,0.0208X0.0004*%
%ADD317R,0.0212X0.0004*%
%ADD318R,0.0204X0.0004*%
%ADD319R,0.0192X0.0004*%
%ADD320R,0.0176X0.0004*%
%ADD321R,0.0052X0.0004*%
%ADD322R,0.0108X0.0004*%
%ADD323R,0.0076X0.0004*%
%ADD324R,0.0008X0.0004*%
%ADD325R,0.0096X0.0004*%
%ADD326R,0.0004X0.0004*%
%ADD327R,0.0084X0.0004*%
%ADD328R,0.0012X0.0004*%
%ADD329R,0.0084X0.0004*%
%ADD330R,0.0012X0.0004*%
%ADD331R,0.0020X0.0004*%
%ADD332R,0.0012X0.0004*%
%ADD333R,0.0036X0.0004*%
%ADD334R,0.0072X0.0004*%
%ADD335R,0.0024X0.0004*%
%ADD336R,0.0036X0.0004*%
%ADD337R,0.0024X0.0004*%
%ADD338R,0.0048X0.0004*%
%ADD339R,0.0040X0.0004*%
%ADD340R,0.0088X0.0004*%
%ADD341R,0.0044X0.0004*%
%ADD342R,0.0184X0.0004*%
%ADD343R,0.0092X0.0004*%
%ADD344R,0.0184X0.0004*%
%ADD345R,0.0216X0.0004*%
%ADD346R,0.0184X0.0004*%
%ADD347R,0.0216X0.0004*%
%ADD348R,0.0184X0.0004*%
%ADD349R,0.0212X0.0004*%
%ADD350R,0.0220X0.0004*%
%ADD351R,0.0188X0.0004*%
%ADD352R,0.0196X0.0004*%
%ADD353R,0.0196X0.0004*%
%ADD354R,0.0224X0.0004*%
%ADD355R,0.0208X0.0004*%
%ADD356R,0.0180X0.0004*%
%ADD357R,0.0156X0.0004*%
%ADD358R,0.0136X0.0004*%
%ADD359R,0.0172X0.0004*%
%ADD360R,0.0144X0.0004*%
%ADD361R,0.0192X0.0004*%
%ADD362R,0.0164X0.0004*%
%ADD363R,0.0132X0.0004*%
%ADD364R,0.0152X0.0004*%
%ADD365R,0.0124X0.0004*%
%ADD366R,0.0116X0.0004*%
%ADD367R,0.0160X0.0004*%
%ADD368R,0.0116X0.0004*%
%ADD369R,0.0048X0.0004*%
%ADD370R,0.0120X0.0004*%
%ADD371R,0.0048X0.0004*%
%ADD372R,0.0048X0.0004*%
%ADD373R,0.0040X0.0004*%
%ADD374R,0.0044X0.0004*%
%ADD375R,0.0116X0.0004*%
%ADD376R,0.0128X0.0004*%
%ADD377R,0.0120X0.0004*%
%ADD378R,0.0148X0.0004*%
%ADD379R,0.0164X0.0004*%
%ADD380R,0.0164X0.0004*%
%ADD381R,0.0180X0.0004*%
%ADD382R,0.0156X0.0004*%
%ADD383R,0.0160X0.0004*%
%ADD384R,0.0172X0.0004*%
%ADD385R,0.0192X0.0004*%
%ADD386R,0.0168X0.0004*%
%ADD387R,0.0176X0.0004*%
%ADD388R,0.0196X0.0004*%
%ADD389R,0.0188X0.0004*%
%ADD390R,0.0204X0.0004*%
%ADD391R,0.0224X0.0004*%
%ADD392R,0.0228X0.0004*%
%ADD393R,0.0200X0.0004*%
%ADD394R,0.0196X0.0004*%
%ADD395R,0.0248X0.0004*%
%ADD396R,0.0224X0.0004*%
%ADD397R,0.0256X0.0004*%
%ADD398R,0.0092X0.0004*%
%ADD399R,0.0028X0.0004*%
%ADD400R,0.0024X0.0004*%
%ADD401R,0.0028X0.0004*%
%ADD402R,0.0016X0.0004*%
%ADD403R,0.0004X0.0004*%
%ADD404R,0.0020X0.0004*%
%ADD405R,0.0008X0.0004*%
%ADD406R,0.0256X0.0004*%
%ADD407R,0.0176X0.0004*%
%ADD408R,0.0256X0.0004*%
%ADD409R,0.0008X0.0004*%
%ADD410R,0.0032X0.0004*%
%ADD411R,0.0204X0.0004*%
%ADD412R,0.0204X0.0004*%
%ADD413R,0.0232X0.0004*%
%ADD414R,0.0144X0.0004*%
%ADD415R,0.0136X0.0004*%
%ADD416R,0.0036X0.0004*%
%ADD417R,0.0036X0.0004*%
%ADD418R,0.0172X0.0004*%
%ADD419R,0.0244X0.0004*%
%ADD420R,0.0252X0.0004*%
%ADD421R,0.0264X0.0004*%
%ADD422R,0.0272X0.0004*%
%ADD423R,0.0272X0.0004*%
%ADD424R,0.0280X0.0004*%
%ADD425R,0.0284X0.0004*%
%ADD426R,0.0288X0.0004*%
%ADD427R,0.0028X0.0004*%
%ADD428R,0.0292X0.0004*%
%ADD429R,0.0300X0.0004*%
%ADD430R,0.0304X0.0004*%
%ADD431R,0.0308X0.0004*%
%ADD432R,0.0312X0.0004*%
%ADD433R,0.0320X0.0004*%
%ADD434R,0.0324X0.0004*%
%ADD435R,0.0328X0.0004*%
%ADD436R,0.0332X0.0004*%
%ADD437R,0.0340X0.0004*%
%ADD438R,0.0348X0.0004*%
%ADD439R,0.0352X0.0004*%
%ADD440R,0.0360X0.0004*%
%ADD441R,0.0368X0.0004*%
%ADD442R,0.0372X0.0004*%
%ADD443R,0.0380X0.0004*%
%ADD444R,0.0388X0.0004*%
%ADD445R,0.0392X0.0004*%
%ADD446R,0.0396X0.0004*%
%ADD447R,0.0128X0.0004*%
%ADD448R,0.0400X0.0004*%
%ADD449R,0.0408X0.0004*%
%ADD450R,0.0412X0.0004*%
%ADD451R,0.0572X0.0004*%
%ADD452R,0.0576X0.0004*%
%ADD453R,0.0576X0.0004*%
%ADD454R,0.0580X0.0004*%
%ADD455R,0.0584X0.0004*%
%ADD456R,0.0588X0.0004*%
%ADD457R,0.0588X0.0004*%
%ADD458R,0.0592X0.0004*%
%ADD459R,0.0596X0.0004*%
%ADD460R,0.0600X0.0004*%
%ADD461R,0.0604X0.0004*%
%ADD462R,0.0604X0.0004*%
%ADD463R,0.0608X0.0004*%
%ADD464R,0.0612X0.0004*%
%ADD465R,0.0616X0.0004*%
%ADD466R,0.0616X0.0004*%
%ADD467R,0.0620X0.0004*%
%ADD468R,0.0624X0.0004*%
%ADD469R,0.0628X0.0004*%
%ADD470R,0.0632X0.0004*%
%ADD471R,0.0636X0.0004*%
%ADD472R,0.0636X0.0004*%
%ADD473R,0.0640X0.0004*%
%ADD474R,0.0644X0.0004*%
%ADD475R,0.0644X0.0004*%
%ADD476R,0.0648X0.0004*%
%ADD477R,0.0652X0.0004*%
%ADD478R,0.0656X0.0004*%
%ADD479R,0.0652X0.0004*%
%ADD480R,0.0656X0.0004*%
%ADD481R,0.0656X0.0004*%
%ADD482R,0.0652X0.0004*%
%ADD483R,0.0648X0.0004*%
%ADD484R,0.0648X0.0004*%
%ADD485R,0.0644X0.0004*%
%ADD486R,0.0648X0.0004*%
%ADD487R,0.0644X0.0004*%
%ADD488R,0.0640X0.0004*%
%ADD489R,0.0636X0.0004*%
%ADD490R,0.0636X0.0004*%
%ADD491R,0.0632X0.0004*%
%ADD492R,0.0632X0.0004*%
%ADD493R,0.0628X0.0004*%
%ADD494R,0.0628X0.0004*%
%ADD495R,0.0624X0.0004*%
%ADD496R,0.0624X0.0004*%
%ADD497R,0.0620X0.0004*%
%ADD498R,0.0624X0.0004*%
%ADD499R,0.0616X0.0004*%
%ADD500R,0.0616X0.0004*%
%ADD501R,0.0612X0.0004*%
%ADD502R,0.0612X0.0004*%
%ADD503R,0.0608X0.0004*%
%ADD504R,0.0608X0.0004*%
%ADD505R,0.0604X0.0004*%
%ADD506R,0.0604X0.0004*%
%ADD507R,0.0600X0.0004*%
%ADD508R,0.0596X0.0004*%
%ADD509R,0.0596X0.0004*%
%ADD510R,0.0592X0.0004*%
%ADD511R,0.0592X0.0004*%
%ADD512R,0.0592X0.0004*%
%ADD513R,0.0588X0.0004*%
%ADD514R,0.0596X0.0004*%
%ADD515R,0.0660X0.0004*%
%ADD516R,0.0664X0.0004*%
%ADD517R,0.0664X0.0004*%
%ADD518R,0.0664X0.0004*%
%ADD519R,0.0668X0.0004*%
%ADD520R,0.0672X0.0004*%
%ADD521R,0.0676X0.0004*%
%ADD522R,0.0680X0.0004*%
%ADD523R,0.0680X0.0004*%
%ADD524R,0.0684X0.0004*%
%ADD525R,0.0688X0.0004*%
%ADD526R,0.0692X0.0004*%
%ADD527R,0.0696X0.0004*%
%ADD528R,0.0696X0.0004*%
%ADD529R,0.0696X0.0004*%
%ADD530R,0.0700X0.0004*%
%ADD531R,0.0704X0.0004*%
%ADD532R,0.0704X0.0004*%
%ADD533R,0.0704X0.0004*%
%ADD534R,0.0708X0.0004*%
%ADD535R,0.0700X0.0004*%
%ADD536R,0.0692X0.0004*%
%ADD537R,0.0692X0.0004*%
%ADD538R,0.0688X0.0004*%
%ADD539R,0.0684X0.0004*%
%ADD540R,0.0676X0.0004*%
%ADD541R,0.0676X0.0004*%
%ADD542R,0.0676X0.0004*%
%ADD543R,0.0672X0.0004*%
%ADD544R,0.0656X0.0004*%
%ADD545R,0.0628X0.0004*%
%ADD546R,0.0708X0.0004*%
%ADD547R,0.0712X0.0004*%
%ADD548R,0.0732X0.0004*%
%ADD549R,0.0728X0.0004*%
%ADD550R,0.0748X0.0004*%
%ADD551R,0.0748X0.0004*%
%ADD552R,0.0768X0.0004*%
%ADD553R,0.0788X0.0004*%
%ADD554R,0.0784X0.0004*%
%ADD555R,0.0804X0.0004*%
%ADD556R,0.0808X0.0004*%
%ADD557R,0.0824X0.0004*%
%ADD558R,0.0844X0.0004*%
%ADD559R,0.0840X0.0004*%
%ADD560R,0.0860X0.0004*%
%ADD561R,0.0864X0.0004*%
%ADD562R,0.0880X0.0004*%
%ADD563R,0.0888X0.0004*%
%ADD564R,0.0888X0.0004*%
%ADD565R,0.0888X0.0004*%
%ADD566R,0.0884X0.0004*%
%ADD567R,0.0884X0.0004*%
%ADD568R,0.0880X0.0004*%
%ADD569R,0.0876X0.0004*%
%ADD570R,0.0876X0.0004*%
%ADD571R,0.0872X0.0004*%
%ADD572R,0.0872X0.0004*%
%ADD573R,0.0872X0.0004*%
%ADD574R,0.0872X0.0004*%
%ADD575R,0.0868X0.0004*%
%ADD576R,0.0868X0.0004*%
%ADD577R,0.0864X0.0004*%
%ADD578R,0.0864X0.0004*%
%ADD579R,0.0860X0.0004*%
%ADD580R,0.0856X0.0004*%
%ADD581R,0.0856X0.0004*%
%ADD582R,0.0852X0.0004*%
%ADD583R,0.0852X0.0004*%
%ADD584R,0.0852X0.0004*%
%ADD585R,0.0852X0.0004*%
%ADD586R,0.0848X0.0004*%
%ADD587R,0.0848X0.0004*%
%ADD588R,0.0892X0.0004*%
%ADD589R,0.0832X0.0004*%
%ADD590R,0.0828X0.0004*%
%ADD591R,0.0812X0.0004*%
%ADD592R,0.0812X0.0004*%
%ADD593R,0.0792X0.0004*%
%ADD594R,0.0776X0.0004*%
%ADD595R,0.0772X0.0004*%
%ADD596R,0.0752X0.0004*%
%ADD597R,0.0756X0.0004*%
%ADD598R,0.0736X0.0004*%
%ADD599R,0.0720X0.0004*%
%ADD600R,0.0664X0.0004*%
%ADD601R,0.0660X0.0004*%
%ADD602R,0.0668X0.0004*%
%ADD603R,0.0672X0.0004*%
%ADD604R,0.0672X0.0004*%
%ADD605R,0.0684X0.0004*%
%ADD606R,0.0704X0.0004*%
%ADD607R,0.0712X0.0004*%
%ADD608R,0.0720X0.0004*%
%ADD609R,0.0732X0.0004*%
%ADD610R,0.0728X0.0004*%
%ADD611R,0.0744X0.0004*%
%ADD612R,0.0760X0.0004*%
%ADD613R,0.0780X0.0004*%
%ADD614R,0.1640X0.0004*%
%ADD615R,0.1636X0.0004*%
%ADD616R,0.1628X0.0004*%
%ADD617R,0.1628X0.0004*%
%ADD618R,0.1624X0.0004*%
%ADD619R,0.1620X0.0004*%
%ADD620R,0.1616X0.0004*%
%ADD621R,0.1612X0.0004*%
%ADD622R,0.1612X0.0004*%
%ADD623R,0.1604X0.0004*%
%ADD624R,0.1604X0.0004*%
%ADD625R,0.1600X0.0004*%
%ADD626R,0.1596X0.0004*%
%ADD627R,0.1592X0.0004*%
%ADD628R,0.1588X0.0004*%
%ADD629R,0.1588X0.0004*%
%ADD630R,0.1580X0.0004*%
%ADD631R,0.1580X0.0004*%
%ADD632R,0.1576X0.0004*%
%ADD633R,0.1572X0.0004*%
%ADD634R,0.1568X0.0004*%
%ADD635R,0.1564X0.0004*%
%ADD636R,0.1564X0.0004*%
%ADD637R,0.1556X0.0004*%
%ADD638R,0.1556X0.0004*%
%ADD639R,0.1552X0.0004*%
%ADD640R,0.1548X0.0004*%
%ADD641R,0.1544X0.0004*%
%ADD642R,0.1540X0.0004*%
%ADD643R,0.1540X0.0004*%
%ADD644R,0.1544X0.0004*%
%ADD645R,0.1548X0.0004*%
%ADD646R,0.1572X0.0004*%
%ADD647R,0.1576X0.0004*%
%ADD648R,0.1596X0.0004*%
%ADD649R,0.1608X0.0004*%
%ADD650R,0.1624X0.0004*%
%ADD651R,0.1644X0.0004*%
%ADD652R,0.1644X0.0004*%
%ADD653R,0.1652X0.0004*%
%ADD654R,0.1660X0.0004*%
%ADD655R,0.1664X0.0004*%
%ADD656R,0.1668X0.0004*%
%ADD657R,0.1676X0.0004*%
%ADD658R,0.1680X0.0004*%
%ADD659R,0.1684X0.0004*%
%ADD660R,0.1692X0.0004*%
%ADD661R,0.1696X0.0004*%
%ADD662R,0.1700X0.0004*%
%ADD663R,0.1708X0.0004*%
%ADD664R,0.1712X0.0004*%
%ADD665R,0.1716X0.0004*%
%ADD666R,0.1724X0.0004*%
%ADD667R,0.1732X0.0004*%
%ADD668R,0.1740X0.0004*%
%ADD669R,0.1748X0.0004*%
%ADD670R,0.1752X0.0004*%
%ADD671R,0.1756X0.0004*%
%ADD672R,0.1764X0.0004*%
%ADD673R,0.1768X0.0004*%
%ADD674R,0.1772X0.0004*%
%ADD675R,0.1780X0.0004*%
%ADD676R,0.1784X0.0004*%
%ADD677R,0.1788X0.0004*%
%ADD678R,0.1796X0.0004*%
%ADD679R,0.1800X0.0004*%
%ADD680R,0.1804X0.0004*%
%ADD681R,0.1812X0.0004*%
%ADD682R,0.1816X0.0004*%
%ADD683R,0.1820X0.0004*%
%ADD684R,0.1828X0.0004*%
%ADD685R,0.1836X0.0004*%
%ADD686R,0.1836X0.0004*%
%ADD687R,0.1844X0.0004*%
%ADD688R,0.1852X0.0004*%
%ADD689R,0.1856X0.0004*%
%ADD690R,0.1860X0.0004*%
%ADD691R,0.1868X0.0004*%
%ADD692R,0.1872X0.0004*%
%ADD693R,0.1876X0.0004*%
%ADD694R,0.1884X0.0004*%
%ADD695R,0.1888X0.0004*%
%ADD696R,0.1892X0.0004*%
%ADD697R,0.1892X0.0004*%
%ADD698R,0.1884X0.0004*%
%ADD699R,0.1876X0.0004*%
%ADD700R,0.1852X0.0004*%
%ADD701R,0.1844X0.0004*%
%ADD702R,0.0444X0.0004*%
%ADD703R,0.0440X0.0004*%
%ADD704R,0.0432X0.0004*%
%ADD705R,0.0424X0.0004*%
%ADD706R,0.0828X0.0004*%
%ADD707R,0.0420X0.0004*%
%ADD708R,0.0412X0.0004*%
%ADD709R,0.0808X0.0004*%
%ADD710R,0.0412X0.0004*%
%ADD711R,0.0404X0.0004*%
%ADD712R,0.0392X0.0004*%
%ADD713R,0.0772X0.0004*%
%ADD714R,0.0392X0.0004*%
%ADD715R,0.0384X0.0004*%
%ADD716R,0.0364X0.0004*%
%ADD717R,0.0364X0.0004*%
%ADD718R,0.0356X0.0004*%
%ADD719R,0.0352X0.0004*%
%ADD720R,0.0344X0.0004*%
%ADD721R,0.0336X0.0004*%
%ADD722R,0.0332X0.0004*%
%ADD723R,0.0324X0.0004*%
%ADD724R,0.0316X0.0004*%
%ADD725R,0.0312X0.0004*%
%ADD726R,0.0304X0.0004*%
%ADD727R,0.0296X0.0004*%
%ADD728R,0.0572X0.0004*%
%ADD729R,0.0284X0.0004*%
%ADD730R,0.0556X0.0004*%
%ADD731R,0.0276X0.0004*%
%ADD732R,0.0532X0.0004*%
%ADD733R,0.0264X0.0004*%
%ADD734R,0.0516X0.0004*%
%ADD735R,0.0264X0.0004*%
%ADD736R,0.0496X0.0004*%
%ADD737R,0.0244X0.0004*%
%ADD738R,0.0476X0.0004*%
%ADD739R,0.0460X0.0004*%
%ADD740R,0.0452X0.0004*%
%ADD741R,0.0444X0.0004*%
%ADD742R,0.0436X0.0004*%
%ADD743R,0.0436X0.0004*%
%ADD744R,0.0168X0.0004*%
%ADD745R,0.0432X0.0004*%
%ADD746R,0.0428X0.0004*%
%ADD747R,0.0428X0.0004*%
%ADD748R,0.0424X0.0004*%
%ADD749R,0.0424X0.0004*%
%ADD750R,0.0420X0.0004*%
%ADD751R,0.0416X0.0004*%
%ADD752R,0.0404X0.0004*%
%ADD753R,0.0404X0.0004*%
%ADD754R,0.0400X0.0004*%
%ADD755R,0.0396X0.0004*%
%ADD756R,0.0396X0.0004*%
%ADD757R,0.0392X0.0004*%
%ADD758R,0.0388X0.0004*%
%ADD759R,0.0388X0.0004*%
%ADD760R,0.0384X0.0004*%
%ADD761R,0.0384X0.0004*%
%ADD762R,0.0380X0.0004*%
%ADD763R,0.0376X0.0004*%
%ADD764R,0.0372X0.0004*%
%ADD765R,0.0368X0.0004*%
%ADD766R,0.0364X0.0004*%
%ADD767R,0.0360X0.0004*%
%ADD768R,0.0356X0.0004*%
%ADD769R,0.0348X0.0004*%
%ADD770R,0.0344X0.0004*%
%ADD771R,0.0340X0.0004*%
%ADD772R,0.0336X0.0004*%
%ADD773R,0.0316X0.0004*%
D10*
X001976Y000950D02*
X002021Y000905D01*
X002066Y000950D01*
X002111Y000905D01*
X002156Y000950D01*
X002156Y001085D01*
X002270Y001085D02*
X002270Y000950D01*
X002315Y000905D01*
X002360Y000950D01*
X002405Y000905D01*
X002451Y000950D01*
X002451Y001085D01*
X002565Y001085D02*
X002565Y000950D01*
X002610Y000905D01*
X002655Y000950D01*
X002700Y000905D01*
X002745Y000950D01*
X002745Y001085D01*
X002860Y000950D02*
X002905Y000950D01*
X002905Y000905D01*
X002860Y000905D01*
X002860Y000950D01*
X003007Y000905D02*
X003142Y000905D01*
X003187Y000950D01*
X003187Y001040D01*
X003142Y001085D01*
X003007Y001085D01*
X003007Y000815D01*
X003302Y000950D02*
X003347Y000995D01*
X003482Y000995D01*
X003482Y001040D02*
X003482Y000905D01*
X003347Y000905D01*
X003302Y000950D01*
X003347Y001085D02*
X003437Y001085D01*
X003482Y001040D01*
X003596Y001085D02*
X003686Y001085D01*
X003641Y001130D02*
X003641Y000950D01*
X003686Y000905D01*
X003838Y000950D02*
X003838Y001130D01*
X003793Y001085D02*
X003883Y001085D01*
X003989Y001040D02*
X003989Y000950D01*
X004034Y000905D01*
X004124Y000905D01*
X004169Y000995D02*
X003989Y000995D01*
X003989Y001040D02*
X004034Y001085D01*
X004124Y001085D01*
X004169Y001040D01*
X004169Y000995D01*
X004284Y000995D02*
X004374Y001085D01*
X004419Y001085D01*
X004529Y001085D02*
X004664Y001085D01*
X004710Y001040D01*
X004710Y000905D01*
X004824Y000950D02*
X004869Y000995D01*
X005004Y000995D01*
X005004Y001040D02*
X005004Y000905D01*
X004869Y000905D01*
X004824Y000950D01*
X004869Y001085D02*
X004959Y001085D01*
X005004Y001040D01*
X005119Y001040D02*
X005119Y000950D01*
X005164Y000905D01*
X005299Y000905D01*
X005299Y000860D02*
X005299Y001085D01*
X005164Y001085D01*
X005119Y001040D01*
X005209Y000815D02*
X005254Y000815D01*
X005299Y000860D01*
X005413Y000950D02*
X005413Y001040D01*
X005458Y001085D01*
X005548Y001085D01*
X005593Y001040D01*
X005593Y000995D01*
X005413Y000995D01*
X005413Y000950D02*
X005458Y000905D01*
X005548Y000905D01*
X005708Y000905D02*
X005708Y001085D01*
X005843Y001085D01*
X005888Y001040D01*
X005888Y000905D01*
X006048Y000950D02*
X006048Y001130D01*
X006003Y001085D02*
X006093Y001085D01*
X006199Y001040D02*
X006244Y001085D01*
X006379Y001085D01*
X006334Y000995D02*
X006244Y000995D01*
X006199Y001040D01*
X006199Y000905D02*
X006334Y000905D01*
X006379Y000950D01*
X006334Y000995D01*
X006494Y000950D02*
X006539Y000950D01*
X006539Y000905D01*
X006494Y000905D01*
X006494Y000950D01*
X006641Y000950D02*
X006686Y000905D01*
X006821Y000905D01*
X006936Y000950D02*
X006981Y000905D01*
X007071Y000905D01*
X007116Y000950D01*
X007116Y001040D01*
X007071Y001085D01*
X006981Y001085D01*
X006936Y001040D01*
X006936Y000950D01*
X006821Y001085D02*
X006686Y001085D01*
X006641Y001040D01*
X006641Y000950D01*
X006093Y000905D02*
X006048Y000950D01*
X007230Y000905D02*
X007230Y001085D01*
X007275Y001085D01*
X007320Y001040D01*
X007365Y001085D01*
X007411Y001040D01*
X007411Y000905D01*
X007320Y000905D02*
X007320Y001040D01*
X004529Y001085D02*
X004529Y000905D01*
X004284Y000905D02*
X004284Y001085D01*
X003883Y000905D02*
X003838Y000950D01*
X001976Y000950D02*
X001976Y001085D01*
X012550Y009450D02*
X012550Y009950D01*
X012700Y009850D02*
X012700Y009550D01*
X012950Y009050D02*
X013450Y009050D01*
X012700Y010550D02*
X012700Y010850D01*
X016700Y010850D02*
X016700Y010550D01*
X016700Y009850D02*
X016700Y009550D01*
X017364Y001740D02*
X017364Y001650D01*
X017319Y001605D01*
X017409Y001605D02*
X017454Y001650D01*
X017454Y001740D01*
X017204Y001605D02*
X017204Y001380D01*
X017159Y001335D01*
X017114Y001335D01*
X017069Y001425D02*
X017204Y001425D01*
X017069Y001425D02*
X017024Y001470D01*
X017024Y001605D01*
X016910Y001560D02*
X016910Y001470D01*
X016865Y001425D01*
X016730Y001425D01*
X016730Y001335D02*
X016730Y001605D01*
X016865Y001605D01*
X016910Y001560D01*
X016615Y001560D02*
X016615Y001470D01*
X016570Y001425D01*
X016435Y001425D01*
X016435Y001335D02*
X016435Y001605D01*
X016570Y001605D01*
X016615Y001560D01*
X016320Y001560D02*
X016320Y001470D01*
X016275Y001425D01*
X016185Y001425D01*
X016140Y001470D01*
X016140Y001560D01*
X016185Y001605D01*
X016275Y001605D01*
X016320Y001560D01*
X016026Y001560D02*
X015981Y001515D01*
X015846Y001515D01*
X015846Y001425D02*
X015846Y001695D01*
X015981Y001695D01*
X016026Y001650D01*
X016026Y001560D01*
X016014Y001075D02*
X016149Y001075D01*
X016194Y001030D01*
X016194Y000985D01*
X016149Y000940D01*
X016014Y000940D01*
X015900Y000985D02*
X015900Y000850D01*
X015855Y000805D01*
X015810Y000850D01*
X015765Y000805D01*
X015719Y000850D01*
X015719Y000985D01*
X015605Y000940D02*
X015560Y000985D01*
X015470Y000985D01*
X015425Y000940D01*
X015425Y000850D01*
X015470Y000805D01*
X015560Y000805D01*
X015605Y000850D01*
X015605Y000940D01*
X015310Y000940D02*
X015310Y000805D01*
X015310Y000940D02*
X015265Y000985D01*
X015130Y000985D01*
X015130Y000805D01*
X015016Y000805D02*
X015016Y000940D01*
X014971Y000985D01*
X014836Y000985D01*
X014836Y000805D01*
X014729Y000805D02*
X014639Y000805D01*
X014684Y000805D02*
X014684Y000985D01*
X014639Y000985D01*
X014684Y001075D02*
X014684Y001120D01*
X014525Y001075D02*
X014525Y000805D01*
X014344Y000805D02*
X014344Y001075D01*
X014435Y000985D01*
X014525Y001075D01*
X014471Y001425D02*
X014471Y001695D01*
X014360Y001650D02*
X014315Y001605D01*
X014270Y001650D02*
X014225Y001605D01*
X014270Y001650D02*
X014270Y001740D01*
X014360Y001740D02*
X014360Y001650D01*
X014471Y001560D02*
X014651Y001560D01*
X014765Y001605D02*
X014765Y001470D01*
X014810Y001425D01*
X014945Y001425D01*
X014945Y001605D01*
X015060Y001695D02*
X015105Y001695D01*
X015105Y001425D01*
X015060Y001425D02*
X015150Y001425D01*
X015256Y001470D02*
X015301Y001515D01*
X015436Y001515D01*
X015436Y001560D02*
X015436Y001425D01*
X015301Y001425D01*
X015256Y001470D01*
X015301Y001605D02*
X015391Y001605D01*
X015436Y001560D01*
X016014Y001075D02*
X016014Y000805D01*
X016149Y000805D01*
X016194Y000850D01*
X016194Y000895D01*
X016149Y000940D01*
X016309Y000940D02*
X016309Y000850D01*
X016354Y000805D01*
X016444Y000805D01*
X016489Y000850D01*
X016489Y000940D01*
X016444Y000985D01*
X016354Y000985D01*
X016309Y000940D01*
X016603Y000850D02*
X016648Y000895D01*
X016784Y000895D01*
X016784Y000940D02*
X016784Y000805D01*
X016648Y000805D01*
X016603Y000850D01*
X016648Y000985D02*
X016739Y000985D01*
X016784Y000940D01*
X016898Y000895D02*
X016988Y000985D01*
X017033Y000985D01*
X017144Y000940D02*
X017189Y000985D01*
X017324Y000985D01*
X017324Y001075D02*
X017324Y000805D01*
X017189Y000805D01*
X017144Y000850D01*
X017144Y000940D01*
X016898Y000985D02*
X016898Y000805D01*
X017733Y000805D02*
X017913Y000805D01*
X018028Y000850D02*
X018073Y000805D01*
X018208Y000805D01*
X018208Y000985D01*
X018322Y000985D02*
X018322Y000805D01*
X018322Y000895D02*
X018412Y000985D01*
X018457Y000985D01*
X018568Y000940D02*
X018613Y000985D01*
X018703Y000985D01*
X018748Y000940D01*
X018748Y000895D01*
X018568Y000895D01*
X018568Y000850D02*
X018568Y000940D01*
X018568Y000850D02*
X018613Y000805D01*
X018703Y000805D01*
X019157Y001075D02*
X019337Y001075D01*
X019247Y001075D02*
X019247Y000805D01*
X019452Y000850D02*
X019497Y000805D01*
X019632Y000805D01*
X019632Y000760D02*
X019587Y000715D01*
X019542Y000715D01*
X019632Y000760D02*
X019632Y000985D01*
X019746Y000985D02*
X019746Y000715D01*
X019746Y000805D02*
X019882Y000805D01*
X019927Y000850D01*
X019927Y000940D01*
X019882Y000985D01*
X019746Y000985D01*
X019452Y000985D02*
X019452Y000850D01*
X020041Y000850D02*
X020041Y000940D01*
X020086Y000985D01*
X020176Y000985D01*
X020221Y000940D01*
X020221Y000895D01*
X020041Y000895D01*
X020041Y000850D02*
X020086Y000805D01*
X020176Y000805D01*
X020630Y000850D02*
X020675Y000805D01*
X020765Y000805D01*
X020811Y000850D01*
X020811Y001030D02*
X020765Y001075D01*
X020675Y001075D01*
X020630Y001030D01*
X020630Y000850D01*
X018028Y000850D02*
X018028Y000985D01*
X017733Y001075D02*
X017733Y000805D01*
X014651Y001425D02*
X014651Y001695D01*
D11*
X017220Y003361D02*
X017253Y003328D01*
X017387Y003328D01*
X017420Y003361D01*
X017420Y003428D01*
X017387Y003461D01*
X017387Y003549D02*
X017353Y003549D01*
X017320Y003582D01*
X017320Y003649D01*
X017353Y003682D01*
X017387Y003682D01*
X017420Y003649D01*
X017420Y003582D01*
X017387Y003549D01*
X017320Y003582D02*
X017287Y003549D01*
X017253Y003549D01*
X017220Y003582D01*
X017220Y003649D01*
X017253Y003682D01*
X017287Y003682D01*
X017320Y003649D01*
X017253Y003461D02*
X017220Y003428D01*
X017220Y003361D01*
X018420Y001620D02*
X018420Y001487D01*
X018487Y001420D01*
X018553Y001487D01*
X018553Y001620D01*
X018641Y001553D02*
X018708Y001620D01*
X018708Y001420D01*
X018774Y001420D02*
X018641Y001420D01*
X018862Y001420D02*
X018895Y001420D01*
X018895Y001453D01*
X018862Y001453D01*
X018862Y001420D01*
X018972Y001453D02*
X019106Y001587D01*
X019106Y001453D01*
X019073Y001420D01*
X019006Y001420D01*
X018972Y001453D01*
X018972Y001587D01*
X019006Y001620D01*
X019073Y001620D01*
X019106Y001587D01*
X016391Y008920D02*
X016324Y008920D01*
X016291Y008953D01*
X016203Y008953D02*
X016170Y008920D01*
X016103Y008920D01*
X016070Y008953D01*
X016070Y009087D01*
X016103Y009120D01*
X016170Y009120D01*
X016203Y009087D01*
X016291Y009087D02*
X016324Y009120D01*
X016391Y009120D01*
X016424Y009087D01*
X016424Y009053D01*
X016391Y009020D01*
X016424Y008987D01*
X016424Y008953D01*
X016391Y008920D01*
X016391Y009020D02*
X016358Y009020D01*
X017253Y012328D02*
X017387Y012328D01*
X017420Y012361D01*
X017420Y012428D01*
X017387Y012461D01*
X017387Y012549D02*
X017420Y012582D01*
X017420Y012649D01*
X017387Y012682D01*
X017353Y012682D01*
X017320Y012649D01*
X017320Y012549D01*
X017387Y012549D01*
X017320Y012549D02*
X017253Y012616D01*
X017220Y012682D01*
X017253Y012461D02*
X017220Y012428D01*
X017220Y012361D01*
X017253Y012328D01*
X013691Y019220D02*
X013624Y019220D01*
X013591Y019253D01*
X013591Y019320D02*
X013658Y019353D01*
X013691Y019353D01*
X013724Y019320D01*
X013724Y019253D01*
X013691Y019220D01*
X013591Y019320D02*
X013591Y019420D01*
X013724Y019420D01*
X013503Y019387D02*
X013470Y019420D01*
X013403Y019420D01*
X013370Y019387D01*
X013370Y019253D01*
X013403Y019220D01*
X013470Y019220D01*
X013503Y019253D01*
X006120Y023161D02*
X006087Y023128D01*
X005953Y023128D01*
X005920Y023161D01*
X005920Y023228D01*
X005953Y023261D01*
X005953Y023349D02*
X005920Y023382D01*
X005920Y023449D01*
X005953Y023482D01*
X005987Y023482D01*
X006120Y023349D01*
X006120Y023482D01*
X006087Y023261D02*
X006120Y023228D01*
X006120Y023161D01*
X005280Y023158D02*
X005080Y023158D01*
X005147Y023091D01*
X005113Y023003D02*
X005080Y022970D01*
X005080Y022903D01*
X005113Y022870D01*
X005247Y022870D01*
X005280Y022903D01*
X005280Y022970D01*
X005247Y023003D01*
X005280Y023091D02*
X005280Y023224D01*
X008261Y006280D02*
X008228Y006247D01*
X008228Y006113D01*
X008261Y006080D01*
X008328Y006080D01*
X008361Y006113D01*
X008449Y006113D02*
X008449Y006080D01*
X008449Y006113D02*
X008582Y006247D01*
X008582Y006280D01*
X008449Y006280D01*
X008361Y006247D02*
X008328Y006280D01*
X008261Y006280D01*
X022370Y019253D02*
X022403Y019220D01*
X022470Y019220D01*
X022503Y019253D01*
X022591Y019320D02*
X022724Y019320D01*
X022691Y019220D02*
X022691Y019420D01*
X022591Y019320D01*
X022503Y019387D02*
X022470Y019420D01*
X022403Y019420D01*
X022370Y019387D01*
X022370Y019253D01*
D12*
X000500Y025000D02*
X000500Y000500D01*
X023000Y000500D01*
X023000Y025000D01*
X023000Y019500D01*
X017000Y019500D01*
X017000Y025000D01*
X023000Y025000D01*
X000500Y025000D01*
X008000Y025000D02*
X014000Y025000D01*
X014000Y019500D01*
X008000Y019500D01*
X008000Y025000D01*
X017500Y018100D02*
X017500Y012100D01*
X023000Y012100D01*
X023000Y018100D01*
X017500Y018100D01*
X017500Y009100D02*
X017500Y003100D01*
X023000Y003100D01*
X023000Y009100D01*
X017500Y009100D01*
X014000Y006000D02*
X008000Y006000D01*
X008000Y000500D01*
X014000Y000500D01*
X014000Y006000D01*
X020485Y002050D02*
X020487Y002105D01*
X020493Y002160D01*
X020503Y002214D01*
X020517Y002268D01*
X020534Y002320D01*
X020556Y002371D01*
X020581Y002420D01*
X020609Y002468D01*
X020641Y002513D01*
X020676Y002556D01*
X020714Y002596D01*
X020755Y002633D01*
X020798Y002667D01*
X020844Y002698D01*
X020892Y002726D01*
X020941Y002750D01*
X020993Y002770D01*
X021045Y002787D01*
X021099Y002800D01*
X021154Y002809D01*
X021209Y002814D01*
X021264Y002815D01*
X021319Y002812D01*
X021374Y002805D01*
X021428Y002794D01*
X021481Y002779D01*
X021533Y002761D01*
X021584Y002738D01*
X021632Y002713D01*
X021679Y002683D01*
X021724Y002651D01*
X021766Y002615D01*
X021805Y002576D01*
X021842Y002535D01*
X021875Y002491D01*
X021905Y002444D01*
X021932Y002396D01*
X021955Y002346D01*
X021975Y002294D01*
X021991Y002241D01*
X022003Y002187D01*
X022011Y002133D01*
X022015Y002078D01*
X022015Y002022D01*
X022011Y001967D01*
X022003Y001913D01*
X021991Y001859D01*
X021975Y001806D01*
X021955Y001754D01*
X021932Y001704D01*
X021905Y001656D01*
X021875Y001609D01*
X021842Y001565D01*
X021805Y001524D01*
X021766Y001485D01*
X021724Y001449D01*
X021679Y001417D01*
X021633Y001387D01*
X021584Y001362D01*
X021533Y001339D01*
X021481Y001321D01*
X021428Y001306D01*
X021374Y001295D01*
X021319Y001288D01*
X021264Y001285D01*
X021209Y001286D01*
X021154Y001291D01*
X021099Y001300D01*
X021045Y001313D01*
X020993Y001330D01*
X020941Y001350D01*
X020892Y001374D01*
X020844Y001402D01*
X020798Y001433D01*
X020755Y001467D01*
X020714Y001504D01*
X020676Y001544D01*
X020641Y001587D01*
X020609Y001632D01*
X020581Y001680D01*
X020556Y001729D01*
X020534Y001780D01*
X020517Y001832D01*
X020503Y001886D01*
X020493Y001940D01*
X020487Y001995D01*
X020485Y002050D01*
D13*
X020620Y002050D02*
X020622Y002100D01*
X020628Y002150D01*
X020638Y002199D01*
X020652Y002247D01*
X020669Y002294D01*
X020690Y002339D01*
X020715Y002383D01*
X020743Y002424D01*
X020775Y002463D01*
X020809Y002500D01*
X020846Y002534D01*
X020886Y002564D01*
X020928Y002591D01*
X020972Y002615D01*
X021018Y002636D01*
X021065Y002652D01*
X021113Y002665D01*
X021163Y002674D01*
X021212Y002679D01*
X021263Y002680D01*
X021313Y002677D01*
X021362Y002670D01*
X021411Y002659D01*
X021459Y002644D01*
X021505Y002626D01*
X021550Y002604D01*
X021593Y002578D01*
X021634Y002549D01*
X021673Y002517D01*
X021709Y002482D01*
X021741Y002444D01*
X021771Y002404D01*
X021798Y002361D01*
X021821Y002317D01*
X021840Y002271D01*
X021856Y002223D01*
X021868Y002174D01*
X021876Y002125D01*
X021880Y002075D01*
X021880Y002025D01*
X021876Y001975D01*
X021868Y001926D01*
X021856Y001877D01*
X021840Y001829D01*
X021821Y001783D01*
X021798Y001739D01*
X021771Y001696D01*
X021741Y001656D01*
X021709Y001618D01*
X021673Y001583D01*
X021634Y001551D01*
X021593Y001522D01*
X021550Y001496D01*
X021505Y001474D01*
X021459Y001456D01*
X021411Y001441D01*
X021362Y001430D01*
X021313Y001423D01*
X021263Y001420D01*
X021212Y001421D01*
X021163Y001426D01*
X021113Y001435D01*
X021065Y001448D01*
X021018Y001464D01*
X020972Y001485D01*
X020928Y001509D01*
X020886Y001536D01*
X020846Y001566D01*
X020809Y001600D01*
X020775Y001637D01*
X020743Y001676D01*
X020715Y001717D01*
X020690Y001761D01*
X020669Y001806D01*
X020652Y001853D01*
X020638Y001901D01*
X020628Y001950D01*
X020622Y002000D01*
X020620Y002050D01*
X003093Y003350D02*
X003095Y003375D01*
X003101Y003399D01*
X003110Y003421D01*
X003123Y003442D01*
X003139Y003461D01*
X003158Y003477D01*
X003179Y003490D01*
X003201Y003499D01*
X003225Y003505D01*
X003250Y003507D01*
X003275Y003505D01*
X003299Y003499D01*
X003321Y003490D01*
X003342Y003477D01*
X003361Y003461D01*
X003377Y003442D01*
X003390Y003421D01*
X003399Y003399D01*
X003405Y003375D01*
X003407Y003350D01*
X003405Y003325D01*
X003399Y003301D01*
X003390Y003279D01*
X003377Y003258D01*
X003361Y003239D01*
X003342Y003223D01*
X003321Y003210D01*
X003299Y003201D01*
X003275Y003195D01*
X003250Y003193D01*
X003225Y003195D01*
X003201Y003201D01*
X003179Y003210D01*
X003158Y003223D01*
X003139Y003239D01*
X003123Y003258D01*
X003110Y003279D01*
X003101Y003301D01*
X003095Y003325D01*
X003093Y003350D01*
X003014Y020750D02*
X003016Y020780D01*
X003022Y020810D01*
X003031Y020839D01*
X003044Y020866D01*
X003061Y020891D01*
X003080Y020914D01*
X003103Y020935D01*
X003128Y020952D01*
X003154Y020966D01*
X003183Y020976D01*
X003212Y020983D01*
X003242Y020986D01*
X003273Y020985D01*
X003303Y020980D01*
X003332Y020971D01*
X003359Y020959D01*
X003385Y020944D01*
X003409Y020925D01*
X003430Y020903D01*
X003448Y020879D01*
X003463Y020852D01*
X003474Y020824D01*
X003482Y020795D01*
X003486Y020765D01*
X003486Y020735D01*
X003482Y020705D01*
X003474Y020676D01*
X003463Y020648D01*
X003448Y020621D01*
X003430Y020597D01*
X003409Y020575D01*
X003385Y020556D01*
X003359Y020541D01*
X003332Y020529D01*
X003303Y020520D01*
X003273Y020515D01*
X003242Y020514D01*
X003212Y020517D01*
X003183Y020524D01*
X003154Y020534D01*
X003128Y020548D01*
X003103Y020565D01*
X003080Y020586D01*
X003061Y020609D01*
X003044Y020634D01*
X003031Y020661D01*
X003022Y020690D01*
X003016Y020720D01*
X003014Y020750D01*
D14*
X008000Y020500D02*
X009000Y020500D01*
X009000Y019500D01*
X009000Y021250D02*
X009250Y021500D01*
X009750Y021500D01*
X010000Y021250D01*
X010250Y021500D01*
X010750Y021500D01*
X011000Y021250D01*
X011250Y021500D01*
X011750Y021500D01*
X012000Y021250D01*
X012250Y021500D01*
X012750Y021500D01*
X013000Y021250D01*
X013250Y021500D01*
X013750Y021500D01*
X014000Y021250D01*
X017000Y021250D02*
X017250Y021500D01*
X017750Y021500D01*
X018000Y021250D01*
X018250Y021500D01*
X018750Y021500D01*
X019000Y021250D01*
X019250Y021500D01*
X019750Y021500D01*
X020000Y021250D01*
X020250Y021500D01*
X020750Y021500D01*
X021000Y021250D01*
X021250Y021500D01*
X021750Y021500D01*
X022000Y021250D01*
X022250Y021500D01*
X022750Y021500D01*
X023000Y021250D01*
X019500Y017850D02*
X019250Y018100D01*
X019500Y017850D02*
X019500Y017350D01*
X019250Y017100D01*
X019500Y016850D01*
X019500Y016350D01*
X019250Y016100D01*
X019500Y015850D01*
X019500Y015350D01*
X019250Y015100D01*
X019500Y014850D01*
X019500Y014350D01*
X019250Y014100D01*
X019500Y013850D01*
X019500Y013350D01*
X019250Y013100D01*
X019500Y012850D01*
X019500Y012350D01*
X019250Y012100D01*
X016700Y010850D02*
X016450Y011200D01*
X015950Y011200D01*
X015700Y010850D01*
X015450Y011200D01*
X014950Y011200D01*
X014700Y010850D01*
X014450Y011200D01*
X013950Y011200D01*
X013700Y010850D01*
X013450Y011200D01*
X012950Y011200D01*
X012700Y010850D01*
X012700Y010550D02*
X012950Y010200D01*
X013450Y010200D01*
X013700Y010550D01*
X013950Y010200D01*
X014450Y010200D01*
X014700Y010550D01*
X014950Y010200D01*
X015450Y010200D01*
X015700Y010550D01*
X015950Y010200D01*
X016450Y010200D01*
X016700Y010550D01*
X016450Y010200D02*
X016700Y009850D01*
X016700Y009550D02*
X016450Y009200D01*
X015950Y009200D01*
X015700Y009550D01*
X015450Y009200D01*
X014950Y009200D01*
X014700Y009550D01*
X014450Y009200D01*
X013950Y009200D01*
X013700Y009550D01*
X013450Y009200D01*
X012950Y009200D01*
X012700Y009550D01*
X012700Y009850D02*
X012950Y010200D01*
X013450Y010200D02*
X013700Y009850D01*
X013950Y010200D01*
X014450Y010200D02*
X014700Y009850D01*
X014950Y010200D01*
X015450Y010200D02*
X015700Y009850D01*
X015950Y010200D01*
X017500Y008100D02*
X018500Y008100D01*
X018500Y009100D01*
X019250Y009100D02*
X019500Y008850D01*
X019500Y008350D01*
X019250Y008100D01*
X019500Y007850D01*
X019500Y007350D01*
X019250Y007100D01*
X019500Y006850D01*
X019500Y006350D01*
X019250Y006100D01*
X019500Y005850D01*
X019500Y005350D01*
X019250Y005100D01*
X019500Y004850D01*
X019500Y004350D01*
X019250Y004100D01*
X019500Y003850D01*
X019500Y003350D01*
X019250Y003100D01*
X014000Y004250D02*
X013750Y004000D01*
X013250Y004000D01*
X013000Y004250D01*
X012750Y004000D01*
X012250Y004000D01*
X012000Y004250D01*
X011750Y004000D01*
X011250Y004000D01*
X011000Y004250D01*
X010750Y004000D01*
X010250Y004000D01*
X010000Y004250D01*
X009750Y004000D01*
X009250Y004000D01*
X009000Y004250D01*
X008750Y004000D01*
X008250Y004000D01*
X008000Y004250D01*
X013000Y005000D02*
X013000Y006000D01*
X013000Y005000D02*
X014000Y005000D01*
X017500Y017100D02*
X018500Y017100D01*
X018500Y018100D01*
X018000Y019500D02*
X018000Y020500D01*
X017000Y020500D01*
X009000Y021250D02*
X008750Y021500D01*
X008250Y021500D01*
X008000Y021250D01*
D15*
X008122Y019210D02*
X008052Y019140D01*
X008052Y019070D01*
X008122Y019000D01*
X008262Y019000D01*
X008332Y018930D01*
X008332Y018860D01*
X008262Y018790D01*
X008122Y018790D01*
X008052Y018860D01*
X008122Y019210D02*
X008262Y019210D01*
X008332Y019140D01*
X008512Y019210D02*
X008722Y019210D01*
X008793Y019140D01*
X008793Y018860D01*
X008722Y018790D01*
X008512Y018790D01*
X008512Y019210D01*
X008973Y019210D02*
X009113Y019210D01*
X009043Y019210D02*
X009043Y018790D01*
X008973Y018790D02*
X009113Y018790D01*
X009280Y018860D02*
X009350Y018790D01*
X009490Y018790D01*
X009560Y018860D01*
X009560Y019140D01*
X009490Y019210D01*
X009350Y019210D01*
X009280Y019140D01*
X009280Y018860D01*
X003850Y021910D02*
X002550Y021910D01*
X002550Y024490D01*
X003850Y024490D01*
X003850Y021910D01*
X011960Y010538D02*
X011890Y010468D01*
X011890Y010327D01*
X011960Y010257D01*
X012240Y010257D01*
X012310Y010327D01*
X012310Y010468D01*
X012240Y010538D01*
X012310Y010077D02*
X012310Y009797D01*
X012030Y010077D01*
X011960Y010077D01*
X011890Y010007D01*
X011890Y009867D01*
X011960Y009797D01*
X011890Y009630D02*
X011890Y009490D01*
X011890Y009560D02*
X012310Y009560D01*
X012310Y009490D02*
X012310Y009630D01*
X012441Y006610D02*
X012581Y006470D01*
X012581Y006190D01*
X012761Y006190D02*
X012761Y006610D01*
X012971Y006610D01*
X013041Y006540D01*
X013041Y006400D01*
X012971Y006330D01*
X012761Y006330D01*
X012901Y006330D02*
X013041Y006190D01*
X013361Y006190D02*
X013361Y006610D01*
X013221Y006610D02*
X013501Y006610D01*
X013682Y006470D02*
X013822Y006610D01*
X013822Y006190D01*
X013682Y006190D02*
X013962Y006190D01*
X012581Y006400D02*
X012300Y006400D01*
X012300Y006470D02*
X012441Y006610D01*
X012300Y006470D02*
X012300Y006190D01*
X012120Y006260D02*
X012120Y006610D01*
X011840Y006610D02*
X011840Y006260D01*
X011910Y006190D01*
X012050Y006190D01*
X012120Y006260D01*
X016890Y006840D02*
X017240Y006840D01*
X017310Y006910D01*
X017310Y007050D01*
X017240Y007120D01*
X016890Y007120D01*
X017030Y007300D02*
X016890Y007441D01*
X017030Y007581D01*
X017310Y007581D01*
X017310Y007761D02*
X016890Y007761D01*
X016890Y007971D01*
X016960Y008041D01*
X017100Y008041D01*
X017170Y007971D01*
X017170Y007761D01*
X017170Y007901D02*
X017310Y008041D01*
X017100Y007581D02*
X017100Y007300D01*
X017030Y007300D02*
X017310Y007300D01*
X016890Y008221D02*
X016890Y008501D01*
X016890Y008361D02*
X017310Y008361D01*
X017310Y008682D02*
X017030Y008962D01*
X016960Y008962D01*
X016890Y008892D01*
X016890Y008752D01*
X016960Y008682D01*
X017310Y008682D02*
X017310Y008962D01*
X017240Y016740D02*
X017310Y016810D01*
X017310Y016950D01*
X017240Y017020D01*
X017170Y017020D01*
X017100Y016950D01*
X017100Y016810D01*
X017030Y016740D01*
X016960Y016740D01*
X016890Y016810D01*
X016890Y016950D01*
X016960Y017020D01*
X016890Y017200D02*
X016890Y017411D01*
X016960Y017481D01*
X017100Y017481D01*
X017170Y017411D01*
X017170Y017200D01*
X017310Y017200D02*
X016890Y017200D01*
X016890Y017661D02*
X016890Y017801D01*
X016890Y017731D02*
X017310Y017731D01*
X017310Y017661D02*
X017310Y017801D01*
X017262Y018790D02*
X017122Y018790D01*
X017052Y018860D01*
X017052Y019140D01*
X017122Y019210D01*
X017262Y019210D01*
X017332Y019140D01*
X017332Y019000D02*
X017192Y019000D01*
X017332Y019000D02*
X017332Y018860D01*
X017262Y018790D01*
X017512Y018790D02*
X017512Y019210D01*
X017722Y019210D01*
X017793Y019140D01*
X017793Y019000D01*
X017722Y018930D01*
X017512Y018930D01*
X017973Y018790D02*
X018113Y018790D01*
X018043Y018790D02*
X018043Y019210D01*
X017973Y019210D02*
X018113Y019210D01*
X018280Y019140D02*
X018280Y018860D01*
X018350Y018790D01*
X018490Y018790D01*
X018560Y018860D01*
X018560Y019140D01*
X018490Y019210D01*
X018350Y019210D01*
X018280Y019140D01*
D16*
X001420Y022930D02*
X001370Y022980D01*
X001270Y022980D01*
X001270Y023027D02*
X001270Y023102D01*
X001295Y023127D01*
X001345Y023127D01*
X001370Y023102D01*
X001370Y023027D01*
X001420Y023027D02*
X001270Y023027D01*
X001370Y023077D02*
X001420Y023127D01*
X001420Y023175D02*
X001420Y023275D01*
X001420Y023225D02*
X001270Y023225D01*
X001320Y023175D01*
X001420Y022930D02*
X001370Y022880D01*
X001270Y022880D01*
D17*
X005588Y022500D02*
X005612Y022500D01*
X005612Y023900D02*
X005588Y023900D01*
X013000Y018912D02*
X013000Y018888D01*
X016888Y013100D02*
X016912Y013100D01*
X015700Y008612D02*
X015700Y008588D01*
X016888Y004100D02*
X016912Y004100D01*
X009000Y006588D02*
X009000Y006612D01*
X022000Y018888D02*
X022000Y018912D01*
D18*
X006919Y002664D03*
X006919Y002664D03*
X006919Y002658D03*
X006919Y002658D03*
X006919Y002652D03*
X006919Y002652D03*
X006919Y002646D03*
X006919Y002646D03*
X006925Y002610D03*
X006925Y002610D03*
X006925Y002604D03*
X006925Y002604D03*
X006925Y002598D03*
X006925Y002598D03*
X006925Y002592D03*
X006925Y002592D03*
X006925Y002586D03*
X006925Y002586D03*
X006925Y002580D03*
X006925Y002580D03*
X006925Y002430D03*
X006925Y002430D03*
X006925Y002424D03*
X006925Y002424D03*
X006925Y002418D03*
X006925Y002418D03*
X006925Y002412D03*
X006925Y002412D03*
X006925Y002406D03*
X006925Y002406D03*
X006925Y002400D03*
X006925Y002400D03*
X006919Y002364D03*
X006919Y002364D03*
X006919Y002358D03*
X006919Y002358D03*
X006919Y002352D03*
X006919Y002352D03*
X006919Y002346D03*
X006919Y002346D03*
X006919Y002340D03*
X006919Y002340D03*
X006325Y002178D03*
X006325Y002178D03*
X006319Y002172D03*
X006319Y002172D03*
X006145Y002226D03*
X006145Y002226D03*
X006145Y002400D03*
X006145Y002400D03*
X006481Y002778D03*
X006481Y002778D03*
X006109Y003288D03*
X006109Y003288D03*
X005401Y002418D03*
X005401Y002418D03*
X005401Y002412D03*
X005401Y002412D03*
X005635Y002226D03*
X005635Y002226D03*
X005701Y001704D03*
X005701Y001704D03*
X006079Y001704D03*
X006079Y001704D03*
X004855Y001272D03*
X004855Y001272D03*
X004849Y002448D03*
X004849Y002448D03*
X004849Y002454D03*
X004849Y002454D03*
X004849Y002460D03*
X004849Y002460D03*
X004849Y002466D03*
X004849Y002466D03*
X004849Y002472D03*
X004849Y002472D03*
X004849Y002478D03*
X004849Y002478D03*
X004849Y002484D03*
X004849Y002484D03*
X004849Y002490D03*
X004849Y002490D03*
X004849Y002496D03*
X004849Y002496D03*
X004849Y002502D03*
X004849Y002502D03*
X004849Y002508D03*
X004849Y002508D03*
X004849Y002514D03*
X004849Y002514D03*
X004849Y002520D03*
X004849Y002520D03*
X004849Y002526D03*
X004849Y002526D03*
X004849Y002532D03*
X004849Y002532D03*
X004849Y002538D03*
X004849Y002538D03*
X004849Y002544D03*
X004849Y002544D03*
X004849Y002550D03*
X004849Y002550D03*
X004849Y002556D03*
X004849Y002556D03*
X004849Y002562D03*
X004849Y002562D03*
X004861Y002664D03*
X004861Y002664D03*
D19*
X004915Y002868D03*
X004915Y002868D03*
X004915Y002874D03*
X004915Y002874D03*
X005305Y002784D03*
X005305Y002784D03*
X004855Y002376D03*
X004855Y002376D03*
X004855Y002370D03*
X004855Y002370D03*
X004855Y002364D03*
X004855Y002364D03*
X004855Y002358D03*
X004855Y002358D03*
X004855Y002352D03*
X004855Y002352D03*
X004855Y002346D03*
X004855Y002346D03*
X004855Y001836D03*
X004855Y001836D03*
X004855Y001830D03*
X004855Y001830D03*
X004855Y001824D03*
X004855Y001824D03*
X004855Y001818D03*
X004855Y001818D03*
X004855Y001812D03*
X004855Y001812D03*
X004855Y001806D03*
X004855Y001806D03*
X004855Y001800D03*
X004855Y001800D03*
X004855Y001794D03*
X004855Y001794D03*
X004855Y001788D03*
X004855Y001788D03*
X004855Y001782D03*
X004855Y001782D03*
X004855Y001776D03*
X004855Y001776D03*
X004855Y001770D03*
X004855Y001770D03*
X004855Y001764D03*
X004855Y001764D03*
X004855Y001758D03*
X004855Y001758D03*
X004855Y001752D03*
X004855Y001752D03*
X004855Y001746D03*
X004855Y001746D03*
X004855Y001740D03*
X004855Y001740D03*
X004855Y001734D03*
X004855Y001734D03*
X004855Y001728D03*
X004855Y001728D03*
X004855Y001722D03*
X004855Y001722D03*
X004855Y001716D03*
X004855Y001716D03*
X004855Y001710D03*
X004855Y001710D03*
X004855Y001704D03*
X004855Y001704D03*
X004855Y001698D03*
X004855Y001698D03*
X004855Y001692D03*
X004855Y001692D03*
X004855Y001686D03*
X004855Y001686D03*
X004855Y001680D03*
X004855Y001680D03*
X004855Y001674D03*
X004855Y001674D03*
X004855Y001668D03*
X004855Y001668D03*
X004855Y001662D03*
X004855Y001662D03*
X004855Y001656D03*
X004855Y001656D03*
X004855Y001650D03*
X004855Y001650D03*
X004855Y001644D03*
X004855Y001644D03*
X004855Y001638D03*
X004855Y001638D03*
X004855Y001632D03*
X004855Y001632D03*
X004855Y001626D03*
X004855Y001626D03*
X004855Y001620D03*
X004855Y001620D03*
X004855Y001614D03*
X004855Y001614D03*
X004855Y001608D03*
X004855Y001608D03*
X004855Y001602D03*
X004855Y001602D03*
X004855Y001596D03*
X004855Y001596D03*
X004855Y001590D03*
X004855Y001590D03*
X004855Y001584D03*
X004855Y001584D03*
X004855Y001578D03*
X004855Y001578D03*
X004855Y001572D03*
X004855Y001572D03*
X004855Y001566D03*
X004855Y001566D03*
X004855Y001560D03*
X004855Y001560D03*
X004855Y001554D03*
X004855Y001554D03*
X004855Y001548D03*
X004855Y001548D03*
X004855Y001542D03*
X004855Y001542D03*
X004855Y001536D03*
X004855Y001536D03*
X004855Y001530D03*
X004855Y001530D03*
X004855Y001524D03*
X004855Y001524D03*
X004855Y001518D03*
X004855Y001518D03*
X004855Y001512D03*
X004855Y001512D03*
X004855Y001506D03*
X004855Y001506D03*
X004855Y001500D03*
X004855Y001500D03*
X004855Y001494D03*
X004855Y001494D03*
X004855Y001488D03*
X004855Y001488D03*
X004855Y001482D03*
X004855Y001482D03*
X004855Y001476D03*
X004855Y001476D03*
X004855Y001470D03*
X004855Y001470D03*
X004855Y001464D03*
X004855Y001464D03*
X004855Y001458D03*
X004855Y001458D03*
X004855Y001452D03*
X004855Y001452D03*
X004855Y001446D03*
X004855Y001446D03*
X004855Y001440D03*
X004855Y001440D03*
X004855Y001434D03*
X004855Y001434D03*
X004855Y001428D03*
X004855Y001428D03*
X004855Y001422D03*
X004855Y001422D03*
X004855Y001416D03*
X004855Y001416D03*
X004855Y001410D03*
X004855Y001410D03*
X004855Y001404D03*
X004855Y001404D03*
X004855Y001398D03*
X004855Y001398D03*
X004855Y001392D03*
X004855Y001392D03*
X004855Y001386D03*
X004855Y001386D03*
X004855Y001380D03*
X004855Y001380D03*
X004855Y001374D03*
X004855Y001374D03*
X004855Y001368D03*
X004855Y001368D03*
X004855Y001362D03*
X004855Y001362D03*
X004855Y001356D03*
X004855Y001356D03*
X004855Y001350D03*
X004855Y001350D03*
X004855Y001344D03*
X004855Y001344D03*
X004855Y001338D03*
X004855Y001338D03*
X004855Y001332D03*
X004855Y001332D03*
X004855Y001326D03*
X004855Y001326D03*
X004855Y001320D03*
X004855Y001320D03*
X004855Y001314D03*
X004855Y001314D03*
X004855Y001308D03*
X004855Y001308D03*
X004855Y001302D03*
X004855Y001302D03*
X004855Y001296D03*
X004855Y001296D03*
X004855Y001290D03*
X004855Y001290D03*
X004855Y001284D03*
X004855Y001284D03*
X004855Y001278D03*
X004855Y001278D03*
X006145Y002394D03*
X006145Y002394D03*
X006865Y002142D03*
X006865Y002142D03*
X006895Y002772D03*
X006895Y002772D03*
X006865Y002868D03*
X006865Y002868D03*
D20*
X006073Y002382D03*
X006073Y002382D03*
X006073Y002244D03*
X006073Y002244D03*
X005707Y002244D03*
X005707Y002244D03*
X005557Y002244D03*
X005557Y002244D03*
X005557Y002382D03*
X005557Y002382D03*
X005347Y002844D03*
X005347Y002844D03*
X005077Y002358D03*
X005077Y002358D03*
X005827Y001644D03*
X005827Y001644D03*
X005893Y001368D03*
X005893Y001368D03*
D21*
X005893Y001374D03*
X005893Y001374D03*
X006493Y002022D03*
X006493Y002022D03*
X006703Y001860D03*
X006703Y001860D03*
X006673Y001824D03*
X006673Y001824D03*
X006703Y003150D03*
X006703Y003150D03*
X006697Y003156D03*
X006697Y003156D03*
X005887Y003186D03*
X005887Y003186D03*
X005617Y003174D03*
X005617Y003174D03*
X005323Y002772D03*
X005323Y002772D03*
X005077Y003150D03*
X005077Y003150D03*
X005083Y003156D03*
X005083Y003156D03*
X005887Y003636D03*
X005887Y003636D03*
X005287Y002022D03*
X005287Y002022D03*
D22*
X004921Y002004D03*
X004921Y002004D03*
X005293Y001662D03*
X005293Y001662D03*
X005887Y001860D03*
X005887Y001860D03*
X005887Y002172D03*
X005887Y002172D03*
X006493Y001668D03*
X006493Y001668D03*
X005887Y001380D03*
X005887Y001380D03*
X006499Y003336D03*
X006499Y003336D03*
X005287Y003342D03*
X005287Y003342D03*
D23*
X005395Y003402D03*
X005395Y003402D03*
X006247Y002550D03*
X006247Y002550D03*
X006379Y002724D03*
X006379Y002724D03*
X006385Y003402D03*
X006385Y003402D03*
X004957Y001902D03*
X004957Y001902D03*
X005893Y001386D03*
X005893Y001386D03*
D24*
X005893Y001392D03*
X005893Y001392D03*
X005887Y001884D03*
X005887Y001884D03*
X005455Y003426D03*
X005455Y003426D03*
D25*
X005467Y002712D03*
X005467Y002712D03*
X005893Y001398D03*
X005893Y001398D03*
D26*
X005887Y001404D03*
X005887Y001404D03*
X005887Y001908D03*
X005887Y001908D03*
D27*
X005887Y001410D03*
X005887Y001410D03*
D28*
X005893Y001416D03*
X005893Y001416D03*
X005887Y001938D03*
X005887Y001938D03*
D29*
X005887Y001950D03*
X005887Y001950D03*
X005893Y001422D03*
X005893Y001422D03*
X005887Y003588D03*
X005887Y003588D03*
D30*
X005887Y003582D03*
X005887Y003582D03*
X005893Y002892D03*
X005893Y002892D03*
X005887Y001962D03*
X005887Y001962D03*
X005893Y001428D03*
X005893Y001428D03*
D31*
X005890Y001434D03*
X005890Y001434D03*
X005890Y001980D03*
X005890Y001980D03*
D32*
X005887Y001440D03*
X005887Y001440D03*
D33*
X005890Y001446D03*
X005890Y001446D03*
X005890Y002016D03*
X005890Y002016D03*
X005884Y002910D03*
X005884Y002910D03*
D34*
X005890Y003084D03*
X005890Y003084D03*
X005890Y002028D03*
X005890Y002028D03*
X005890Y001452D03*
X005890Y001452D03*
D35*
X005893Y001458D03*
X005893Y001458D03*
X005887Y002046D03*
X005887Y002046D03*
X005893Y003036D03*
X005893Y003036D03*
X005893Y003042D03*
X005893Y003042D03*
D36*
X005896Y003012D03*
X005896Y003012D03*
X005896Y003006D03*
X005896Y003006D03*
X005878Y002922D03*
X005878Y002922D03*
X005890Y003546D03*
X005890Y003546D03*
X005890Y002058D03*
X005890Y002058D03*
X005890Y001464D03*
X005890Y001464D03*
D37*
X005890Y001470D03*
X005890Y001470D03*
X005890Y002076D03*
X005890Y002076D03*
X005896Y002958D03*
X005896Y002958D03*
X005896Y002964D03*
X005896Y002964D03*
X005896Y002970D03*
X005896Y002970D03*
X005890Y003540D03*
X005890Y003540D03*
D38*
X005890Y002100D03*
X005890Y002100D03*
X005890Y001476D03*
X005890Y001476D03*
D39*
X005890Y001482D03*
X005890Y001482D03*
X005890Y002118D03*
X005890Y002118D03*
X005890Y002628D03*
X005890Y002628D03*
D40*
X005890Y002142D03*
X005890Y002142D03*
X005890Y001488D03*
X005890Y001488D03*
D41*
X005890Y001494D03*
X005890Y001494D03*
D42*
X005890Y001500D03*
X005890Y001500D03*
D43*
X005887Y001506D03*
X005887Y001506D03*
D44*
X005893Y001512D03*
X005893Y001512D03*
D45*
X005890Y001518D03*
X005890Y001518D03*
X005890Y002532D03*
X005890Y002532D03*
X005890Y002538D03*
X005890Y002538D03*
X005890Y003492D03*
X005890Y003492D03*
D46*
X005890Y001524D03*
X005890Y001524D03*
D47*
X005890Y001530D03*
X005890Y001530D03*
X005890Y003480D03*
X005890Y003480D03*
D48*
X005890Y003474D03*
X005890Y003474D03*
X005890Y002658D03*
X005890Y002658D03*
X005890Y001536D03*
X005890Y001536D03*
D49*
X005890Y001542D03*
X005890Y001542D03*
X005890Y002664D03*
X005890Y002664D03*
D50*
X005890Y003462D03*
X005890Y003462D03*
X005890Y001548D03*
X005890Y001548D03*
D51*
X005890Y001554D03*
X005890Y001554D03*
X005890Y002670D03*
X005890Y002670D03*
D52*
X005887Y001560D03*
X005887Y001560D03*
D53*
X005890Y001902D03*
X005890Y001902D03*
X006262Y001566D03*
X006262Y001566D03*
X005518Y001566D03*
X005518Y001566D03*
X005896Y002868D03*
X005896Y002868D03*
D54*
X005497Y003438D03*
X005497Y003438D03*
X005887Y003612D03*
X005887Y003612D03*
X005491Y001572D03*
X005491Y001572D03*
X006283Y001572D03*
X006283Y001572D03*
D55*
X006316Y001578D03*
X006316Y001578D03*
X005464Y001578D03*
X005464Y001578D03*
X006322Y003426D03*
X006322Y003426D03*
D56*
X006337Y003420D03*
X006337Y003420D03*
X004981Y001854D03*
X004981Y001854D03*
X004981Y001848D03*
X004981Y001848D03*
X005449Y001584D03*
X005449Y001584D03*
D57*
X006328Y001584D03*
X006328Y001584D03*
D58*
X006343Y001590D03*
X006343Y001590D03*
X005887Y001878D03*
X005887Y001878D03*
X005431Y001590D03*
X005431Y001590D03*
X005419Y002724D03*
X005419Y002724D03*
D59*
X004966Y001884D03*
X004966Y001884D03*
X005416Y001596D03*
X005416Y001596D03*
D60*
X004969Y001878D03*
X004969Y001878D03*
X005899Y002856D03*
X005899Y002856D03*
X005425Y003414D03*
X005425Y003414D03*
X006361Y001596D03*
X006361Y001596D03*
D61*
X006376Y001602D03*
X006376Y001602D03*
X005404Y001602D03*
X005404Y001602D03*
D62*
X005392Y001608D03*
X005392Y001608D03*
X006388Y001608D03*
X006388Y001608D03*
X005392Y002736D03*
X005392Y002736D03*
X006118Y003102D03*
X006118Y003102D03*
D63*
X006412Y003390D03*
X006412Y003390D03*
X004948Y001926D03*
X004948Y001926D03*
X005368Y001620D03*
X005368Y001620D03*
X005380Y001614D03*
X005380Y001614D03*
X006412Y001620D03*
X006412Y001620D03*
D64*
X006400Y001614D03*
X006400Y001614D03*
X004954Y001908D03*
X004954Y001908D03*
X005380Y003396D03*
X005380Y003396D03*
X006394Y003396D03*
X006394Y003396D03*
D65*
X006424Y003384D03*
X006424Y003384D03*
X006130Y003108D03*
X006130Y003108D03*
X005692Y003210D03*
X005692Y003210D03*
X005356Y003384D03*
X005356Y003384D03*
X005344Y003378D03*
X005344Y003378D03*
X005890Y002466D03*
X005890Y002466D03*
X005356Y001626D03*
X005356Y001626D03*
X004942Y001938D03*
X004942Y001938D03*
X004942Y001944D03*
X004942Y001944D03*
X006424Y001626D03*
X006424Y001626D03*
D66*
X005344Y001632D03*
X005344Y001632D03*
X004936Y001956D03*
X004936Y001956D03*
X005890Y002586D03*
X005890Y002586D03*
X005650Y003108D03*
X005650Y003108D03*
X005326Y003366D03*
X005326Y003366D03*
X006130Y003114D03*
X006130Y003114D03*
X006442Y003372D03*
X006442Y003372D03*
D67*
X005368Y002856D03*
X005368Y002856D03*
X005632Y002280D03*
X005632Y002280D03*
X005854Y001632D03*
X005854Y001632D03*
X005920Y001632D03*
X005920Y001632D03*
D68*
X006433Y001632D03*
X006433Y001632D03*
X005377Y002742D03*
X005377Y002742D03*
X006433Y003378D03*
X006433Y003378D03*
D69*
X006451Y003366D03*
X006451Y003366D03*
X006409Y002736D03*
X006409Y002736D03*
X005689Y003216D03*
X005689Y003216D03*
X005317Y003360D03*
X005317Y003360D03*
X004933Y001968D03*
X004933Y001968D03*
X004933Y001962D03*
X004933Y001962D03*
X005323Y001644D03*
X005323Y001644D03*
X005335Y001638D03*
X005335Y001638D03*
X006445Y001638D03*
X006445Y001638D03*
D70*
X005842Y001638D03*
X005842Y001638D03*
X005734Y002280D03*
X005734Y002280D03*
X005734Y002286D03*
X005734Y002286D03*
X005734Y002292D03*
X005734Y002292D03*
X005734Y002340D03*
X005734Y002340D03*
X005734Y002346D03*
X005734Y002346D03*
X005728Y002358D03*
X005728Y002358D03*
X005536Y002352D03*
X005536Y002352D03*
X005536Y002280D03*
X005536Y002280D03*
X005536Y002274D03*
X005536Y002274D03*
X005356Y002850D03*
X005356Y002850D03*
X006046Y002352D03*
X006046Y002352D03*
X006046Y002346D03*
X006046Y002346D03*
X006046Y002280D03*
X006046Y002280D03*
X006046Y002274D03*
X006046Y002274D03*
X006148Y002340D03*
X006148Y002340D03*
X006244Y002346D03*
X006244Y002346D03*
X006244Y002352D03*
X006244Y002352D03*
X006244Y002286D03*
X006244Y002286D03*
X006244Y002280D03*
X006244Y002280D03*
X006238Y002268D03*
X006238Y002268D03*
X006142Y002472D03*
X006142Y002472D03*
X006508Y002622D03*
X006508Y002622D03*
X006112Y003336D03*
X006112Y003336D03*
D71*
X005893Y003150D03*
X005893Y003150D03*
X006427Y002850D03*
X006427Y002850D03*
X006247Y002340D03*
X006247Y002340D03*
X006247Y002334D03*
X006247Y002334D03*
X006247Y002298D03*
X006247Y002298D03*
X006247Y002292D03*
X006247Y002292D03*
X006145Y002286D03*
X006145Y002286D03*
X005737Y002298D03*
X005737Y002298D03*
X005737Y002328D03*
X005737Y002328D03*
X005737Y002334D03*
X005737Y002334D03*
X005635Y002286D03*
X005635Y002286D03*
X005527Y002298D03*
X005527Y002298D03*
X005527Y002304D03*
X005527Y002304D03*
X005527Y002310D03*
X005527Y002310D03*
X005527Y002316D03*
X005527Y002316D03*
X005527Y002322D03*
X005527Y002322D03*
X005527Y002328D03*
X005527Y002328D03*
X005533Y002346D03*
X005533Y002346D03*
X005935Y001638D03*
X005935Y001638D03*
D72*
X005950Y001644D03*
X005950Y001644D03*
X006064Y002250D03*
X006064Y002250D03*
X006058Y002256D03*
X006058Y002256D03*
X006142Y002298D03*
X006142Y002298D03*
X006148Y002328D03*
X006148Y002328D03*
X006220Y002382D03*
X006220Y002382D03*
X006226Y002376D03*
X006226Y002376D03*
X006232Y002370D03*
X006232Y002370D03*
X006226Y002250D03*
X006226Y002250D03*
X006220Y002244D03*
X006220Y002244D03*
X006064Y002376D03*
X006064Y002376D03*
X006058Y002370D03*
X006058Y002370D03*
X005890Y002580D03*
X005890Y002580D03*
X005710Y002382D03*
X005710Y002382D03*
X005716Y002376D03*
X005716Y002376D03*
X005716Y002250D03*
X005716Y002250D03*
X005554Y002250D03*
X005554Y002250D03*
X005548Y002256D03*
X005548Y002256D03*
X005542Y002262D03*
X005542Y002262D03*
X005650Y003354D03*
X005650Y003354D03*
X005890Y003642D03*
X005890Y003642D03*
D73*
X005686Y003222D03*
X005686Y003222D03*
X005644Y003114D03*
X005644Y003114D03*
X005308Y003354D03*
X005308Y003354D03*
X006136Y003120D03*
X006136Y003120D03*
X005884Y002166D03*
X005884Y002166D03*
X006454Y001644D03*
X006454Y001644D03*
X006466Y001650D03*
X006466Y001650D03*
D74*
X006475Y001656D03*
X006475Y001656D03*
X005887Y002460D03*
X005887Y002460D03*
X005365Y002748D03*
X005365Y002748D03*
X005683Y003228D03*
X005683Y003228D03*
X006469Y003354D03*
X006469Y003354D03*
X004927Y001986D03*
X004927Y001986D03*
X004927Y001980D03*
X004927Y001980D03*
X005311Y001650D03*
X005311Y001650D03*
D75*
X005398Y001986D03*
X005398Y001986D03*
X005578Y002232D03*
X005578Y002232D03*
X005278Y002616D03*
X005278Y002616D03*
X005158Y002502D03*
X005158Y002502D03*
X005152Y002496D03*
X005152Y002496D03*
X005146Y002490D03*
X005146Y002490D03*
X005140Y002478D03*
X005140Y002478D03*
X005134Y002472D03*
X005134Y002472D03*
X005128Y002460D03*
X005128Y002460D03*
X005122Y002454D03*
X005122Y002454D03*
X005116Y002442D03*
X005116Y002442D03*
X005068Y002304D03*
X005068Y002304D03*
X005812Y001650D03*
X005812Y001650D03*
X006658Y002448D03*
X006658Y002448D03*
X006652Y002460D03*
X006652Y002460D03*
X006646Y002466D03*
X006646Y002466D03*
X006640Y002478D03*
X006640Y002478D03*
X006634Y002484D03*
X006634Y002484D03*
X006628Y002490D03*
X006628Y002490D03*
X006622Y002502D03*
X006622Y002502D03*
X006616Y002508D03*
X006616Y002508D03*
X006610Y002514D03*
X006610Y002514D03*
D76*
X006655Y002454D03*
X006655Y002454D03*
X006685Y002400D03*
X006685Y002400D03*
X006505Y002616D03*
X006505Y002616D03*
X006115Y003330D03*
X006115Y003330D03*
X005335Y002838D03*
X005335Y002838D03*
X005065Y002310D03*
X005065Y002310D03*
X005965Y001650D03*
X005965Y001650D03*
D77*
X005302Y001656D03*
X005302Y001656D03*
X005482Y002478D03*
X005482Y002478D03*
X005638Y003120D03*
X005638Y003120D03*
D78*
X005323Y002826D03*
X005323Y002826D03*
X005203Y002550D03*
X005203Y002550D03*
X005197Y002544D03*
X005197Y002544D03*
X005191Y002538D03*
X005191Y002538D03*
X005215Y002154D03*
X005215Y002154D03*
X005221Y002148D03*
X005221Y002148D03*
X005227Y002142D03*
X005227Y002142D03*
X005233Y002136D03*
X005233Y002136D03*
X005239Y002130D03*
X005239Y002130D03*
X005245Y002124D03*
X005245Y002124D03*
X005251Y002118D03*
X005251Y002118D03*
X005269Y001956D03*
X005269Y001956D03*
X005275Y001950D03*
X005275Y001950D03*
X005281Y001944D03*
X005281Y001944D03*
X005797Y001656D03*
X005797Y001656D03*
X005983Y001656D03*
X005983Y001656D03*
X006505Y001950D03*
X006505Y001950D03*
X006511Y001956D03*
X006511Y001956D03*
X006517Y001962D03*
X006517Y001962D03*
X006505Y002100D03*
X006505Y002100D03*
X006511Y002106D03*
X006511Y002106D03*
X006517Y002112D03*
X006517Y002112D03*
X006523Y002118D03*
X006523Y002118D03*
X006547Y002136D03*
X006547Y002136D03*
X006553Y002142D03*
X006553Y002142D03*
X006559Y002148D03*
X006559Y002148D03*
X006565Y002154D03*
X006565Y002154D03*
X006571Y002160D03*
X006571Y002160D03*
X006577Y002166D03*
X006577Y002166D03*
X006583Y002172D03*
X006583Y002172D03*
X006589Y002178D03*
X006589Y002178D03*
X006703Y002286D03*
X006703Y002286D03*
X006583Y002538D03*
X006583Y002538D03*
X006577Y002544D03*
X006577Y002544D03*
X006571Y002550D03*
X006571Y002550D03*
X006565Y002556D03*
X006565Y002556D03*
X006469Y002820D03*
X006469Y002820D03*
X006367Y002286D03*
X006367Y002286D03*
X006115Y003324D03*
X006115Y003324D03*
D79*
X006556Y002562D03*
X006556Y002562D03*
X006628Y002214D03*
X006628Y002214D03*
X006622Y002208D03*
X006622Y002208D03*
X006616Y002202D03*
X006616Y002202D03*
X006604Y002190D03*
X006604Y002190D03*
X006598Y002184D03*
X006598Y002184D03*
X006496Y001944D03*
X006496Y001944D03*
X006484Y001932D03*
X006484Y001932D03*
X006478Y001926D03*
X006478Y001926D03*
X005782Y001662D03*
X005782Y001662D03*
X005308Y001920D03*
X005308Y001920D03*
X005302Y001926D03*
X005302Y001926D03*
X005296Y001932D03*
X005296Y001932D03*
X005206Y002160D03*
X005206Y002160D03*
X005194Y002172D03*
X005194Y002172D03*
X005188Y002178D03*
X005188Y002178D03*
X005182Y002184D03*
X005182Y002184D03*
X005176Y002190D03*
X005176Y002190D03*
X005164Y002202D03*
X005164Y002202D03*
X005158Y002208D03*
X005158Y002208D03*
X005074Y002286D03*
X005074Y002286D03*
X005212Y002556D03*
X005212Y002556D03*
D80*
X005221Y002562D03*
X005221Y002562D03*
X005281Y002610D03*
X005281Y002610D03*
X005317Y002820D03*
X005317Y002820D03*
X005077Y002280D03*
X005077Y002280D03*
X005137Y002226D03*
X005137Y002226D03*
X005143Y002220D03*
X005143Y002220D03*
X005149Y002214D03*
X005149Y002214D03*
X005317Y001914D03*
X005317Y001914D03*
X005323Y001908D03*
X005323Y001908D03*
X005329Y001902D03*
X005329Y001902D03*
X005635Y002202D03*
X005635Y002202D03*
X006145Y002202D03*
X006145Y002202D03*
X006145Y002424D03*
X006145Y002424D03*
X006499Y002610D03*
X006499Y002610D03*
X006547Y002568D03*
X006547Y002568D03*
X006649Y002232D03*
X006649Y002232D03*
X006643Y002226D03*
X006643Y002226D03*
X006637Y002220D03*
X006637Y002220D03*
X006469Y001920D03*
X006469Y001920D03*
X006463Y001914D03*
X006463Y001914D03*
X006457Y001908D03*
X006457Y001908D03*
X006439Y001896D03*
X006439Y001896D03*
X005995Y001662D03*
X005995Y001662D03*
X005887Y003156D03*
X005887Y003156D03*
X005983Y003210D03*
X005983Y003210D03*
X005653Y003342D03*
X005653Y003342D03*
D81*
X005296Y003348D03*
X005296Y003348D03*
X006136Y003126D03*
X006136Y003126D03*
X006484Y003348D03*
X006484Y003348D03*
X006490Y003342D03*
X006490Y003342D03*
X006484Y001662D03*
X006484Y001662D03*
X004924Y001992D03*
X004924Y001992D03*
X004924Y001998D03*
X004924Y001998D03*
D82*
X004918Y002010D03*
X004918Y002010D03*
X004918Y002016D03*
X004918Y002016D03*
X005284Y001668D03*
X005284Y001668D03*
X005890Y002454D03*
X005890Y002454D03*
X005494Y002556D03*
X005494Y002556D03*
X005680Y003234D03*
X005680Y003234D03*
X005278Y003336D03*
X005278Y003336D03*
X005890Y003630D03*
X005890Y003630D03*
X006142Y003132D03*
X006142Y003132D03*
X006508Y003330D03*
X006508Y003330D03*
X006424Y002742D03*
X006424Y002742D03*
X006286Y002556D03*
X006286Y002556D03*
X006502Y001674D03*
X006502Y001674D03*
D83*
X006430Y001890D03*
X006430Y001890D03*
X006448Y001902D03*
X006448Y001902D03*
X006658Y002238D03*
X006658Y002238D03*
X006664Y002244D03*
X006664Y002244D03*
X006670Y002250D03*
X006670Y002250D03*
X006700Y002280D03*
X006700Y002280D03*
X006538Y002574D03*
X006538Y002574D03*
X006484Y002808D03*
X006484Y002808D03*
X006478Y002814D03*
X006478Y002814D03*
X006112Y003318D03*
X006112Y003318D03*
X005632Y002424D03*
X005632Y002424D03*
X005230Y002568D03*
X005230Y002568D03*
X005080Y002274D03*
X005080Y002274D03*
X005086Y002268D03*
X005086Y002268D03*
X005092Y002262D03*
X005092Y002262D03*
X005098Y002256D03*
X005098Y002256D03*
X005104Y002250D03*
X005104Y002250D03*
X005122Y002238D03*
X005122Y002238D03*
X005128Y002232D03*
X005128Y002232D03*
X005380Y001992D03*
X005380Y001992D03*
X005338Y001896D03*
X005338Y001896D03*
X005356Y001884D03*
X005356Y001884D03*
X005770Y001668D03*
X005770Y001668D03*
D84*
X006007Y001668D03*
X006007Y001668D03*
X006397Y001866D03*
X006397Y001866D03*
X006403Y001872D03*
X006403Y001872D03*
X006397Y001992D03*
X006397Y001992D03*
X006697Y002274D03*
X006697Y002274D03*
X006487Y002802D03*
X006487Y002802D03*
X005347Y001890D03*
X005347Y001890D03*
X005113Y002244D03*
X005113Y002244D03*
D85*
X004915Y002028D03*
X004915Y002028D03*
X004915Y002022D03*
X004915Y002022D03*
X005275Y001674D03*
X005275Y001674D03*
X005635Y003126D03*
X005635Y003126D03*
D86*
X005650Y003336D03*
X005650Y003336D03*
X006112Y003312D03*
X006112Y003312D03*
X005908Y002844D03*
X005908Y002844D03*
X005632Y002418D03*
X005632Y002418D03*
X005632Y002208D03*
X005632Y002208D03*
X005410Y002226D03*
X005410Y002226D03*
X005410Y002232D03*
X005410Y002232D03*
X005404Y002238D03*
X005404Y002238D03*
X005404Y002244D03*
X005404Y002244D03*
X005398Y002256D03*
X005398Y002256D03*
X005398Y002262D03*
X005398Y002262D03*
X005398Y002268D03*
X005398Y002268D03*
X005380Y001866D03*
X005380Y001866D03*
X005398Y001854D03*
X005398Y001854D03*
X005404Y001848D03*
X005404Y001848D03*
X005416Y001842D03*
X005416Y001842D03*
X005434Y001830D03*
X005434Y001830D03*
X005758Y001674D03*
X005758Y001674D03*
X006142Y002208D03*
X006142Y002208D03*
X006376Y002262D03*
X006376Y002262D03*
X006382Y002274D03*
X006382Y002274D03*
X006382Y002280D03*
X006382Y002280D03*
X006388Y001860D03*
X006388Y001860D03*
X006382Y001854D03*
X006382Y001854D03*
X006370Y001848D03*
X006370Y001848D03*
X006364Y001842D03*
X006364Y001842D03*
X005308Y002814D03*
X005308Y002814D03*
X005302Y002808D03*
X005302Y002808D03*
D87*
X005299Y002802D03*
X005299Y002802D03*
X005383Y002346D03*
X005383Y002346D03*
X005383Y002340D03*
X005383Y002340D03*
X005383Y002334D03*
X005383Y002334D03*
X005413Y002220D03*
X005413Y002220D03*
X005419Y002214D03*
X005419Y002214D03*
X005419Y002208D03*
X005419Y002208D03*
X005443Y001824D03*
X005443Y001824D03*
X006019Y001674D03*
X006019Y001674D03*
X006331Y001824D03*
X006331Y001824D03*
X006343Y001830D03*
X006343Y001830D03*
X006367Y002238D03*
X006367Y002238D03*
X006367Y002244D03*
X006367Y002244D03*
X006373Y002250D03*
X006373Y002250D03*
X006373Y002256D03*
X006373Y002256D03*
X006379Y002268D03*
X006379Y002268D03*
X006373Y002580D03*
X006373Y002580D03*
X006493Y002796D03*
X006493Y002796D03*
D88*
X006523Y003318D03*
X006523Y003318D03*
X006517Y003324D03*
X006517Y003324D03*
X006097Y003216D03*
X006097Y003216D03*
X005677Y003240D03*
X005677Y003240D03*
X005269Y003330D03*
X005269Y003330D03*
X005263Y003324D03*
X005263Y003324D03*
X005251Y003318D03*
X005251Y003318D03*
X005269Y001680D03*
X005269Y001680D03*
X006511Y001680D03*
X006511Y001680D03*
D89*
X006322Y001818D03*
X006322Y001818D03*
X006310Y001812D03*
X006310Y001812D03*
X006304Y001806D03*
X006304Y001806D03*
X006388Y002340D03*
X006388Y002340D03*
X006490Y002604D03*
X006490Y002604D03*
X005746Y001680D03*
X005746Y001680D03*
X005488Y001800D03*
X005488Y001800D03*
X005476Y001806D03*
X005476Y001806D03*
X005464Y001812D03*
X005464Y001812D03*
X005428Y002196D03*
X005428Y002196D03*
X005422Y002202D03*
X005422Y002202D03*
X005386Y002352D03*
X005386Y002352D03*
X005386Y002358D03*
X005386Y002358D03*
X005404Y002580D03*
X005404Y002580D03*
X005290Y002604D03*
X005290Y002604D03*
D90*
X005299Y002796D03*
X005299Y002796D03*
X005389Y002370D03*
X005389Y002370D03*
X005389Y002364D03*
X005389Y002364D03*
X005365Y001998D03*
X005365Y001998D03*
X006031Y001680D03*
X006031Y001680D03*
X006277Y001794D03*
X006277Y001794D03*
X006289Y001800D03*
X006289Y001800D03*
X006355Y002220D03*
X006355Y002220D03*
X006361Y002232D03*
X006361Y002232D03*
X006385Y002346D03*
X006385Y002346D03*
X006385Y002352D03*
X006385Y002352D03*
X006145Y002412D03*
X006145Y002412D03*
X006145Y002214D03*
X006145Y002214D03*
X006493Y002790D03*
X006493Y002790D03*
X006109Y003306D03*
X006109Y003306D03*
X005887Y003162D03*
X005887Y003162D03*
X005653Y003330D03*
X005653Y003330D03*
D91*
X005632Y003132D03*
X005632Y003132D03*
X005242Y003312D03*
X005242Y003312D03*
X005350Y002754D03*
X005350Y002754D03*
X005890Y002178D03*
X005890Y002178D03*
X005260Y001686D03*
X005260Y001686D03*
X004912Y002034D03*
X004912Y002034D03*
X006142Y003138D03*
X006142Y003138D03*
X006532Y003312D03*
X006532Y003312D03*
X006526Y001692D03*
X006526Y001692D03*
X006520Y001686D03*
X006520Y001686D03*
D92*
X006253Y001782D03*
X006253Y001782D03*
X006343Y002202D03*
X006343Y002202D03*
X006349Y002208D03*
X006349Y002208D03*
X006385Y002364D03*
X006385Y002364D03*
X005887Y002340D03*
X005887Y002340D03*
X005443Y002178D03*
X005443Y002178D03*
X005437Y002184D03*
X005437Y002184D03*
X005395Y002382D03*
X005395Y002382D03*
X005395Y002388D03*
X005395Y002388D03*
X005515Y001788D03*
X005515Y001788D03*
X005527Y001782D03*
X005527Y001782D03*
X005533Y001776D03*
X005533Y001776D03*
X005731Y001686D03*
X005731Y001686D03*
X006109Y003300D03*
X006109Y003300D03*
D93*
X005434Y002190D03*
X005434Y002190D03*
X005500Y001794D03*
X005500Y001794D03*
X006046Y001686D03*
X006046Y001686D03*
D94*
X006535Y001698D03*
X006535Y001698D03*
X005251Y001692D03*
X005251Y001692D03*
X005245Y001698D03*
X005245Y001698D03*
X004909Y002040D03*
X004909Y002040D03*
X004909Y002046D03*
X004909Y002046D03*
X006541Y003306D03*
X006541Y003306D03*
D95*
X005656Y003324D03*
X005656Y003324D03*
X005632Y002406D03*
X005632Y002406D03*
X005632Y002220D03*
X005632Y002220D03*
X005398Y002394D03*
X005398Y002394D03*
X005548Y001770D03*
X005548Y001770D03*
X005722Y001692D03*
X005722Y001692D03*
X006058Y001692D03*
X006058Y001692D03*
X006244Y001776D03*
X006244Y001776D03*
X006382Y002370D03*
X006382Y002370D03*
X006382Y002376D03*
X006382Y002376D03*
X006382Y002382D03*
X006382Y002382D03*
X006382Y002388D03*
X006382Y002388D03*
D96*
X006376Y002400D03*
X006376Y002400D03*
X005890Y002364D03*
X005890Y002364D03*
X005884Y002268D03*
X005884Y002268D03*
X005884Y002262D03*
X005884Y002262D03*
X005632Y002400D03*
X005632Y002400D03*
X005398Y002406D03*
X005398Y002406D03*
X005422Y002574D03*
X005422Y002574D03*
X005296Y002598D03*
X005296Y002598D03*
X005458Y002166D03*
X005458Y002166D03*
X005578Y001758D03*
X005578Y001758D03*
X005590Y001752D03*
X005590Y001752D03*
X005710Y001698D03*
X005710Y001698D03*
X006202Y001758D03*
X006202Y001758D03*
X005884Y003168D03*
X005884Y003168D03*
X005656Y003318D03*
X005656Y003318D03*
D97*
X006109Y003294D03*
X006109Y003294D03*
X006355Y002574D03*
X006355Y002574D03*
X006481Y002598D03*
X006481Y002598D03*
X006379Y002394D03*
X006379Y002394D03*
X006337Y002190D03*
X006337Y002190D03*
X006331Y002184D03*
X006331Y002184D03*
X006145Y002220D03*
X006145Y002220D03*
X006145Y002406D03*
X006145Y002406D03*
X005887Y002346D03*
X005887Y002346D03*
X005887Y002274D03*
X005887Y002274D03*
X005449Y002172D03*
X005449Y002172D03*
X005401Y002400D03*
X005401Y002400D03*
X005299Y002790D03*
X005299Y002790D03*
X005563Y001764D03*
X005563Y001764D03*
X006067Y001698D03*
X006067Y001698D03*
X006217Y001764D03*
X006217Y001764D03*
X006229Y001770D03*
X006229Y001770D03*
D98*
X005890Y002184D03*
X005890Y002184D03*
X005884Y002442D03*
X005884Y002442D03*
X005626Y003138D03*
X005626Y003138D03*
X005218Y003294D03*
X005218Y003294D03*
X006100Y003228D03*
X006100Y003228D03*
X006148Y003144D03*
X006148Y003144D03*
X006550Y003300D03*
X006550Y003300D03*
X006556Y003294D03*
X006556Y003294D03*
X006550Y001710D03*
X006550Y001710D03*
X006544Y001704D03*
X006544Y001704D03*
X005236Y001704D03*
X005236Y001704D03*
X004906Y002052D03*
X004906Y002052D03*
D99*
X004903Y002058D03*
X004903Y002058D03*
X004903Y002064D03*
X004903Y002064D03*
X004903Y002070D03*
X004903Y002070D03*
X005221Y001716D03*
X005221Y001716D03*
X005227Y001710D03*
X005227Y001710D03*
X005887Y002436D03*
X005887Y002436D03*
X005905Y002850D03*
X005905Y002850D03*
X005881Y003204D03*
X005881Y003204D03*
X005671Y003252D03*
X005671Y003252D03*
X005215Y003288D03*
X005215Y003288D03*
X005341Y002760D03*
X005341Y002760D03*
X006565Y003288D03*
X006565Y003288D03*
X006571Y003282D03*
X006571Y003282D03*
X006577Y003276D03*
X006577Y003276D03*
X006565Y001722D03*
X006565Y001722D03*
X006559Y001716D03*
X006559Y001716D03*
D100*
X006307Y002160D03*
X006307Y002160D03*
X006367Y002424D03*
X006367Y002424D03*
X006367Y002430D03*
X006367Y002430D03*
X005887Y002388D03*
X005887Y002388D03*
X005887Y002244D03*
X005887Y002244D03*
X005467Y002160D03*
X005467Y002160D03*
X005413Y002436D03*
X005413Y002436D03*
X004891Y002796D03*
X004891Y002796D03*
X004891Y002802D03*
X004891Y002802D03*
X004897Y002814D03*
X004897Y002814D03*
X004897Y002820D03*
X004897Y002820D03*
X004897Y002826D03*
X004897Y002826D03*
X004903Y002832D03*
X004903Y002832D03*
X004903Y002838D03*
X004903Y002838D03*
X004903Y002844D03*
X004903Y002844D03*
X004909Y002856D03*
X004909Y002856D03*
X004921Y002886D03*
X004921Y002886D03*
X006109Y003282D03*
X006109Y003282D03*
X006871Y002850D03*
X006871Y002850D03*
X006871Y002844D03*
X006871Y002844D03*
X006877Y002832D03*
X006877Y002832D03*
X006883Y002820D03*
X006883Y002820D03*
X006883Y002814D03*
X006883Y002814D03*
X006883Y002808D03*
X006883Y002808D03*
X006889Y002796D03*
X006889Y002796D03*
X006889Y002790D03*
X006889Y002790D03*
X006901Y002748D03*
X006901Y002748D03*
X006901Y002262D03*
X006901Y002262D03*
X006889Y002220D03*
X006889Y002220D03*
X006889Y002214D03*
X006889Y002214D03*
X006883Y002202D03*
X006883Y002202D03*
X006883Y002196D03*
X006883Y002196D03*
X006883Y002190D03*
X006883Y002190D03*
X006877Y002178D03*
X006877Y002178D03*
X006871Y002160D03*
X006871Y002160D03*
X005689Y001710D03*
X005689Y001710D03*
X005623Y001740D03*
X005623Y001740D03*
D101*
X005608Y001746D03*
X005608Y001746D03*
X006088Y001710D03*
X006088Y001710D03*
X006172Y001746D03*
X006172Y001746D03*
X006316Y002166D03*
X006316Y002166D03*
X006370Y002418D03*
X006370Y002418D03*
X005890Y002382D03*
X005890Y002382D03*
X005890Y002376D03*
X005890Y002376D03*
X005884Y002250D03*
X005884Y002250D03*
X005632Y002394D03*
X005632Y002394D03*
X005410Y002430D03*
X005410Y002430D03*
X005404Y002424D03*
X005404Y002424D03*
X004864Y002670D03*
X004864Y002670D03*
X004864Y002676D03*
X004864Y002676D03*
X004864Y002682D03*
X004864Y002682D03*
X004864Y002688D03*
X004864Y002688D03*
X004864Y002694D03*
X004864Y002694D03*
X004870Y002712D03*
X004870Y002712D03*
X004870Y002718D03*
X004870Y002718D03*
X004870Y002724D03*
X004870Y002724D03*
X004870Y002730D03*
X004870Y002730D03*
X004876Y002736D03*
X004876Y002736D03*
X004876Y002742D03*
X004876Y002742D03*
X004876Y002748D03*
X004876Y002748D03*
X004876Y002754D03*
X004876Y002754D03*
X004882Y002760D03*
X004882Y002760D03*
X004882Y002766D03*
X004882Y002766D03*
X004882Y002772D03*
X004882Y002772D03*
X004882Y002778D03*
X004882Y002778D03*
X004888Y002784D03*
X004888Y002784D03*
X004888Y002790D03*
X004888Y002790D03*
X004894Y002808D03*
X004894Y002808D03*
X004858Y002658D03*
X004858Y002658D03*
X004858Y002652D03*
X004858Y002652D03*
X004858Y002646D03*
X004858Y002646D03*
X004858Y002640D03*
X004858Y002640D03*
X004858Y002634D03*
X004858Y002634D03*
X004858Y002628D03*
X004858Y002628D03*
X004852Y002622D03*
X004852Y002622D03*
X004852Y002616D03*
X004852Y002616D03*
X004852Y002610D03*
X004852Y002610D03*
X004852Y002604D03*
X004852Y002604D03*
X004852Y002598D03*
X004852Y002598D03*
X004852Y002592D03*
X004852Y002592D03*
X004852Y002586D03*
X004852Y002586D03*
X004852Y002580D03*
X004852Y002580D03*
X004852Y002574D03*
X004852Y002574D03*
X004852Y002568D03*
X004852Y002568D03*
X004852Y002442D03*
X004852Y002442D03*
X004852Y002436D03*
X004852Y002436D03*
X004852Y002430D03*
X004852Y002430D03*
X004852Y002424D03*
X004852Y002424D03*
X004852Y002418D03*
X004852Y002418D03*
X004852Y002412D03*
X004852Y002412D03*
X004852Y002406D03*
X004852Y002406D03*
X004852Y002400D03*
X004852Y002400D03*
X004852Y002394D03*
X004852Y002394D03*
X004852Y002388D03*
X004852Y002388D03*
X004852Y002382D03*
X004852Y002382D03*
X005656Y003312D03*
X005656Y003312D03*
X006886Y002802D03*
X006886Y002802D03*
X006892Y002784D03*
X006892Y002784D03*
X006892Y002778D03*
X006892Y002778D03*
X006898Y002766D03*
X006898Y002766D03*
X006898Y002760D03*
X006898Y002760D03*
X006898Y002754D03*
X006898Y002754D03*
X006904Y002742D03*
X006904Y002742D03*
X006904Y002736D03*
X006904Y002736D03*
X006904Y002730D03*
X006904Y002730D03*
X006904Y002724D03*
X006904Y002724D03*
X006910Y002718D03*
X006910Y002718D03*
X006910Y002712D03*
X006910Y002712D03*
X006910Y002706D03*
X006910Y002706D03*
X006910Y002700D03*
X006910Y002700D03*
X006916Y002682D03*
X006916Y002682D03*
X006916Y002676D03*
X006916Y002676D03*
X006916Y002670D03*
X006916Y002670D03*
X006922Y002640D03*
X006922Y002640D03*
X006922Y002634D03*
X006922Y002634D03*
X006922Y002628D03*
X006922Y002628D03*
X006922Y002622D03*
X006922Y002622D03*
X006922Y002616D03*
X006922Y002616D03*
X006928Y002574D03*
X006928Y002574D03*
X006928Y002568D03*
X006928Y002568D03*
X006928Y002562D03*
X006928Y002562D03*
X006928Y002556D03*
X006928Y002556D03*
X006928Y002550D03*
X006928Y002550D03*
X006928Y002544D03*
X006928Y002544D03*
X006928Y002538D03*
X006928Y002538D03*
X006928Y002532D03*
X006928Y002532D03*
X006928Y002526D03*
X006928Y002526D03*
X006928Y002520D03*
X006928Y002520D03*
X006928Y002514D03*
X006928Y002514D03*
X006928Y002508D03*
X006928Y002508D03*
X006928Y002502D03*
X006928Y002502D03*
X006928Y002496D03*
X006928Y002496D03*
X006928Y002490D03*
X006928Y002490D03*
X006928Y002484D03*
X006928Y002484D03*
X006928Y002478D03*
X006928Y002478D03*
X006928Y002472D03*
X006928Y002472D03*
X006928Y002466D03*
X006928Y002466D03*
X006928Y002460D03*
X006928Y002460D03*
X006928Y002454D03*
X006928Y002454D03*
X006928Y002448D03*
X006928Y002448D03*
X006928Y002442D03*
X006928Y002442D03*
X006928Y002436D03*
X006928Y002436D03*
X006922Y002394D03*
X006922Y002394D03*
X006922Y002388D03*
X006922Y002388D03*
X006922Y002382D03*
X006922Y002382D03*
X006922Y002376D03*
X006922Y002376D03*
X006922Y002370D03*
X006922Y002370D03*
X006916Y002334D03*
X006916Y002334D03*
X006916Y002328D03*
X006916Y002328D03*
X006910Y002304D03*
X006910Y002304D03*
X006910Y002298D03*
X006910Y002298D03*
X006910Y002292D03*
X006910Y002292D03*
X006904Y002286D03*
X006904Y002286D03*
X006904Y002280D03*
X006904Y002280D03*
X006904Y002274D03*
X006904Y002274D03*
X006904Y002268D03*
X006904Y002268D03*
X006898Y002256D03*
X006898Y002256D03*
X006898Y002250D03*
X006898Y002250D03*
X006898Y002244D03*
X006898Y002244D03*
X006898Y002238D03*
X006898Y002238D03*
X006892Y002232D03*
X006892Y002232D03*
X006892Y002226D03*
X006892Y002226D03*
X006886Y002208D03*
X006886Y002208D03*
D102*
X006880Y002184D03*
X006880Y002184D03*
X006874Y002172D03*
X006874Y002172D03*
X006874Y002166D03*
X006874Y002166D03*
X006868Y002154D03*
X006868Y002154D03*
X006868Y002148D03*
X006868Y002148D03*
X006862Y002136D03*
X006862Y002136D03*
X006862Y002130D03*
X006862Y002130D03*
X006856Y002124D03*
X006856Y002124D03*
X006856Y002118D03*
X006856Y002118D03*
X006850Y002112D03*
X006850Y002112D03*
X006850Y002106D03*
X006850Y002106D03*
X006844Y002094D03*
X006844Y002094D03*
X006838Y002076D03*
X006838Y002076D03*
X006364Y002436D03*
X006364Y002436D03*
X005890Y002394D03*
X005890Y002394D03*
X005890Y001842D03*
X005890Y001842D03*
X005680Y001716D03*
X005680Y001716D03*
X005668Y001722D03*
X005668Y001722D03*
X006100Y001716D03*
X006100Y001716D03*
X006154Y001740D03*
X006154Y001740D03*
X006880Y002826D03*
X006880Y002826D03*
X006874Y002838D03*
X006874Y002838D03*
X006868Y002856D03*
X006868Y002856D03*
X006868Y002862D03*
X006868Y002862D03*
X006862Y002874D03*
X006862Y002874D03*
X006862Y002880D03*
X006862Y002880D03*
X006856Y002886D03*
X006856Y002886D03*
X006856Y002892D03*
X006856Y002892D03*
X006850Y002898D03*
X006850Y002898D03*
X006850Y002904D03*
X006850Y002904D03*
X006844Y002916D03*
X006844Y002916D03*
X006832Y002946D03*
X006832Y002946D03*
X006112Y003276D03*
X006112Y003276D03*
X005884Y003174D03*
X005884Y003174D03*
X005662Y003306D03*
X005662Y003306D03*
X004942Y002934D03*
X004942Y002934D03*
X004936Y002922D03*
X004936Y002922D03*
X004936Y002916D03*
X004936Y002916D03*
X004930Y002910D03*
X004930Y002910D03*
X004930Y002904D03*
X004930Y002904D03*
X004924Y002898D03*
X004924Y002898D03*
X004924Y002892D03*
X004924Y002892D03*
X004918Y002880D03*
X004918Y002880D03*
X004912Y002862D03*
X004912Y002862D03*
X004906Y002850D03*
X004906Y002850D03*
X004858Y002340D03*
X004858Y002340D03*
X004858Y002334D03*
X004858Y002334D03*
X004858Y002328D03*
X004858Y002328D03*
X004858Y002322D03*
X004858Y002322D03*
X004858Y002316D03*
X004858Y002316D03*
X004858Y002310D03*
X004858Y002310D03*
X004858Y002304D03*
X004858Y002304D03*
D103*
X005206Y001728D03*
X005206Y001728D03*
X005212Y001722D03*
X005212Y001722D03*
X006574Y001728D03*
X006574Y001728D03*
X006148Y003150D03*
X006148Y003150D03*
X006586Y003270D03*
X006586Y003270D03*
X006592Y003264D03*
X006592Y003264D03*
X005626Y003144D03*
X005626Y003144D03*
X005206Y003282D03*
X005206Y003282D03*
X005194Y003270D03*
X005194Y003270D03*
D104*
X004969Y002988D03*
X004969Y002988D03*
X004963Y002976D03*
X004963Y002976D03*
X004957Y002970D03*
X004957Y002970D03*
X004957Y002964D03*
X004957Y002964D03*
X004951Y002958D03*
X004951Y002958D03*
X004951Y002952D03*
X004951Y002952D03*
X004945Y002946D03*
X004945Y002946D03*
X004945Y002940D03*
X004945Y002940D03*
X004939Y002928D03*
X004939Y002928D03*
X004861Y002298D03*
X004861Y002298D03*
X004861Y002292D03*
X004861Y002292D03*
X004861Y002286D03*
X004861Y002286D03*
X004861Y002280D03*
X004861Y002280D03*
X005419Y002442D03*
X005419Y002442D03*
X005887Y002400D03*
X005887Y002400D03*
X005887Y002238D03*
X005887Y002238D03*
X005887Y002232D03*
X005887Y002232D03*
X005641Y001734D03*
X005641Y001734D03*
X006109Y001722D03*
X006109Y001722D03*
X006817Y002034D03*
X006817Y002034D03*
X006823Y002046D03*
X006823Y002046D03*
X006829Y002052D03*
X006829Y002052D03*
X006829Y002058D03*
X006829Y002058D03*
X006835Y002064D03*
X006835Y002064D03*
X006835Y002070D03*
X006835Y002070D03*
X006841Y002082D03*
X006841Y002082D03*
X006841Y002088D03*
X006841Y002088D03*
X006847Y002100D03*
X006847Y002100D03*
X006475Y002772D03*
X006475Y002772D03*
X006157Y003204D03*
X006157Y003204D03*
X006157Y003210D03*
X006157Y003210D03*
X005659Y003300D03*
X005659Y003300D03*
X005611Y003204D03*
X005611Y003204D03*
X006817Y002976D03*
X006817Y002976D03*
X006817Y002970D03*
X006817Y002970D03*
X006823Y002964D03*
X006823Y002964D03*
X006823Y002958D03*
X006823Y002958D03*
X006829Y002952D03*
X006829Y002952D03*
X006835Y002940D03*
X006835Y002940D03*
X006835Y002934D03*
X006835Y002934D03*
X006841Y002928D03*
X006841Y002928D03*
X006841Y002922D03*
X006841Y002922D03*
X006847Y002910D03*
X006847Y002910D03*
D105*
X006814Y002982D03*
X006814Y002982D03*
X006796Y003006D03*
X006796Y003006D03*
X006796Y003012D03*
X006796Y003012D03*
X006790Y003018D03*
X006790Y003018D03*
X006790Y003024D03*
X006790Y003024D03*
X006784Y003030D03*
X006784Y003030D03*
X006334Y002568D03*
X006334Y002568D03*
X006820Y002040D03*
X006820Y002040D03*
X006814Y002028D03*
X006814Y002028D03*
X006796Y001998D03*
X006796Y001998D03*
X006790Y001986D03*
X006790Y001986D03*
X006784Y001974D03*
X006784Y001974D03*
X006136Y001734D03*
X006136Y001734D03*
X005656Y001728D03*
X005656Y001728D03*
X004864Y002256D03*
X004864Y002256D03*
X004864Y002262D03*
X004864Y002262D03*
X004864Y002268D03*
X004864Y002268D03*
X004864Y002274D03*
X004864Y002274D03*
X004966Y002982D03*
X004966Y002982D03*
X004984Y003012D03*
X004984Y003012D03*
X004984Y003018D03*
X004984Y003018D03*
X004990Y003024D03*
X004990Y003024D03*
D106*
X004978Y003006D03*
X004978Y003006D03*
X004978Y003000D03*
X004978Y003000D03*
X004972Y002994D03*
X004972Y002994D03*
X005308Y002592D03*
X005308Y002592D03*
X005422Y002448D03*
X005422Y002448D03*
X005482Y002154D03*
X005482Y002154D03*
X006118Y001728D03*
X006118Y001728D03*
X006802Y002004D03*
X006802Y002004D03*
X006802Y002010D03*
X006802Y002010D03*
X006808Y002016D03*
X006808Y002016D03*
X006808Y002022D03*
X006808Y002022D03*
X006358Y002442D03*
X006358Y002442D03*
X006472Y002592D03*
X006472Y002592D03*
X006808Y002988D03*
X006808Y002988D03*
X006808Y002994D03*
X006808Y002994D03*
X006802Y003000D03*
X006802Y003000D03*
X006112Y003270D03*
X006112Y003270D03*
D107*
X006151Y003156D03*
X006151Y003156D03*
X005881Y003198D03*
X005881Y003198D03*
X005671Y003258D03*
X005671Y003258D03*
X005623Y003150D03*
X005623Y003150D03*
X005185Y003264D03*
X005185Y003264D03*
X005179Y003258D03*
X005179Y003258D03*
X005173Y003252D03*
X005173Y003252D03*
X004897Y002094D03*
X004897Y002094D03*
X004897Y002088D03*
X004897Y002088D03*
X005185Y001746D03*
X005185Y001746D03*
X005191Y001740D03*
X005191Y001740D03*
X005197Y001734D03*
X005197Y001734D03*
X006589Y001740D03*
X006589Y001740D03*
X006595Y001746D03*
X006595Y001746D03*
X006601Y001752D03*
X006601Y001752D03*
X006595Y003258D03*
X006595Y003258D03*
D108*
X006100Y003234D03*
X006100Y003234D03*
X005200Y003276D03*
X005200Y003276D03*
X004900Y002082D03*
X004900Y002082D03*
X004900Y002076D03*
X004900Y002076D03*
X005890Y002190D03*
X005890Y002190D03*
X005890Y001854D03*
X005890Y001854D03*
X006580Y001734D03*
X006580Y001734D03*
D109*
X005176Y001752D03*
X005176Y001752D03*
X005170Y001758D03*
X005170Y001758D03*
X005164Y001764D03*
X005164Y001764D03*
X004894Y002100D03*
X004894Y002100D03*
X004894Y002106D03*
X004894Y002106D03*
X005164Y003246D03*
X005164Y003246D03*
X005620Y003156D03*
X005620Y003156D03*
X006106Y003240D03*
X006106Y003240D03*
X006604Y003252D03*
X006604Y003252D03*
X006610Y003246D03*
X006610Y003246D03*
D110*
X006913Y002694D03*
X006913Y002694D03*
X006913Y002688D03*
X006913Y002688D03*
X006913Y002322D03*
X006913Y002322D03*
X006913Y002316D03*
X006913Y002316D03*
X006913Y002310D03*
X006913Y002310D03*
X006373Y002406D03*
X006373Y002406D03*
X006373Y002412D03*
X006373Y002412D03*
X005893Y002370D03*
X005893Y002370D03*
X005887Y002256D03*
X005887Y002256D03*
X006187Y001752D03*
X006187Y001752D03*
X004867Y002700D03*
X004867Y002700D03*
X004867Y002706D03*
X004867Y002706D03*
D111*
X005335Y002766D03*
X005335Y002766D03*
X005149Y003228D03*
X005149Y003228D03*
X005887Y002430D03*
X005887Y002430D03*
X005893Y002196D03*
X005893Y002196D03*
X006325Y002472D03*
X006325Y002472D03*
X006619Y001770D03*
X006619Y001770D03*
X006613Y001764D03*
X006613Y001764D03*
X006607Y001758D03*
X006607Y001758D03*
X005155Y001770D03*
X005155Y001770D03*
X004891Y002112D03*
X004891Y002112D03*
X004891Y002118D03*
X004891Y002118D03*
X006151Y003162D03*
X006151Y003162D03*
X006619Y003240D03*
X006619Y003240D03*
X006625Y003234D03*
X006625Y003234D03*
X006631Y003228D03*
X006631Y003228D03*
X006637Y003222D03*
X006637Y003222D03*
D112*
X006640Y003216D03*
X006640Y003216D03*
X006646Y003210D03*
X006646Y003210D03*
X006652Y003204D03*
X006652Y003204D03*
X006658Y003198D03*
X006658Y003198D03*
X006154Y003168D03*
X006154Y003168D03*
X006106Y003246D03*
X006106Y003246D03*
X005884Y003192D03*
X005884Y003192D03*
X005668Y003270D03*
X005668Y003270D03*
X005620Y003162D03*
X005620Y003162D03*
X005140Y003222D03*
X005140Y003222D03*
X005134Y003216D03*
X005134Y003216D03*
X005128Y003210D03*
X005128Y003210D03*
X005464Y002562D03*
X005464Y002562D03*
X004888Y002130D03*
X004888Y002130D03*
X004888Y002124D03*
X004888Y002124D03*
X005128Y001800D03*
X005128Y001800D03*
X005134Y001794D03*
X005134Y001794D03*
X005140Y001788D03*
X005140Y001788D03*
X005146Y001782D03*
X005146Y001782D03*
X005152Y001776D03*
X005152Y001776D03*
X006334Y002466D03*
X006334Y002466D03*
X006316Y002562D03*
X006316Y002562D03*
X006646Y001794D03*
X006646Y001794D03*
X006640Y001788D03*
X006640Y001788D03*
X006634Y001782D03*
X006634Y001782D03*
X006628Y001776D03*
X006628Y001776D03*
D113*
X006268Y001788D03*
X006268Y001788D03*
X006352Y002214D03*
X006352Y002214D03*
X006358Y002226D03*
X006358Y002226D03*
X006382Y002358D03*
X006382Y002358D03*
X005632Y002412D03*
X005632Y002412D03*
X005632Y002214D03*
X005632Y002214D03*
X005392Y002376D03*
X005392Y002376D03*
D114*
X005443Y002472D03*
X005443Y002472D03*
X005887Y002424D03*
X005887Y002424D03*
X006457Y002760D03*
X006457Y002760D03*
X006151Y003174D03*
X006151Y003174D03*
X005617Y003168D03*
X005617Y003168D03*
X005119Y003198D03*
X005119Y003198D03*
X005113Y003192D03*
X005113Y003192D03*
X005107Y003186D03*
X005107Y003186D03*
X005119Y001812D03*
X005119Y001812D03*
X006469Y001998D03*
X006469Y001998D03*
X006481Y002010D03*
X006481Y002010D03*
X006661Y001812D03*
X006661Y001812D03*
X006649Y001800D03*
X006649Y001800D03*
D115*
X006655Y001806D03*
X006655Y001806D03*
X006475Y002004D03*
X006475Y002004D03*
X005305Y002004D03*
X005305Y002004D03*
X005125Y001806D03*
X005125Y001806D03*
X004885Y002136D03*
X004885Y002136D03*
X004885Y002142D03*
X004885Y002142D03*
X004885Y002148D03*
X004885Y002148D03*
X005125Y003204D03*
X005125Y003204D03*
D116*
X005104Y003180D03*
X005104Y003180D03*
X005098Y003174D03*
X005098Y003174D03*
X005092Y003168D03*
X005092Y003168D03*
X005086Y003162D03*
X005086Y003162D03*
X005320Y002586D03*
X005320Y002586D03*
X005290Y002016D03*
X005290Y002016D03*
X005296Y002010D03*
X005296Y002010D03*
X005104Y001824D03*
X005104Y001824D03*
X005110Y001818D03*
X005110Y001818D03*
X004882Y002154D03*
X004882Y002154D03*
X004882Y002160D03*
X004882Y002160D03*
X005890Y002202D03*
X005890Y002202D03*
X006460Y002586D03*
X006460Y002586D03*
X006484Y002016D03*
X006484Y002016D03*
X006670Y001818D03*
X006670Y001818D03*
X006682Y003174D03*
X006682Y003174D03*
X006676Y003180D03*
X006676Y003180D03*
X006670Y003186D03*
X006670Y003186D03*
X006664Y003192D03*
X006664Y003192D03*
X006154Y003180D03*
X006154Y003180D03*
X006106Y003252D03*
X006106Y003252D03*
X005668Y003276D03*
X005668Y003276D03*
D117*
X006145Y002418D03*
X006145Y002418D03*
X006355Y001836D03*
X006355Y001836D03*
X005455Y001818D03*
X005455Y001818D03*
X005425Y001836D03*
X005425Y001836D03*
D118*
X005281Y002028D03*
X005281Y002028D03*
X005095Y001836D03*
X005095Y001836D03*
X005101Y001830D03*
X005101Y001830D03*
X004879Y002166D03*
X004879Y002166D03*
X004879Y002172D03*
X004879Y002172D03*
X004879Y002178D03*
X004879Y002178D03*
X005071Y003144D03*
X005071Y003144D03*
X005665Y003282D03*
X005665Y003282D03*
X006109Y003258D03*
X006109Y003258D03*
X006685Y003168D03*
X006685Y003168D03*
X006691Y003162D03*
X006691Y003162D03*
X006709Y003138D03*
X006709Y003138D03*
X006715Y003132D03*
X006715Y003132D03*
X005881Y002418D03*
X005881Y002418D03*
X006499Y002028D03*
X006499Y002028D03*
X006505Y002034D03*
X006505Y002034D03*
X006691Y001842D03*
X006691Y001842D03*
X006685Y001836D03*
X006685Y001836D03*
X006679Y001830D03*
X006679Y001830D03*
D119*
X006379Y001986D03*
X006379Y001986D03*
X006079Y002238D03*
X006079Y002238D03*
X005887Y001836D03*
X005887Y001836D03*
X006709Y002304D03*
X006709Y002304D03*
X006691Y002382D03*
X006691Y002382D03*
X006679Y002412D03*
X006679Y002412D03*
X006673Y002424D03*
X006673Y002424D03*
X006667Y002430D03*
X006667Y002430D03*
X006667Y002436D03*
X006667Y002436D03*
X006661Y002442D03*
X006661Y002442D03*
X006643Y002472D03*
X006643Y002472D03*
X006457Y002832D03*
X006457Y002832D03*
X005143Y002484D03*
X005143Y002484D03*
X005131Y002466D03*
X005131Y002466D03*
X005119Y002448D03*
X005119Y002448D03*
X005113Y002436D03*
X005113Y002436D03*
X005107Y002430D03*
X005107Y002430D03*
X005107Y002424D03*
X005107Y002424D03*
X005089Y002388D03*
X005089Y002388D03*
D120*
X004984Y001842D03*
X004984Y001842D03*
D121*
X005260Y002046D03*
X005260Y002046D03*
X005266Y002040D03*
X005266Y002040D03*
X005272Y002034D03*
X005272Y002034D03*
X004876Y002184D03*
X004876Y002184D03*
X004876Y002190D03*
X004876Y002190D03*
X004876Y002196D03*
X004876Y002196D03*
X005434Y002466D03*
X005434Y002466D03*
X005890Y002208D03*
X005890Y002208D03*
X005890Y001848D03*
X005890Y001848D03*
X006346Y002460D03*
X006346Y002460D03*
X006508Y002040D03*
X006508Y002040D03*
X006706Y001866D03*
X006706Y001866D03*
X006712Y001872D03*
X006712Y001872D03*
X006718Y001878D03*
X006718Y001878D03*
X006700Y001854D03*
X006700Y001854D03*
X006694Y001848D03*
X006694Y001848D03*
X006724Y003120D03*
X006724Y003120D03*
X006718Y003126D03*
X006718Y003126D03*
X006706Y003144D03*
X006706Y003144D03*
X006154Y003186D03*
X006154Y003186D03*
X005614Y003180D03*
X005614Y003180D03*
X005068Y003138D03*
X005068Y003138D03*
X005062Y003132D03*
X005062Y003132D03*
X005050Y003114D03*
X005050Y003114D03*
X005044Y003108D03*
X005044Y003108D03*
D122*
X005440Y003420D03*
X005440Y003420D03*
X004978Y001860D03*
X004978Y001860D03*
D123*
X005365Y001878D03*
X005365Y001878D03*
X005371Y001872D03*
X005371Y001872D03*
X005389Y001860D03*
X005389Y001860D03*
X005401Y002250D03*
X005401Y002250D03*
X005395Y002274D03*
X005395Y002274D03*
X005389Y002280D03*
X005389Y002280D03*
X005239Y002574D03*
X005239Y002574D03*
X005251Y002580D03*
X005251Y002580D03*
X006415Y001878D03*
X006415Y001878D03*
X006421Y001884D03*
X006421Y001884D03*
X006679Y002256D03*
X006679Y002256D03*
X006685Y002262D03*
X006685Y002262D03*
X006691Y002268D03*
X006691Y002268D03*
X006529Y002580D03*
X006529Y002580D03*
D124*
X004975Y001866D03*
X004975Y001866D03*
D125*
X005887Y001866D03*
X005887Y001866D03*
X005893Y002160D03*
X005893Y002160D03*
X006397Y002730D03*
X006397Y002730D03*
X005653Y003102D03*
X005653Y003102D03*
D126*
X006352Y003414D03*
X006352Y003414D03*
X006364Y002718D03*
X006364Y002718D03*
X004972Y001872D03*
X004972Y001872D03*
D127*
X004963Y001890D03*
X004963Y001890D03*
X005407Y002730D03*
X005407Y002730D03*
X005671Y003096D03*
X005671Y003096D03*
X005407Y003408D03*
X005407Y003408D03*
X006109Y003096D03*
X006109Y003096D03*
X006373Y003408D03*
X006373Y003408D03*
X005887Y001872D03*
X005887Y001872D03*
D128*
X005887Y002214D03*
X005887Y002214D03*
X005431Y002460D03*
X005431Y002460D03*
X005257Y002052D03*
X005257Y002052D03*
X004873Y002202D03*
X004873Y002202D03*
X004873Y002208D03*
X004873Y002208D03*
X005035Y003096D03*
X005035Y003096D03*
X005041Y003102D03*
X005041Y003102D03*
X005053Y003120D03*
X005053Y003120D03*
X005059Y003126D03*
X005059Y003126D03*
X006349Y002454D03*
X006349Y002454D03*
X006523Y002052D03*
X006523Y002052D03*
X006517Y002046D03*
X006517Y002046D03*
X006721Y001884D03*
X006721Y001884D03*
X006727Y001890D03*
X006727Y001890D03*
X006733Y001896D03*
X006733Y001896D03*
X006739Y001908D03*
X006739Y001908D03*
X006745Y001914D03*
X006745Y001914D03*
X006757Y001932D03*
X006757Y001932D03*
X006739Y003102D03*
X006739Y003102D03*
X006733Y003108D03*
X006733Y003108D03*
X006727Y003114D03*
X006727Y003114D03*
D129*
X005902Y002862D03*
X005902Y002862D03*
X005890Y001890D03*
X005890Y001890D03*
D130*
X005530Y002550D03*
X005530Y002550D03*
X004960Y001896D03*
X004960Y001896D03*
D131*
X005890Y001896D03*
X005890Y001896D03*
X005890Y002592D03*
X005890Y002592D03*
X006316Y002706D03*
X006316Y002706D03*
X006280Y003438D03*
X006280Y003438D03*
D132*
X006112Y003264D03*
X006112Y003264D03*
X006154Y003192D03*
X006154Y003192D03*
X005884Y003180D03*
X005884Y003180D03*
X005662Y003288D03*
X005662Y003288D03*
X005614Y003192D03*
X005614Y003192D03*
X005614Y003186D03*
X005614Y003186D03*
X005032Y003090D03*
X005032Y003090D03*
X005026Y003084D03*
X005026Y003084D03*
X005014Y003066D03*
X005014Y003066D03*
X005008Y003054D03*
X005008Y003054D03*
X005428Y002454D03*
X005428Y002454D03*
X005884Y002412D03*
X005884Y002412D03*
X006352Y002448D03*
X006352Y002448D03*
X006466Y002766D03*
X006466Y002766D03*
X006772Y003054D03*
X006772Y003054D03*
X006754Y003078D03*
X006754Y003078D03*
X006754Y003084D03*
X006754Y003084D03*
X006748Y003090D03*
X006748Y003090D03*
X006742Y003096D03*
X006742Y003096D03*
X006778Y001962D03*
X006778Y001962D03*
X006772Y001956D03*
X006772Y001956D03*
X006766Y001944D03*
X006766Y001944D03*
X006754Y001926D03*
X006754Y001926D03*
X006748Y001920D03*
X006748Y001920D03*
X006736Y001902D03*
X006736Y001902D03*
D133*
X005371Y003390D03*
X005371Y003390D03*
X005887Y003624D03*
X005887Y003624D03*
X004951Y001920D03*
X004951Y001920D03*
X004951Y001914D03*
X004951Y001914D03*
D134*
X005890Y001914D03*
X005890Y001914D03*
D135*
X005890Y001920D03*
X005890Y001920D03*
X005890Y003600D03*
X005890Y003600D03*
D136*
X005887Y001926D03*
X005887Y001926D03*
D137*
X004945Y001932D03*
X004945Y001932D03*
D138*
X005890Y001932D03*
X005890Y001932D03*
D139*
X005290Y001938D03*
X005290Y001938D03*
X005200Y002166D03*
X005200Y002166D03*
X005170Y002196D03*
X005170Y002196D03*
X006490Y001938D03*
X006490Y001938D03*
X006610Y002196D03*
X006610Y002196D03*
D140*
X006760Y001938D03*
X006760Y001938D03*
X006760Y003072D03*
X006760Y003072D03*
X005020Y003072D03*
X005020Y003072D03*
X005020Y003078D03*
X005020Y003078D03*
X004870Y002226D03*
X004870Y002226D03*
X004870Y002220D03*
X004870Y002220D03*
X004870Y002214D03*
X004870Y002214D03*
D141*
X005890Y001944D03*
X005890Y001944D03*
D142*
X004939Y001950D03*
X004939Y001950D03*
X005335Y003372D03*
X005335Y003372D03*
D143*
X005611Y003198D03*
X005611Y003198D03*
X005659Y003294D03*
X005659Y003294D03*
X006157Y003198D03*
X006157Y003198D03*
X006763Y003066D03*
X006763Y003066D03*
X006769Y003060D03*
X006769Y003060D03*
X006775Y003048D03*
X006775Y003048D03*
X006781Y003042D03*
X006781Y003042D03*
X006781Y003036D03*
X006781Y003036D03*
X005887Y002406D03*
X005887Y002406D03*
X005887Y002226D03*
X005887Y002226D03*
X005887Y002220D03*
X005887Y002220D03*
X005443Y002568D03*
X005443Y002568D03*
X005317Y002778D03*
X005317Y002778D03*
X004999Y003036D03*
X004999Y003036D03*
X004999Y003042D03*
X004999Y003042D03*
X005005Y003048D03*
X005005Y003048D03*
X005011Y003060D03*
X005011Y003060D03*
X004993Y003030D03*
X004993Y003030D03*
X004867Y002250D03*
X004867Y002250D03*
X004867Y002244D03*
X004867Y002244D03*
X004867Y002238D03*
X004867Y002238D03*
X004867Y002232D03*
X004867Y002232D03*
X006769Y001950D03*
X006769Y001950D03*
X006781Y001968D03*
X006781Y001968D03*
X006787Y001980D03*
X006787Y001980D03*
X006793Y001992D03*
X006793Y001992D03*
D144*
X005890Y001956D03*
X005890Y001956D03*
D145*
X006484Y002082D03*
X006484Y002082D03*
X006490Y002088D03*
X006490Y002088D03*
X006496Y002094D03*
X006496Y002094D03*
X006544Y001986D03*
X006544Y001986D03*
X006526Y001968D03*
X006526Y001968D03*
X006706Y002292D03*
X006706Y002292D03*
X005284Y002088D03*
X005284Y002088D03*
X005266Y002106D03*
X005266Y002106D03*
X005260Y002112D03*
X005260Y002112D03*
X005254Y001968D03*
X005254Y001968D03*
X005260Y001962D03*
X005260Y001962D03*
X005074Y002292D03*
X005074Y002292D03*
X005164Y002508D03*
X005164Y002508D03*
X005170Y002514D03*
X005170Y002514D03*
X005176Y002520D03*
X005176Y002520D03*
D146*
X005890Y001968D03*
X005890Y001968D03*
D147*
X004930Y001974D03*
X004930Y001974D03*
X006460Y003360D03*
X006460Y003360D03*
D148*
X006592Y002532D03*
X006592Y002532D03*
X006598Y002526D03*
X006598Y002526D03*
X006538Y002130D03*
X006538Y002130D03*
X006532Y002124D03*
X006532Y002124D03*
X006538Y001980D03*
X006538Y001980D03*
X006532Y001974D03*
X006532Y001974D03*
X005632Y002430D03*
X005632Y002430D03*
X005188Y002532D03*
X005188Y002532D03*
X005182Y002526D03*
X005182Y002526D03*
X005272Y002100D03*
X005272Y002100D03*
X005278Y002094D03*
X005278Y002094D03*
X005242Y001980D03*
X005242Y001980D03*
X005248Y001974D03*
X005248Y001974D03*
D149*
X005890Y001974D03*
X005890Y001974D03*
X005890Y003576D03*
X005890Y003576D03*
D150*
X005653Y003348D03*
X005653Y003348D03*
X005329Y002832D03*
X005329Y002832D03*
X005071Y002298D03*
X005071Y002298D03*
X005293Y002082D03*
X005293Y002082D03*
X005299Y002076D03*
X005299Y002076D03*
X005311Y002070D03*
X005311Y002070D03*
X005317Y002064D03*
X005317Y002064D03*
X005323Y002058D03*
X005323Y002058D03*
X005227Y001998D03*
X005227Y001998D03*
X005227Y001992D03*
X005227Y001992D03*
X005233Y001986D03*
X005233Y001986D03*
X005683Y002232D03*
X005683Y002232D03*
X006091Y002232D03*
X006091Y002232D03*
X006199Y002232D03*
X006199Y002232D03*
X006145Y002430D03*
X006145Y002430D03*
X006475Y002076D03*
X006475Y002076D03*
X006469Y002070D03*
X006469Y002070D03*
X006463Y002064D03*
X006463Y002064D03*
X006457Y002058D03*
X006457Y002058D03*
X006547Y001992D03*
X006547Y001992D03*
X006709Y002298D03*
X006709Y002298D03*
X006625Y002496D03*
X006625Y002496D03*
X006607Y002520D03*
X006607Y002520D03*
X006463Y002826D03*
X006463Y002826D03*
D151*
X005890Y001986D03*
X005890Y001986D03*
D152*
X005890Y001992D03*
X005890Y001992D03*
X005890Y002610D03*
X005890Y002610D03*
X005890Y003570D03*
X005890Y003570D03*
D153*
X005890Y001998D03*
X005890Y001998D03*
D154*
X005890Y002004D03*
X005890Y002004D03*
D155*
X005890Y002010D03*
X005890Y002010D03*
D156*
X005890Y002022D03*
X005890Y002022D03*
D157*
X005890Y002034D03*
X005890Y002034D03*
X005890Y002616D03*
X005890Y002616D03*
X005884Y002916D03*
X005884Y002916D03*
D158*
X005893Y003048D03*
X005893Y003048D03*
X005893Y003054D03*
X005893Y003054D03*
X005893Y003060D03*
X005893Y003060D03*
X005893Y003066D03*
X005893Y003066D03*
X005887Y002040D03*
X005887Y002040D03*
D159*
X005890Y002052D03*
X005890Y002052D03*
X005896Y003030D03*
X005896Y003030D03*
D160*
X006634Y002058D03*
X006634Y002058D03*
X005146Y002058D03*
X005146Y002058D03*
D161*
X005887Y002064D03*
X005887Y002064D03*
X005893Y003000D03*
X005893Y003000D03*
D162*
X005896Y002994D03*
X005896Y002994D03*
X005896Y002988D03*
X005896Y002988D03*
X005890Y002070D03*
X005890Y002070D03*
D163*
X005890Y002082D03*
X005890Y002082D03*
X005890Y002934D03*
X005890Y002934D03*
D164*
X005887Y002088D03*
X005887Y002088D03*
D165*
X005890Y002094D03*
X005890Y002094D03*
X005890Y003534D03*
X005890Y003534D03*
D166*
X005887Y002106D03*
X005887Y002106D03*
D167*
X005887Y002112D03*
X005887Y002112D03*
D168*
X005887Y002124D03*
X005887Y002124D03*
D169*
X005890Y002130D03*
X005890Y002130D03*
X005890Y003522D03*
X005890Y003522D03*
D170*
X005887Y002136D03*
X005887Y002136D03*
D171*
X005887Y002148D03*
X005887Y002148D03*
D172*
X006040Y002154D03*
X006040Y002154D03*
D173*
X006145Y002190D03*
X006145Y002190D03*
X005629Y002190D03*
X005629Y002190D03*
D174*
X005632Y002196D03*
X005632Y002196D03*
X005566Y002238D03*
X005566Y002238D03*
X005632Y002298D03*
X005632Y002298D03*
X005632Y002304D03*
X005632Y002304D03*
X005632Y002310D03*
X005632Y002310D03*
X005638Y002316D03*
X005638Y002316D03*
X005566Y002388D03*
X005566Y002388D03*
X005104Y002418D03*
X005104Y002418D03*
X005098Y002412D03*
X005098Y002412D03*
X005098Y002406D03*
X005098Y002406D03*
X005092Y002400D03*
X005092Y002400D03*
X005092Y002394D03*
X005092Y002394D03*
X005086Y002382D03*
X005086Y002382D03*
X005086Y002376D03*
X005086Y002376D03*
X005080Y002370D03*
X005080Y002370D03*
X005080Y002364D03*
X005080Y002364D03*
X005074Y002352D03*
X005074Y002352D03*
X005074Y002346D03*
X005074Y002346D03*
X005068Y002334D03*
X005068Y002334D03*
X005068Y002328D03*
X005068Y002328D03*
X005068Y002316D03*
X005068Y002316D03*
X006076Y002388D03*
X006076Y002388D03*
X006208Y002388D03*
X006208Y002388D03*
X006214Y002238D03*
X006214Y002238D03*
X006676Y002418D03*
X006676Y002418D03*
X006682Y002406D03*
X006682Y002406D03*
X006688Y002394D03*
X006688Y002394D03*
X006688Y002388D03*
X006688Y002388D03*
X006694Y002376D03*
X006694Y002376D03*
X006694Y002370D03*
X006694Y002370D03*
X006700Y002364D03*
X006700Y002364D03*
X006700Y002358D03*
X006700Y002358D03*
X006700Y002352D03*
X006700Y002352D03*
X006706Y002346D03*
X006706Y002346D03*
X006706Y002340D03*
X006706Y002340D03*
X006712Y002328D03*
X006712Y002328D03*
X006712Y002322D03*
X006712Y002322D03*
X006712Y002316D03*
X006712Y002316D03*
X006712Y002310D03*
X006712Y002310D03*
X006448Y002838D03*
X006448Y002838D03*
D175*
X006709Y002334D03*
X006709Y002334D03*
X006145Y002322D03*
X006145Y002322D03*
X006145Y002316D03*
X006145Y002316D03*
X006145Y002310D03*
X006145Y002310D03*
X006145Y002304D03*
X006145Y002304D03*
X006145Y002196D03*
X006145Y002196D03*
X005935Y002280D03*
X005935Y002280D03*
X005701Y002238D03*
X005701Y002238D03*
X005635Y002292D03*
X005635Y002292D03*
X005635Y002322D03*
X005635Y002322D03*
X005635Y002328D03*
X005635Y002328D03*
X005701Y002388D03*
X005701Y002388D03*
X005071Y002340D03*
X005071Y002340D03*
X005065Y002322D03*
X005065Y002322D03*
D176*
X005890Y002352D03*
X005890Y002352D03*
X005890Y002358D03*
X005890Y002358D03*
X006340Y002196D03*
X006340Y002196D03*
X006490Y002784D03*
X006490Y002784D03*
D177*
X006439Y002844D03*
X006439Y002844D03*
X006235Y002364D03*
X006235Y002364D03*
X006241Y002358D03*
X006241Y002358D03*
X006241Y002274D03*
X006241Y002274D03*
X006235Y002262D03*
X006235Y002262D03*
X006229Y002256D03*
X006229Y002256D03*
X006145Y002292D03*
X006145Y002292D03*
X006145Y002334D03*
X006145Y002334D03*
X006055Y002364D03*
X006055Y002364D03*
X006049Y002358D03*
X006049Y002358D03*
X006043Y002340D03*
X006043Y002340D03*
X006049Y002268D03*
X006049Y002268D03*
X006055Y002262D03*
X006055Y002262D03*
X005731Y002274D03*
X005731Y002274D03*
X005725Y002268D03*
X005725Y002268D03*
X005725Y002262D03*
X005725Y002262D03*
X005719Y002256D03*
X005719Y002256D03*
X005731Y002352D03*
X005731Y002352D03*
X005725Y002364D03*
X005725Y002364D03*
X005719Y002370D03*
X005719Y002370D03*
X005635Y002334D03*
X005635Y002334D03*
X005551Y002376D03*
X005551Y002376D03*
X005545Y002370D03*
X005545Y002370D03*
X005539Y002364D03*
X005539Y002364D03*
X005539Y002358D03*
X005539Y002358D03*
X005539Y002268D03*
X005539Y002268D03*
X005275Y002622D03*
X005275Y002622D03*
D178*
X005857Y002280D03*
X005857Y002280D03*
X006451Y002334D03*
X006451Y002334D03*
X006511Y002628D03*
X006511Y002628D03*
X006421Y002856D03*
X006421Y002856D03*
D179*
X006448Y002286D03*
X006448Y002286D03*
X005890Y002280D03*
X005890Y002280D03*
X005374Y002862D03*
X005374Y002862D03*
D180*
X005530Y002340D03*
X005530Y002340D03*
X005530Y002334D03*
X005530Y002334D03*
X005530Y002292D03*
X005530Y002292D03*
X005530Y002286D03*
X005530Y002286D03*
X005740Y002304D03*
X005740Y002304D03*
X005740Y002310D03*
X005740Y002310D03*
X005740Y002316D03*
X005740Y002316D03*
X005740Y002322D03*
X005740Y002322D03*
X006040Y002322D03*
X006040Y002322D03*
X006040Y002328D03*
X006040Y002328D03*
X006040Y002334D03*
X006040Y002334D03*
X006040Y002316D03*
X006040Y002316D03*
X006040Y002310D03*
X006040Y002310D03*
X006040Y002304D03*
X006040Y002304D03*
X006040Y002298D03*
X006040Y002298D03*
X006040Y002292D03*
X006040Y002292D03*
X006040Y002286D03*
X006040Y002286D03*
X006250Y002304D03*
X006250Y002304D03*
X006250Y002310D03*
X006250Y002310D03*
X006250Y002316D03*
X006250Y002316D03*
X006250Y002322D03*
X006250Y002322D03*
X006250Y002328D03*
X006250Y002328D03*
D181*
X005443Y002328D03*
X005443Y002328D03*
D182*
X005638Y002340D03*
X005638Y002340D03*
D183*
X005629Y002436D03*
X005629Y002436D03*
X005269Y002628D03*
X005269Y002628D03*
X006145Y002436D03*
X006145Y002436D03*
X006145Y002346D03*
X006145Y002346D03*
D184*
X005887Y002448D03*
X005887Y002448D03*
X006433Y002748D03*
X006433Y002748D03*
X006097Y003222D03*
X006097Y003222D03*
X005677Y003246D03*
X005677Y003246D03*
X005233Y003306D03*
X005233Y003306D03*
X005227Y003300D03*
X005227Y003300D03*
D185*
X005893Y002472D03*
X005893Y002472D03*
D186*
X006061Y002478D03*
X006061Y002478D03*
X005887Y002904D03*
X005887Y002904D03*
D187*
X005887Y002496D03*
X005887Y002496D03*
X005887Y002490D03*
X005887Y002490D03*
X005887Y002484D03*
X005887Y002484D03*
X005887Y003486D03*
X005887Y003486D03*
D188*
X005890Y002520D03*
X005890Y002520D03*
X005890Y002514D03*
X005890Y002514D03*
X005890Y002508D03*
X005890Y002508D03*
X005890Y002502D03*
X005890Y002502D03*
D189*
X005887Y002526D03*
X005887Y002526D03*
D190*
X005887Y002544D03*
X005887Y002544D03*
D191*
X005890Y002598D03*
X005890Y002598D03*
D192*
X005890Y002604D03*
X005890Y002604D03*
D193*
X005893Y002622D03*
X005893Y002622D03*
D194*
X005890Y002634D03*
X005890Y002634D03*
D195*
X005890Y002640D03*
X005890Y002640D03*
X005890Y003504D03*
X005890Y003504D03*
D196*
X005890Y002646D03*
X005890Y002646D03*
D197*
X005893Y002652D03*
X005893Y002652D03*
D198*
X005890Y002676D03*
X005890Y002676D03*
D199*
X005890Y002682D03*
X005890Y002682D03*
D200*
X005890Y002688D03*
X005890Y002688D03*
D201*
X005890Y002694D03*
X005890Y002694D03*
D202*
X005893Y002880D03*
X005893Y002880D03*
X005545Y002700D03*
X005545Y002700D03*
X005887Y003594D03*
X005887Y003594D03*
D203*
X006265Y002700D03*
X006265Y002700D03*
D204*
X005491Y002706D03*
X005491Y002706D03*
X005887Y003606D03*
X005887Y003606D03*
D205*
X006337Y002712D03*
X006337Y002712D03*
D206*
X005440Y002718D03*
X005440Y002718D03*
D207*
X005152Y003234D03*
X005152Y003234D03*
X005158Y003240D03*
X005158Y003240D03*
X005668Y003264D03*
X005668Y003264D03*
X006448Y002754D03*
X006448Y002754D03*
D208*
X005896Y002874D03*
X005896Y002874D03*
D209*
X005890Y002886D03*
X005890Y002886D03*
D210*
X005887Y002898D03*
X005887Y002898D03*
D211*
X005887Y002928D03*
X005887Y002928D03*
X005893Y002976D03*
X005893Y002976D03*
X005893Y002982D03*
X005893Y002982D03*
D212*
X005896Y002952D03*
X005896Y002952D03*
X005896Y002946D03*
X005896Y002946D03*
X005896Y002940D03*
X005896Y002940D03*
D213*
X005893Y003018D03*
X005893Y003018D03*
X005893Y003024D03*
X005893Y003024D03*
D214*
X005893Y003072D03*
X005893Y003072D03*
X005893Y003078D03*
X005893Y003078D03*
D215*
X005893Y003090D03*
X005893Y003090D03*
X005887Y003558D03*
X005887Y003558D03*
D216*
X005479Y003432D03*
X005479Y003432D03*
X006301Y003432D03*
X006301Y003432D03*
D217*
X006250Y003444D03*
X006250Y003444D03*
X005524Y003444D03*
X005524Y003444D03*
D218*
X005890Y003450D03*
X005890Y003450D03*
D219*
X005887Y003456D03*
X005887Y003456D03*
D220*
X005887Y003468D03*
X005887Y003468D03*
D221*
X005890Y003498D03*
X005890Y003498D03*
D222*
X005887Y003510D03*
X005887Y003510D03*
D223*
X005887Y003516D03*
X005887Y003516D03*
D224*
X005890Y003528D03*
X005890Y003528D03*
D225*
X005890Y003552D03*
X005890Y003552D03*
D226*
X005887Y003564D03*
X005887Y003564D03*
D227*
X005890Y003618D03*
X005890Y003618D03*
D228*
X005876Y003920D03*
X006064Y003920D03*
X006236Y003972D03*
X006312Y003900D03*
X006416Y004148D03*
X006156Y004200D03*
X006152Y004188D03*
X006184Y004488D03*
X006316Y004500D03*
X006184Y004632D03*
X006008Y004632D03*
X006004Y004628D03*
X006004Y004492D03*
X006008Y004488D03*
X005892Y004520D03*
X005712Y004612D03*
X005712Y004640D03*
X005716Y004648D03*
X005448Y004628D03*
X005268Y004628D03*
X005136Y004628D03*
X005136Y004632D03*
X005132Y004640D03*
X004956Y004492D03*
X004836Y004500D03*
X004832Y004488D03*
X004836Y004620D03*
X004832Y004632D03*
X004652Y004620D03*
X004652Y004612D03*
X004652Y004608D03*
X004652Y004512D03*
X004652Y004508D03*
X004652Y004500D03*
X004524Y004492D03*
X004524Y004628D03*
X004344Y004628D03*
X004344Y004632D03*
X004344Y004488D03*
X004652Y004120D03*
X004836Y004120D03*
X004952Y003972D03*
X004956Y003968D03*
X005032Y003900D03*
X005136Y003972D03*
X005132Y004148D03*
X005276Y004120D03*
X005492Y004112D03*
X005496Y004128D03*
X005492Y004008D03*
X005496Y003992D03*
X005496Y003988D03*
X005676Y004000D03*
X005676Y004112D03*
X005676Y004120D03*
X005788Y004188D03*
X005784Y004200D03*
X006788Y004140D03*
X006788Y003980D03*
X006964Y004128D03*
X006856Y004492D03*
X006852Y004500D03*
X006852Y004620D03*
X006856Y004628D03*
X007132Y004640D03*
X007128Y004488D03*
X007132Y004480D03*
X007308Y004628D03*
X007308Y004632D03*
D229*
X007292Y004468D03*
X006032Y004012D03*
X006016Y004060D03*
X006012Y004072D03*
X006008Y004088D03*
X006008Y004092D03*
X006004Y004100D03*
X005936Y004100D03*
X005932Y004092D03*
X005932Y004088D03*
X005928Y004072D03*
X005924Y004060D03*
X005908Y004012D03*
X005564Y003900D03*
X005796Y004400D03*
D230*
X005780Y004212D03*
X006160Y004212D03*
X006420Y004140D03*
X006560Y004120D03*
X006420Y003980D03*
X006880Y003900D03*
X006960Y004132D03*
X006640Y004620D03*
X006640Y004628D03*
X006500Y004500D03*
X006540Y004988D03*
X005140Y004620D03*
X004340Y004620D03*
D231*
X004338Y004616D03*
X004338Y004504D03*
X004530Y004516D03*
X004530Y004524D03*
X004530Y004596D03*
X004530Y004604D03*
X004650Y004604D03*
X004650Y004596D03*
X004650Y004584D03*
X004650Y004576D03*
X004650Y004564D03*
X004650Y004556D03*
X004650Y004544D03*
X004650Y004536D03*
X004650Y004524D03*
X004650Y004516D03*
X004650Y004424D03*
X004650Y004416D03*
X004650Y004404D03*
X004650Y004396D03*
X004650Y004384D03*
X004650Y004376D03*
X004650Y004364D03*
X004650Y004356D03*
X004650Y004344D03*
X004650Y004336D03*
X004650Y004324D03*
X004650Y004316D03*
X004650Y004304D03*
X004650Y004296D03*
X004650Y004284D03*
X004650Y004276D03*
X004650Y004264D03*
X004650Y004256D03*
X004650Y004244D03*
X004650Y004236D03*
X004650Y004224D03*
X004650Y004216D03*
X004650Y004204D03*
X004650Y004196D03*
X004650Y004104D03*
X004650Y004096D03*
X004650Y004084D03*
X004650Y004076D03*
X004650Y004064D03*
X004650Y004056D03*
X004650Y004044D03*
X004650Y004036D03*
X004650Y004024D03*
X004650Y004016D03*
X004650Y004004D03*
X004650Y003996D03*
X004650Y003984D03*
X004650Y003976D03*
X004650Y003964D03*
X004650Y003956D03*
X004650Y003944D03*
X004650Y003936D03*
X004650Y003924D03*
X004650Y003916D03*
X004650Y003904D03*
X004838Y004104D03*
X004838Y004116D03*
X004950Y004016D03*
X004950Y003976D03*
X005138Y003984D03*
X005138Y004136D03*
X005490Y004104D03*
X005490Y004096D03*
X005490Y004084D03*
X005490Y004076D03*
X005490Y004064D03*
X005490Y004056D03*
X005490Y004044D03*
X005490Y004036D03*
X005490Y004024D03*
X005490Y004016D03*
X005678Y004016D03*
X005678Y004024D03*
X005678Y004036D03*
X005678Y004076D03*
X005678Y004084D03*
X005678Y004096D03*
X005678Y004104D03*
X005802Y004136D03*
X005802Y004144D03*
X005798Y004156D03*
X005790Y004176D03*
X005790Y004184D03*
X005782Y004204D03*
X005970Y004184D03*
X006138Y004144D03*
X006138Y004136D03*
X006142Y004156D03*
X006150Y004176D03*
X006150Y004184D03*
X006158Y004204D03*
X006418Y004144D03*
X006422Y004136D03*
X006558Y004104D03*
X006558Y004096D03*
X006558Y004084D03*
X006558Y004076D03*
X006558Y004064D03*
X006558Y004056D03*
X006558Y004044D03*
X006558Y004036D03*
X006558Y004024D03*
X006558Y004016D03*
X006558Y004004D03*
X006558Y003996D03*
X006558Y003984D03*
X006558Y003976D03*
X006558Y003964D03*
X006558Y003956D03*
X006558Y003944D03*
X006558Y003936D03*
X006558Y003924D03*
X006558Y003916D03*
X006558Y003904D03*
X006422Y003984D03*
X006422Y003996D03*
X006558Y004196D03*
X006558Y004204D03*
X006558Y004216D03*
X006502Y004404D03*
X006502Y004416D03*
X006502Y004424D03*
X006502Y004516D03*
X006502Y004524D03*
X006502Y004536D03*
X006502Y004544D03*
X006502Y004556D03*
X006502Y004564D03*
X006502Y004576D03*
X006502Y004584D03*
X006502Y004596D03*
X006502Y004604D03*
X006502Y004616D03*
X006502Y004624D03*
X006502Y004636D03*
X006502Y004644D03*
X006502Y004656D03*
X006502Y004664D03*
X006502Y004676D03*
X006502Y004684D03*
X006502Y004696D03*
X006502Y004704D03*
X006502Y004716D03*
X006638Y004616D03*
X006638Y004604D03*
X006190Y004616D03*
X006190Y004504D03*
X006002Y004504D03*
X005998Y004516D03*
X005998Y004524D03*
X005998Y004536D03*
X005998Y004584D03*
X005998Y004596D03*
X005998Y004604D03*
X006002Y004616D03*
X005870Y004656D03*
X005710Y004636D03*
X005710Y004624D03*
X005710Y004616D03*
X005450Y004616D03*
X005142Y004616D03*
X005138Y004624D03*
X005142Y004604D03*
X004958Y004636D03*
X004838Y004604D03*
X004838Y004596D03*
X004838Y004524D03*
X004838Y004516D03*
X004650Y004696D03*
X004650Y004704D03*
X004650Y004716D03*
X005458Y005096D03*
X006778Y004116D03*
X006778Y004004D03*
X006970Y004096D03*
X006970Y004104D03*
X007130Y004484D03*
X007122Y004504D03*
X007118Y004536D03*
X007122Y004616D03*
X007130Y004636D03*
X007310Y004624D03*
X007310Y004616D03*
X007290Y004464D03*
D232*
X007312Y004596D03*
X007312Y004604D03*
X007124Y004624D03*
X007120Y004604D03*
X007120Y004596D03*
X007120Y004524D03*
X007120Y004516D03*
X006844Y004536D03*
X006844Y004544D03*
X006844Y004556D03*
X006844Y004564D03*
X006844Y004576D03*
X006844Y004584D03*
X006636Y004584D03*
X006636Y004576D03*
X006636Y004564D03*
X006636Y004556D03*
X006636Y004544D03*
X006636Y004536D03*
X006636Y004524D03*
X006636Y004516D03*
X006636Y004504D03*
X006636Y004496D03*
X006636Y004484D03*
X006636Y004476D03*
X006636Y004464D03*
X006636Y004456D03*
X006636Y004444D03*
X006636Y004436D03*
X006636Y004424D03*
X006636Y004416D03*
X006636Y004404D03*
X006672Y004216D03*
X006780Y004124D03*
X006776Y004104D03*
X006776Y004096D03*
X006776Y004016D03*
X006780Y003996D03*
X006424Y004004D03*
X006424Y004016D03*
X006424Y004024D03*
X006424Y004096D03*
X006424Y004104D03*
X006424Y004116D03*
X006424Y004124D03*
X006424Y003924D03*
X006424Y003916D03*
X006424Y003904D03*
X006232Y003984D03*
X006104Y004024D03*
X006108Y004036D03*
X006112Y004056D03*
X006116Y004064D03*
X006120Y004076D03*
X006120Y004084D03*
X006124Y004096D03*
X006128Y004104D03*
X006132Y004116D03*
X005828Y004056D03*
X005824Y004064D03*
X005820Y004076D03*
X005820Y004084D03*
X005816Y004096D03*
X005812Y004104D03*
X005808Y004116D03*
X005832Y004036D03*
X005836Y004024D03*
X005680Y004044D03*
X005680Y004056D03*
X005680Y004064D03*
X005680Y004196D03*
X005680Y004204D03*
X005680Y004216D03*
X005680Y004224D03*
X005680Y004236D03*
X005680Y004244D03*
X005680Y004256D03*
X005680Y004264D03*
X005680Y004276D03*
X005680Y004284D03*
X005680Y004296D03*
X005680Y004304D03*
X005680Y004316D03*
X005680Y004324D03*
X005680Y004336D03*
X005680Y004344D03*
X005564Y004216D03*
X005388Y004216D03*
X005452Y004404D03*
X005452Y004416D03*
X005452Y004424D03*
X005452Y004436D03*
X005452Y004444D03*
X005452Y004456D03*
X005452Y004464D03*
X005452Y004476D03*
X005452Y004484D03*
X005452Y004496D03*
X005452Y004504D03*
X005452Y004516D03*
X005452Y004524D03*
X005452Y004536D03*
X005452Y004544D03*
X005452Y004556D03*
X005452Y004564D03*
X005452Y004576D03*
X005452Y004584D03*
X005452Y004596D03*
X005452Y004604D03*
X005264Y004604D03*
X005264Y004596D03*
X005264Y004584D03*
X005264Y004576D03*
X005264Y004564D03*
X005264Y004556D03*
X005264Y004544D03*
X005264Y004536D03*
X005264Y004524D03*
X005264Y004516D03*
X005264Y004504D03*
X005264Y004496D03*
X005264Y004484D03*
X005264Y004476D03*
X005264Y004464D03*
X005264Y004456D03*
X005264Y004444D03*
X005264Y004436D03*
X005264Y004424D03*
X005264Y004416D03*
X005264Y004404D03*
X005120Y004464D03*
X005144Y004596D03*
X005264Y004696D03*
X005264Y004704D03*
X005264Y004716D03*
X004952Y004616D03*
X004948Y004604D03*
X004948Y004596D03*
X004948Y004536D03*
X004948Y004524D03*
X004948Y004516D03*
X004952Y004504D03*
X004840Y004536D03*
X004840Y004544D03*
X004840Y004556D03*
X004840Y004564D03*
X004840Y004576D03*
X004840Y004584D03*
X004532Y004584D03*
X004532Y004576D03*
X004532Y004564D03*
X004532Y004556D03*
X004532Y004544D03*
X004532Y004536D03*
X004336Y004524D03*
X004336Y004516D03*
X004336Y004604D03*
X004764Y004216D03*
X004840Y004096D03*
X004840Y004084D03*
X004840Y004076D03*
X004840Y004064D03*
X004840Y004056D03*
X004840Y004044D03*
X004840Y004036D03*
X004840Y004024D03*
X004840Y004016D03*
X004840Y004004D03*
X004840Y003996D03*
X004840Y003984D03*
X004840Y003976D03*
X004840Y003964D03*
X004840Y003956D03*
X004840Y003944D03*
X004840Y003936D03*
X004840Y003924D03*
X004840Y003916D03*
X004840Y003904D03*
X004948Y003984D03*
X004948Y004004D03*
X005140Y004004D03*
X005140Y003996D03*
X005140Y004016D03*
X005140Y004024D03*
X005140Y004096D03*
X005140Y004104D03*
X005140Y004116D03*
X005140Y004124D03*
X005140Y003924D03*
X005140Y003916D03*
X005140Y003904D03*
X005680Y003904D03*
X005680Y003916D03*
X005680Y003924D03*
X005896Y004496D03*
X005896Y004504D03*
X005996Y004544D03*
X005996Y004556D03*
X005996Y004564D03*
X005996Y004576D03*
X006192Y004604D03*
X006192Y004516D03*
X006312Y004536D03*
X006312Y004544D03*
X006312Y004556D03*
X006312Y004564D03*
X006312Y004576D03*
X006312Y004584D03*
X006312Y004596D03*
X006312Y004604D03*
X006312Y004616D03*
X006312Y004624D03*
X006312Y004636D03*
X006312Y004644D03*
X006312Y004656D03*
X006312Y004664D03*
X006312Y004676D03*
X006312Y004684D03*
X006312Y004696D03*
X006312Y004704D03*
X006312Y004716D03*
X006636Y004716D03*
X006636Y004704D03*
X006636Y004696D03*
X006636Y004596D03*
D233*
X006882Y004656D03*
X006882Y004464D03*
X006938Y003956D03*
X006338Y004464D03*
X005970Y004144D03*
X005970Y004136D03*
X005798Y004404D03*
X005798Y004716D03*
X005030Y003904D03*
X006538Y006824D03*
D234*
X006846Y004604D03*
X006846Y004596D03*
X006846Y004524D03*
X006846Y004516D03*
X007126Y004496D03*
X006966Y004116D03*
X006786Y004136D03*
X006774Y004024D03*
X006314Y004504D03*
X006314Y004516D03*
X006314Y004524D03*
X006194Y004524D03*
X006194Y004536D03*
X006194Y004544D03*
X006194Y004556D03*
X006194Y004564D03*
X006194Y004576D03*
X006194Y004584D03*
X006194Y004596D03*
X005894Y004516D03*
X005894Y004484D03*
X005714Y004644D03*
X005266Y004616D03*
X004954Y004624D03*
X004954Y004496D03*
X005274Y004216D03*
X005274Y004204D03*
X005274Y004196D03*
X005274Y004184D03*
X005274Y004104D03*
X005274Y004096D03*
X005274Y004084D03*
X005274Y004076D03*
X005274Y004064D03*
X005274Y004056D03*
X005274Y004044D03*
X005274Y004036D03*
X005274Y004024D03*
X005274Y004016D03*
X005274Y004004D03*
X005274Y003996D03*
X005274Y003984D03*
X005274Y003976D03*
X005274Y003964D03*
X005274Y003956D03*
X005274Y003944D03*
X005274Y003936D03*
X005274Y003924D03*
X005274Y003916D03*
X005274Y003904D03*
X005494Y003996D03*
X005494Y004116D03*
X005786Y004196D03*
X005794Y004164D03*
X005806Y004124D03*
X005874Y003916D03*
X006066Y003916D03*
X006234Y003976D03*
X006234Y004016D03*
X006134Y004124D03*
X006146Y004164D03*
X006154Y004196D03*
X004526Y004504D03*
X004526Y004616D03*
X004334Y004596D03*
X004334Y004584D03*
X004334Y004576D03*
X004334Y004564D03*
X004334Y004556D03*
X004334Y004544D03*
X004334Y004536D03*
D235*
X004658Y004136D03*
X004826Y004144D03*
X005126Y004156D03*
X005130Y003964D03*
X005502Y004144D03*
X005670Y003976D03*
X005566Y003904D03*
X005874Y003936D03*
X005874Y003944D03*
X006066Y003944D03*
X006066Y003936D03*
X005970Y004164D03*
X005882Y004464D03*
X005722Y004656D03*
X005274Y004644D03*
X005118Y004656D03*
X005046Y004716D03*
X004974Y004656D03*
X006326Y004476D03*
X006410Y004156D03*
X006414Y003964D03*
X006802Y003964D03*
X006802Y004156D03*
X006866Y004476D03*
X006866Y004644D03*
X006954Y004716D03*
X007146Y004656D03*
D236*
X006946Y003964D03*
X006066Y003904D03*
X006034Y004004D03*
X005906Y004004D03*
X005874Y003904D03*
X004946Y003996D03*
D237*
X004974Y003956D03*
X005426Y004656D03*
X005874Y003964D03*
X006066Y003964D03*
X006314Y003904D03*
D238*
X006256Y003956D03*
X006880Y003904D03*
X005660Y003964D03*
X005516Y004156D03*
X004812Y004156D03*
X005112Y006824D03*
D239*
X005110Y004988D03*
X005142Y004612D03*
X005142Y004608D03*
X005142Y004588D03*
X004962Y004640D03*
X004958Y004632D03*
X004950Y004608D03*
X004950Y004512D03*
X004958Y004488D03*
X004838Y004508D03*
X004838Y004512D03*
X004838Y004520D03*
X004838Y004528D03*
X004838Y004592D03*
X004838Y004600D03*
X004838Y004608D03*
X004838Y004612D03*
X004650Y004600D03*
X004650Y004592D03*
X004650Y004588D03*
X004650Y004580D03*
X004650Y004572D03*
X004650Y004568D03*
X004650Y004560D03*
X004650Y004552D03*
X004650Y004548D03*
X004650Y004540D03*
X004650Y004532D03*
X004650Y004528D03*
X004650Y004520D03*
X004650Y004432D03*
X004650Y004428D03*
X004650Y004420D03*
X004650Y004412D03*
X004650Y004408D03*
X004650Y004400D03*
X004650Y004392D03*
X004650Y004388D03*
X004650Y004380D03*
X004650Y004372D03*
X004650Y004368D03*
X004650Y004360D03*
X004650Y004352D03*
X004650Y004348D03*
X004650Y004340D03*
X004650Y004332D03*
X004650Y004328D03*
X004650Y004320D03*
X004650Y004312D03*
X004650Y004308D03*
X004650Y004300D03*
X004650Y004292D03*
X004650Y004288D03*
X004650Y004280D03*
X004650Y004272D03*
X004650Y004268D03*
X004650Y004260D03*
X004650Y004252D03*
X004650Y004248D03*
X004650Y004240D03*
X004650Y004232D03*
X004650Y004228D03*
X004650Y004220D03*
X004650Y004212D03*
X004650Y004208D03*
X004650Y004200D03*
X004650Y004192D03*
X004650Y004188D03*
X004650Y004112D03*
X004650Y004108D03*
X004650Y004100D03*
X004650Y004092D03*
X004650Y004088D03*
X004650Y004080D03*
X004650Y004072D03*
X004650Y004068D03*
X004650Y004060D03*
X004650Y004052D03*
X004650Y004048D03*
X004650Y004040D03*
X004650Y004032D03*
X004650Y004028D03*
X004650Y004020D03*
X004650Y004012D03*
X004650Y004008D03*
X004650Y004000D03*
X004650Y003992D03*
X004650Y003988D03*
X004650Y003980D03*
X004650Y003972D03*
X004650Y003968D03*
X004650Y003960D03*
X004650Y003952D03*
X004650Y003948D03*
X004650Y003940D03*
X004650Y003932D03*
X004650Y003928D03*
X004650Y003920D03*
X004650Y003912D03*
X004650Y003908D03*
X004838Y004100D03*
X004838Y004108D03*
X004838Y004112D03*
X004530Y004512D03*
X004530Y004520D03*
X004530Y004528D03*
X004530Y004532D03*
X004530Y004588D03*
X004530Y004592D03*
X004530Y004600D03*
X004530Y004608D03*
X004650Y004688D03*
X004650Y004692D03*
X004650Y004700D03*
X004650Y004708D03*
X004650Y004712D03*
X004338Y004612D03*
X004338Y004608D03*
X004338Y004512D03*
X004338Y004508D03*
X004338Y004500D03*
X004342Y004492D03*
X005138Y004140D03*
X005138Y004132D03*
X005138Y003992D03*
X005138Y003988D03*
X005138Y003980D03*
X005490Y004012D03*
X005490Y004020D03*
X005490Y004028D03*
X005490Y004032D03*
X005490Y004040D03*
X005490Y004048D03*
X005490Y004052D03*
X005490Y004060D03*
X005490Y004068D03*
X005490Y004072D03*
X005490Y004080D03*
X005490Y004088D03*
X005490Y004092D03*
X005490Y004100D03*
X005490Y004108D03*
X005678Y004108D03*
X005678Y004100D03*
X005678Y004092D03*
X005678Y004088D03*
X005678Y004080D03*
X005678Y004040D03*
X005678Y004032D03*
X005678Y004028D03*
X005678Y004020D03*
X005678Y004012D03*
X005678Y004008D03*
X005810Y004112D03*
X005802Y004140D03*
X005798Y004152D03*
X005790Y004180D03*
X005782Y004208D03*
X005970Y004192D03*
X005970Y004188D03*
X006138Y004140D03*
X006142Y004148D03*
X006142Y004152D03*
X006150Y004180D03*
X006158Y004208D03*
X006130Y004112D03*
X006270Y004160D03*
X006422Y004132D03*
X006422Y004128D03*
X006422Y004088D03*
X006422Y004000D03*
X006422Y003992D03*
X006422Y003988D03*
X006558Y003988D03*
X006558Y003992D03*
X006558Y004000D03*
X006558Y004008D03*
X006558Y004012D03*
X006558Y004020D03*
X006558Y004028D03*
X006558Y004032D03*
X006558Y004040D03*
X006558Y004048D03*
X006558Y004052D03*
X006558Y004060D03*
X006558Y004068D03*
X006558Y004072D03*
X006558Y004080D03*
X006558Y004088D03*
X006558Y004092D03*
X006558Y004100D03*
X006558Y004108D03*
X006558Y004112D03*
X006558Y004188D03*
X006558Y004192D03*
X006558Y004200D03*
X006558Y004208D03*
X006558Y004212D03*
X006502Y004408D03*
X006502Y004412D03*
X006502Y004420D03*
X006502Y004428D03*
X006502Y004432D03*
X006502Y004508D03*
X006502Y004512D03*
X006502Y004520D03*
X006502Y004528D03*
X006502Y004532D03*
X006502Y004540D03*
X006502Y004548D03*
X006502Y004552D03*
X006502Y004560D03*
X006502Y004568D03*
X006502Y004572D03*
X006502Y004580D03*
X006502Y004588D03*
X006502Y004592D03*
X006502Y004600D03*
X006502Y004608D03*
X006502Y004612D03*
X006502Y004620D03*
X006502Y004628D03*
X006502Y004632D03*
X006502Y004640D03*
X006502Y004648D03*
X006502Y004652D03*
X006502Y004660D03*
X006502Y004668D03*
X006502Y004672D03*
X006502Y004680D03*
X006502Y004688D03*
X006502Y004692D03*
X006502Y004700D03*
X006502Y004708D03*
X006502Y004712D03*
X006638Y004612D03*
X006638Y004608D03*
X006850Y004608D03*
X006850Y004612D03*
X006850Y004512D03*
X006850Y004508D03*
X007118Y004528D03*
X007118Y004532D03*
X007122Y004508D03*
X007118Y004588D03*
X007310Y004620D03*
X006970Y004108D03*
X006970Y004100D03*
X006970Y004092D03*
X006970Y004088D03*
X006782Y004128D03*
X006778Y004000D03*
X006782Y003992D03*
X006782Y003988D03*
X006558Y003980D03*
X006558Y003972D03*
X006558Y003968D03*
X006558Y003960D03*
X006558Y003952D03*
X006558Y003948D03*
X006558Y003940D03*
X006558Y003932D03*
X006558Y003928D03*
X006558Y003920D03*
X006558Y003912D03*
X006558Y003908D03*
X006190Y004500D03*
X006190Y004508D03*
X006190Y004612D03*
X006190Y004620D03*
X006002Y004620D03*
X006002Y004612D03*
X005998Y004608D03*
X005998Y004600D03*
X005998Y004592D03*
X005998Y004588D03*
X005998Y004532D03*
X005998Y004528D03*
X005998Y004520D03*
X005998Y004512D03*
X006002Y004508D03*
X006002Y004500D03*
X005710Y004620D03*
X005710Y004628D03*
X005710Y004632D03*
X005450Y004620D03*
X005450Y004612D03*
X005450Y004608D03*
D240*
X005452Y004600D03*
X005452Y004592D03*
X005452Y004588D03*
X005452Y004580D03*
X005452Y004572D03*
X005452Y004568D03*
X005452Y004560D03*
X005452Y004552D03*
X005452Y004548D03*
X005452Y004540D03*
X005452Y004532D03*
X005452Y004528D03*
X005452Y004520D03*
X005452Y004512D03*
X005452Y004508D03*
X005452Y004500D03*
X005452Y004492D03*
X005452Y004488D03*
X005452Y004480D03*
X005452Y004472D03*
X005452Y004468D03*
X005452Y004460D03*
X005452Y004452D03*
X005452Y004448D03*
X005452Y004440D03*
X005452Y004432D03*
X005452Y004428D03*
X005452Y004420D03*
X005452Y004412D03*
X005452Y004408D03*
X005264Y004408D03*
X005264Y004412D03*
X005264Y004420D03*
X005264Y004428D03*
X005264Y004432D03*
X005264Y004440D03*
X005264Y004448D03*
X005264Y004452D03*
X005264Y004460D03*
X005264Y004468D03*
X005264Y004472D03*
X005264Y004480D03*
X005264Y004488D03*
X005264Y004492D03*
X005264Y004500D03*
X005264Y004508D03*
X005264Y004512D03*
X005264Y004520D03*
X005264Y004528D03*
X005264Y004532D03*
X005264Y004540D03*
X005264Y004548D03*
X005264Y004552D03*
X005264Y004560D03*
X005264Y004568D03*
X005264Y004572D03*
X005264Y004580D03*
X005264Y004588D03*
X005264Y004592D03*
X005264Y004600D03*
X005264Y004608D03*
X005264Y004688D03*
X005264Y004692D03*
X005264Y004700D03*
X005264Y004708D03*
X005264Y004712D03*
X005144Y004600D03*
X005144Y004592D03*
X004956Y004628D03*
X004952Y004620D03*
X004952Y004612D03*
X004948Y004600D03*
X004948Y004592D03*
X004948Y004588D03*
X004948Y004532D03*
X004948Y004528D03*
X004948Y004520D03*
X004952Y004508D03*
X004840Y004532D03*
X004840Y004540D03*
X004840Y004548D03*
X004840Y004552D03*
X004840Y004560D03*
X004840Y004568D03*
X004840Y004572D03*
X004840Y004580D03*
X004840Y004588D03*
X004532Y004580D03*
X004532Y004572D03*
X004532Y004568D03*
X004532Y004560D03*
X004532Y004552D03*
X004532Y004548D03*
X004532Y004540D03*
X004528Y004508D03*
X004528Y004612D03*
X004336Y004600D03*
X004336Y004520D03*
X004840Y004092D03*
X004840Y004088D03*
X004840Y004080D03*
X004840Y004072D03*
X004840Y004068D03*
X004840Y004060D03*
X004840Y004052D03*
X004840Y004048D03*
X004840Y004040D03*
X004840Y004032D03*
X004840Y004028D03*
X004840Y004020D03*
X004840Y004012D03*
X004840Y004008D03*
X004840Y004000D03*
X004840Y003992D03*
X004840Y003988D03*
X004840Y003980D03*
X004840Y003972D03*
X004840Y003968D03*
X004840Y003960D03*
X004840Y003952D03*
X004840Y003948D03*
X004840Y003940D03*
X004840Y003932D03*
X004840Y003928D03*
X004840Y003920D03*
X004840Y003912D03*
X004840Y003908D03*
X004948Y003980D03*
X004948Y003988D03*
X004948Y004008D03*
X004948Y004012D03*
X005140Y004012D03*
X005140Y004008D03*
X005140Y004000D03*
X005140Y004020D03*
X005140Y004028D03*
X005140Y004032D03*
X005140Y004088D03*
X005140Y004092D03*
X005140Y004100D03*
X005140Y004108D03*
X005140Y004112D03*
X005140Y004120D03*
X005140Y004128D03*
X005140Y003920D03*
X005140Y003912D03*
X005140Y003908D03*
X005680Y003908D03*
X005680Y003912D03*
X005680Y003920D03*
X005680Y003928D03*
X005680Y004048D03*
X005680Y004052D03*
X005680Y004060D03*
X005680Y004068D03*
X005680Y004072D03*
X005680Y004188D03*
X005680Y004192D03*
X005680Y004200D03*
X005680Y004208D03*
X005680Y004212D03*
X005680Y004220D03*
X005680Y004228D03*
X005680Y004232D03*
X005680Y004240D03*
X005680Y004248D03*
X005680Y004252D03*
X005680Y004260D03*
X005680Y004268D03*
X005680Y004272D03*
X005680Y004280D03*
X005680Y004288D03*
X005680Y004292D03*
X005680Y004300D03*
X005680Y004308D03*
X005680Y004312D03*
X005680Y004320D03*
X005680Y004328D03*
X005680Y004332D03*
X005680Y004340D03*
X005708Y004472D03*
X005896Y004492D03*
X005896Y004500D03*
X005996Y004540D03*
X005996Y004548D03*
X005996Y004552D03*
X005996Y004560D03*
X005996Y004568D03*
X005996Y004572D03*
X005996Y004580D03*
X006192Y004608D03*
X006192Y004512D03*
X006312Y004528D03*
X006312Y004532D03*
X006312Y004540D03*
X006312Y004548D03*
X006312Y004552D03*
X006312Y004560D03*
X006312Y004568D03*
X006312Y004572D03*
X006312Y004580D03*
X006312Y004588D03*
X006312Y004592D03*
X006312Y004600D03*
X006312Y004608D03*
X006312Y004612D03*
X006312Y004620D03*
X006312Y004628D03*
X006312Y004632D03*
X006312Y004640D03*
X006312Y004648D03*
X006312Y004652D03*
X006312Y004660D03*
X006312Y004668D03*
X006312Y004672D03*
X006312Y004680D03*
X006312Y004688D03*
X006312Y004692D03*
X006312Y004700D03*
X006312Y004708D03*
X006312Y004712D03*
X006636Y004712D03*
X006636Y004708D03*
X006636Y004700D03*
X006636Y004692D03*
X006636Y004688D03*
X006636Y004600D03*
X006636Y004592D03*
X006636Y004588D03*
X006636Y004580D03*
X006636Y004572D03*
X006636Y004568D03*
X006636Y004560D03*
X006636Y004552D03*
X006636Y004548D03*
X006636Y004540D03*
X006636Y004532D03*
X006636Y004528D03*
X006636Y004520D03*
X006636Y004512D03*
X006636Y004508D03*
X006636Y004500D03*
X006636Y004492D03*
X006636Y004488D03*
X006636Y004480D03*
X006636Y004472D03*
X006636Y004468D03*
X006636Y004460D03*
X006636Y004452D03*
X006636Y004448D03*
X006636Y004440D03*
X006636Y004432D03*
X006636Y004428D03*
X006636Y004420D03*
X006636Y004412D03*
X006636Y004408D03*
X006844Y004540D03*
X006844Y004548D03*
X006844Y004552D03*
X006844Y004560D03*
X006844Y004568D03*
X006844Y004572D03*
X006844Y004580D03*
X007020Y004652D03*
X007120Y004612D03*
X007120Y004608D03*
X007120Y004600D03*
X007120Y004592D03*
X007124Y004620D03*
X007128Y004632D03*
X007120Y004520D03*
X007120Y004512D03*
X007124Y004500D03*
X007020Y004468D03*
X007312Y004588D03*
X007312Y004592D03*
X007312Y004600D03*
X007312Y004608D03*
X007312Y004612D03*
X006780Y004120D03*
X006776Y004112D03*
X006776Y004108D03*
X006776Y004100D03*
X006772Y004092D03*
X006772Y004032D03*
X006772Y004028D03*
X006776Y004020D03*
X006776Y004012D03*
X006776Y004008D03*
X006424Y004008D03*
X006424Y004012D03*
X006424Y004020D03*
X006424Y004028D03*
X006424Y004032D03*
X006424Y004092D03*
X006424Y004100D03*
X006424Y004108D03*
X006424Y004112D03*
X006424Y004120D03*
X006424Y003920D03*
X006424Y003912D03*
X006424Y003908D03*
X006232Y003980D03*
X006232Y003988D03*
X006232Y004008D03*
X006232Y004012D03*
X006236Y004020D03*
X006112Y004048D03*
X006112Y004052D03*
X006108Y004040D03*
X006116Y004068D03*
X006120Y004080D03*
X006124Y004088D03*
X006124Y004092D03*
X006128Y004108D03*
X006132Y004120D03*
X006136Y004132D03*
X006144Y004160D03*
X006100Y004012D03*
X006064Y003908D03*
X005876Y003908D03*
X005840Y004012D03*
X005832Y004040D03*
X005828Y004052D03*
X005824Y004068D03*
X005820Y004080D03*
X005816Y004088D03*
X005816Y004092D03*
X005812Y004108D03*
X005808Y004120D03*
X005804Y004132D03*
X005800Y004148D03*
X005796Y004160D03*
X006188Y005092D03*
X006540Y006840D03*
X005108Y006840D03*
D241*
X006872Y004208D03*
X006312Y003908D03*
X005028Y003908D03*
D242*
X004954Y004020D03*
X004986Y004160D03*
X005274Y004188D03*
X005274Y004192D03*
X005274Y004200D03*
X005274Y004208D03*
X005274Y004212D03*
X005274Y004112D03*
X005274Y004108D03*
X005274Y004100D03*
X005274Y004092D03*
X005274Y004088D03*
X005274Y004080D03*
X005274Y004072D03*
X005274Y004068D03*
X005274Y004060D03*
X005274Y004052D03*
X005274Y004048D03*
X005274Y004040D03*
X005274Y004032D03*
X005274Y004028D03*
X005274Y004020D03*
X005274Y004012D03*
X005274Y004008D03*
X005274Y004000D03*
X005274Y003992D03*
X005274Y003988D03*
X005274Y003980D03*
X005274Y003972D03*
X005274Y003968D03*
X005274Y003960D03*
X005274Y003952D03*
X005274Y003948D03*
X005274Y003940D03*
X005274Y003932D03*
X005274Y003928D03*
X005274Y003920D03*
X005274Y003912D03*
X005274Y003908D03*
X005494Y004000D03*
X005494Y004120D03*
X005786Y004192D03*
X005794Y004172D03*
X005794Y004168D03*
X005806Y004128D03*
X005814Y004100D03*
X005874Y003912D03*
X006066Y003912D03*
X006126Y004100D03*
X006134Y004128D03*
X006146Y004168D03*
X006146Y004172D03*
X006154Y004192D03*
X006186Y004492D03*
X006194Y004520D03*
X006194Y004528D03*
X006194Y004532D03*
X006194Y004540D03*
X006194Y004548D03*
X006194Y004552D03*
X006194Y004560D03*
X006194Y004568D03*
X006194Y004572D03*
X006194Y004580D03*
X006194Y004588D03*
X006194Y004592D03*
X006194Y004600D03*
X006186Y004628D03*
X006314Y004520D03*
X006314Y004512D03*
X006314Y004508D03*
X005894Y004508D03*
X005894Y004512D03*
X005894Y004488D03*
X005894Y004480D03*
X005714Y004608D03*
X005266Y004612D03*
X005266Y004620D03*
X004954Y004500D03*
X004526Y004500D03*
X004526Y004620D03*
X004334Y004592D03*
X004334Y004588D03*
X004334Y004580D03*
X004334Y004572D03*
X004334Y004568D03*
X004334Y004560D03*
X004334Y004552D03*
X004334Y004548D03*
X004334Y004540D03*
X004334Y004532D03*
X004334Y004528D03*
X006774Y004088D03*
X006786Y004132D03*
X006966Y004120D03*
X006966Y004112D03*
X007126Y004492D03*
X007126Y004628D03*
X006846Y004600D03*
X006846Y004592D03*
X006846Y004588D03*
X006846Y004532D03*
X006846Y004528D03*
X006846Y004520D03*
D243*
X006672Y004208D03*
X007216Y004712D03*
X005564Y004208D03*
X005388Y004208D03*
X005292Y004152D03*
X005564Y003908D03*
X004764Y004208D03*
X004668Y004152D03*
D244*
X004432Y004412D03*
X004432Y004708D03*
X005388Y004200D03*
X005800Y004712D03*
X005440Y005120D03*
X006672Y004200D03*
X006880Y003908D03*
D245*
X006388Y004420D03*
X005028Y003912D03*
X004764Y004700D03*
D246*
X005054Y004408D03*
X005114Y005008D03*
X005742Y004592D03*
X005866Y004532D03*
X005874Y003992D03*
X005874Y003988D03*
X006066Y003988D03*
X006066Y003992D03*
X005654Y003960D03*
X005566Y003912D03*
D247*
X006310Y003912D03*
X006750Y004700D03*
D248*
X006872Y004200D03*
X006880Y003912D03*
X006328Y004208D03*
X006216Y005128D03*
X005436Y005128D03*
X005380Y004188D03*
X005044Y004208D03*
D249*
X004764Y004196D03*
X004764Y004424D03*
X004764Y004696D03*
X004432Y004704D03*
X004432Y004416D03*
X005028Y003916D03*
X005376Y004696D03*
X006096Y004704D03*
X006096Y004416D03*
X006388Y004424D03*
D250*
X005564Y003916D03*
D251*
X005378Y004184D03*
X006310Y003916D03*
X006670Y004196D03*
X006750Y004696D03*
D252*
X006532Y005024D03*
X006328Y004204D03*
X006308Y003924D03*
X006880Y003916D03*
X005048Y004696D03*
D253*
X005566Y004188D03*
X005566Y003928D03*
X005026Y003920D03*
D254*
X005054Y004412D03*
X005566Y003920D03*
X006666Y004192D03*
X006746Y004692D03*
X007226Y004412D03*
X006534Y006808D03*
X005114Y006808D03*
D255*
X005376Y004692D03*
X005796Y004412D03*
X006096Y004420D03*
X006096Y004700D03*
X006388Y004428D03*
X006308Y003920D03*
X004764Y004192D03*
X004764Y004428D03*
X004764Y004692D03*
X004432Y004700D03*
X004432Y004420D03*
D256*
X005046Y004692D03*
X006882Y003920D03*
X007218Y004692D03*
D257*
X007216Y004696D03*
X005844Y004536D03*
X005024Y003924D03*
D258*
X005566Y003924D03*
X006954Y004416D03*
X006954Y004704D03*
D259*
X006862Y004636D03*
X006862Y004484D03*
X007134Y004476D03*
X007298Y004644D03*
X006954Y004144D03*
X006242Y003964D03*
X006066Y003924D03*
X005874Y003924D03*
X005674Y004124D03*
X005498Y004136D03*
X005498Y003984D03*
X005278Y004124D03*
X004966Y004476D03*
X004766Y004404D03*
X004654Y004496D03*
X004654Y004624D03*
X004766Y004716D03*
X005134Y004636D03*
X005378Y004716D03*
X006182Y004636D03*
X006182Y004484D03*
X004654Y004124D03*
X004346Y004484D03*
X004346Y004636D03*
D260*
X005082Y004084D03*
X006882Y003924D03*
D261*
X005596Y004180D03*
X005348Y004680D03*
X005056Y003928D03*
X005124Y006772D03*
D262*
X006194Y005100D03*
X006642Y004632D03*
X006498Y004492D03*
X006498Y004488D03*
X006318Y004488D03*
X006318Y004492D03*
X006182Y004480D03*
X005886Y004468D03*
X005718Y004652D03*
X005446Y004632D03*
X005126Y004648D03*
X004966Y004648D03*
X004834Y004628D03*
X004834Y004492D03*
X004962Y004480D03*
X004654Y004492D03*
X004522Y004488D03*
X004518Y004480D03*
X004522Y004632D03*
X004518Y004640D03*
X004654Y004628D03*
X004654Y004128D03*
X004834Y004128D03*
X004834Y004132D03*
X004958Y004028D03*
X005134Y003968D03*
X005278Y004128D03*
X005498Y004132D03*
X005674Y004128D03*
X005674Y003992D03*
X005674Y003988D03*
X005874Y003932D03*
X005874Y003928D03*
X006066Y003928D03*
X006066Y003932D03*
X006238Y003968D03*
X006242Y004028D03*
X006418Y003972D03*
X006418Y003968D03*
X006414Y004152D03*
X006562Y004132D03*
X006562Y004128D03*
X006794Y004148D03*
X006958Y004140D03*
X006946Y003960D03*
X006794Y003972D03*
X006858Y004488D03*
X006858Y004632D03*
X007138Y004648D03*
X007142Y004652D03*
X007302Y004640D03*
X007138Y004472D03*
D263*
X006340Y004060D03*
X006340Y003928D03*
D264*
X006620Y004168D03*
X006880Y003928D03*
X006700Y004668D03*
X005120Y006788D03*
D265*
X004734Y004680D03*
X004734Y004440D03*
X004734Y004180D03*
X005054Y004052D03*
X005054Y003932D03*
X005594Y003940D03*
X006338Y003932D03*
X006338Y004052D03*
X006418Y004440D03*
D266*
X005802Y004672D03*
X005798Y004668D03*
X005598Y003932D03*
X005058Y004060D03*
X005058Y004448D03*
X006878Y003952D03*
X006882Y003948D03*
D267*
X006882Y003932D03*
X006874Y004172D03*
X006626Y004180D03*
X006330Y004188D03*
X005794Y004428D03*
X005806Y004560D03*
X005798Y004568D03*
X005794Y004572D03*
X005342Y004180D03*
X005046Y004188D03*
D268*
X005052Y003936D03*
X005592Y003944D03*
D269*
X005596Y003936D03*
X005056Y004056D03*
X004732Y004184D03*
X004732Y004436D03*
X004732Y004684D03*
X006952Y004664D03*
X006952Y004456D03*
D270*
X006336Y003936D03*
X004736Y004444D03*
X004736Y004676D03*
D271*
X005046Y004184D03*
X006882Y003936D03*
D272*
X005792Y004440D03*
X005592Y004172D03*
X005592Y004168D03*
X005592Y003948D03*
X005052Y003940D03*
X005052Y004048D03*
X005352Y004668D03*
X005352Y004672D03*
D273*
X005122Y004652D03*
X005118Y004460D03*
X005282Y004140D03*
X005506Y004148D03*
X005670Y004140D03*
X005874Y003940D03*
X006066Y003940D03*
X006250Y004032D03*
X005970Y004160D03*
X005970Y004168D03*
X006018Y004472D03*
X005882Y004528D03*
X006018Y004648D03*
X006174Y004648D03*
X006174Y004472D03*
X006494Y004480D03*
X006646Y004640D03*
X006870Y004648D03*
X006870Y004472D03*
X007142Y004468D03*
X007294Y004652D03*
X006946Y004152D03*
X006566Y004140D03*
X004966Y004032D03*
X004658Y004140D03*
X004658Y004480D03*
X004510Y004472D03*
X004354Y004472D03*
X004354Y004648D03*
X004510Y004648D03*
X004658Y004640D03*
X004826Y004472D03*
X005110Y006832D03*
D274*
X005124Y006768D03*
X006524Y006768D03*
X004736Y004672D03*
X004736Y004448D03*
X004736Y004172D03*
X006336Y004048D03*
X006336Y003940D03*
X006416Y004448D03*
D275*
X006330Y004180D03*
X006882Y003940D03*
X005062Y004068D03*
D276*
X005050Y004044D03*
X005050Y003944D03*
X004738Y004164D03*
X004738Y004456D03*
X004738Y004664D03*
X005354Y004664D03*
X005790Y004444D03*
X005590Y004164D03*
X005590Y003956D03*
X006334Y003944D03*
X006334Y004044D03*
X006414Y004456D03*
D277*
X006328Y004176D03*
X006344Y004064D03*
X006096Y004456D03*
X006096Y004664D03*
X005796Y004664D03*
X005056Y004444D03*
X005044Y004176D03*
X005060Y004064D03*
X004432Y004456D03*
X004432Y004664D03*
X006884Y003944D03*
X007220Y004456D03*
D278*
X006412Y004460D03*
X006332Y003952D03*
X006332Y003948D03*
X005048Y003948D03*
X005048Y003952D03*
X004740Y004160D03*
X004740Y004460D03*
X004740Y004660D03*
D279*
X004662Y004648D03*
X004506Y004652D03*
X004662Y004472D03*
X004766Y004408D03*
X004818Y004152D03*
X004822Y004148D03*
X005126Y003960D03*
X005666Y004148D03*
X005874Y003952D03*
X005874Y003948D03*
X006066Y003948D03*
X006066Y003952D03*
X006022Y004468D03*
X006022Y004652D03*
X006334Y004468D03*
X006874Y004468D03*
X006874Y004652D03*
X007282Y004660D03*
X006806Y003960D03*
X005434Y004652D03*
X005278Y004648D03*
X004982Y004660D03*
X006538Y006828D03*
D280*
X005126Y005060D03*
X005354Y004660D03*
X005590Y004160D03*
X005590Y003952D03*
X005050Y004040D03*
X004738Y004168D03*
X004738Y004452D03*
X004738Y004668D03*
X006414Y004452D03*
X006334Y004040D03*
D281*
X005656Y004156D03*
X005296Y004156D03*
X005116Y003956D03*
X006536Y005004D03*
D282*
X006538Y004996D03*
X006326Y004216D03*
X006066Y003956D03*
X005874Y003956D03*
X005054Y004404D03*
X006942Y004156D03*
X007226Y004404D03*
D283*
X006580Y004156D03*
X006400Y003956D03*
D284*
X006818Y003956D03*
X006482Y004464D03*
X006658Y004656D03*
X005970Y004124D03*
X004670Y004464D03*
X004670Y004656D03*
D285*
X004824Y004648D03*
X004764Y004212D03*
X004964Y003960D03*
X005564Y004212D03*
X005436Y004648D03*
D286*
X005970Y004132D03*
X005970Y004128D03*
X005518Y003960D03*
X006202Y005112D03*
X006750Y004708D03*
D287*
X006388Y004408D03*
X006572Y004148D03*
X006872Y004212D03*
X005876Y004460D03*
X005876Y003960D03*
X005664Y003968D03*
X005288Y004148D03*
X004984Y004460D03*
X005112Y004660D03*
X005376Y004712D03*
X005112Y005000D03*
X005448Y005108D03*
X004764Y004712D03*
X004664Y004148D03*
D288*
X004666Y004468D03*
X004666Y004652D03*
X005874Y003972D03*
X005874Y003968D03*
X006066Y003968D03*
X006066Y003972D03*
X006066Y003960D03*
X006574Y004152D03*
X006486Y004468D03*
X006654Y004652D03*
X007154Y004460D03*
X006934Y004160D03*
D289*
X006672Y004212D03*
X006328Y004472D03*
X006168Y004652D03*
X005728Y004660D03*
X005388Y004212D03*
X005508Y003968D03*
X005668Y003972D03*
X006248Y003960D03*
X007152Y004660D03*
X004820Y004652D03*
X004820Y004468D03*
X004508Y004468D03*
X004360Y004468D03*
X004360Y004652D03*
D290*
X005510Y004152D03*
X005970Y004152D03*
X005970Y004148D03*
X006170Y004468D03*
X006490Y004472D03*
X006650Y004648D03*
X006750Y004712D03*
X006810Y004160D03*
X006410Y003960D03*
X005110Y006828D03*
D291*
X005272Y004636D03*
X005440Y004644D03*
X005888Y004524D03*
X006012Y004476D03*
X006012Y004644D03*
X006320Y004484D03*
X005672Y004136D03*
X005672Y003984D03*
X005500Y003976D03*
X005280Y004136D03*
X004960Y003964D03*
X004832Y004136D03*
X004828Y004476D03*
X004828Y004644D03*
X004352Y004644D03*
X004352Y004476D03*
D292*
X004364Y004464D03*
X004364Y004656D03*
X004816Y004656D03*
X004816Y004464D03*
X005044Y004216D03*
X005512Y003964D03*
X006028Y004464D03*
X006164Y004464D03*
X006164Y004656D03*
X006028Y004656D03*
D293*
X005864Y004660D03*
X005444Y004640D03*
X005456Y005100D03*
X004656Y004632D03*
X004656Y004488D03*
X004656Y004132D03*
X005504Y003972D03*
X006324Y004480D03*
X006864Y004480D03*
X006864Y004640D03*
X007296Y004648D03*
X006796Y003968D03*
D294*
X006948Y003968D03*
X005108Y004980D03*
X004432Y004720D03*
D295*
X005470Y005080D03*
X006950Y003972D03*
D296*
X006964Y004124D03*
X006872Y004216D03*
X006792Y004144D03*
X006784Y003984D03*
X006856Y004496D03*
X006852Y004504D03*
X006852Y004616D03*
X006856Y004624D03*
X007136Y004644D03*
X007304Y004636D03*
X006316Y004496D03*
X006188Y004496D03*
X006188Y004624D03*
X006004Y004624D03*
X006004Y004496D03*
X006008Y004484D03*
X005892Y004476D03*
X005716Y004604D03*
X005448Y004624D03*
X005268Y004624D03*
X004964Y004644D03*
X004836Y004624D03*
X004836Y004616D03*
X004836Y004504D03*
X004836Y004496D03*
X004652Y004504D03*
X004652Y004616D03*
X004524Y004624D03*
X004524Y004496D03*
X004652Y004116D03*
X004836Y004124D03*
X004956Y004024D03*
X005136Y003976D03*
X005136Y004144D03*
X005276Y004116D03*
X005496Y004124D03*
X005492Y004004D03*
X005676Y004004D03*
X005676Y003996D03*
X005676Y004116D03*
X006192Y005096D03*
X005108Y006836D03*
D297*
X005114Y005004D03*
X005286Y004656D03*
X005874Y003984D03*
X005874Y003976D03*
X006066Y003976D03*
X006066Y003984D03*
D298*
X006240Y004024D03*
X006420Y003976D03*
X006560Y004116D03*
X006560Y004124D03*
X006500Y004496D03*
X006500Y004504D03*
X006640Y004624D03*
X006960Y004136D03*
X006160Y004216D03*
X005780Y004216D03*
X004960Y004484D03*
X004520Y004484D03*
X004520Y004636D03*
X004340Y004624D03*
X004340Y004496D03*
X006540Y006836D03*
D299*
X006750Y004716D03*
X006390Y004404D03*
X006010Y004636D03*
X005970Y004176D03*
X005130Y004644D03*
X004830Y004636D03*
X004830Y004484D03*
X006790Y003976D03*
D300*
X006950Y003976D03*
X005878Y004644D03*
D301*
X005720Y004600D03*
X005272Y004640D03*
X004972Y004468D03*
X004968Y004472D03*
X004828Y004140D03*
X005280Y004132D03*
X005500Y004140D03*
X005500Y003980D03*
X005672Y003980D03*
X005672Y004132D03*
X006180Y004640D03*
X006540Y004992D03*
X006800Y004152D03*
X006952Y004148D03*
X007288Y004460D03*
X006540Y006832D03*
X004348Y004640D03*
X004348Y004480D03*
D302*
X004766Y004412D03*
X005046Y004712D03*
X005446Y005112D03*
X005874Y003980D03*
X006066Y003980D03*
D303*
X005878Y004640D03*
X006950Y003980D03*
D304*
X006952Y003984D03*
X006692Y004144D03*
X005880Y004636D03*
X005408Y004144D03*
D305*
X005826Y004060D03*
X005834Y004032D03*
X005834Y004028D03*
X005906Y004008D03*
X005906Y004000D03*
X005914Y004028D03*
X005914Y004032D03*
X005926Y004068D03*
X006014Y004068D03*
X006026Y004032D03*
X006026Y004028D03*
X006034Y004008D03*
X006034Y004000D03*
X006106Y004028D03*
X006106Y004032D03*
X006114Y004060D03*
X004946Y004000D03*
X004946Y003992D03*
D306*
X005822Y004072D03*
X005830Y004048D03*
X005838Y004020D03*
X005842Y004008D03*
X005842Y004000D03*
X005910Y004020D03*
X005918Y004040D03*
X005930Y004080D03*
X006010Y004080D03*
X006022Y004040D03*
X006030Y004020D03*
X006098Y004008D03*
X006098Y004000D03*
X006102Y004020D03*
X006118Y004072D03*
X006230Y004000D03*
X006230Y003992D03*
X005970Y004200D03*
X005798Y004720D03*
X005462Y005092D03*
D307*
X005442Y005116D03*
X006206Y005116D03*
X006066Y003996D03*
X005874Y003996D03*
X004674Y004156D03*
D308*
X005830Y004044D03*
X005838Y004016D03*
X005842Y004004D03*
X005910Y004016D03*
X005918Y004044D03*
X005922Y004056D03*
X006018Y004056D03*
X006022Y004044D03*
X006030Y004016D03*
X006098Y004004D03*
X006102Y004016D03*
X006110Y004044D03*
X006230Y004004D03*
X006230Y003996D03*
X005970Y004196D03*
X005970Y004204D03*
X006542Y004984D03*
D309*
X006004Y004104D03*
X006004Y004096D03*
X006008Y004084D03*
X006012Y004076D03*
X006016Y004064D03*
X006024Y004036D03*
X006028Y004024D03*
X005924Y004064D03*
X005928Y004076D03*
X005932Y004084D03*
X005936Y004096D03*
X005936Y004104D03*
X005916Y004036D03*
X005912Y004024D03*
X005108Y004984D03*
D310*
X005048Y004036D03*
X006332Y004036D03*
D311*
X006872Y004036D03*
X006872Y004044D03*
X006872Y004056D03*
X006872Y004064D03*
X006872Y004076D03*
X006872Y004084D03*
X005788Y004456D03*
X005044Y004556D03*
X005044Y004564D03*
D312*
X005044Y004568D03*
X005044Y004572D03*
X005044Y004560D03*
X005044Y004552D03*
X005044Y004548D03*
X005128Y005068D03*
X006872Y004080D03*
X006872Y004072D03*
X006872Y004068D03*
X006872Y004060D03*
X006872Y004052D03*
X006872Y004048D03*
X006872Y004040D03*
D313*
X006020Y004048D03*
X006020Y004052D03*
X006000Y004108D03*
X006000Y004112D03*
X005940Y004112D03*
X005940Y004108D03*
X005920Y004052D03*
X005920Y004048D03*
D314*
X005594Y004176D03*
X006338Y004056D03*
X006418Y004444D03*
X006526Y005056D03*
X005126Y005056D03*
X004734Y004176D03*
D315*
X005046Y004180D03*
X005794Y004432D03*
X006346Y004068D03*
X006954Y004672D03*
X006526Y005048D03*
D316*
X006094Y004672D03*
X006094Y004448D03*
X005806Y004688D03*
X005066Y004072D03*
X004434Y004448D03*
X004434Y004672D03*
X005122Y006780D03*
X006954Y004440D03*
X007226Y004440D03*
X007218Y004668D03*
X006874Y004168D03*
D317*
X006348Y004072D03*
X006096Y004452D03*
X006096Y004668D03*
X005124Y005048D03*
X005048Y004668D03*
X005056Y004440D03*
X004432Y004452D03*
X004432Y004668D03*
D318*
X005068Y004076D03*
X006352Y004076D03*
X006628Y004184D03*
X006528Y005044D03*
D319*
X006702Y004672D03*
X006622Y004172D03*
X006358Y004080D03*
X005818Y004548D03*
X005338Y004172D03*
X005074Y004080D03*
X005046Y004192D03*
X005046Y004680D03*
X005122Y005040D03*
X007218Y004680D03*
X007226Y004432D03*
D320*
X007226Y004424D03*
X006366Y004084D03*
D321*
X006000Y004116D03*
X005940Y004116D03*
D322*
X005972Y004120D03*
X006096Y004408D03*
X006388Y004412D03*
X006096Y004712D03*
X005716Y004460D03*
X005376Y004708D03*
X004764Y004708D03*
X004432Y004712D03*
X004432Y004408D03*
X005112Y006820D03*
X006536Y006820D03*
X006952Y004712D03*
X006952Y004408D03*
D323*
X007016Y004464D03*
X007016Y004656D03*
X007216Y004716D03*
X006644Y004636D03*
X006496Y004484D03*
X006564Y004136D03*
X006176Y004476D03*
X006176Y004644D03*
X005444Y004636D03*
X004656Y004636D03*
X004516Y004644D03*
X004516Y004476D03*
X004656Y004484D03*
D324*
X004982Y004140D03*
X005702Y004492D03*
D325*
X005662Y004152D03*
X005970Y004140D03*
X005118Y004160D03*
X006538Y005000D03*
D326*
X007024Y004628D03*
X006264Y004140D03*
D327*
X006568Y004144D03*
X006492Y004476D03*
X006648Y004644D03*
X006952Y004404D03*
X007148Y004464D03*
X007288Y004656D03*
X005668Y004144D03*
X005112Y004996D03*
X005452Y005104D03*
X004660Y004644D03*
X004660Y004476D03*
X004432Y004404D03*
X004432Y004716D03*
X004660Y004144D03*
D328*
X004980Y004144D03*
D329*
X005284Y004144D03*
X004976Y004464D03*
X005724Y004596D03*
X006096Y004716D03*
X006096Y004404D03*
X006196Y005104D03*
D330*
X006264Y004144D03*
D331*
X006264Y004148D03*
X006768Y004652D03*
X005704Y004488D03*
X005124Y004480D03*
X004980Y004148D03*
D332*
X005408Y004148D03*
X006692Y004148D03*
X007024Y004488D03*
X007024Y004632D03*
D333*
X006752Y004720D03*
X004980Y004152D03*
D334*
X005130Y004152D03*
X004830Y004480D03*
X004830Y004640D03*
X004970Y004652D03*
X005270Y004632D03*
X005110Y004992D03*
X005710Y004468D03*
X005890Y004472D03*
X006010Y004480D03*
X006010Y004640D03*
X005970Y004180D03*
X005970Y004172D03*
D335*
X005406Y004152D03*
X005106Y004972D03*
D336*
X004764Y004720D03*
X005124Y004472D03*
X005704Y004480D03*
X005876Y004648D03*
X006264Y004152D03*
D337*
X006690Y004152D03*
D338*
X005706Y004476D03*
X004982Y004156D03*
X005106Y006844D03*
X006542Y006844D03*
D339*
X006182Y005084D03*
X005466Y005084D03*
X005402Y004156D03*
X006686Y004156D03*
X007022Y004476D03*
X007022Y004644D03*
D340*
X005970Y004156D03*
X005710Y004464D03*
D341*
X006264Y004156D03*
D342*
X006954Y004688D03*
X007226Y004428D03*
X005334Y004160D03*
X005054Y004428D03*
D343*
X005280Y004652D03*
X006200Y005108D03*
X006400Y004160D03*
D344*
X006618Y004160D03*
X006530Y006788D03*
D345*
X006526Y006776D03*
X005806Y004684D03*
X005054Y004164D03*
X007226Y004444D03*
D346*
X005334Y004164D03*
X005046Y004196D03*
X005046Y004684D03*
D347*
X006338Y004164D03*
X007218Y004664D03*
X005122Y006776D03*
D348*
X006530Y005036D03*
X006698Y004664D03*
X006618Y004164D03*
X006330Y004196D03*
X007218Y004684D03*
D349*
X006956Y004676D03*
X006956Y004444D03*
X006872Y004164D03*
X005048Y004664D03*
D350*
X005124Y005052D03*
X005048Y004172D03*
X005052Y004168D03*
X006332Y004172D03*
X006336Y004168D03*
X006948Y004460D03*
X006956Y004448D03*
X006948Y004660D03*
D351*
X006952Y004432D03*
X006872Y004180D03*
X005784Y004580D03*
X005336Y004168D03*
D352*
X005340Y004176D03*
X005048Y004676D03*
X005788Y004576D03*
X006872Y004176D03*
X006952Y004436D03*
X006952Y004684D03*
X006528Y006784D03*
X005120Y006784D03*
D353*
X006624Y004176D03*
D354*
X005598Y004184D03*
X005050Y004456D03*
D355*
X006330Y004184D03*
D356*
X006872Y004184D03*
X005776Y004584D03*
X005120Y005036D03*
D357*
X005376Y004688D03*
X004764Y004688D03*
X004764Y004432D03*
X004764Y004188D03*
X005116Y006800D03*
D358*
X006742Y004688D03*
X006662Y004188D03*
X005382Y004192D03*
D359*
X005044Y004200D03*
X004432Y004428D03*
X004432Y004692D03*
X006096Y004692D03*
X006096Y004428D03*
X006328Y004200D03*
X006872Y004188D03*
D360*
X006534Y005020D03*
X005566Y004192D03*
X005046Y004700D03*
D361*
X006330Y004192D03*
D362*
X006872Y004192D03*
X006532Y005028D03*
X005768Y004588D03*
D363*
X005564Y004196D03*
X005388Y004196D03*
X005116Y005016D03*
X006212Y005124D03*
X006872Y004204D03*
X007216Y004704D03*
D364*
X006874Y004196D03*
X005118Y005024D03*
D365*
X005116Y005012D03*
X005044Y004212D03*
X004764Y004200D03*
X005564Y004200D03*
X005796Y004408D03*
X006096Y004412D03*
X006096Y004708D03*
X006536Y005012D03*
D366*
X005564Y004204D03*
X004764Y004204D03*
X006536Y006816D03*
D367*
X006094Y004696D03*
X005802Y004704D03*
X005046Y004204D03*
X004434Y004424D03*
X004434Y004696D03*
D368*
X005388Y004204D03*
X006672Y004204D03*
D369*
X005970Y004208D03*
X005970Y004212D03*
D370*
X006326Y004212D03*
X006210Y005120D03*
X007218Y004708D03*
X005046Y004708D03*
D371*
X005970Y004216D03*
D372*
X005874Y004652D03*
X006186Y005088D03*
X006542Y004980D03*
X007022Y004648D03*
X007022Y004472D03*
X006954Y004400D03*
X007226Y004400D03*
X005462Y005088D03*
X005122Y004468D03*
X005054Y004400D03*
X004434Y004400D03*
D373*
X004766Y004400D03*
X005046Y004720D03*
X005378Y004720D03*
X006390Y004400D03*
X007294Y004472D03*
X006542Y006848D03*
X005106Y006848D03*
D374*
X006096Y004720D03*
X006096Y004400D03*
X006956Y004720D03*
X007216Y004720D03*
D375*
X007224Y004408D03*
X006536Y005008D03*
D376*
X006954Y004708D03*
X006954Y004412D03*
X005378Y004700D03*
X004766Y004420D03*
X005114Y006812D03*
X006534Y006812D03*
D377*
X005114Y006816D03*
X005378Y004704D03*
X004766Y004704D03*
X004766Y004416D03*
X006390Y004416D03*
X006750Y004704D03*
D378*
X007224Y004416D03*
X005056Y004416D03*
X005116Y006804D03*
X006532Y006804D03*
D379*
X006096Y004424D03*
X005796Y004416D03*
D380*
X005056Y004420D03*
D381*
X004432Y004432D03*
X004432Y004688D03*
X005796Y004420D03*
X006096Y004432D03*
X006096Y004688D03*
X006696Y004660D03*
D382*
X006388Y004432D03*
X006952Y004420D03*
X006952Y004700D03*
X006532Y006800D03*
D383*
X005118Y005028D03*
X007226Y004420D03*
D384*
X005056Y004424D03*
D385*
X005794Y004424D03*
X006702Y004676D03*
D386*
X006954Y004696D03*
X006954Y004424D03*
X005118Y006796D03*
D387*
X005046Y004688D03*
X006954Y004692D03*
X006954Y004428D03*
D388*
X006704Y004680D03*
X006096Y004680D03*
X006096Y004440D03*
X005816Y004552D03*
X005804Y004692D03*
X005056Y004432D03*
D389*
X004432Y004436D03*
X004432Y004684D03*
X005804Y004696D03*
X005824Y004544D03*
X006096Y004436D03*
X006096Y004684D03*
D390*
X006096Y004676D03*
X006096Y004444D03*
X005056Y004436D03*
D391*
X005346Y004684D03*
X005806Y004676D03*
X005794Y004436D03*
D392*
X006420Y004436D03*
D393*
X006706Y004684D03*
X007218Y004676D03*
X007226Y004436D03*
X005810Y004556D03*
X005802Y004564D03*
X005122Y005044D03*
X004434Y004676D03*
X004434Y004444D03*
D394*
X004432Y004440D03*
X004432Y004680D03*
X006528Y005040D03*
D395*
X005790Y004448D03*
D396*
X005806Y004680D03*
X006094Y004660D03*
X006094Y004460D03*
X006526Y005052D03*
X006954Y004668D03*
X006954Y004452D03*
X007226Y004452D03*
X007226Y004448D03*
X006526Y006772D03*
X005054Y004452D03*
X004434Y004460D03*
X004434Y004660D03*
D397*
X005790Y004452D03*
X006522Y006760D03*
D398*
X004500Y004656D03*
X004500Y004464D03*
D399*
X005124Y004476D03*
X005704Y004484D03*
D400*
X007294Y004476D03*
D401*
X007024Y004480D03*
X007024Y004640D03*
X006544Y004972D03*
X006544Y006852D03*
X005104Y006852D03*
D402*
X005106Y004968D03*
X006546Y004968D03*
X007294Y004480D03*
D403*
X005124Y004484D03*
D404*
X005472Y005076D03*
X006176Y005076D03*
X007024Y004636D03*
X007024Y004484D03*
X006544Y006856D03*
X005104Y006856D03*
D405*
X007294Y004484D03*
D406*
X007214Y004540D03*
X007214Y004548D03*
X007214Y004552D03*
X007214Y004560D03*
X007214Y004568D03*
X007214Y004572D03*
X007214Y004580D03*
X005126Y006760D03*
X005046Y004580D03*
X005046Y004540D03*
D407*
X005802Y004700D03*
X005830Y004540D03*
X006530Y005032D03*
X007218Y004688D03*
X006530Y006792D03*
X005118Y006792D03*
D408*
X005046Y004584D03*
X005046Y004576D03*
X005046Y004544D03*
X007214Y004544D03*
X007214Y004556D03*
X007214Y004564D03*
X007214Y004576D03*
X007214Y004584D03*
D409*
X006770Y004648D03*
D410*
X006766Y004656D03*
D411*
X005048Y004672D03*
X006528Y006780D03*
D412*
X006956Y004680D03*
X007216Y004672D03*
D413*
X005350Y004676D03*
D414*
X005118Y005020D03*
X005802Y004708D03*
X007218Y004700D03*
D415*
X006534Y005016D03*
X005046Y004704D03*
D416*
X005108Y004976D03*
D417*
X006544Y004976D03*
D418*
X005120Y005032D03*
D419*
X006524Y005060D03*
D420*
X006524Y005064D03*
X005128Y005064D03*
D421*
X006522Y005068D03*
D422*
X005130Y005072D03*
D423*
X006522Y005072D03*
D424*
X005130Y005076D03*
D425*
X006520Y005076D03*
D426*
X005130Y005080D03*
D427*
X006180Y005080D03*
D428*
X006520Y005080D03*
D429*
X005132Y005084D03*
D430*
X006518Y005084D03*
D431*
X005132Y005088D03*
D432*
X006518Y005088D03*
D433*
X005134Y005092D03*
D434*
X006516Y005092D03*
X006516Y006732D03*
X005824Y007088D03*
D435*
X005826Y007084D03*
X005134Y005096D03*
D436*
X006516Y005096D03*
X005824Y007076D03*
D437*
X005824Y007060D03*
X005824Y007052D03*
X005824Y007048D03*
X005136Y005100D03*
X006516Y005100D03*
D438*
X005136Y005104D03*
X005824Y007024D03*
X005824Y007036D03*
D439*
X006514Y005104D03*
D440*
X006514Y005108D03*
X005138Y005108D03*
X005826Y007000D03*
D441*
X005138Y005112D03*
D442*
X006512Y005112D03*
X006512Y006712D03*
X005824Y006960D03*
X005824Y006968D03*
X005824Y006972D03*
X005136Y006712D03*
D443*
X005824Y006944D03*
X005140Y005116D03*
X006512Y005116D03*
D444*
X005140Y005120D03*
D445*
X006510Y005120D03*
D446*
X005140Y005124D03*
D447*
X005438Y005124D03*
D448*
X006510Y005124D03*
D449*
X005142Y005128D03*
X005826Y006868D03*
X005826Y006872D03*
D450*
X005824Y006860D03*
X005824Y006852D03*
X006508Y005128D03*
D451*
X005220Y005132D03*
D452*
X006430Y005132D03*
D453*
X005218Y005136D03*
D454*
X006432Y005136D03*
D455*
X005218Y005140D03*
D456*
X006308Y005448D03*
X006432Y005140D03*
D457*
X006312Y005436D03*
X005336Y005436D03*
X005216Y005144D03*
D458*
X005342Y005456D03*
X006318Y005424D03*
X006434Y005144D03*
D459*
X006436Y005148D03*
X006324Y005412D03*
X005324Y005412D03*
X005216Y005148D03*
X005824Y006740D03*
D460*
X006306Y005460D03*
X006334Y005400D03*
X005342Y005460D03*
X005322Y005408D03*
X005318Y005400D03*
X005310Y005388D03*
X005214Y005152D03*
D461*
X006336Y005392D03*
X006344Y005380D03*
X006436Y005152D03*
D462*
X006340Y005384D03*
X005308Y005384D03*
X005212Y005156D03*
D463*
X005298Y005364D03*
X006346Y005376D03*
X006438Y005156D03*
D464*
X005296Y005360D03*
X005288Y005348D03*
X005212Y005160D03*
D465*
X005282Y005340D03*
X005290Y005352D03*
X005342Y005480D03*
X006370Y005332D03*
X006438Y005160D03*
D466*
X006362Y005344D03*
X005342Y005484D03*
X005282Y005336D03*
X005210Y005164D03*
D467*
X005276Y005324D03*
X006440Y005164D03*
D468*
X006442Y005168D03*
X006382Y005308D03*
X006382Y005312D03*
X005342Y005488D03*
X005342Y005492D03*
X005270Y005312D03*
X005262Y005300D03*
X005210Y005168D03*
D469*
X005208Y005172D03*
X005256Y005288D03*
X005264Y005688D03*
X005272Y006140D03*
X006372Y006148D03*
X006376Y006140D03*
X006384Y005688D03*
X006388Y005300D03*
X006392Y005292D03*
D470*
X006394Y005288D03*
X006398Y005280D03*
X006402Y005272D03*
X006442Y005172D03*
X006306Y005500D03*
X006378Y005680D03*
X006386Y006132D03*
X005826Y006732D03*
X005282Y006152D03*
X005278Y006148D03*
X005262Y006132D03*
X005342Y005500D03*
X005258Y005292D03*
X005246Y005272D03*
D471*
X005248Y005276D03*
X005208Y005176D03*
X006400Y005276D03*
X006408Y005264D03*
D472*
X006444Y005176D03*
X006376Y005676D03*
X006396Y005696D03*
X006364Y006156D03*
X005284Y006156D03*
D473*
X005278Y005668D03*
X005342Y005512D03*
X005342Y005508D03*
X005234Y005252D03*
X005234Y005248D03*
X005206Y005180D03*
X006306Y005508D03*
X006306Y005512D03*
X006370Y005668D03*
X006410Y005260D03*
X006414Y005252D03*
X006362Y006160D03*
D474*
X006356Y006168D03*
X006396Y006128D03*
X006364Y005660D03*
X006416Y005248D03*
X006424Y005232D03*
X006444Y005180D03*
X005224Y005232D03*
X005284Y005660D03*
D475*
X005344Y005516D03*
X005204Y005184D03*
X006424Y005236D03*
D476*
X006434Y005216D03*
X006446Y005184D03*
X006306Y005524D03*
X006362Y005656D03*
D477*
X006356Y005652D03*
X006436Y005212D03*
X006436Y005208D03*
X006444Y005192D03*
X006444Y005188D03*
X005212Y005208D03*
X005212Y005212D03*
X005204Y005192D03*
X005204Y005188D03*
X005292Y005652D03*
X005304Y006180D03*
X005824Y006728D03*
D478*
X005206Y005196D03*
D479*
X005208Y005204D03*
X005216Y005216D03*
X005344Y005524D03*
X006444Y005196D03*
X006348Y006176D03*
D480*
X006346Y006180D03*
X006354Y005648D03*
X006306Y005532D03*
X006306Y005528D03*
X005294Y005648D03*
X005206Y005200D03*
D481*
X005342Y005528D03*
X005342Y005532D03*
X005242Y005700D03*
X006410Y005700D03*
X006442Y005200D03*
D482*
X006440Y005204D03*
X005300Y006176D03*
D483*
X005298Y006172D03*
X005342Y005520D03*
X005222Y005228D03*
X005218Y005220D03*
X006306Y005520D03*
X006426Y005228D03*
D484*
X006430Y005220D03*
D485*
X006308Y005516D03*
X005232Y005244D03*
X005228Y005236D03*
X005220Y005224D03*
D486*
X005290Y005656D03*
X006430Y005224D03*
D487*
X006420Y005240D03*
X006352Y006172D03*
X005292Y006168D03*
X005252Y006128D03*
X005228Y005240D03*
D488*
X005238Y005256D03*
X005242Y005264D03*
X005282Y005664D03*
X005254Y005696D03*
X005290Y006164D03*
X006358Y006164D03*
X006366Y005664D03*
X006410Y005256D03*
X006418Y005244D03*
D489*
X006372Y005672D03*
X006368Y006152D03*
X005288Y006160D03*
X005240Y005260D03*
D490*
X005244Y005268D03*
X005276Y005672D03*
X006404Y005268D03*
D491*
X006390Y005692D03*
X005270Y005680D03*
X005250Y005280D03*
D492*
X005254Y005284D03*
X005342Y005504D03*
X005274Y005676D03*
X006306Y005504D03*
X006382Y005684D03*
D493*
X006308Y005496D03*
X006384Y005304D03*
X006388Y005296D03*
X006396Y005284D03*
X005344Y005496D03*
X005268Y005684D03*
X005264Y005304D03*
X005268Y006136D03*
X005276Y006144D03*
D494*
X005260Y005296D03*
X006380Y006136D03*
D495*
X006306Y005492D03*
X006306Y005488D03*
X005266Y005308D03*
D496*
X005270Y005316D03*
X006378Y005316D03*
D497*
X006376Y005320D03*
X006372Y005328D03*
X005280Y005332D03*
X005276Y005328D03*
X005272Y005320D03*
D498*
X006374Y005324D03*
X006374Y006144D03*
D499*
X006306Y005484D03*
X006366Y005336D03*
X005286Y005344D03*
D500*
X006306Y005480D03*
X006366Y005340D03*
D501*
X006360Y005348D03*
X006360Y005352D03*
D502*
X006356Y005356D03*
X006352Y005364D03*
X006308Y005476D03*
X005344Y005476D03*
X005292Y005356D03*
X005824Y006736D03*
D503*
X006306Y005472D03*
X006346Y005372D03*
X006354Y005360D03*
X005342Y005468D03*
X005342Y005472D03*
X005306Y005380D03*
X005302Y005372D03*
X005298Y005368D03*
D504*
X006350Y005368D03*
D505*
X005304Y005376D03*
D506*
X005312Y005392D03*
X006308Y005468D03*
X006340Y005388D03*
D507*
X006334Y005396D03*
X006330Y005404D03*
X006306Y005464D03*
X005342Y005464D03*
X005318Y005404D03*
X005314Y005396D03*
D508*
X005328Y005420D03*
X006320Y005420D03*
X006328Y005408D03*
D509*
X006324Y005416D03*
X005324Y005416D03*
D510*
X005330Y005424D03*
X006310Y005444D03*
D511*
X006306Y005452D03*
X006314Y005432D03*
X006318Y005428D03*
X005342Y005448D03*
X005342Y005452D03*
X005338Y005440D03*
X005334Y005432D03*
X005334Y005428D03*
D512*
X006310Y005440D03*
D513*
X005340Y005444D03*
D514*
X006308Y005456D03*
D515*
X005344Y005536D03*
X005308Y006184D03*
D516*
X005306Y005636D03*
X006306Y005544D03*
X006306Y005536D03*
D517*
X006338Y006188D03*
X005342Y005540D03*
X005302Y005640D03*
D518*
X006306Y005540D03*
X006346Y005640D03*
D519*
X006344Y005636D03*
X005344Y005544D03*
D520*
X005342Y005548D03*
X005342Y005552D03*
X006306Y005552D03*
X006306Y005548D03*
X006338Y005632D03*
D521*
X005344Y005556D03*
X005316Y005624D03*
D522*
X006306Y005564D03*
X006306Y005556D03*
D523*
X006306Y005560D03*
X006422Y006120D03*
X005342Y005560D03*
X005226Y006120D03*
D524*
X005324Y005616D03*
X005344Y005564D03*
D525*
X005342Y005568D03*
X005342Y005572D03*
X005334Y006208D03*
X006306Y005572D03*
X006306Y005568D03*
D526*
X005344Y005576D03*
D527*
X006306Y005576D03*
X006306Y005584D03*
D528*
X006318Y005608D03*
X006310Y006212D03*
X005338Y006212D03*
X005342Y005580D03*
D529*
X006306Y005580D03*
D530*
X006312Y005604D03*
X006436Y006116D03*
X005344Y006216D03*
X005216Y006116D03*
X005336Y005604D03*
X005344Y005584D03*
D531*
X005342Y005588D03*
X005342Y005592D03*
X005338Y005600D03*
X006310Y005600D03*
D532*
X006306Y005592D03*
X006306Y005588D03*
D533*
X005342Y005596D03*
D534*
X006308Y005596D03*
X005824Y006716D03*
D535*
X005332Y005608D03*
D536*
X005328Y005612D03*
X005216Y005708D03*
X005824Y006720D03*
X006316Y006208D03*
X006432Y005708D03*
D537*
X006320Y005612D03*
D538*
X006326Y005616D03*
D539*
X006328Y005620D03*
X005320Y005620D03*
D540*
X005228Y005704D03*
X006332Y005624D03*
X006420Y005704D03*
D541*
X005312Y005628D03*
D542*
X005324Y006200D03*
X006324Y006200D03*
X006336Y005628D03*
D543*
X005310Y005632D03*
D544*
X005298Y005644D03*
X006350Y005644D03*
X006342Y006184D03*
D545*
X005260Y005692D03*
D546*
X005204Y005712D03*
D547*
X006298Y006220D03*
X006446Y005712D03*
D548*
X005192Y005716D03*
D549*
X006458Y005716D03*
D550*
X005180Y005720D03*
D551*
X005824Y006708D03*
X006468Y005720D03*
D552*
X006482Y005724D03*
X005166Y005724D03*
D553*
X005156Y005728D03*
X005824Y006700D03*
D554*
X006494Y005728D03*
D555*
X005144Y005732D03*
D556*
X006506Y005732D03*
D557*
X006518Y005736D03*
X005130Y005736D03*
D558*
X005120Y005740D03*
D559*
X006530Y005740D03*
D560*
X006576Y005824D03*
X006576Y005836D03*
X006576Y005984D03*
X006576Y005996D03*
X005108Y005744D03*
X005072Y005836D03*
X005072Y005984D03*
D561*
X006542Y005744D03*
D562*
X006554Y005748D03*
X006566Y005772D03*
X006566Y006048D03*
X006566Y006052D03*
X005094Y005748D03*
X005082Y005772D03*
X005082Y006048D03*
D563*
X005090Y006072D03*
X005090Y005752D03*
D564*
X005086Y005760D03*
X005086Y006060D03*
X006558Y006072D03*
X006562Y006068D03*
X006562Y005760D03*
X006558Y005752D03*
D565*
X006562Y005756D03*
X006562Y006064D03*
X006554Y006076D03*
X005094Y006076D03*
X005086Y006064D03*
X005086Y005756D03*
D566*
X005084Y005764D03*
X005084Y006056D03*
X006564Y006056D03*
X006564Y005764D03*
D567*
X006564Y005768D03*
X006564Y006060D03*
X005084Y006052D03*
X005084Y005768D03*
D568*
X005082Y005776D03*
X005082Y006044D03*
X006566Y006044D03*
X006566Y005776D03*
D569*
X006568Y005780D03*
X006568Y006040D03*
X005080Y006040D03*
X005080Y005788D03*
X005080Y005780D03*
D570*
X005080Y005784D03*
X005080Y006036D03*
X006568Y006036D03*
X006568Y005784D03*
D571*
X006570Y005788D03*
X006570Y005792D03*
X006570Y006028D03*
X006570Y006032D03*
D572*
X005078Y006032D03*
X005078Y006028D03*
X005078Y005800D03*
X005078Y005792D03*
D573*
X005078Y005796D03*
X005078Y006024D03*
D574*
X006570Y005796D03*
D575*
X006572Y005800D03*
X006572Y005808D03*
X006572Y006020D03*
X006544Y006080D03*
X005104Y006080D03*
X005076Y006020D03*
X005076Y006012D03*
X005076Y005808D03*
D576*
X005076Y005804D03*
X005076Y006016D03*
X005824Y006684D03*
X006572Y006024D03*
X006572Y006016D03*
X006572Y005804D03*
D577*
X006574Y005812D03*
X006574Y005820D03*
X006574Y006000D03*
X006574Y006008D03*
X006574Y006012D03*
X005074Y006008D03*
X005074Y006000D03*
X005074Y005820D03*
X005074Y005812D03*
D578*
X005074Y005816D03*
X005074Y005824D03*
X005074Y005996D03*
X005074Y006004D03*
X006574Y006004D03*
X006574Y005816D03*
D579*
X006576Y005828D03*
X006576Y005832D03*
X006576Y005988D03*
X006576Y005992D03*
X005072Y005992D03*
X005072Y005988D03*
X005072Y005980D03*
X005072Y005840D03*
X005072Y005832D03*
X005072Y005828D03*
D580*
X005070Y005848D03*
X005070Y005852D03*
X005070Y005860D03*
X005070Y005960D03*
X005070Y005968D03*
X005070Y005972D03*
X006578Y005972D03*
X006578Y005968D03*
X006578Y005980D03*
X006578Y005852D03*
X006578Y005848D03*
X006578Y005840D03*
D581*
X006578Y005844D03*
X006578Y005856D03*
X006578Y005964D03*
X006578Y005976D03*
X005070Y005976D03*
X005070Y005964D03*
X005070Y005864D03*
X005070Y005856D03*
X005070Y005844D03*
D582*
X006580Y005860D03*
X006580Y005868D03*
X006580Y005872D03*
X006580Y005880D03*
X006580Y005888D03*
X006580Y005892D03*
X006580Y005928D03*
X006580Y005932D03*
X006580Y005940D03*
X006580Y005948D03*
X006580Y005952D03*
X006580Y005960D03*
D583*
X006580Y005956D03*
X006580Y005944D03*
X006580Y005936D03*
X006580Y005924D03*
X006580Y005896D03*
X006580Y005884D03*
X006580Y005876D03*
X006580Y005864D03*
D584*
X005068Y005868D03*
X005068Y005872D03*
X005068Y005880D03*
X005068Y005888D03*
X005068Y005892D03*
X005068Y005900D03*
X005068Y005908D03*
X005068Y005912D03*
X005068Y005920D03*
X005068Y005928D03*
X005068Y005932D03*
X005068Y005940D03*
X005068Y005948D03*
X005068Y005952D03*
D585*
X005068Y005956D03*
X005068Y005944D03*
X005068Y005936D03*
X005068Y005924D03*
X005068Y005916D03*
X005068Y005904D03*
X005068Y005896D03*
X005068Y005884D03*
X005068Y005876D03*
X006532Y006084D03*
D586*
X006582Y005920D03*
X006582Y005912D03*
X006582Y005908D03*
X006582Y005900D03*
X005826Y006688D03*
D587*
X005118Y006084D03*
X006582Y005916D03*
X006582Y005904D03*
D588*
X005088Y006068D03*
D589*
X005130Y006088D03*
D590*
X006520Y006088D03*
D591*
X005140Y006092D03*
D592*
X006508Y006092D03*
D593*
X006494Y006096D03*
X005154Y006096D03*
D594*
X005166Y006100D03*
D595*
X006484Y006100D03*
D596*
X005178Y006104D03*
D597*
X005380Y006236D03*
X006472Y006104D03*
D598*
X006458Y006108D03*
X005190Y006108D03*
D599*
X005202Y006112D03*
X006446Y006112D03*
D600*
X006410Y006124D03*
X005238Y006124D03*
D601*
X005312Y006188D03*
D602*
X005316Y006192D03*
X006332Y006192D03*
D603*
X005826Y006724D03*
X005318Y006196D03*
D604*
X006330Y006196D03*
D605*
X006320Y006204D03*
X005328Y006204D03*
D606*
X006306Y006216D03*
D607*
X005350Y006220D03*
D608*
X005354Y006224D03*
X006294Y006224D03*
D609*
X005824Y006712D03*
X005364Y006228D03*
D610*
X006286Y006228D03*
D611*
X006278Y006232D03*
X005370Y006232D03*
D612*
X006270Y006236D03*
D613*
X006256Y006240D03*
X005392Y006240D03*
D614*
X005826Y006244D03*
D615*
X005824Y006248D03*
X005824Y006252D03*
X005824Y006440D03*
D616*
X005824Y006436D03*
X005824Y006256D03*
D617*
X005824Y006260D03*
D618*
X005826Y006264D03*
D619*
X005824Y006268D03*
X005824Y006428D03*
D620*
X005826Y006272D03*
D621*
X005824Y006276D03*
X005824Y006424D03*
D622*
X005824Y006280D03*
D623*
X005824Y006284D03*
X005824Y006416D03*
D624*
X005824Y006288D03*
D625*
X005826Y006292D03*
D626*
X005824Y006296D03*
D627*
X005826Y006300D03*
X005826Y006408D03*
D628*
X005824Y006404D03*
X005824Y006304D03*
D629*
X005824Y006308D03*
D630*
X005824Y006312D03*
X005824Y006400D03*
D631*
X005824Y006316D03*
D632*
X005826Y006320D03*
D633*
X005824Y006324D03*
D634*
X005826Y006328D03*
D635*
X005824Y006332D03*
X005824Y006388D03*
D636*
X005824Y006336D03*
D637*
X005824Y006340D03*
X005824Y006380D03*
D638*
X005824Y006384D03*
X005824Y006344D03*
D639*
X005826Y006348D03*
D640*
X005824Y006352D03*
D641*
X005826Y006356D03*
D642*
X005824Y006360D03*
X005824Y006368D03*
D643*
X005824Y006364D03*
D644*
X005826Y006372D03*
D645*
X005824Y006376D03*
D646*
X005824Y006392D03*
D647*
X005826Y006396D03*
D648*
X005824Y006412D03*
D649*
X005826Y006420D03*
D650*
X005826Y006432D03*
D651*
X005824Y006444D03*
D652*
X005824Y006448D03*
D653*
X005824Y006452D03*
D654*
X005824Y006456D03*
D655*
X005826Y006460D03*
D656*
X005824Y006464D03*
D657*
X005824Y006468D03*
D658*
X005826Y006472D03*
D659*
X005824Y006476D03*
D660*
X005824Y006480D03*
D661*
X005826Y006484D03*
D662*
X005824Y006488D03*
D663*
X005824Y006492D03*
D664*
X005826Y006496D03*
D665*
X005824Y006500D03*
D666*
X005824Y006504D03*
D667*
X005824Y006508D03*
X005824Y006512D03*
D668*
X005824Y006516D03*
D669*
X005824Y006520D03*
D670*
X005826Y006524D03*
D671*
X005824Y006528D03*
D672*
X005824Y006532D03*
D673*
X005826Y006536D03*
D674*
X005824Y006540D03*
D675*
X005824Y006544D03*
D676*
X005826Y006548D03*
D677*
X005824Y006552D03*
D678*
X005824Y006556D03*
D679*
X005826Y006560D03*
D680*
X005824Y006564D03*
D681*
X005824Y006568D03*
X005824Y006680D03*
D682*
X005826Y006572D03*
D683*
X005824Y006576D03*
X005824Y006676D03*
D684*
X005824Y006672D03*
X005824Y006580D03*
D685*
X005824Y006584D03*
D686*
X005824Y006588D03*
X005824Y006668D03*
D687*
X005824Y006592D03*
D688*
X005824Y006596D03*
D689*
X005826Y006600D03*
D690*
X005824Y006604D03*
X005824Y006656D03*
D691*
X005824Y006652D03*
X005824Y006608D03*
D692*
X005826Y006612D03*
D693*
X005824Y006616D03*
D694*
X005824Y006620D03*
D695*
X005826Y006624D03*
D696*
X005824Y006628D03*
X005824Y006632D03*
X005824Y006640D03*
D697*
X005824Y006636D03*
D698*
X005824Y006644D03*
D699*
X005824Y006648D03*
D700*
X005824Y006660D03*
D701*
X005824Y006664D03*
D702*
X005824Y006776D03*
X005144Y006684D03*
D703*
X005826Y006784D03*
X006506Y006684D03*
D704*
X006506Y006688D03*
X005142Y006688D03*
D705*
X005142Y006692D03*
D706*
X005824Y006692D03*
D707*
X005824Y006832D03*
X005824Y006840D03*
X006508Y006692D03*
D708*
X005140Y006696D03*
D709*
X005826Y006696D03*
D710*
X005824Y006856D03*
X005824Y006864D03*
X006508Y006696D03*
D711*
X006508Y006700D03*
X005140Y006700D03*
D712*
X005138Y006704D03*
D713*
X005824Y006704D03*
D714*
X006510Y006704D03*
D715*
X006510Y006708D03*
X005138Y006708D03*
D716*
X005136Y006716D03*
X005824Y006984D03*
D717*
X006512Y006716D03*
D718*
X005824Y007008D03*
X005824Y007012D03*
X005136Y006720D03*
D719*
X005826Y007020D03*
X006514Y006720D03*
D720*
X006514Y006724D03*
X005826Y007044D03*
X005134Y006724D03*
D721*
X005134Y006728D03*
D722*
X005824Y007068D03*
X005824Y007072D03*
X005824Y007080D03*
X006516Y006728D03*
D723*
X005132Y006732D03*
D724*
X005132Y006736D03*
D725*
X006518Y006736D03*
D726*
X006518Y006740D03*
X005130Y006740D03*
D727*
X005130Y006744D03*
X006518Y006744D03*
D728*
X005824Y006744D03*
D729*
X006520Y006748D03*
X005128Y006748D03*
D730*
X005824Y006748D03*
D731*
X006520Y006752D03*
X005128Y006752D03*
D732*
X005824Y006752D03*
D733*
X005126Y006756D03*
D734*
X005824Y006756D03*
D735*
X006522Y006756D03*
D736*
X005826Y006760D03*
D737*
X006524Y006764D03*
X005124Y006764D03*
D738*
X005824Y006764D03*
D739*
X005824Y006768D03*
D740*
X005824Y006772D03*
D741*
X005824Y006780D03*
D742*
X005824Y006788D03*
X005824Y006792D03*
X005824Y006800D03*
D743*
X005824Y006796D03*
D744*
X006530Y006796D03*
D745*
X005826Y006804D03*
D746*
X005824Y006808D03*
X005824Y006812D03*
X005824Y006820D03*
D747*
X005824Y006816D03*
D748*
X005826Y006824D03*
D749*
X005826Y006828D03*
D750*
X005824Y006836D03*
X005824Y006844D03*
D751*
X005826Y006848D03*
D752*
X005824Y006876D03*
X005824Y006884D03*
D753*
X005824Y006888D03*
X005824Y006880D03*
D754*
X005826Y006892D03*
D755*
X005824Y006896D03*
X005824Y006904D03*
D756*
X005824Y006908D03*
X005824Y006900D03*
D757*
X005826Y006912D03*
D758*
X005824Y006916D03*
X005824Y006924D03*
D759*
X005824Y006928D03*
X005824Y006920D03*
D760*
X005826Y006932D03*
D761*
X005826Y006936D03*
D762*
X005824Y006940D03*
X005824Y006948D03*
X005824Y006952D03*
D763*
X005826Y006956D03*
D764*
X005824Y006964D03*
D765*
X005826Y006976D03*
D766*
X005824Y006980D03*
X005824Y006988D03*
X005824Y006992D03*
D767*
X005826Y006996D03*
D768*
X005824Y007004D03*
X005824Y007016D03*
D769*
X005824Y007028D03*
X005824Y007032D03*
D770*
X005826Y007040D03*
D771*
X005824Y007056D03*
D772*
X005826Y007064D03*
D773*
X005824Y007092D03*
M02*
