G75*
G70*
%OFA0B0*%
%FSLAX24Y24*%
%IPPOS*%
%LPD*%
%AMOC8*
5,1,8,0,0,1.08239X$1,22.5*
%
%ADD10C,0.1340*%
%ADD11C,0.0552*%
%ADD12C,0.0395*%
%ADD13R,0.0720X0.0720*%
%ADD14OC8,0.0720*%
%ADD15R,0.0960X0.0560*%
%ADD16R,0.0946X0.1497*%
%ADD17R,0.0474X0.0513*%
%ADD18R,0.0513X0.0474*%
D10*
X021250Y002050D03*
D11*
X003250Y020750D03*
D12*
X003250Y003350D03*
D13*
X013200Y009700D03*
X013500Y005500D03*
X018000Y008600D03*
X018000Y017600D03*
X017500Y020000D03*
X008500Y020000D03*
D14*
X008500Y021000D03*
X009500Y021000D03*
X009500Y020000D03*
X010500Y020000D03*
X010500Y021000D03*
X011500Y021000D03*
X011500Y020000D03*
X012500Y020000D03*
X012500Y021000D03*
X013500Y021000D03*
X013500Y020000D03*
X017500Y021000D03*
X018500Y021000D03*
X018500Y020000D03*
X019500Y020000D03*
X019500Y021000D03*
X020500Y021000D03*
X020500Y020000D03*
X021500Y020000D03*
X021500Y021000D03*
X022500Y021000D03*
X022500Y020000D03*
X019000Y017600D03*
X019000Y016600D03*
X019000Y015600D03*
X019000Y014600D03*
X019000Y013600D03*
X019000Y012600D03*
X018000Y012600D03*
X018000Y013600D03*
X018000Y014600D03*
X018000Y015600D03*
X018000Y016600D03*
X016200Y010700D03*
X016200Y009700D03*
X015200Y009700D03*
X015200Y010700D03*
X014200Y010700D03*
X014200Y009700D03*
X013200Y010700D03*
X018000Y007600D03*
X018000Y006600D03*
X018000Y005600D03*
X018000Y004600D03*
X018000Y003600D03*
X019000Y003600D03*
X019000Y004600D03*
X019000Y005600D03*
X019000Y006600D03*
X019000Y007600D03*
X019000Y008600D03*
X013500Y004500D03*
X012500Y004500D03*
X012500Y005500D03*
X011500Y005500D03*
X011500Y004500D03*
X010500Y004500D03*
X010500Y005500D03*
X009500Y005500D03*
X009500Y004500D03*
X008500Y004500D03*
X008500Y005500D03*
D15*
X004420Y022290D03*
X004420Y023200D03*
X004420Y024110D03*
D16*
X001980Y023200D03*
D17*
X005600Y022835D03*
X005600Y022165D03*
X005600Y023565D03*
X005600Y024235D03*
X016900Y013435D03*
X016900Y012765D03*
X016900Y004435D03*
X016900Y003765D03*
D18*
X016035Y008600D03*
X015365Y008600D03*
X009335Y006600D03*
X008665Y006600D03*
X012665Y018900D03*
X013335Y018900D03*
X021665Y018900D03*
X022335Y018900D03*
M02*
