G75*
G70*
%OFA0B0*%
%FSLAX24Y24*%
%IPPOS*%
%LPD*%
%AMOC8*
5,1,8,0,0,1.08239X$1,22.5*
%
%ADD10C,0.0050*%
%ADD11C,0.0040*%
%ADD12R,0.0192X0.0006*%
%ADD13R,0.0204X0.0006*%
%ADD14R,0.0072X0.0006*%
%ADD15R,0.0252X0.0006*%
%ADD16R,0.0336X0.0006*%
%ADD17R,0.0408X0.0006*%
%ADD18R,0.0468X0.0006*%
%ADD19R,0.0528X0.0006*%
%ADD20R,0.0576X0.0006*%
%ADD21R,0.0612X0.0006*%
%ADD22R,0.0660X0.0006*%
%ADD23R,0.0696X0.0006*%
%ADD24R,0.0732X0.0006*%
%ADD25R,0.0774X0.0006*%
%ADD26R,0.0816X0.0006*%
%ADD27R,0.0846X0.0006*%
%ADD28R,0.0870X0.0006*%
%ADD29R,0.0900X0.0006*%
%ADD30R,0.0918X0.0006*%
%ADD31R,0.0942X0.0006*%
%ADD32R,0.0978X0.0006*%
%ADD33R,0.1002X0.0006*%
%ADD34R,0.1026X0.0006*%
%ADD35R,0.1050X0.0006*%
%ADD36R,0.1074X0.0006*%
%ADD37R,0.1092X0.0006*%
%ADD38R,0.1116X0.0006*%
%ADD39R,0.1134X0.0006*%
%ADD40R,0.1158X0.0006*%
%ADD41R,0.1170X0.0006*%
%ADD42R,0.1194X0.0006*%
%ADD43R,0.1218X0.0006*%
%ADD44R,0.1230X0.0006*%
%ADD45R,0.1254X0.0006*%
%ADD46R,0.1272X0.0006*%
%ADD47R,0.0546X0.0006*%
%ADD48R,0.0516X0.0006*%
%ADD49R,0.0474X0.0006*%
%ADD50R,0.0456X0.0006*%
%ADD51R,0.0462X0.0006*%
%ADD52R,0.0444X0.0006*%
%ADD53R,0.0426X0.0006*%
%ADD54R,0.0432X0.0006*%
%ADD55R,0.0414X0.0006*%
%ADD56R,0.0402X0.0006*%
%ADD57R,0.0390X0.0006*%
%ADD58R,0.0402X0.0006*%
%ADD59R,0.0378X0.0006*%
%ADD60R,0.0366X0.0006*%
%ADD61R,0.0030X0.0006*%
%ADD62R,0.0372X0.0006*%
%ADD63R,0.0360X0.0006*%
%ADD64R,0.0054X0.0006*%
%ADD65R,0.0048X0.0006*%
%ADD66R,0.0066X0.0006*%
%ADD67R,0.0354X0.0006*%
%ADD68R,0.0348X0.0006*%
%ADD69R,0.0090X0.0006*%
%ADD70R,0.0084X0.0006*%
%ADD71R,0.0342X0.0006*%
%ADD72R,0.0108X0.0006*%
%ADD73R,0.0114X0.0006*%
%ADD74R,0.0120X0.0006*%
%ADD75R,0.0342X0.0006*%
%ADD76R,0.0330X0.0006*%
%ADD77R,0.0126X0.0006*%
%ADD78R,0.0132X0.0006*%
%ADD79R,0.0324X0.0006*%
%ADD80R,0.0138X0.0006*%
%ADD81R,0.0144X0.0006*%
%ADD82R,0.0324X0.0006*%
%ADD83R,0.0150X0.0006*%
%ADD84R,0.0156X0.0006*%
%ADD85R,0.0318X0.0006*%
%ADD86R,0.0168X0.0006*%
%ADD87R,0.0162X0.0006*%
%ADD88R,0.0312X0.0006*%
%ADD89R,0.0174X0.0006*%
%ADD90R,0.0186X0.0006*%
%ADD91R,0.0180X0.0006*%
%ADD92R,0.0306X0.0006*%
%ADD93R,0.0300X0.0006*%
%ADD94R,0.0204X0.0006*%
%ADD95R,0.0198X0.0006*%
%ADD96R,0.0210X0.0006*%
%ADD97R,0.0294X0.0006*%
%ADD98R,0.0216X0.0006*%
%ADD99R,0.0222X0.0006*%
%ADD100R,0.0222X0.0006*%
%ADD101R,0.0288X0.0006*%
%ADD102R,0.0294X0.0006*%
%ADD103R,0.0282X0.0006*%
%ADD104R,0.0192X0.0006*%
%ADD105R,0.0276X0.0006*%
%ADD106R,0.0270X0.0006*%
%ADD107R,0.0162X0.0006*%
%ADD108R,0.0264X0.0006*%
%ADD109R,0.0264X0.0006*%
%ADD110R,0.0258X0.0006*%
%ADD111R,0.0144X0.0006*%
%ADD112R,0.0252X0.0006*%
%ADD113R,0.0084X0.0006*%
%ADD114R,0.0462X0.0006*%
%ADD115R,0.0246X0.0006*%
%ADD116R,0.0450X0.0006*%
%ADD117R,0.0132X0.0006*%
%ADD118R,0.0444X0.0006*%
%ADD119R,0.0384X0.0006*%
%ADD120R,0.0438X0.0006*%
%ADD121R,0.0420X0.0006*%
%ADD122R,0.0240X0.0006*%
%ADD123R,0.0498X0.0006*%
%ADD124R,0.0414X0.0006*%
%ADD125R,0.0522X0.0006*%
%ADD126R,0.0234X0.0006*%
%ADD127R,0.0396X0.0006*%
%ADD128R,0.0594X0.0006*%
%ADD129R,0.0606X0.0006*%
%ADD130R,0.0624X0.0006*%
%ADD131R,0.0384X0.0006*%
%ADD132R,0.0642X0.0006*%
%ADD133R,0.0114X0.0006*%
%ADD134R,0.0234X0.0006*%
%ADD135R,0.0678X0.0006*%
%ADD136R,0.0372X0.0006*%
%ADD137R,0.0228X0.0006*%
%ADD138R,0.0714X0.0006*%
%ADD139R,0.0102X0.0006*%
%ADD140R,0.0750X0.0006*%
%ADD141R,0.0354X0.0006*%
%ADD142R,0.0102X0.0006*%
%ADD143R,0.0762X0.0006*%
%ADD144R,0.0096X0.0006*%
%ADD145R,0.0786X0.0006*%
%ADD146R,0.0798X0.0006*%
%ADD147R,0.0810X0.0006*%
%ADD148R,0.0822X0.0006*%
%ADD149R,0.0834X0.0006*%
%ADD150R,0.0858X0.0006*%
%ADD151R,0.0882X0.0006*%
%ADD152R,0.0888X0.0006*%
%ADD153R,0.0906X0.0006*%
%ADD154R,0.0018X0.0006*%
%ADD155R,0.0924X0.0006*%
%ADD156R,0.0930X0.0006*%
%ADD157R,0.0954X0.0006*%
%ADD158R,0.0960X0.0006*%
%ADD159R,0.0966X0.0006*%
%ADD160R,0.0984X0.0006*%
%ADD161R,0.0996X0.0006*%
%ADD162R,0.1008X0.0006*%
%ADD163R,0.1014X0.0006*%
%ADD164R,0.1020X0.0006*%
%ADD165R,0.1032X0.0006*%
%ADD166R,0.0738X0.0006*%
%ADD167R,0.0012X0.0006*%
%ADD168R,0.0078X0.0006*%
%ADD169R,0.0072X0.0006*%
%ADD170R,0.0174X0.0006*%
%ADD171R,0.0060X0.0006*%
%ADD172R,0.0024X0.0006*%
%ADD173R,0.0006X0.0006*%
%ADD174R,0.0054X0.0006*%
%ADD175R,0.0012X0.0006*%
%ADD176R,0.0042X0.0006*%
%ADD177R,0.0036X0.0006*%
%ADD178R,0.0312X0.0006*%
%ADD179R,0.0432X0.0006*%
%ADD180R,0.0804X0.0006*%
%ADD181R,0.1152X0.0006*%
%ADD182R,0.1146X0.0006*%
%ADD183R,0.1140X0.0006*%
%ADD184R,0.1128X0.0006*%
%ADD185R,0.0630X0.0006*%
%ADD186R,0.0726X0.0006*%
%ADD187R,0.0948X0.0006*%
%ADD188R,0.1038X0.0006*%
%ADD189R,0.1086X0.0006*%
%ADD190R,0.1122X0.0006*%
%ADD191R,0.1176X0.0006*%
%ADD192R,0.1278X0.0006*%
%ADD193R,0.1302X0.0006*%
%ADD194R,0.1314X0.0006*%
%ADD195R,0.1326X0.0006*%
%ADD196R,0.0648X0.0006*%
%ADD197R,0.0600X0.0006*%
%ADD198R,0.0564X0.0006*%
%ADD199R,0.0480X0.0006*%
%ADD200R,0.0486X0.0006*%
%ADD201R,0.0282X0.0006*%
%ADD202R,0.0594X0.0006*%
%ADD203R,0.0702X0.0006*%
%ADD204R,0.0768X0.0006*%
%ADD205R,0.0936X0.0006*%
%ADD206R,0.0954X0.0006*%
%ADD207R,0.0912X0.0006*%
%ADD208R,0.0876X0.0006*%
%ADD209R,0.0864X0.0006*%
%ADD210R,0.0492X0.0006*%
%ADD211R,0.0558X0.0006*%
%ADD212R,0.1266X0.0006*%
%ADD213R,0.1248X0.0006*%
%ADD214R,0.1212X0.0006*%
%ADD215R,0.1110X0.0006*%
%ADD216R,0.1068X0.0006*%
%ADD217R,0.1044X0.0006*%
%ADD218R,0.0990X0.0006*%
%ADD219R,0.0894X0.0006*%
%ADD220R,0.0828X0.0006*%
%ADD221R,0.0474X0.0006*%
%ADD222C,0.0100*%
%ADD223C,0.0000*%
%ADD224C,0.0080*%
D10*
X001989Y000905D02*
X001989Y001040D01*
X002035Y001085D01*
X002080Y001040D01*
X002080Y000905D01*
X002170Y000905D02*
X002170Y001085D01*
X002125Y001085D01*
X002080Y001040D01*
X002284Y001040D02*
X002284Y000950D01*
X002329Y000905D01*
X002419Y000905D01*
X002464Y000950D01*
X002464Y001040D01*
X002419Y001085D01*
X002329Y001085D01*
X002284Y001040D01*
X002579Y001085D02*
X002714Y001085D01*
X002759Y001040D01*
X002759Y000950D01*
X002714Y000905D01*
X002579Y000905D01*
X002861Y000905D02*
X002906Y000905D01*
X002906Y000950D01*
X002861Y000950D01*
X002861Y000905D01*
X003021Y000950D02*
X003066Y000995D01*
X003156Y000995D01*
X003201Y001040D01*
X003156Y001085D01*
X003021Y001085D01*
X003021Y000950D02*
X003066Y000905D01*
X003201Y000905D01*
X003307Y000905D02*
X003352Y000950D01*
X003352Y001130D01*
X003397Y001085D02*
X003307Y001085D01*
X003512Y001040D02*
X003512Y000905D01*
X003512Y001040D02*
X003557Y001085D01*
X003692Y001085D01*
X003692Y000905D01*
X003807Y000995D02*
X003807Y001040D01*
X003852Y001085D01*
X003942Y001085D01*
X003987Y001040D01*
X003987Y000950D01*
X003942Y000905D01*
X003852Y000905D01*
X003807Y000995D02*
X003987Y000995D01*
X004101Y000905D02*
X004236Y000905D01*
X004281Y000950D01*
X004281Y001040D01*
X004236Y001085D01*
X004101Y001085D01*
X004101Y000860D01*
X004146Y000815D01*
X004191Y000815D01*
X004396Y000905D02*
X004531Y000905D01*
X004576Y000950D01*
X004531Y000995D01*
X004396Y000995D01*
X004396Y001040D02*
X004396Y000905D01*
X004396Y001040D02*
X004441Y001085D01*
X004531Y001085D01*
X004690Y001040D02*
X004690Y000905D01*
X004690Y001040D02*
X004736Y001085D01*
X004871Y001085D01*
X004871Y000905D01*
X004981Y001085D02*
X005026Y001085D01*
X005116Y000995D01*
X005116Y000905D02*
X005116Y001085D01*
X005231Y001040D02*
X005231Y000995D01*
X005411Y000995D01*
X005411Y000950D02*
X005411Y001040D01*
X005366Y001085D01*
X005276Y001085D01*
X005231Y001040D01*
X005276Y000905D02*
X005366Y000905D01*
X005411Y000950D01*
X005517Y000905D02*
X005562Y000950D01*
X005562Y001130D01*
X005607Y001085D02*
X005517Y001085D01*
X005714Y001085D02*
X005804Y001085D01*
X005759Y001130D02*
X005759Y000950D01*
X005714Y000905D01*
X005918Y000905D02*
X005918Y001040D01*
X005963Y001085D01*
X006053Y001085D01*
X006053Y000995D02*
X005918Y000995D01*
X005918Y000905D02*
X006053Y000905D01*
X006098Y000950D01*
X006053Y000995D01*
X006213Y000950D02*
X006258Y000905D01*
X006393Y000905D01*
X006393Y000815D02*
X006393Y001085D01*
X006258Y001085D01*
X006213Y001040D01*
X006213Y000950D01*
X006495Y000950D02*
X006495Y000905D01*
X006540Y000905D01*
X006540Y000950D01*
X006495Y000950D01*
X006655Y000950D02*
X006655Y001085D01*
X006655Y000950D02*
X006700Y000905D01*
X006745Y000950D01*
X006790Y000905D01*
X006835Y000950D01*
X006835Y001085D01*
X006949Y001085D02*
X006949Y000950D01*
X006995Y000905D01*
X007040Y000950D01*
X007085Y000905D01*
X007130Y000950D01*
X007130Y001085D01*
X007244Y001085D02*
X007244Y000950D01*
X007289Y000905D01*
X007334Y000950D01*
X007379Y000905D01*
X007424Y000950D01*
X007424Y001085D01*
X014289Y001030D02*
X014335Y001075D01*
X014425Y001075D01*
X014470Y001030D01*
X014470Y000850D01*
X014425Y000805D01*
X014335Y000805D01*
X014289Y000850D01*
X014741Y001335D02*
X014786Y001335D01*
X014741Y001335D02*
X014696Y001380D01*
X014696Y001605D01*
X014581Y001605D02*
X014536Y001650D01*
X014536Y001740D01*
X014446Y001740D02*
X014446Y001650D01*
X014491Y001605D01*
X014696Y001425D02*
X014831Y001425D01*
X014876Y001470D01*
X014876Y001605D01*
X014990Y001560D02*
X014990Y001470D01*
X015035Y001425D01*
X015170Y001425D01*
X015170Y001335D02*
X015170Y001605D01*
X015035Y001605D01*
X014990Y001560D01*
X015285Y001560D02*
X015285Y001470D01*
X015330Y001425D01*
X015465Y001425D01*
X015465Y001335D02*
X015465Y001605D01*
X015330Y001605D01*
X015285Y001560D01*
X015580Y001560D02*
X015580Y001470D01*
X015625Y001425D01*
X015715Y001425D01*
X015760Y001470D01*
X015760Y001560D01*
X015715Y001605D01*
X015625Y001605D01*
X015580Y001560D01*
X015874Y001560D02*
X015919Y001515D01*
X016054Y001515D01*
X016054Y001425D02*
X016054Y001695D01*
X015919Y001695D01*
X015874Y001650D01*
X015874Y001560D01*
X015853Y001075D02*
X015853Y000805D01*
X015648Y000850D02*
X015603Y000805D01*
X015468Y000805D01*
X015468Y000760D02*
X015513Y000715D01*
X015558Y000715D01*
X015468Y000760D02*
X015468Y000985D01*
X015354Y000985D02*
X015218Y000985D01*
X015173Y000940D01*
X015173Y000850D01*
X015218Y000805D01*
X015354Y000805D01*
X015354Y000715D02*
X015354Y000985D01*
X015648Y000985D02*
X015648Y000850D01*
X015763Y001075D02*
X015943Y001075D01*
X016352Y000940D02*
X016352Y000895D01*
X016532Y000895D01*
X016532Y000850D02*
X016532Y000940D01*
X016487Y000985D01*
X016397Y000985D01*
X016352Y000940D01*
X016397Y000805D02*
X016487Y000805D01*
X016532Y000850D01*
X016643Y000985D02*
X016688Y000985D01*
X016778Y000895D01*
X016778Y000805D02*
X016778Y000985D01*
X016892Y000985D02*
X016892Y000805D01*
X017027Y000805D01*
X017072Y000850D01*
X017072Y000985D01*
X017187Y000805D02*
X017367Y000805D01*
X017367Y001075D01*
X017429Y001425D02*
X017429Y001695D01*
X017540Y001650D02*
X017585Y001605D01*
X017630Y001650D02*
X017675Y001605D01*
X017630Y001650D02*
X017630Y001740D01*
X017540Y001740D02*
X017540Y001650D01*
X017429Y001560D02*
X017249Y001560D01*
X017135Y001605D02*
X017135Y001470D01*
X017090Y001425D01*
X016955Y001425D01*
X016955Y001605D01*
X016840Y001695D02*
X016795Y001695D01*
X016795Y001425D01*
X016840Y001425D02*
X016750Y001425D01*
X016644Y001470D02*
X016599Y001515D01*
X016464Y001515D01*
X016464Y001560D02*
X016464Y001425D01*
X016599Y001425D01*
X016644Y001470D01*
X016599Y001605D02*
X016509Y001605D01*
X016464Y001560D01*
X017249Y001695D02*
X017249Y001425D01*
X017776Y001075D02*
X017776Y000805D01*
X017911Y000805D01*
X017956Y000850D01*
X017956Y000940D01*
X017911Y000985D01*
X017776Y000985D01*
X018067Y000985D02*
X018112Y000985D01*
X018202Y000895D01*
X018202Y000805D02*
X018202Y000985D01*
X018316Y000940D02*
X018316Y000805D01*
X018452Y000805D01*
X018497Y000850D01*
X018452Y000895D01*
X018316Y000895D01*
X018316Y000940D02*
X018361Y000985D01*
X018452Y000985D01*
X018611Y000940D02*
X018656Y000985D01*
X018746Y000985D01*
X018791Y000940D01*
X018791Y000850D01*
X018746Y000805D01*
X018656Y000805D01*
X018611Y000850D01*
X018611Y000940D01*
X018906Y000895D02*
X018906Y000850D01*
X018951Y000805D01*
X019086Y000805D01*
X019086Y001075D01*
X018951Y001075D01*
X018906Y001030D01*
X018906Y000985D01*
X018951Y000940D01*
X019086Y000940D01*
X019200Y000985D02*
X019200Y000850D01*
X019245Y000805D01*
X019290Y000850D01*
X019335Y000805D01*
X019381Y000850D01*
X019381Y000985D01*
X019495Y000940D02*
X019540Y000985D01*
X019630Y000985D01*
X019675Y000940D01*
X019675Y000850D01*
X019630Y000805D01*
X019540Y000805D01*
X019495Y000850D01*
X019495Y000940D01*
X019790Y000940D02*
X019790Y000805D01*
X019790Y000940D02*
X019835Y000985D01*
X019970Y000985D01*
X019970Y000805D01*
X020084Y000805D02*
X020084Y000940D01*
X020129Y000985D01*
X020264Y000985D01*
X020264Y000805D01*
X020371Y000805D02*
X020461Y000805D01*
X020416Y000805D02*
X020416Y000985D01*
X020461Y000985D01*
X020416Y001075D02*
X020416Y001120D01*
X020575Y001075D02*
X020575Y000805D01*
X020756Y000805D02*
X020756Y001075D01*
X020665Y000985D01*
X020575Y001075D01*
X018951Y000940D02*
X018906Y000895D01*
X015059Y000895D02*
X014879Y000895D01*
X014879Y000940D01*
X014924Y000985D01*
X015014Y000985D01*
X015059Y000940D01*
X015059Y000850D01*
X015014Y000805D01*
X014924Y000805D01*
D11*
X018394Y001453D02*
X018427Y001420D01*
X018494Y001420D01*
X018528Y001453D01*
X018394Y001587D01*
X018394Y001453D01*
X018528Y001453D02*
X018528Y001587D01*
X018494Y001620D01*
X018427Y001620D01*
X018394Y001587D01*
X018605Y001453D02*
X018605Y001420D01*
X018638Y001420D01*
X018638Y001453D01*
X018605Y001453D01*
X018726Y001420D02*
X018859Y001420D01*
X018792Y001420D02*
X018792Y001620D01*
X018859Y001553D01*
X018947Y001487D02*
X018947Y001620D01*
X019080Y001620D02*
X019080Y001487D01*
X019013Y001420D01*
X018947Y001487D01*
D12*
X006945Y001272D03*
X006099Y001704D03*
X005721Y001704D03*
X005481Y002172D03*
X005475Y002178D03*
X005655Y002226D03*
X005655Y002400D03*
X005319Y002778D03*
X004881Y002664D03*
X004881Y002658D03*
X004881Y002652D03*
X004881Y002646D03*
X004875Y002610D03*
X004875Y002604D03*
X004875Y002598D03*
X004875Y002592D03*
X004875Y002586D03*
X004875Y002580D03*
X004875Y002430D03*
X004875Y002424D03*
X004875Y002418D03*
X004875Y002412D03*
X004875Y002406D03*
X004875Y002400D03*
X004881Y002364D03*
X004881Y002358D03*
X004881Y002352D03*
X004881Y002346D03*
X004881Y002340D03*
X005691Y003288D03*
X006399Y002418D03*
X006399Y002412D03*
X006165Y002226D03*
X006939Y002664D03*
X006951Y002562D03*
X006951Y002556D03*
X006951Y002550D03*
X006951Y002544D03*
X006951Y002538D03*
X006951Y002532D03*
X006951Y002526D03*
X006951Y002520D03*
X006951Y002514D03*
X006951Y002508D03*
X006951Y002502D03*
X006951Y002496D03*
X006951Y002490D03*
X006951Y002484D03*
X006951Y002478D03*
X006951Y002472D03*
X006951Y002466D03*
X006951Y002460D03*
X006951Y002454D03*
X006951Y002448D03*
D13*
X006945Y002376D03*
X006945Y002370D03*
X006945Y002364D03*
X006945Y002358D03*
X006945Y002352D03*
X006945Y002346D03*
X006945Y001836D03*
X006945Y001830D03*
X006945Y001824D03*
X006945Y001818D03*
X006945Y001812D03*
X006945Y001806D03*
X006945Y001800D03*
X006945Y001794D03*
X006945Y001788D03*
X006945Y001782D03*
X006945Y001776D03*
X006945Y001770D03*
X006945Y001764D03*
X006945Y001758D03*
X006945Y001752D03*
X006945Y001746D03*
X006945Y001740D03*
X006945Y001734D03*
X006945Y001728D03*
X006945Y001722D03*
X006945Y001716D03*
X006945Y001710D03*
X006945Y001704D03*
X006945Y001698D03*
X006945Y001692D03*
X006945Y001686D03*
X006945Y001680D03*
X006945Y001674D03*
X006945Y001668D03*
X006945Y001662D03*
X006945Y001656D03*
X006945Y001650D03*
X006945Y001644D03*
X006945Y001638D03*
X006945Y001632D03*
X006945Y001626D03*
X006945Y001620D03*
X006945Y001614D03*
X006945Y001608D03*
X006945Y001602D03*
X006945Y001596D03*
X006945Y001590D03*
X006945Y001584D03*
X006945Y001578D03*
X006945Y001572D03*
X006945Y001566D03*
X006945Y001560D03*
X006945Y001554D03*
X006945Y001548D03*
X006945Y001542D03*
X006945Y001536D03*
X006945Y001530D03*
X006945Y001524D03*
X006945Y001518D03*
X006945Y001512D03*
X006945Y001506D03*
X006945Y001500D03*
X006945Y001494D03*
X006945Y001488D03*
X006945Y001482D03*
X006945Y001476D03*
X006945Y001470D03*
X006945Y001464D03*
X006945Y001458D03*
X006945Y001452D03*
X006945Y001446D03*
X006945Y001440D03*
X006945Y001434D03*
X006945Y001428D03*
X006945Y001422D03*
X006945Y001416D03*
X006945Y001410D03*
X006945Y001404D03*
X006945Y001398D03*
X006945Y001392D03*
X006945Y001386D03*
X006945Y001380D03*
X006945Y001374D03*
X006945Y001368D03*
X006945Y001362D03*
X006945Y001356D03*
X006945Y001350D03*
X006945Y001344D03*
X006945Y001338D03*
X006945Y001332D03*
X006945Y001326D03*
X006945Y001320D03*
X006945Y001314D03*
X006945Y001308D03*
X006945Y001302D03*
X006945Y001296D03*
X006945Y001290D03*
X006945Y001284D03*
X006945Y001278D03*
X006495Y002784D03*
X006885Y002868D03*
X006885Y002874D03*
X005655Y002394D03*
X004935Y002142D03*
X004905Y002772D03*
X004935Y002868D03*
D14*
X005727Y002382D03*
X005727Y002244D03*
X006093Y002244D03*
X006243Y002244D03*
X006243Y002382D03*
X006453Y002844D03*
X006723Y002358D03*
X005973Y001644D03*
X005907Y001368D03*
D15*
X005907Y001374D03*
X005307Y002022D03*
X005097Y001860D03*
X005127Y001824D03*
X005097Y003150D03*
X005103Y003156D03*
X005913Y003186D03*
X006183Y003174D03*
X006477Y002772D03*
X006723Y003150D03*
X006717Y003156D03*
X005913Y003636D03*
X006513Y002022D03*
D16*
X006879Y002004D03*
X006507Y001662D03*
X005913Y001860D03*
X005913Y002172D03*
X005307Y001668D03*
X005913Y001380D03*
X005301Y003336D03*
X006513Y003342D03*
D17*
X006405Y003402D03*
X005415Y003402D03*
X005421Y002724D03*
X005553Y002550D03*
X005907Y001386D03*
X006843Y001902D03*
D18*
X005913Y001884D03*
X005907Y001392D03*
X006345Y003426D03*
D19*
X006333Y002712D03*
X005907Y001398D03*
D20*
X005913Y001404D03*
X005913Y001908D03*
D21*
X005913Y001410D03*
D22*
X005907Y001416D03*
X005913Y001938D03*
D23*
X005913Y001950D03*
X005907Y001422D03*
X005913Y003588D03*
D24*
X005913Y003582D03*
X005907Y002892D03*
X005913Y001962D03*
X005907Y001428D03*
D25*
X005910Y001434D03*
X005910Y001980D03*
D26*
X005913Y001440D03*
D27*
X005910Y001446D03*
X005910Y002016D03*
X005916Y002910D03*
D28*
X005910Y003084D03*
X005910Y002028D03*
X005910Y001452D03*
D29*
X005907Y001458D03*
X005913Y002046D03*
X005907Y003036D03*
X005907Y003042D03*
D30*
X005904Y003012D03*
X005904Y003006D03*
X005922Y002922D03*
X005910Y003546D03*
X005910Y002058D03*
X005910Y001464D03*
D31*
X005910Y001470D03*
X005910Y002076D03*
X005904Y002958D03*
X005904Y002964D03*
X005904Y002970D03*
X005910Y003540D03*
D32*
X005910Y002100D03*
X005910Y001476D03*
D33*
X005910Y001482D03*
X005910Y002118D03*
X005910Y002628D03*
D34*
X005910Y002142D03*
X005910Y001488D03*
D35*
X005910Y001494D03*
D36*
X005910Y001500D03*
D37*
X005913Y001506D03*
D38*
X005907Y001512D03*
D39*
X005910Y001518D03*
X005910Y002532D03*
X005910Y002538D03*
X005910Y003492D03*
D40*
X005910Y001524D03*
D41*
X005910Y001530D03*
X005910Y003480D03*
D42*
X005910Y003474D03*
X005910Y002658D03*
X005910Y001536D03*
D43*
X005910Y001542D03*
X005910Y002664D03*
D44*
X005910Y003462D03*
X005910Y001548D03*
D45*
X005910Y001554D03*
X005910Y002670D03*
D46*
X005913Y001560D03*
D47*
X005910Y001902D03*
X005538Y001566D03*
X006282Y001566D03*
X005904Y002868D03*
D48*
X006303Y003438D03*
X005913Y003612D03*
X005517Y001572D03*
X006309Y001572D03*
D49*
X006336Y001578D03*
X005484Y001578D03*
X005478Y003426D03*
D50*
X005463Y003420D03*
X006819Y001854D03*
X006819Y001848D03*
X006351Y001584D03*
D51*
X005472Y001584D03*
D52*
X005457Y001590D03*
X005913Y001878D03*
X006369Y001590D03*
X006381Y002724D03*
D53*
X006834Y001884D03*
X006384Y001596D03*
D54*
X006831Y001878D03*
X005901Y002856D03*
X006375Y003414D03*
X005439Y001596D03*
D55*
X005424Y001602D03*
X006396Y001602D03*
D56*
X006408Y001608D03*
X005412Y001608D03*
X006408Y002736D03*
X005682Y003102D03*
D57*
X005388Y003390D03*
X006852Y001926D03*
X006432Y001620D03*
X006420Y001614D03*
X005388Y001620D03*
D58*
X005400Y001614D03*
X006846Y001908D03*
X006420Y003396D03*
X005406Y003396D03*
D59*
X005376Y003384D03*
X005670Y003108D03*
X006108Y003210D03*
X006444Y003384D03*
X006456Y003378D03*
X005910Y002466D03*
X005376Y001626D03*
X006444Y001626D03*
X006858Y001938D03*
X006858Y001944D03*
D60*
X006864Y001956D03*
X006456Y001632D03*
X005910Y002586D03*
X006150Y003108D03*
X006474Y003366D03*
X005670Y003114D03*
X005358Y003372D03*
D61*
X006432Y002856D03*
X006168Y002280D03*
X005946Y001632D03*
X005880Y001632D03*
D62*
X005367Y001632D03*
X006423Y002742D03*
X005367Y003378D03*
D63*
X005349Y003366D03*
X005391Y002736D03*
X006111Y003216D03*
X006483Y003360D03*
X006867Y001968D03*
X006867Y001962D03*
X006477Y001644D03*
X006465Y001638D03*
X005355Y001638D03*
D64*
X005958Y001638D03*
X006066Y002280D03*
X006066Y002286D03*
X006066Y002292D03*
X006066Y002340D03*
X006066Y002346D03*
X006072Y002358D03*
X006264Y002352D03*
X006264Y002280D03*
X006264Y002274D03*
X006444Y002850D03*
X005754Y002352D03*
X005754Y002346D03*
X005754Y002280D03*
X005754Y002274D03*
X005652Y002340D03*
X005556Y002346D03*
X005556Y002352D03*
X005556Y002286D03*
X005556Y002280D03*
X005562Y002268D03*
X005658Y002472D03*
X005292Y002622D03*
X005688Y003336D03*
D65*
X005907Y003150D03*
X005373Y002850D03*
X005553Y002340D03*
X005553Y002334D03*
X005553Y002298D03*
X005553Y002292D03*
X005655Y002286D03*
X006063Y002298D03*
X006063Y002328D03*
X006063Y002334D03*
X006165Y002286D03*
X006273Y002298D03*
X006273Y002304D03*
X006273Y002310D03*
X006273Y002316D03*
X006273Y002322D03*
X006273Y002328D03*
X006267Y002346D03*
X005865Y001638D03*
D66*
X005850Y001644D03*
X005736Y002250D03*
X005742Y002256D03*
X005658Y002298D03*
X005652Y002328D03*
X005580Y002382D03*
X005574Y002376D03*
X005568Y002370D03*
X005574Y002250D03*
X005580Y002244D03*
X005736Y002376D03*
X005742Y002370D03*
X005910Y002580D03*
X006090Y002382D03*
X006084Y002376D03*
X006084Y002250D03*
X006246Y002250D03*
X006252Y002256D03*
X006258Y002262D03*
X006150Y003354D03*
X005910Y003642D03*
D67*
X006114Y003222D03*
X006156Y003114D03*
X006492Y003354D03*
X005664Y003120D03*
X005916Y002166D03*
X005346Y001644D03*
X005334Y001650D03*
D68*
X005325Y001656D03*
X005913Y002460D03*
X006435Y002748D03*
X006117Y003228D03*
X005331Y003354D03*
X006873Y001986D03*
X006873Y001980D03*
X006489Y001650D03*
D69*
X006402Y001986D03*
X006222Y002232D03*
X006522Y002616D03*
X006642Y002502D03*
X006648Y002496D03*
X006654Y002490D03*
X006660Y002478D03*
X006666Y002472D03*
X006672Y002460D03*
X006678Y002454D03*
X006684Y002442D03*
X006732Y002304D03*
X005988Y001650D03*
X005142Y002448D03*
X005148Y002460D03*
X005154Y002466D03*
X005160Y002478D03*
X005166Y002484D03*
X005172Y002490D03*
X005178Y002502D03*
X005184Y002508D03*
X005190Y002514D03*
D70*
X005145Y002454D03*
X005115Y002400D03*
X005295Y002616D03*
X005685Y003330D03*
X006465Y002838D03*
X006735Y002310D03*
X005835Y001650D03*
D71*
X006498Y001656D03*
X006318Y002478D03*
X006162Y003120D03*
D72*
X006477Y002826D03*
X006597Y002550D03*
X006603Y002544D03*
X006609Y002538D03*
X006585Y002154D03*
X006579Y002148D03*
X006573Y002142D03*
X006567Y002136D03*
X006561Y002130D03*
X006555Y002124D03*
X006549Y002118D03*
X006531Y001956D03*
X006525Y001950D03*
X006519Y001944D03*
X006003Y001656D03*
X005817Y001656D03*
X005295Y001950D03*
X005289Y001956D03*
X005283Y001962D03*
X005295Y002100D03*
X005289Y002106D03*
X005283Y002112D03*
X005277Y002118D03*
X005253Y002136D03*
X005247Y002142D03*
X005241Y002148D03*
X005235Y002154D03*
X005229Y002160D03*
X005223Y002166D03*
X005217Y002172D03*
X005211Y002178D03*
X005097Y002286D03*
X005217Y002538D03*
X005223Y002544D03*
X005229Y002550D03*
X005235Y002556D03*
X005331Y002820D03*
X005433Y002286D03*
X005685Y003324D03*
D73*
X005244Y002562D03*
X005172Y002214D03*
X005178Y002208D03*
X005184Y002202D03*
X005196Y002190D03*
X005202Y002184D03*
X005304Y001944D03*
X005316Y001932D03*
X005322Y001926D03*
X006018Y001662D03*
X006492Y001920D03*
X006498Y001926D03*
X006504Y001932D03*
X006594Y002160D03*
X006606Y002172D03*
X006612Y002178D03*
X006618Y002184D03*
X006624Y002190D03*
X006636Y002202D03*
X006642Y002208D03*
X006726Y002286D03*
X006588Y002556D03*
D74*
X006579Y002562D03*
X006519Y002610D03*
X006483Y002820D03*
X006723Y002280D03*
X006663Y002226D03*
X006657Y002220D03*
X006651Y002214D03*
X006483Y001914D03*
X006477Y001908D03*
X006471Y001902D03*
X006165Y002202D03*
X005655Y002202D03*
X005655Y002424D03*
X005301Y002610D03*
X005253Y002568D03*
X005151Y002232D03*
X005157Y002226D03*
X005163Y002220D03*
X005331Y001920D03*
X005337Y001914D03*
X005343Y001908D03*
X005361Y001896D03*
X005805Y001662D03*
X005913Y003156D03*
X005817Y003210D03*
X006147Y003342D03*
D75*
X006504Y003348D03*
X005664Y003126D03*
X005316Y003348D03*
X005310Y003342D03*
X005316Y001662D03*
X006876Y001992D03*
X006876Y001998D03*
D76*
X006882Y002010D03*
X006882Y002016D03*
X006516Y001668D03*
X005910Y002454D03*
X005514Y002556D03*
X005376Y002742D03*
X005658Y003132D03*
X005292Y003330D03*
X005910Y003630D03*
X006120Y003234D03*
X006522Y003336D03*
X006306Y002556D03*
X005298Y001674D03*
D77*
X005370Y001890D03*
X005352Y001902D03*
X005142Y002238D03*
X005136Y002244D03*
X005130Y002250D03*
X005100Y002280D03*
X005262Y002574D03*
X005316Y002808D03*
X005322Y002814D03*
X005688Y003318D03*
X006168Y002424D03*
X006570Y002568D03*
X006720Y002274D03*
X006714Y002268D03*
X006708Y002262D03*
X006702Y002256D03*
X006696Y002250D03*
X006678Y002238D03*
X006672Y002232D03*
X006420Y001992D03*
X006462Y001896D03*
X006444Y001884D03*
X006030Y001668D03*
D78*
X005793Y001668D03*
X005403Y001866D03*
X005397Y001872D03*
X005403Y001992D03*
X005103Y002274D03*
X005313Y002802D03*
X006453Y001890D03*
X006687Y002244D03*
D79*
X006885Y002028D03*
X006885Y002022D03*
X006525Y001674D03*
X006165Y003126D03*
D80*
X006150Y003336D03*
X005688Y003312D03*
X005892Y002844D03*
X006168Y002418D03*
X006168Y002208D03*
X006390Y002226D03*
X006390Y002232D03*
X006396Y002238D03*
X006396Y002244D03*
X006402Y002256D03*
X006402Y002262D03*
X006402Y002268D03*
X006420Y001866D03*
X006402Y001854D03*
X006396Y001848D03*
X006384Y001842D03*
X006366Y001830D03*
X006042Y001674D03*
X005658Y002208D03*
X005424Y002262D03*
X005418Y002274D03*
X005418Y002280D03*
X005412Y001860D03*
X005418Y001854D03*
X005430Y001848D03*
X005436Y001842D03*
X006492Y002814D03*
X006498Y002808D03*
D81*
X006501Y002802D03*
X006417Y002346D03*
X006417Y002340D03*
X006417Y002334D03*
X006387Y002220D03*
X006381Y002214D03*
X006381Y002208D03*
X006357Y001824D03*
X005781Y001674D03*
X005469Y001824D03*
X005457Y001830D03*
X005433Y002238D03*
X005433Y002244D03*
X005427Y002250D03*
X005427Y002256D03*
X005421Y002268D03*
X005427Y002580D03*
X005307Y002796D03*
D82*
X005277Y003318D03*
X005283Y003324D03*
X005703Y003216D03*
X006123Y003240D03*
X006531Y003330D03*
X006537Y003324D03*
X006549Y003318D03*
X006531Y001680D03*
X005289Y001680D03*
D83*
X005478Y001818D03*
X005490Y001812D03*
X005496Y001806D03*
X005412Y002340D03*
X005310Y002604D03*
X006054Y001680D03*
X006312Y001800D03*
X006324Y001806D03*
X006336Y001812D03*
X006372Y002196D03*
X006378Y002202D03*
X006414Y002352D03*
X006414Y002358D03*
X006396Y002580D03*
X006510Y002604D03*
D84*
X006501Y002796D03*
X006411Y002370D03*
X006411Y002364D03*
X006435Y001998D03*
X005769Y001680D03*
X005523Y001794D03*
X005511Y001800D03*
X005445Y002220D03*
X005439Y002232D03*
X005415Y002346D03*
X005415Y002352D03*
X005655Y002412D03*
X005655Y002214D03*
X005307Y002790D03*
X005691Y003306D03*
X005913Y003162D03*
X006147Y003330D03*
D85*
X006168Y003132D03*
X006558Y003312D03*
X006450Y002754D03*
X005910Y002178D03*
X005280Y001686D03*
X005274Y001692D03*
X006540Y001686D03*
X006888Y002034D03*
X005658Y003138D03*
X005268Y003312D03*
D86*
X005691Y003300D03*
X005415Y002364D03*
X005451Y002208D03*
X005457Y002202D03*
X005547Y001782D03*
X005913Y002340D03*
X006357Y002178D03*
X006363Y002184D03*
X006405Y002382D03*
X006405Y002388D03*
X006285Y001788D03*
X006273Y001782D03*
X006267Y001776D03*
X006069Y001686D03*
D87*
X006300Y001794D03*
X006366Y002190D03*
X005754Y001686D03*
D88*
X005265Y001698D03*
X006549Y001692D03*
X006555Y001698D03*
X006891Y002040D03*
X006891Y002046D03*
X005259Y003306D03*
D89*
X006144Y003324D03*
X006168Y002406D03*
X006168Y002220D03*
X006402Y002394D03*
X006252Y001770D03*
X006078Y001692D03*
X005742Y001692D03*
X005556Y001776D03*
X005418Y002370D03*
X005418Y002376D03*
X005418Y002382D03*
X005418Y002388D03*
D90*
X005424Y002400D03*
X005910Y002364D03*
X005916Y002268D03*
X005916Y002262D03*
X006168Y002400D03*
X006402Y002406D03*
X006378Y002574D03*
X006504Y002598D03*
X006342Y002166D03*
X006222Y001758D03*
X006210Y001752D03*
X006090Y001698D03*
X005598Y001758D03*
X005916Y003168D03*
X006144Y003318D03*
D91*
X005691Y003294D03*
X005445Y002574D03*
X005319Y002598D03*
X005421Y002394D03*
X005463Y002190D03*
X005469Y002184D03*
X005655Y002220D03*
X005655Y002406D03*
X005913Y002346D03*
X005913Y002274D03*
X006351Y002172D03*
X006399Y002400D03*
X006501Y002790D03*
X006237Y001764D03*
X005733Y001698D03*
X005583Y001764D03*
X005571Y001770D03*
D92*
X005910Y002184D03*
X005916Y002442D03*
X006174Y003138D03*
X006582Y003294D03*
X005700Y003228D03*
X005652Y003144D03*
X005250Y003300D03*
X005244Y003294D03*
X005250Y001710D03*
X005256Y001704D03*
X006564Y001704D03*
X006894Y002052D03*
D93*
X006897Y002058D03*
X006897Y002064D03*
X006897Y002070D03*
X006579Y001716D03*
X006573Y001710D03*
X005913Y002436D03*
X005895Y002850D03*
X005919Y003204D03*
X006129Y003252D03*
X006585Y003288D03*
X006459Y002760D03*
X005235Y003288D03*
X005229Y003282D03*
X005223Y003276D03*
X005235Y001722D03*
X005241Y001716D03*
D94*
X005493Y002160D03*
X005433Y002424D03*
X005433Y002430D03*
X005913Y002388D03*
X005913Y002244D03*
X006333Y002160D03*
X006387Y002436D03*
X006909Y002796D03*
X006909Y002802D03*
X006903Y002814D03*
X006903Y002820D03*
X006903Y002826D03*
X006897Y002832D03*
X006897Y002838D03*
X006897Y002844D03*
X006891Y002856D03*
X006879Y002886D03*
X005691Y003282D03*
X004929Y002850D03*
X004929Y002844D03*
X004923Y002832D03*
X004917Y002820D03*
X004917Y002814D03*
X004917Y002808D03*
X004911Y002796D03*
X004911Y002790D03*
X004899Y002748D03*
X004899Y002262D03*
X004911Y002220D03*
X004911Y002214D03*
X004917Y002202D03*
X004917Y002196D03*
X004917Y002190D03*
X004923Y002178D03*
X004929Y002160D03*
X006111Y001710D03*
X006177Y001740D03*
D95*
X006192Y001746D03*
X005712Y001710D03*
X005628Y001746D03*
X005484Y002166D03*
X005430Y002418D03*
X005910Y002382D03*
X005910Y002376D03*
X005916Y002250D03*
X006168Y002394D03*
X006390Y002430D03*
X006396Y002424D03*
X006942Y002628D03*
X006942Y002634D03*
X006942Y002640D03*
X006942Y002646D03*
X006942Y002652D03*
X006942Y002658D03*
X006936Y002670D03*
X006936Y002676D03*
X006936Y002682D03*
X006936Y002688D03*
X006936Y002694D03*
X006930Y002712D03*
X006930Y002718D03*
X006930Y002724D03*
X006930Y002730D03*
X006924Y002736D03*
X006924Y002742D03*
X006924Y002748D03*
X006924Y002754D03*
X006918Y002760D03*
X006918Y002766D03*
X006918Y002772D03*
X006918Y002778D03*
X006912Y002784D03*
X006912Y002790D03*
X006906Y002808D03*
X006948Y002622D03*
X006948Y002616D03*
X006948Y002610D03*
X006948Y002604D03*
X006948Y002598D03*
X006948Y002592D03*
X006948Y002586D03*
X006948Y002580D03*
X006948Y002574D03*
X006948Y002568D03*
X006948Y002442D03*
X006948Y002436D03*
X006948Y002430D03*
X006948Y002424D03*
X006948Y002418D03*
X006948Y002412D03*
X006948Y002406D03*
X006948Y002400D03*
X006948Y002394D03*
X006948Y002388D03*
X006948Y002382D03*
X006144Y003312D03*
X004914Y002802D03*
X004908Y002784D03*
X004908Y002778D03*
X004902Y002766D03*
X004902Y002760D03*
X004902Y002754D03*
X004896Y002742D03*
X004896Y002736D03*
X004896Y002730D03*
X004896Y002724D03*
X004890Y002718D03*
X004890Y002712D03*
X004890Y002706D03*
X004890Y002700D03*
X004884Y002682D03*
X004884Y002676D03*
X004884Y002670D03*
X004878Y002640D03*
X004878Y002634D03*
X004878Y002628D03*
X004878Y002622D03*
X004878Y002616D03*
X004872Y002574D03*
X004872Y002568D03*
X004872Y002562D03*
X004872Y002556D03*
X004872Y002550D03*
X004872Y002544D03*
X004872Y002538D03*
X004872Y002532D03*
X004872Y002526D03*
X004872Y002520D03*
X004872Y002514D03*
X004872Y002508D03*
X004872Y002502D03*
X004872Y002496D03*
X004872Y002490D03*
X004872Y002484D03*
X004872Y002478D03*
X004872Y002472D03*
X004872Y002466D03*
X004872Y002460D03*
X004872Y002454D03*
X004872Y002448D03*
X004872Y002442D03*
X004872Y002436D03*
X004878Y002394D03*
X004878Y002388D03*
X004878Y002382D03*
X004878Y002376D03*
X004878Y002370D03*
X004884Y002334D03*
X004884Y002328D03*
X004890Y002304D03*
X004890Y002298D03*
X004890Y002292D03*
X004896Y002286D03*
X004896Y002280D03*
X004896Y002274D03*
X004896Y002268D03*
X004902Y002256D03*
X004902Y002250D03*
X004902Y002244D03*
X004902Y002238D03*
X004908Y002232D03*
X004908Y002226D03*
X004914Y002208D03*
D96*
X004920Y002184D03*
X004926Y002172D03*
X004926Y002166D03*
X004932Y002154D03*
X004932Y002148D03*
X004938Y002136D03*
X004938Y002130D03*
X004944Y002124D03*
X004944Y002118D03*
X004950Y002112D03*
X004950Y002106D03*
X004956Y002094D03*
X004962Y002076D03*
X005436Y002436D03*
X005910Y002394D03*
X005910Y001842D03*
X005700Y001716D03*
X005646Y001740D03*
X006120Y001716D03*
X006132Y001722D03*
X006942Y002304D03*
X006942Y002310D03*
X006942Y002316D03*
X006942Y002322D03*
X006942Y002328D03*
X006942Y002334D03*
X006942Y002340D03*
X006894Y002850D03*
X006888Y002862D03*
X006882Y002880D03*
X006876Y002892D03*
X006876Y002898D03*
X006870Y002904D03*
X006870Y002910D03*
X006864Y002916D03*
X006864Y002922D03*
X006858Y002934D03*
X006138Y003306D03*
X005916Y003174D03*
X005688Y003276D03*
X004968Y002946D03*
X004956Y002916D03*
X004950Y002904D03*
X004950Y002898D03*
X004944Y002892D03*
X004944Y002886D03*
X004938Y002880D03*
X004938Y002874D03*
X004932Y002862D03*
X004932Y002856D03*
X004926Y002838D03*
X004920Y002826D03*
D97*
X005208Y003264D03*
X005214Y003270D03*
X005652Y003150D03*
X006174Y003144D03*
X006594Y003282D03*
X006606Y003270D03*
X006594Y001728D03*
X006588Y001722D03*
X005226Y001728D03*
D98*
X004983Y002034D03*
X004977Y002046D03*
X004971Y002052D03*
X004971Y002058D03*
X004965Y002064D03*
X004965Y002070D03*
X004959Y002082D03*
X004959Y002088D03*
X004953Y002100D03*
X005325Y002772D03*
X005643Y003204D03*
X005643Y003210D03*
X006141Y003300D03*
X006189Y003204D03*
X006831Y002988D03*
X006837Y002976D03*
X006843Y002970D03*
X006843Y002964D03*
X006849Y002958D03*
X006849Y002952D03*
X006855Y002946D03*
X006855Y002940D03*
X006861Y002928D03*
X006939Y002298D03*
X006939Y002292D03*
X006939Y002286D03*
X006939Y002280D03*
X006381Y002442D03*
X005913Y002400D03*
X005913Y002238D03*
X005913Y002232D03*
X006159Y001734D03*
X005691Y001722D03*
X004953Y002910D03*
X004959Y002922D03*
X004959Y002928D03*
X004965Y002934D03*
X004965Y002940D03*
X004971Y002952D03*
X004977Y002958D03*
X004977Y002964D03*
X004983Y002970D03*
X004983Y002976D03*
D99*
X004986Y002982D03*
X005004Y003006D03*
X005004Y003012D03*
X005010Y003018D03*
X005010Y003024D03*
X005016Y003030D03*
X005466Y002568D03*
X004980Y002040D03*
X004986Y002028D03*
X005004Y001998D03*
X005010Y001986D03*
X005016Y001974D03*
X005664Y001734D03*
X006144Y001728D03*
X006936Y002256D03*
X006936Y002262D03*
X006936Y002268D03*
X006936Y002274D03*
X006834Y002982D03*
X006816Y003012D03*
X006816Y003018D03*
X006810Y003024D03*
D100*
X006822Y003006D03*
X006822Y003000D03*
X006828Y002994D03*
X006492Y002592D03*
X006378Y002448D03*
X006318Y002154D03*
X005682Y001728D03*
X004998Y002004D03*
X004998Y002010D03*
X004992Y002016D03*
X004992Y002022D03*
X005442Y002442D03*
X005328Y002592D03*
X004992Y002988D03*
X004992Y002994D03*
X004998Y003000D03*
X005688Y003270D03*
D101*
X005649Y003156D03*
X005919Y003198D03*
X006129Y003258D03*
X006177Y003150D03*
X006615Y003264D03*
X006621Y003258D03*
X006627Y003252D03*
X006903Y002094D03*
X006903Y002088D03*
X006615Y001746D03*
X006609Y001740D03*
X006603Y001734D03*
X005211Y001740D03*
X005205Y001746D03*
X005199Y001752D03*
X005205Y003258D03*
D102*
X005700Y003234D03*
X006600Y003276D03*
X006900Y002082D03*
X006900Y002076D03*
X005910Y002190D03*
X005910Y001854D03*
X005220Y001734D03*
D103*
X006624Y001752D03*
X006630Y001758D03*
X006636Y001764D03*
X006906Y002100D03*
X006906Y002106D03*
X006636Y003246D03*
X006180Y003156D03*
X005694Y003240D03*
X005196Y003252D03*
X005190Y003246D03*
D104*
X004887Y002694D03*
X004887Y002688D03*
X004887Y002322D03*
X004887Y002316D03*
X004887Y002310D03*
X005427Y002406D03*
X005427Y002412D03*
X005907Y002370D03*
X005913Y002256D03*
X005613Y001752D03*
X006933Y002700D03*
X006933Y002706D03*
D105*
X006465Y002766D03*
X006651Y003228D03*
X005913Y002430D03*
X005907Y002196D03*
X005475Y002472D03*
X005181Y001770D03*
X005187Y001764D03*
X005193Y001758D03*
X006645Y001770D03*
X006909Y002112D03*
X006909Y002118D03*
X005649Y003162D03*
X005181Y003240D03*
X005175Y003234D03*
X005169Y003228D03*
X005163Y003222D03*
D106*
X005160Y003216D03*
X005154Y003210D03*
X005148Y003204D03*
X005142Y003198D03*
X005646Y003168D03*
X005694Y003246D03*
X005916Y003192D03*
X006132Y003270D03*
X006180Y003162D03*
X006660Y003222D03*
X006666Y003216D03*
X006672Y003210D03*
X006336Y002562D03*
X006912Y002130D03*
X006912Y002124D03*
X006672Y001800D03*
X006666Y001794D03*
X006660Y001788D03*
X006654Y001782D03*
X006648Y001776D03*
X005466Y002466D03*
X005484Y002562D03*
X005154Y001794D03*
X005160Y001788D03*
X005166Y001782D03*
X005172Y001776D03*
D107*
X005532Y001788D03*
X005448Y002214D03*
X005442Y002226D03*
X005418Y002358D03*
X006168Y002412D03*
X006168Y002214D03*
X006408Y002376D03*
D108*
X006357Y002472D03*
X005913Y002424D03*
X005343Y002760D03*
X005649Y003174D03*
X006183Y003168D03*
X006681Y003198D03*
X006687Y003192D03*
X006693Y003186D03*
X006681Y001812D03*
X005331Y001998D03*
X005319Y002010D03*
X005139Y001812D03*
X005151Y001800D03*
D109*
X005145Y001806D03*
X005325Y002004D03*
X006495Y002004D03*
X006675Y001806D03*
X006915Y002136D03*
X006915Y002142D03*
X006915Y002148D03*
X006675Y003204D03*
D110*
X006696Y003180D03*
X006702Y003174D03*
X006708Y003168D03*
X006714Y003162D03*
X006480Y002586D03*
X006510Y002016D03*
X006504Y002010D03*
X006696Y001824D03*
X006690Y001818D03*
X006918Y002154D03*
X006918Y002160D03*
X005910Y002202D03*
X005340Y002586D03*
X005316Y002016D03*
X005130Y001818D03*
X005118Y003174D03*
X005124Y003180D03*
X005130Y003186D03*
X005136Y003192D03*
X005646Y003180D03*
X005694Y003252D03*
X006132Y003276D03*
D111*
X005655Y002418D03*
X005445Y001836D03*
X006345Y001818D03*
X006375Y001836D03*
D112*
X006519Y002028D03*
X006705Y001836D03*
X006699Y001830D03*
X006921Y002166D03*
X006921Y002172D03*
X006921Y002178D03*
X006729Y003144D03*
X006135Y003282D03*
X005691Y003258D03*
X005115Y003168D03*
X005109Y003162D03*
X005091Y003138D03*
X005085Y003132D03*
X005919Y002418D03*
X005301Y002028D03*
X005295Y002034D03*
X005109Y001842D03*
X005115Y001836D03*
X005121Y001830D03*
D113*
X005421Y001986D03*
X005721Y002238D03*
X005913Y001836D03*
X006711Y002388D03*
X006693Y002424D03*
X006693Y002430D03*
X006687Y002436D03*
X006681Y002448D03*
X006669Y002466D03*
X006657Y002484D03*
X005343Y002832D03*
X005157Y002472D03*
X005139Y002442D03*
X005133Y002436D03*
X005133Y002430D03*
X005127Y002424D03*
X005121Y002412D03*
X005109Y002382D03*
X005091Y002304D03*
D114*
X006816Y001842D03*
D115*
X006540Y002046D03*
X006534Y002040D03*
X006528Y002034D03*
X006924Y002184D03*
X006924Y002190D03*
X006924Y002196D03*
X006366Y002466D03*
X005910Y002208D03*
X005910Y001848D03*
X005454Y002460D03*
X005292Y002040D03*
X005094Y001866D03*
X005088Y001872D03*
X005082Y001878D03*
X005100Y001854D03*
X005106Y001848D03*
X005076Y003120D03*
X005082Y003126D03*
X005094Y003144D03*
X005646Y003186D03*
X006186Y003180D03*
X006732Y003138D03*
X006738Y003132D03*
X006750Y003114D03*
X006756Y003108D03*
D116*
X006360Y003420D03*
X006822Y001860D03*
D117*
X006435Y001878D03*
X006429Y001872D03*
X006411Y001860D03*
X006399Y002250D03*
X006405Y002274D03*
X006411Y002280D03*
X006561Y002574D03*
X006549Y002580D03*
X005385Y001878D03*
X005379Y001884D03*
X005121Y002256D03*
X005115Y002262D03*
X005109Y002268D03*
X005271Y002580D03*
D118*
X006825Y001866D03*
D119*
X005913Y001866D03*
X005907Y002160D03*
X005403Y002730D03*
X006147Y003102D03*
D120*
X005448Y003414D03*
X005436Y002718D03*
X006828Y001872D03*
D121*
X006837Y001890D03*
X006393Y002730D03*
X006129Y003096D03*
X006393Y003408D03*
X005691Y003096D03*
X005427Y003408D03*
X005913Y001872D03*
D122*
X005913Y002214D03*
X006369Y002460D03*
X006543Y002052D03*
X006927Y002202D03*
X006927Y002208D03*
X006765Y003096D03*
X006759Y003102D03*
X006747Y003120D03*
X006741Y003126D03*
X005451Y002454D03*
X005277Y002052D03*
X005283Y002046D03*
X005079Y001884D03*
X005073Y001890D03*
X005067Y001896D03*
X005061Y001908D03*
X005055Y001914D03*
X005043Y001932D03*
X005061Y003102D03*
X005067Y003108D03*
X005073Y003114D03*
D123*
X005898Y002862D03*
X005910Y001890D03*
D124*
X006270Y002550D03*
X006840Y001896D03*
D125*
X005910Y001896D03*
X005910Y002592D03*
X005484Y002706D03*
X005520Y003438D03*
D126*
X005688Y003264D03*
X005646Y003192D03*
X005916Y003180D03*
X006138Y003288D03*
X006186Y003192D03*
X006186Y003186D03*
X006768Y003090D03*
X006774Y003084D03*
X006786Y003066D03*
X006792Y003054D03*
X006372Y002454D03*
X005916Y002412D03*
X005448Y002448D03*
X005334Y002766D03*
X005028Y003054D03*
X005046Y003078D03*
X005046Y003084D03*
X005052Y003090D03*
X005058Y003096D03*
X005022Y001962D03*
X005028Y001956D03*
X005034Y001944D03*
X005046Y001926D03*
X005052Y001920D03*
X005064Y001902D03*
D127*
X006429Y003390D03*
X005913Y003624D03*
X006849Y001920D03*
X006849Y001914D03*
D128*
X005910Y001914D03*
D129*
X005910Y001920D03*
X005910Y003600D03*
D130*
X005913Y001926D03*
D131*
X006855Y001932D03*
D132*
X005910Y001932D03*
D133*
X005310Y001938D03*
X005190Y002196D03*
X006510Y001938D03*
X006600Y002166D03*
X006630Y002196D03*
D134*
X006930Y002214D03*
X006930Y002220D03*
X006930Y002226D03*
X006780Y003072D03*
X006780Y003078D03*
X005040Y003072D03*
X005040Y001938D03*
D135*
X005910Y001944D03*
D136*
X006861Y001950D03*
X006465Y003372D03*
D137*
X006189Y003198D03*
X006141Y003294D03*
X005643Y003198D03*
X005037Y003066D03*
X005031Y003060D03*
X005025Y003048D03*
X005019Y003042D03*
X005019Y003036D03*
X005913Y002406D03*
X005913Y002226D03*
X005913Y002220D03*
X006357Y002568D03*
X006483Y002778D03*
X006801Y003036D03*
X006801Y003042D03*
X006795Y003048D03*
X006789Y003060D03*
X006807Y003030D03*
X006933Y002250D03*
X006933Y002244D03*
X006933Y002238D03*
X006933Y002232D03*
X005031Y001950D03*
X005019Y001968D03*
X005013Y001980D03*
X005007Y001992D03*
D138*
X005910Y001956D03*
D139*
X005316Y002082D03*
X005310Y002088D03*
X005304Y002094D03*
X005256Y001986D03*
X005274Y001968D03*
X005094Y002292D03*
X006516Y002088D03*
X006534Y002106D03*
X006540Y002112D03*
X006546Y001968D03*
X006540Y001962D03*
X006726Y002292D03*
X006636Y002508D03*
X006630Y002514D03*
X006624Y002520D03*
D140*
X005910Y001968D03*
D141*
X006870Y001974D03*
X005340Y003360D03*
D142*
X005208Y002532D03*
X005202Y002526D03*
X005262Y002130D03*
X005268Y002124D03*
X005262Y001980D03*
X005268Y001974D03*
X006168Y002430D03*
X006612Y002532D03*
X006618Y002526D03*
X006528Y002100D03*
X006522Y002094D03*
X006558Y001980D03*
X006552Y001974D03*
D143*
X005910Y001974D03*
X005910Y003576D03*
D144*
X006147Y003348D03*
X006471Y002832D03*
X006729Y002298D03*
X006507Y002082D03*
X006501Y002076D03*
X006489Y002070D03*
X006483Y002064D03*
X006477Y002058D03*
X006573Y001998D03*
X006573Y001992D03*
X006567Y001986D03*
X006117Y002232D03*
X005709Y002232D03*
X005601Y002232D03*
X005655Y002430D03*
X005325Y002076D03*
X005331Y002070D03*
X005337Y002064D03*
X005343Y002058D03*
X005253Y001992D03*
X005091Y002298D03*
X005175Y002496D03*
X005193Y002520D03*
X005337Y002826D03*
D145*
X005910Y001986D03*
D146*
X005910Y001992D03*
X005910Y002610D03*
X005910Y003570D03*
D147*
X005910Y001998D03*
D148*
X005910Y002004D03*
D149*
X005910Y002010D03*
D150*
X005910Y002022D03*
D151*
X005910Y002034D03*
X005910Y002616D03*
X005916Y002916D03*
D152*
X005907Y003048D03*
X005907Y003054D03*
X005907Y003060D03*
X005907Y003066D03*
X005913Y002040D03*
D153*
X005910Y002052D03*
X005904Y003030D03*
D154*
X005166Y002058D03*
X006654Y002058D03*
D155*
X005913Y002064D03*
X005907Y003000D03*
D156*
X005904Y002994D03*
X005904Y002988D03*
X005910Y002070D03*
D157*
X005910Y002082D03*
X005910Y002934D03*
D158*
X005913Y002088D03*
D159*
X005910Y002094D03*
X005910Y003534D03*
D160*
X005913Y002106D03*
D161*
X005913Y002112D03*
D162*
X005913Y002124D03*
D163*
X005910Y002130D03*
X005910Y003522D03*
D164*
X005913Y002136D03*
D165*
X005913Y002148D03*
D166*
X005760Y002154D03*
D167*
X005655Y002190D03*
X006171Y002190D03*
D168*
X006168Y002196D03*
X006234Y002238D03*
X006168Y002298D03*
X006168Y002304D03*
X006168Y002310D03*
X006162Y002316D03*
X006234Y002388D03*
X006696Y002418D03*
X006702Y002412D03*
X006702Y002406D03*
X006708Y002400D03*
X006708Y002394D03*
X006714Y002382D03*
X006714Y002376D03*
X006720Y002370D03*
X006720Y002364D03*
X006726Y002352D03*
X006726Y002346D03*
X006732Y002334D03*
X006732Y002328D03*
X006732Y002316D03*
X005724Y002388D03*
X005592Y002388D03*
X005586Y002238D03*
X005124Y002418D03*
X005118Y002406D03*
X005112Y002394D03*
X005112Y002388D03*
X005106Y002376D03*
X005106Y002370D03*
X005100Y002364D03*
X005100Y002358D03*
X005100Y002352D03*
X005094Y002346D03*
X005094Y002340D03*
X005088Y002328D03*
X005088Y002322D03*
X005088Y002316D03*
X005088Y002310D03*
X005352Y002838D03*
D169*
X005091Y002334D03*
X005655Y002322D03*
X005655Y002316D03*
X005655Y002310D03*
X005655Y002304D03*
X005655Y002196D03*
X005865Y002280D03*
X006099Y002238D03*
X006165Y002292D03*
X006165Y002322D03*
X006165Y002328D03*
X006099Y002388D03*
X006729Y002340D03*
X006735Y002322D03*
D170*
X005910Y002352D03*
X005910Y002358D03*
X005460Y002196D03*
X005310Y002784D03*
D171*
X005361Y002844D03*
X005565Y002364D03*
X005559Y002358D03*
X005559Y002274D03*
X005565Y002262D03*
X005571Y002256D03*
X005655Y002292D03*
X005655Y002334D03*
X005745Y002364D03*
X005751Y002358D03*
X005757Y002340D03*
X005751Y002268D03*
X005745Y002262D03*
X006069Y002274D03*
X006075Y002268D03*
X006075Y002262D03*
X006081Y002256D03*
X006069Y002352D03*
X006075Y002364D03*
X006081Y002370D03*
X006165Y002334D03*
X006249Y002376D03*
X006255Y002370D03*
X006261Y002364D03*
X006261Y002358D03*
X006261Y002268D03*
X006525Y002622D03*
D172*
X005943Y002280D03*
X005349Y002334D03*
X005289Y002628D03*
X005379Y002856D03*
D173*
X005352Y002286D03*
X005910Y002280D03*
X006426Y002862D03*
D174*
X006270Y002340D03*
X006270Y002334D03*
X006270Y002292D03*
X006270Y002286D03*
X006060Y002304D03*
X006060Y002310D03*
X006060Y002316D03*
X006060Y002322D03*
X005760Y002322D03*
X005760Y002328D03*
X005760Y002334D03*
X005760Y002316D03*
X005760Y002310D03*
X005760Y002304D03*
X005760Y002298D03*
X005760Y002292D03*
X005760Y002286D03*
X005550Y002304D03*
X005550Y002310D03*
X005550Y002316D03*
X005550Y002322D03*
X005550Y002328D03*
D175*
X006357Y002328D03*
D176*
X006162Y002340D03*
D177*
X006171Y002436D03*
X006531Y002628D03*
X005655Y002436D03*
X005655Y002346D03*
D178*
X005913Y002448D03*
X005367Y002748D03*
X005703Y003222D03*
X006123Y003246D03*
X006567Y003306D03*
X006573Y003300D03*
D179*
X005907Y002472D03*
D180*
X005739Y002478D03*
X005913Y002904D03*
D181*
X005913Y002496D03*
X005913Y002490D03*
X005913Y002484D03*
X005913Y003486D03*
D182*
X005910Y002520D03*
X005910Y002514D03*
X005910Y002508D03*
X005910Y002502D03*
D183*
X005913Y002526D03*
D184*
X005913Y002544D03*
D185*
X005910Y002598D03*
D186*
X005910Y002604D03*
D187*
X005907Y002622D03*
D188*
X005910Y002634D03*
D189*
X005910Y002640D03*
X005910Y003504D03*
D190*
X005910Y002646D03*
D191*
X005907Y002652D03*
D192*
X005910Y002676D03*
D193*
X005910Y002682D03*
D194*
X005910Y002688D03*
D195*
X005910Y002694D03*
D196*
X005907Y002880D03*
X006255Y002700D03*
X005913Y003594D03*
D197*
X005535Y002700D03*
D198*
X006309Y002706D03*
X005913Y003606D03*
D199*
X005463Y002712D03*
D200*
X006360Y002718D03*
D201*
X006648Y003234D03*
X006642Y003240D03*
X006132Y003264D03*
X005352Y002754D03*
D202*
X005904Y002874D03*
D203*
X005910Y002886D03*
D204*
X005913Y002898D03*
D205*
X005913Y002928D03*
X005907Y002976D03*
X005907Y002982D03*
D206*
X005904Y002952D03*
X005904Y002946D03*
X005904Y002940D03*
D207*
X005907Y003018D03*
X005907Y003024D03*
D208*
X005907Y003072D03*
X005907Y003078D03*
D209*
X005907Y003090D03*
X005913Y003558D03*
D210*
X006321Y003432D03*
X005499Y003432D03*
D211*
X005550Y003444D03*
X006276Y003444D03*
D212*
X005910Y003450D03*
D213*
X005913Y003456D03*
D214*
X005913Y003468D03*
D215*
X005910Y003498D03*
D216*
X005913Y003510D03*
D217*
X005913Y003516D03*
D218*
X005910Y003528D03*
D219*
X005910Y003552D03*
D220*
X005913Y003564D03*
D221*
X005910Y003618D03*
D222*
X000500Y000500D02*
X000500Y025000D01*
X023000Y025000D01*
X023000Y000500D01*
X000500Y000500D01*
X001600Y002600D02*
X001600Y021400D01*
X005000Y021400D01*
X005000Y003600D01*
X004000Y002600D01*
X001600Y002600D01*
X020493Y002050D02*
X020495Y002105D01*
X020501Y002159D01*
X020511Y002213D01*
X020524Y002266D01*
X020542Y002317D01*
X020563Y002368D01*
X020588Y002417D01*
X020616Y002463D01*
X020647Y002508D01*
X020682Y002550D01*
X020720Y002590D01*
X020760Y002627D01*
X020803Y002661D01*
X020848Y002691D01*
X020895Y002719D01*
X020945Y002743D01*
X020995Y002763D01*
X021047Y002779D01*
X021101Y002792D01*
X021155Y002801D01*
X021209Y002806D01*
X021264Y002807D01*
X021318Y002804D01*
X021372Y002797D01*
X021426Y002786D01*
X021479Y002772D01*
X021530Y002753D01*
X021580Y002731D01*
X021628Y002706D01*
X021675Y002677D01*
X021719Y002644D01*
X021761Y002609D01*
X021800Y002571D01*
X021836Y002530D01*
X021869Y002486D01*
X021899Y002440D01*
X021925Y002392D01*
X021948Y002343D01*
X021967Y002292D01*
X021983Y002239D01*
X021995Y002186D01*
X022003Y002132D01*
X022007Y002077D01*
X022007Y002023D01*
X022003Y001968D01*
X021995Y001914D01*
X021983Y001861D01*
X021967Y001808D01*
X021948Y001757D01*
X021925Y001708D01*
X021899Y001660D01*
X021869Y001614D01*
X021836Y001570D01*
X021800Y001529D01*
X021761Y001491D01*
X021719Y001456D01*
X021675Y001423D01*
X021629Y001394D01*
X021580Y001369D01*
X021530Y001347D01*
X021479Y001328D01*
X021426Y001314D01*
X021372Y001303D01*
X021318Y001296D01*
X021264Y001293D01*
X021209Y001294D01*
X021155Y001299D01*
X021101Y001308D01*
X021047Y001321D01*
X020995Y001337D01*
X020945Y001357D01*
X020895Y001381D01*
X020848Y001409D01*
X020803Y001439D01*
X020760Y001473D01*
X020720Y001510D01*
X020682Y001550D01*
X020647Y001592D01*
X020616Y001637D01*
X020588Y001683D01*
X020563Y001732D01*
X020542Y001783D01*
X020524Y001834D01*
X020511Y001887D01*
X020501Y001941D01*
X020495Y001995D01*
X020493Y002050D01*
D223*
X020620Y002050D02*
X020622Y002100D01*
X020628Y002150D01*
X020638Y002199D01*
X020652Y002247D01*
X020669Y002294D01*
X020690Y002339D01*
X020715Y002383D01*
X020743Y002424D01*
X020775Y002463D01*
X020809Y002500D01*
X020846Y002534D01*
X020886Y002564D01*
X020928Y002591D01*
X020972Y002615D01*
X021018Y002636D01*
X021065Y002652D01*
X021113Y002665D01*
X021163Y002674D01*
X021212Y002679D01*
X021263Y002680D01*
X021313Y002677D01*
X021362Y002670D01*
X021411Y002659D01*
X021459Y002644D01*
X021505Y002626D01*
X021550Y002604D01*
X021593Y002578D01*
X021634Y002549D01*
X021673Y002517D01*
X021709Y002482D01*
X021741Y002444D01*
X021771Y002404D01*
X021798Y002361D01*
X021821Y002317D01*
X021840Y002271D01*
X021856Y002223D01*
X021868Y002174D01*
X021876Y002125D01*
X021880Y002075D01*
X021880Y002025D01*
X021876Y001975D01*
X021868Y001926D01*
X021856Y001877D01*
X021840Y001829D01*
X021821Y001783D01*
X021798Y001739D01*
X021771Y001696D01*
X021741Y001656D01*
X021709Y001618D01*
X021673Y001583D01*
X021634Y001551D01*
X021593Y001522D01*
X021550Y001496D01*
X021505Y001474D01*
X021459Y001456D01*
X021411Y001441D01*
X021362Y001430D01*
X021313Y001423D01*
X021263Y001420D01*
X021212Y001421D01*
X021163Y001426D01*
X021113Y001435D01*
X021065Y001448D01*
X021018Y001464D01*
X020972Y001485D01*
X020928Y001509D01*
X020886Y001536D01*
X020846Y001566D01*
X020809Y001600D01*
X020775Y001637D01*
X020743Y001676D01*
X020715Y001717D01*
X020690Y001761D01*
X020669Y001806D01*
X020652Y001853D01*
X020638Y001901D01*
X020628Y001950D01*
X020622Y002000D01*
X020620Y002050D01*
X003093Y003350D02*
X003095Y003375D01*
X003101Y003399D01*
X003110Y003421D01*
X003123Y003442D01*
X003139Y003461D01*
X003158Y003477D01*
X003179Y003490D01*
X003201Y003499D01*
X003225Y003505D01*
X003250Y003507D01*
X003275Y003505D01*
X003299Y003499D01*
X003321Y003490D01*
X003342Y003477D01*
X003361Y003461D01*
X003377Y003442D01*
X003390Y003421D01*
X003399Y003399D01*
X003405Y003375D01*
X003407Y003350D01*
X003405Y003325D01*
X003399Y003301D01*
X003390Y003279D01*
X003377Y003258D01*
X003361Y003239D01*
X003342Y003223D01*
X003321Y003210D01*
X003299Y003201D01*
X003275Y003195D01*
X003250Y003193D01*
X003225Y003195D01*
X003201Y003201D01*
X003179Y003210D01*
X003158Y003223D01*
X003139Y003239D01*
X003123Y003258D01*
X003110Y003279D01*
X003101Y003301D01*
X003095Y003325D01*
X003093Y003350D01*
X003014Y020750D02*
X003016Y020780D01*
X003022Y020810D01*
X003031Y020839D01*
X003044Y020866D01*
X003061Y020891D01*
X003080Y020914D01*
X003103Y020935D01*
X003128Y020952D01*
X003154Y020966D01*
X003183Y020976D01*
X003212Y020983D01*
X003242Y020986D01*
X003273Y020985D01*
X003303Y020980D01*
X003332Y020971D01*
X003359Y020959D01*
X003385Y020944D01*
X003409Y020925D01*
X003430Y020903D01*
X003448Y020879D01*
X003463Y020852D01*
X003474Y020824D01*
X003482Y020795D01*
X003486Y020765D01*
X003486Y020735D01*
X003482Y020705D01*
X003474Y020676D01*
X003463Y020648D01*
X003448Y020621D01*
X003430Y020597D01*
X003409Y020575D01*
X003385Y020556D01*
X003359Y020541D01*
X003332Y020529D01*
X003303Y020520D01*
X003273Y020515D01*
X003242Y020514D01*
X003212Y020517D01*
X003183Y020524D01*
X003154Y020534D01*
X003128Y020548D01*
X003103Y020565D01*
X003080Y020586D01*
X003061Y020609D01*
X003044Y020634D01*
X003031Y020661D01*
X003022Y020690D01*
X003016Y020720D01*
X003014Y020750D01*
D224*
X003041Y002460D02*
X002831Y002460D01*
X002761Y002390D01*
X002761Y002250D01*
X002831Y002180D01*
X003041Y002180D01*
X002901Y002180D02*
X002761Y002040D01*
X002581Y002040D02*
X002301Y002040D01*
X002120Y002040D02*
X001840Y002040D01*
X001980Y002040D02*
X001980Y002460D01*
X002120Y002320D01*
X002301Y002460D02*
X002581Y002460D01*
X002581Y002040D01*
X002581Y002250D02*
X002441Y002250D01*
X003041Y002040D02*
X003041Y002460D01*
X003221Y002460D02*
X003221Y002110D01*
X003291Y002040D01*
X003432Y002040D01*
X003502Y002110D01*
X003502Y002460D01*
X003682Y002040D02*
X003962Y002040D01*
X003962Y002460D01*
M02*
