G75*
G70*
%OFA0B0*%
%FSLAX24Y24*%
%IPPOS*%
%LPD*%
%AMOC8*
5,1,8,0,0,1.08239X$1,22.5*
%
%ADD10C,0.1340*%
%ADD11R,0.0867X0.0277*%
%ADD12C,0.0552*%
%ADD13C,0.0395*%
%ADD14R,0.0720X0.0720*%
%ADD15OC8,0.0720*%
D10*
X021250Y002050D03*
D11*
X004116Y004332D03*
X004116Y004647D03*
X004116Y004962D03*
X004116Y005277D03*
X004116Y005592D03*
X004116Y005907D03*
X004116Y006222D03*
X004116Y006537D03*
X004116Y006852D03*
X004116Y007167D03*
X004116Y007482D03*
X004116Y007797D03*
X004116Y008112D03*
X004116Y008427D03*
X004116Y008742D03*
X004116Y009057D03*
X004116Y009372D03*
X004116Y009687D03*
X004116Y010002D03*
X004116Y010317D03*
X004116Y010632D03*
X004116Y010947D03*
X004116Y011262D03*
X004116Y011577D03*
X004116Y011891D03*
X004116Y012206D03*
X004116Y012521D03*
X004116Y012836D03*
X004116Y013151D03*
X004116Y013466D03*
X004116Y013781D03*
X004116Y014096D03*
X004116Y014411D03*
X004116Y014726D03*
X004116Y015041D03*
X004116Y015356D03*
X004116Y015671D03*
X004116Y015986D03*
X004116Y016301D03*
X004116Y016616D03*
X004116Y016931D03*
X004116Y017246D03*
X004116Y017561D03*
X004116Y017876D03*
X004116Y018191D03*
X004116Y018506D03*
X004116Y018821D03*
X004116Y019136D03*
X004116Y019451D03*
X004116Y019766D03*
X002384Y019766D03*
X002384Y019451D03*
X002384Y019136D03*
X002384Y018821D03*
X002384Y018506D03*
X002384Y018191D03*
X002384Y017876D03*
X002384Y017561D03*
X002384Y017246D03*
X002384Y016931D03*
X002384Y016616D03*
X002384Y016301D03*
X002384Y015986D03*
X002384Y015671D03*
X002384Y015356D03*
X002384Y015041D03*
X002384Y014726D03*
X002384Y014411D03*
X002384Y014096D03*
X002384Y013781D03*
X002384Y013466D03*
X002384Y013151D03*
X002384Y012836D03*
X002384Y012521D03*
X002384Y012206D03*
X002384Y011891D03*
X002384Y011577D03*
X002384Y011262D03*
X002384Y010947D03*
X002384Y010632D03*
X002384Y010317D03*
X002384Y010002D03*
X002384Y009687D03*
X002384Y009372D03*
X002384Y009057D03*
X002384Y008742D03*
X002384Y008427D03*
X002384Y008112D03*
X002384Y007797D03*
X002384Y007482D03*
X002384Y007167D03*
X002384Y006852D03*
X002384Y006537D03*
X002384Y006222D03*
X002384Y005907D03*
X002384Y005592D03*
X002384Y005277D03*
X002384Y004962D03*
X002384Y004647D03*
X002384Y004332D03*
D12*
X003250Y020750D03*
D13*
X003250Y003350D03*
D14*
X013200Y009700D03*
X013500Y005500D03*
X018000Y008600D03*
X018000Y017600D03*
X017500Y020000D03*
X008500Y020000D03*
D15*
X008500Y021000D03*
X009500Y021000D03*
X009500Y020000D03*
X010500Y020000D03*
X010500Y021000D03*
X011500Y021000D03*
X011500Y020000D03*
X012500Y020000D03*
X012500Y021000D03*
X013500Y021000D03*
X013500Y020000D03*
X017500Y021000D03*
X018500Y021000D03*
X018500Y020000D03*
X019500Y020000D03*
X019500Y021000D03*
X020500Y021000D03*
X020500Y020000D03*
X021500Y020000D03*
X021500Y021000D03*
X022500Y021000D03*
X022500Y020000D03*
X019000Y017600D03*
X019000Y016600D03*
X019000Y015600D03*
X019000Y014600D03*
X019000Y013600D03*
X019000Y012600D03*
X018000Y012600D03*
X018000Y013600D03*
X018000Y014600D03*
X018000Y015600D03*
X018000Y016600D03*
X016200Y010700D03*
X016200Y009700D03*
X015200Y009700D03*
X015200Y010700D03*
X014200Y010700D03*
X014200Y009700D03*
X013200Y010700D03*
X018000Y007600D03*
X018000Y006600D03*
X018000Y005600D03*
X018000Y004600D03*
X018000Y003600D03*
X019000Y003600D03*
X019000Y004600D03*
X019000Y005600D03*
X019000Y006600D03*
X019000Y007600D03*
X019000Y008600D03*
X013500Y004500D03*
X012500Y004500D03*
X012500Y005500D03*
X011500Y005500D03*
X011500Y004500D03*
X010500Y004500D03*
X010500Y005500D03*
X009500Y005500D03*
X009500Y004500D03*
X008500Y004500D03*
X008500Y005500D03*
M02*
