G75*
G70*
%OFA0B0*%
%FSLAX24Y24*%
%IPPOS*%
%LPD*%
%AMOC8*
5,1,8,0,0,1.08239X$1,22.5*
%
%ADD10C,0.0100*%
%ADD11C,0.0000*%
D10*
X000500Y000500D02*
X000500Y025000D01*
X023000Y025000D01*
X023000Y000500D01*
X000500Y000500D01*
D11*
X003093Y003350D02*
X003095Y003375D01*
X003101Y003399D01*
X003110Y003421D01*
X003123Y003442D01*
X003139Y003461D01*
X003158Y003477D01*
X003179Y003490D01*
X003201Y003499D01*
X003225Y003505D01*
X003250Y003507D01*
X003275Y003505D01*
X003299Y003499D01*
X003321Y003490D01*
X003342Y003477D01*
X003361Y003461D01*
X003377Y003442D01*
X003390Y003421D01*
X003399Y003399D01*
X003405Y003375D01*
X003407Y003350D01*
X003405Y003325D01*
X003399Y003301D01*
X003390Y003279D01*
X003377Y003258D01*
X003361Y003239D01*
X003342Y003223D01*
X003321Y003210D01*
X003299Y003201D01*
X003275Y003195D01*
X003250Y003193D01*
X003225Y003195D01*
X003201Y003201D01*
X003179Y003210D01*
X003158Y003223D01*
X003139Y003239D01*
X003123Y003258D01*
X003110Y003279D01*
X003101Y003301D01*
X003095Y003325D01*
X003093Y003350D01*
X003014Y020750D02*
X003016Y020780D01*
X003022Y020810D01*
X003031Y020839D01*
X003044Y020866D01*
X003061Y020891D01*
X003080Y020914D01*
X003103Y020935D01*
X003128Y020952D01*
X003154Y020966D01*
X003183Y020976D01*
X003212Y020983D01*
X003242Y020986D01*
X003273Y020985D01*
X003303Y020980D01*
X003332Y020971D01*
X003359Y020959D01*
X003385Y020944D01*
X003409Y020925D01*
X003430Y020903D01*
X003448Y020879D01*
X003463Y020852D01*
X003474Y020824D01*
X003482Y020795D01*
X003486Y020765D01*
X003486Y020735D01*
X003482Y020705D01*
X003474Y020676D01*
X003463Y020648D01*
X003448Y020621D01*
X003430Y020597D01*
X003409Y020575D01*
X003385Y020556D01*
X003359Y020541D01*
X003332Y020529D01*
X003303Y020520D01*
X003273Y020515D01*
X003242Y020514D01*
X003212Y020517D01*
X003183Y020524D01*
X003154Y020534D01*
X003128Y020548D01*
X003103Y020565D01*
X003080Y020586D01*
X003061Y020609D01*
X003044Y020634D01*
X003031Y020661D01*
X003022Y020690D01*
X003016Y020720D01*
X003014Y020750D01*
X020620Y002050D02*
X020622Y002100D01*
X020628Y002150D01*
X020638Y002199D01*
X020652Y002247D01*
X020669Y002294D01*
X020690Y002339D01*
X020715Y002383D01*
X020743Y002424D01*
X020775Y002463D01*
X020809Y002500D01*
X020846Y002534D01*
X020886Y002564D01*
X020928Y002591D01*
X020972Y002615D01*
X021018Y002636D01*
X021065Y002652D01*
X021113Y002665D01*
X021163Y002674D01*
X021212Y002679D01*
X021263Y002680D01*
X021313Y002677D01*
X021362Y002670D01*
X021411Y002659D01*
X021459Y002644D01*
X021505Y002626D01*
X021550Y002604D01*
X021593Y002578D01*
X021634Y002549D01*
X021673Y002517D01*
X021709Y002482D01*
X021741Y002444D01*
X021771Y002404D01*
X021798Y002361D01*
X021821Y002317D01*
X021840Y002271D01*
X021856Y002223D01*
X021868Y002174D01*
X021876Y002125D01*
X021880Y002075D01*
X021880Y002025D01*
X021876Y001975D01*
X021868Y001926D01*
X021856Y001877D01*
X021840Y001829D01*
X021821Y001783D01*
X021798Y001739D01*
X021771Y001696D01*
X021741Y001656D01*
X021709Y001618D01*
X021673Y001583D01*
X021634Y001551D01*
X021593Y001522D01*
X021550Y001496D01*
X021505Y001474D01*
X021459Y001456D01*
X021411Y001441D01*
X021362Y001430D01*
X021313Y001423D01*
X021263Y001420D01*
X021212Y001421D01*
X021163Y001426D01*
X021113Y001435D01*
X021065Y001448D01*
X021018Y001464D01*
X020972Y001485D01*
X020928Y001509D01*
X020886Y001536D01*
X020846Y001566D01*
X020809Y001600D01*
X020775Y001637D01*
X020743Y001676D01*
X020715Y001717D01*
X020690Y001761D01*
X020669Y001806D01*
X020652Y001853D01*
X020638Y001901D01*
X020628Y001950D01*
X020622Y002000D01*
X020620Y002050D01*
M02*
